<svg version="1.2" xmlns="http://www.w3.org/2000/svg" viewBox="0 0 1002 1002" width="1002" height="1002"><style>.a{fill:none;stroke:#083a62;stroke-width:3}</style><g style="opacity:.1"><path fill-rule="evenodd" class="a" d="m598 129.2l-68.3 164.8 164.8 68.2c8.5-20.4 27.9-35 51-36.6-10.4-76.9-40.7-147.6-85.6-206.6-17.4 15.3-41.5 18.6-61.9 10.2z"/><path class="a" d="m659.9 119q1.5-1.3 2.9-2.7c23.3-23.2 23.3-60.9 0-84.1-23.2-23.3-60.9-23.3-84.1 0q-1.4 1.4-2.7 2.9"/><path class="a" d="m472.4 270.2l57.3 23.8 68.3-164.8c-7-2.9-13.6-7.2-19.3-12.9-22.3-22.3-23.2-57.8-2.7-81.2-59-44.9-129.7-75.2-206.6-85.6-2.1 31-27.9 55.5-59.4 55.5-8.1 0-15.8-1.6-22.8-4.5l-68.2 164.7 58.1 24.1"/><path class="a" d="m369.4-50.5q0.1-2 0.1-4c0-32.9-26.6-59.5-59.5-59.5-32.9 0-59.5 26.6-59.5 59.5q0 2 0.1 4"/><path fill-rule="evenodd" class="a" d="m54.2 97l73.8 30.5 139.9-139.9c-9.9-9.9-16.3-23.3-17.3-38.1-76.9 10.4-147.6 40.7-206.6 85.6 15.3 17.4 18.6 41.5 10.2 61.9z"/><path class="a" d="m529.7 294l-23.6 57.1"/><path class="a" d="m509.2 385h180.8c0-8.1 1.6-15.8 4.5-22.8l-164.8-68.2"/><path fill-rule="evenodd" class="a" d="m287.2 0.5c-7.2-3-13.8-7.4-19.3-12.9l-139.9 139.9 91 37.8z"/><path fill-rule="evenodd" class="a" d="m332.8 769.5c7.2 3 13.8 7.4 19.3 12.9l139.9-139.9-91-37.8z"/><path class="a" d="m425.3 546l-24.3 58.7 91 37.8 215.4-215.4c-10.7-10.8-17.4-25.7-17.4-42.1h-180.8-398.4-180.8c0-16.4-6.7-31.3-17.4-42.1l215.4-215.4 91 37.8-23.9 57.7"/><path class="a" d="m113.6 419.6l-23.3 56.4 57.8 24"/><path class="a" d="m576 734.9q1.3 1.5 2.7 2.9c23.2 23.3 60.9 23.3 84.1 0 23.3-23.2 23.3-60.9 0-84.1q-1.4-1.4-2.9-2.7"/><path fill-rule="evenodd" class="a" d="m565.8 673l-73.8-30.5-139.9 139.9c9.9 9.9 16.3 23.3 17.3 38.1 76.9-10.4 147.6-40.7 206.6-85.6-15.3-17.4-18.6-41.5-10.2-61.9z"/><path class="a" d="m250.6 820.5q-0.1 2-0.1 4c0 32.9 26.6 59.5 59.5 59.5 32.9 0 59.5-26.6 59.5-59.5q0-2-0.1-4"/><path class="a" d="m745.5 444.4q2 0.1 4 0.1c32.9 0 59.5-26.6 59.5-59.5 0-32.9-26.6-59.5-59.5-59.5q-2 0-4 0.1"/><path fill-rule="evenodd" class="a" d="m492 642.5l73.8 30.5c2.9-7 7.2-13.6 12.9-19.3 22.3-22.3 57.8-23.2 81.2-2.7 44.9-59 75.2-129.7 85.6-206.6-14.8-1-28.2-7.4-38.1-17.3z"/><path fill-rule="evenodd" class="a" d="m128 127.5l-73.8-30.5c-2.9 7-7.2 13.6-12.9 19.3-22.3 22.3-57.8 23.2-81.2 2.7-44.9 59-75.2 129.7-85.6 206.6 14.8 1 28.2 7.4 38.1 17.3z"/><path class="a" d="m44 35.1q-1.3-1.5-2.7-2.9c-23.2-23.3-60.9-23.3-84.1 0-23.3 23.2-23.3 60.9 0 84.1q1.4 1.4 2.9 2.7"/><path class="a" d="m342.8 580.6l58.2 24.1-68.2 164.8c-7-2.9-14.7-4.5-22.8-4.5-31.5 0-57.3 24.5-59.4 55.5-76.9-10.4-147.6-40.7-206.6-85.6 20.5-23.4 19.6-58.9-2.7-81.2-5.7-5.7-12.3-10-19.3-12.9l68.3-164.8 57.8 24 194.7 80.6 58.2 24.1 24.3-58.7 80.8-194.9 23.6-57.1-57.3-23.8-195.3-80.9-58.1-24.1-23.9 57.8-81.5 196.6-23.3 56.4-164.8-68.2c2.9-7 4.5-14.7 4.5-22.8h180.8"/><path class="a" d="m-125.5 325.6q-2-0.1-4-0.1c-32.9 0-59.5 26.6-59.5 59.5 0 32.9 26.6 59.5 59.5 59.5q2 0 4-0.1"/><path class="a" d="m-39.9 651q-1.5 1.3-2.9 2.7c-23.3 23.2-23.3 60.9 0 84.1 23.2 23.3 60.9 23.3 84.1 0q1.4-1.4 2.7-2.9"/><path fill-rule="evenodd" class="a" d="m22 640.8l68.3-164.8-164.8-68.2c-8.5 20.4-27.9 35-51 36.6 10.4 76.9 40.7 147.6 85.6 206.6 17.4-15.3 41.5-18.6 61.9-10.2z"/></g></svg>