<?xml version="1.0" encoding="UTF-8"?>
<svg width="41px" height="52px" viewBox="0 0 41 52" version="1.1" xmlns="http://www.w3.org/2000/svg" xmlns:xlink="http://www.w3.org/1999/xlink">
    <title>Group 31</title>
    <g id="Page-1" stroke="none" stroke-width="1" fill="none" fill-rule="evenodd">
        <g id="HGF---HIPs" transform="translate(-189.000000, -709.000000)" stroke-width="1.5">
            <g id="Group-31" transform="translate(190.000000, 710.000068)">
                <path d="M34.9651821,50 L3.71390548,50 C1.67125747,50 0,48.3287425 0,46.2860945 L0,3.71390548 C0,1.67125747 1.67125747,0 3.71390548,0 L34.9651821,0 C37.0078302,0 38.6790876,1.67125747 38.6790876,3.71390548 L38.6790876,46.2860945 C38.6790876,48.3287425 37.0078302,50 34.9651821,50 Z" id="Stroke-1" stroke="#083A62"></path>
                <path d="M6.86589706,6.23279998 C6.86589706,7.11299557 6.15251772,7.82637492 5.27232212,7.82637492 C4.39212652,7.82637492 3.67874718,7.11299557 3.67874718,6.23279998 C3.67874718,5.35260438 4.39212652,4.63922503 5.27232212,4.63922503 C6.15251772,4.63922503 6.86589706,5.35260438 6.86589706,6.23279998 Z" id="Stroke-3" stroke="#00C6FF"></path>
                <line x1="9.93760639" y1="6.03831512" x2="34.4571199" y2="6.03831512" id="Stroke-5" stroke="#083A62" stroke-linecap="round"></line>
                <path d="M6.86589706,15.6164155 C6.86589706,16.4966111 6.15251772,17.2099904 5.27232212,17.2099904 C4.39212652,17.2099904 3.67874718,16.4966111 3.67874718,15.6164155 C3.67874718,14.7362199 4.39212652,14.0228405 5.27232212,14.0228405 C6.15251772,14.0228405 6.86589706,14.7362199 6.86589706,15.6164155 Z" id="Stroke-7" stroke="#00C6FF"></path>
                <line x1="9.93760639" y1="15.6164155" x2="34.4571199" y2="15.6164155" id="Stroke-9" stroke="#083A62" stroke-linecap="round"></line>
                <path d="M6.86589706,25.0000619 C6.86589706,25.8802575 6.15251772,26.5936368 5.27232212,26.5936368 C4.39212652,26.5936368 3.67874718,25.8802575 3.67874718,25.0000619 C3.67874718,24.1198663 4.39212652,23.406487 5.27232212,23.406487 C6.15251772,23.406487 6.86589706,24.1198663 6.86589706,25.0000619 Z" id="Stroke-11" stroke="#00C6FF"></path>
                <path d="M6.86589706,34.3836774 C6.86589706,35.263873 6.15251772,35.9772523 5.27232212,35.9772523 C4.39212652,35.9772523 3.67874718,35.263873 3.67874718,34.3836774 C3.67874718,33.5034818 4.39212652,32.7901024 5.27232212,32.7901024 C6.15251772,32.7901024 6.86589706,33.5034818 6.86589706,34.3836774 Z" id="Stroke-13" stroke="#00C6FF"></path>
                <line x1="9.93760639" y1="34.3512736" x2="34.4571199" y2="34.3512736" id="Stroke-15" stroke="#083A62" stroke-linecap="round"></line>
                <path d="M6.86589706,43.7673238 C6.86589706,44.6475194 6.15251772,45.3608988 5.27232212,45.3608988 C4.39212652,45.3608988 3.67874718,44.6475194 3.67874718,43.7673238 C3.67874718,42.8871282 4.39212652,42.1737489 5.27232212,42.1737489 C6.15251772,42.1737489 6.86589706,42.8871282 6.86589706,43.7673238 Z" id="Stroke-17" stroke="#00C6FF"></path>
                <line x1="9.93760639" y1="43.7673238" x2="34.4571199" y2="43.7673238" id="Stroke-19" stroke="#083A62" stroke-linecap="round"></line>
                <line x1="13.2977314" y1="24.9352233" x2="9.93757544" y2="24.9352233" id="Stroke-21" stroke="#083A62" stroke-linecap="round"></line>
                <line x1="34.4571199" y1="24.9352233" x2="25.3812633" y2="24.9352233" id="Stroke-23" stroke="#083A62" stroke-linecap="round"></line>
                <path d="M13.2977314,24.9352233 C13.3689146,26.3839559 13.9507598,27.8122621 15.0571941,28.9186964 C17.422333,31.2838352 21.2569404,31.2838352 23.6217697,28.9186964 C24.728204,27.8122621 25.3100492,26.3839559 25.3812324,24.9352233" id="Stroke-25" stroke="#00C6FF" stroke-linecap="round"></path>
                <path d="M25.3813562,24.9352233 C25.4624431,23.2871777 24.8802884,21.6128254 23.6218935,20.3541209 C21.2567547,17.9889821 17.4221473,17.9889821 15.0573179,20.3541209 C13.7986135,21.6128254 13.2167683,23.2871777 13.2978552,24.9352233" id="Stroke-27" stroke="#00C6FF" stroke-linecap="round"></path>
                <polyline id="Stroke-29" stroke="#083A62" stroke-linecap="round" points="16.0571322 25.3716072 17.7553155 27.0697905 22.6217697 22.2030268"></polyline>
            </g>
        </g>
    </g>
</svg>