<?xml version="1.0" encoding="UTF-8"?>
<svg width="45px" height="52px" viewBox="0 0 45 52" version="1.1" xmlns="http://www.w3.org/2000/svg" xmlns:xlink="http://www.w3.org/1999/xlink">
    <title>Group 12</title>
    <g id="Page-1" stroke="none" stroke-width="1" fill="none" fill-rule="evenodd" stroke-linecap="round" stroke-linejoin="round">
        <g id="HGF---Home---Desktop" transform="translate(-169.000000, -1799.000000)" stroke-width="2">
            <g id="Group-12" transform="translate(170.000000, 1800.000000)">
                <line x1="7.83189398" y1="12.584551" x2="17.5940111" y2="6.48247779" id="Stroke-1" stroke="#00C6FF"></line>
                <line x1="24.7810974" y1="6.4834778" x2="34.5432145" y2="12.585551" id="Stroke-2" stroke="#00C6FF"></line>
                <line x1="17.5938111" y1="22.7542731" x2="7.83169398" y2="17.0762049" id="Stroke-3" stroke="#00C6FF"></line>
                <line x1="34.5432145" y1="17.0768049" x2="24.7810974" y2="22.7548731" id="Stroke-4" stroke="#00C6FF"></line>
                <line x1="24.7810974" y1="27.246327" x2="34.5432145" y2="32.9243951" id="Stroke-5" stroke="#00C6FF"></line>
                <line x1="17.5938111" y1="43.5171222" x2="7.83169398" y2="37.415049" id="Stroke-6" stroke="#00C6FF"></line>
                <line x1="7.83189398" y1="32.9237951" x2="17.5940111" y2="27.2457269" id="Stroke-7" stroke="#00C6FF"></line>
                <path d="M21.1874542,0 C23.5274823,0 25.4255051,1.89802278 25.4255051,4.23805086 C25.4255051,6.57807894 23.5274823,8.47410169 21.1874542,8.47410169 C18.8474262,8.47410169 16.9494034,6.57807894 16.9494034,4.23805086 C16.9494034,1.89802278 18.8474262,0 21.1874542,0 Z" id="Stroke-8" stroke="#083A62"></path>
                <path d="M38.1368576,10.5933271 C40.4768857,10.5933271 42.3749085,12.4913499 42.3749085,14.831378 C42.3749085,17.1714061 40.4768857,19.0674288 38.1368576,19.0674288 C35.7968296,19.0674288 33.8988068,17.1714061 33.8988068,14.831378 C33.8988068,12.4913499 35.7968296,10.5933271 38.1368576,10.5933271 Z" id="Stroke-10" stroke="#083A62"></path>
                <path d="M4.23805086,10.5933271 C6.57807894,10.5933271 8.47610171,12.4913499 8.47610171,14.831378 C8.47610171,17.1714061 6.57807894,19.0674288 4.23805086,19.0674288 C1.89802278,19.0674288 -5.58903525e-14,17.1714061 -5.58903525e-14,14.831378 C-5.58903525e-14,12.4913499 1.89802278,10.5933271 4.23805086,10.5933271 Z" id="Stroke-12" stroke="#083A62"></path>
                <path d="M21.1874542,20.7630492 C23.5274823,20.7630492 25.4255051,22.6610719 25.4255051,25.0011 C25.4255051,27.3411281 23.5274823,29.2371508 21.1874542,29.2371508 C18.8474262,29.2371508 16.9494034,27.3411281 16.9494034,25.0011 C16.9494034,22.6610719 18.8474262,20.7630492 21.1874542,20.7630492 Z" id="Stroke-14" stroke="#083A62"></path>
                <path d="M38.1368576,30.9325712 C40.4768857,30.9325712 42.3749085,32.830594 42.3749085,35.170622 C42.3749085,37.5106501 40.4768857,39.4066729 38.1368576,39.4066729 C35.7968296,39.4066729 33.8988068,37.5106501 33.8988068,35.170622 C33.8988068,32.830594 35.7968296,30.9325712 38.1368576,30.9325712 Z" id="Stroke-16" stroke="#083A62"></path>
                <path d="M4.23805086,30.9325712 C6.57807894,30.9325712 8.47610171,32.830594 8.47610171,35.170622 C8.47610171,37.5106501 6.57807894,39.4066729 4.23805086,39.4066729 C1.89802278,39.4066729 -5.58903525e-14,37.5106501 -5.58903525e-14,35.170622 C-5.58903525e-14,32.830594 1.89802278,30.9325712 4.23805086,30.9325712 Z" id="Stroke-18" stroke="#083A62"></path>
                <path d="M21.1874542,41.5258983 C23.5274823,41.5258983 25.4255051,43.4239211 25.4255051,45.7639492 C25.4255051,48.1039772 23.5274823,50 21.1874542,50 C18.8474262,50 16.9494034,48.1039772 16.9494034,45.7639492 C16.9494034,43.4239211 18.8474262,41.5258983 21.1874542,41.5258983 Z" id="Stroke-20" stroke="#083A62"></path>
            </g>
        </g>
    </g>
</svg>