<?xml version="1.0" encoding="UTF-8"?>
<svg width="52px" height="52px" viewBox="0 0 52 52" version="1.1" xmlns="http://www.w3.org/2000/svg" xmlns:xlink="http://www.w3.org/1999/xlink">
    <title>Group 9</title>
    <g id="Page-1" stroke="none" stroke-width="1" fill="none" fill-rule="evenodd" stroke-linecap="round" stroke-linejoin="round">
        <g id="HGF---Home---Desktop" transform="translate(-649.000000, -1799.000000)" stroke-width="2">
            <g id="Group-9" transform="translate(650.000000, 1800.000000)">
                <line x1="20.2212809" y1="10.00464" x2="29.7793191" y2="10.00464" id="Stroke-44" stroke="#00C6FF"></line>
                <line x1="20.2212809" y1="16.2286649" x2="29.7793191" y2="16.2286649" id="Stroke-46" stroke="#00C6FF"></line>
                <polyline id="Stroke-48" stroke="#00C6FF" points="11.8832475 13.1166525 4.16721667 13.1166525 4.16721667 28.008712"></polyline>
                <polyline id="Stroke-50" stroke="#00C6FF" points="38.1165525 13.1166525 45.8325833 13.1166525 45.8325833 28.008712"></polyline>
                <path d="M50,50.0002 L50,48.1961928 C50,44.748179 47.2059888,41.9541678 43.757975,41.9541678 C42.0339681,41.9541678 40.4739619,42.6541706 39.3439574,43.7821751 C38.2139529,44.9121796 37.5159501,46.4721859 37.5159501,48.1961928 L37.5159501,50.0002 L50,50.0002 Z" id="Stroke-52" stroke="#00C6FF"></path>
                <path d="M31.242125,50.0002 L31.242125,48.1961928 C31.242125,44.748179 28.4481138,41.9541678 25.0001,41.9541678 C23.2760931,41.9541678 21.7160869,42.6541706 20.5860823,43.7821751 C19.4560778,44.9121796 18.758075,46.4721859 18.758075,48.1961928 L18.758075,50.0002 L31.242125,50.0002 Z" id="Stroke-54" stroke="#00C6FF"></path>
                <path d="M12.4840499,50.0002 L12.4840499,48.1961928 C12.4840499,46.4721859 11.7860471,44.9121796 10.6560426,43.7821751 C9.5260381,42.6541706 7.96603186,41.9541678 6.24202497,41.9541678 C2.79401118,41.9541678 0,44.748179 0,48.1961928 L0,50.0002 L12.4840499,50.0002 Z" id="Stroke-56" stroke="#00C6FF"></path>
                <path d="M24.9999,0 C32.243929,0 38.1159525,5.87202349 38.1159525,13.1160525 C38.1159525,20.3600814 32.243929,26.2341049 24.9999,26.2341049 C17.755871,26.2341049 11.8838475,20.3600814 11.8838475,13.1160525 C11.8838475,5.87202349 17.755871,0 24.9999,0 Z" id="Stroke-58" stroke="#083A62"></path>
                <path d="M43.757775,34.2325369 C45.8897836,34.2325369 47.6177905,35.9605438 47.6177905,38.0925524 C47.6177905,40.2265609 45.8897836,41.9545678 43.757775,41.9545678 C41.6257665,41.9545678 39.8977596,40.2265609 39.8977596,38.0925524 C39.8977596,35.9605438 41.6257665,34.2325369 43.757775,34.2325369 Z" id="Stroke-60" stroke="#083A62"></path>
                <path d="M24.9999,34.2325369 C27.1319085,34.2325369 28.8599154,35.9605438 28.8599154,38.0925524 C28.8599154,40.2265609 27.1319085,41.9545678 24.9999,41.9545678 C22.8678915,41.9545678 21.1398846,40.2265609 21.1398846,38.0925524 C21.1398846,35.9605438 22.8678915,34.2325369 24.9999,34.2325369 Z" id="Stroke-62" stroke="#083A62"></path>
                <path d="M6.24182497,34.2325369 C8.3738335,34.2325369 10.1018404,35.9605438 10.1018404,38.0925524 C10.1018404,40.2265609 8.3738335,41.9545678 6.24182497,41.9545678 C4.10981644,41.9545678 2.38180953,40.2265609 2.38180953,38.0925524 C2.38180953,35.9605438 4.10981644,34.2325369 6.24182497,34.2325369 Z" id="Stroke-64" stroke="#083A62"></path>
            </g>
        </g>
    </g>
</svg>