<?xml version="1.0" encoding="UTF-8"?>
<svg width="52px" height="52px" viewBox="0 0 52 52" version="1.1" xmlns="http://www.w3.org/2000/svg" xmlns:xlink="http://www.w3.org/1999/xlink">
    <title>Group 2</title>
    <g id="Page-1" stroke="none" stroke-width="1" fill="none" fill-rule="evenodd" stroke-linecap="round" stroke-linejoin="round">
        <g id="HGF---HIPs" transform="translate(-909.000000, -709.000000)" stroke-width="1.5">
            <g id="Group-2" transform="translate(910.000000, 710.000068)">
                <line x1="39.492391" y1="28.9590152" x2="39.492391" y2="10.9844766" id="Stroke-1" stroke="#083A62"></line>
                <polyline id="Stroke-2" stroke="#083A62" points="39.4792081 49.9994554 39.4792081 50 0 50 0 3.11202964e-05 28.4937434 3.11202964e-05"></polyline>
                <polyline id="Stroke-4" stroke="#083A62" points="28.4937045 3.11202964e-05 28.4937045 10.9844844 39.4791692 10.9844844"></polyline>
                <line x1="39.4788969" y1="10.98492" x2="28.4939768" y2="0" id="Stroke-6" stroke="#083A62"></line>
                <path d="M49.99993,39.4792392 C49.99993,45.2897097 45.2896397,50 39.4791692,50 C33.6686986,50 28.9584861,45.2897097 28.9584861,39.4792392 C28.9584861,33.6687686 33.6686986,28.9584784 39.4791692,28.9584784 C45.2896397,28.9584784 49.99993,33.6687686 49.99993,39.4792392 Z" id="Stroke-8" stroke="#00C6FF"></path>
                <line x1="39.492391" y1="35.1825766" x2="39.492391" y2="39.4792781" id="Stroke-10" stroke="#083A62"></line>
                <line x1="39.492391" y1="39.4792392" x2="39.492391" y2="43.7753961" id="Stroke-12" stroke="#083A62"></line>
                <line x1="35.1827399" y1="39.4921109" x2="39.4794415" y2="39.4921109" id="Stroke-14" stroke="#083A62"></line>
                <line x1="39.4794026" y1="39.4921109" x2="43.7755595" y2="39.4921109" id="Stroke-16" stroke="#083A62"></line>
                <line x1="6.22405151" y1="37.5650333" x2="22.9106767" y2="37.5650333" id="Stroke-18" stroke="#00C6FF"></line>
                <line x1="6.22405151" y1="31.340974" x2="22.9106767" y2="31.340974" id="Stroke-20" stroke="#00C6FF"></line>
                <line x1="32.2178082" y1="25.1169147" x2="24.3049282" y2="25.1169147" id="Stroke-22" stroke="#00C6FF"></line>
                <line x1="18.0808689" y1="25.1169147" x2="6.22403595" y2="25.1169147" id="Stroke-24" stroke="#00C6FF"></line>
                <line x1="32.2178082" y1="18.8928554" x2="19.0207018" y2="18.8928554" id="Stroke-26" stroke="#00C6FF"></line>
                <line x1="12.8941502" y1="18.8928554" x2="6.22405929" y2="18.8928554" id="Stroke-28" stroke="#00C6FF"></line>
                <line x1="6.22405151" y1="12.6687961" x2="22.9106767" y2="12.6687961" id="Stroke-30" stroke="#00C6FF"></line>
            </g>
        </g>
    </g>
</svg>