<?xml version="1.0" encoding="UTF-8"?>
<svg width="70px" height="42px" viewBox="0 0 70 42" version="1.1" xmlns="http://www.w3.org/2000/svg" xmlns:xlink="http://www.w3.org/1999/xlink">
    <title>Group 13</title>
    <g id="Page-1" stroke="none" stroke-width="1" fill="none" fill-rule="evenodd" stroke-linecap="round" stroke-linejoin="round">
        <g id="HGF---Community" transform="translate(-1241.000000, -442.000000)" stroke-width="1.5">
            <g id="Group-13" transform="translate(1242.500000, 443.000000)">
                <path d="M42.0949656,8.31087997 C42.0949656,3.72125208 38.3740721,0 33.7840856,0 C29.191948,0 25.4710544,3.72125208 25.4710544,8.31087997 C25.4710544,12.9005079 29.191948,16.6239112 33.7840856,16.6239112 C38.3740721,16.6239112 42.0949656,12.9005079 42.0949656,8.31087997 Z" id="Stroke-1" stroke="#00C6FF"></path>
                <path d="M20.1914586,34.8809569 C20.1914586,27.3746332 26.2765429,21.2895488 33.7828666,21.2895488 C41.2895488,21.2895488 47.3746332,27.3746332 47.3746332,34.8809569 L47.3746332,39.9997849" id="Stroke-3" stroke="#00C6FF"></path>
                <path d="M61.6177892,10.7530525 C61.6177892,7.12717116 58.678147,4.18788756 55.0526242,4.18788756 C51.4249502,4.18788756 48.4853081,7.12717116 48.4853081,10.7530525 C48.4853081,14.3789338 51.4249502,17.3200101 55.0526242,17.3200101 C58.678147,17.3200101 61.6177892,14.3789338 61.6177892,10.7530525 Z" id="Stroke-5" stroke="#083A62"></path>
                <path d="M47.3933488,24.1336768 C49.5101493,22.4937301 52.1672645,21.5177933 55.0524091,21.5177933 C61.9635619,21.5177933 67.5660559,27.1199287 67.5660559,34.0310815 L67.5660559,40" id="Stroke-7" stroke="#083A62"></path>
                <path d="M5.94826674,10.7530525 C5.94826674,7.12717116 8.88790889,4.18788756 12.5134317,4.18788756 C16.1411057,4.18788756 19.0807478,7.12717116 19.0807478,10.7530525 C19.0807478,14.3789338 16.1411057,17.3200101 12.5134317,17.3200101 C8.88790889,17.3200101 5.94826674,14.3789338 5.94826674,10.7530525 Z" id="Stroke-9" stroke="#083A62"></path>
                <path d="M20.1727071,24.1336768 C18.0559066,22.4937301 15.3987914,21.5177933 12.5136468,21.5177933 C5.60249398,21.5177933 0,27.1199287 0,34.0310815 L0,40" id="Stroke-11" stroke="#083A62"></path>
            </g>
        </g>
    </g>
</svg>