<?xml version="1.0" encoding="UTF-8"?>
<svg width="59px" height="42px" viewBox="0 0 59 42" version="1.1" xmlns="http://www.w3.org/2000/svg" xmlns:xlink="http://www.w3.org/1999/xlink">
    <title>Group 27</title>
    <g id="Page-1" stroke="none" stroke-width="1" fill="none" fill-rule="evenodd" stroke-linecap="round">
        <g id="HGF---Community" transform="translate(-884.000000, -442.000000)" stroke-width="1.5">
            <g id="Group-27" transform="translate(885.000000, 443.000000)">
                <path d="M4.04730022,11.5283428 L0.99576642,11.5283428 C0.445971216,11.5283428 0,11.9740519 0,12.5241093 L0,22.1309742 C0,22.6807694 0.445971216,23.1267406 0.99576642,23.1267406 L4.11337003,23.1267406" id="Stroke-11" stroke="#00C6FF"></path>
                <path d="M6.55192281,9.36240667 C17.9563061,9.36240667 26.4803603,8.31053335 34.3757026,1.22061352" id="Stroke-3" stroke="#083A62"></path>
                <path d="M6.55192281,24.9781635 C5.38914659,24.9781635 4.4117329,24.19424 4.11337003,23.1266358" id="Stroke-5" stroke="#083A62"></path>
                <path d="M4.04730022,11.5283428 C4.22610819,10.3036917 5.27771933,9.36245911 6.55192281,9.36245911" id="Stroke-7" stroke="#083A62"></path>
                <path d="M4.04730022,11.5283428 C4.02973404,11.6489465 4.01741149,11.7713853 4.01741149,11.8967082 L4.01741149,22.4437571 C4.01741149,22.6807694 4.05254385,22.9091298 4.11337003,23.1267406" id="Stroke-9" stroke="#083A62"></path>
                <path d="M18.3156787,25.689856 C15.8176106,25.2986808 13.1792753,25.1083368 10.3631808,25.0281092" id="Stroke-13" stroke="#083A62"></path>
                <path d="M10.363207,25.028214 C9.12780641,24.9930817 7.85963312,24.9781373 6.55187037,24.9781373" id="Stroke-15" stroke="#083A62"></path>
                <path d="M18.3156787,25.689856 C24.278479,26.6234853 29.4494904,28.6962945 34.3756239,33.1198256" id="Stroke-17" stroke="#083A62"></path>
                <polyline id="Stroke-19" stroke="#083A62" points="18.3156787 25.689856 22.5504389 40 15.0043227 40 10.3631808 25.0281092"></polyline>
                <line x1="45.2403322" y1="17.0829524" x2="56.7162911" y2="17.0829524" id="Stroke-21" stroke="#083A62"></line>
                <line x1="45.2403322" y1="10.4503562" x2="53.3551206" y2="2.33556778" id="Stroke-23" stroke="#083A62"></line>
                <line x1="45.2403322" y1="23.7155485" x2="53.3551206" y2="31.8303369" id="Stroke-25" stroke="#083A62"></line>
                <path d="M36.7933857,34.1659571 L36.0802512,34.1659571 C35.1387564,34.1659571 34.3755453,33.402746 34.3755453,32.4615134 L34.3755453,1.70444378 C34.3755453,0.763211176 35.1387564,0 36.0802512,0 L36.7933857,0 C37.7348805,0 38.4978295,0.763211176 38.4978295,1.70444378 L38.4978295,32.4615134 C38.4978295,33.402746 37.7348805,34.1659571 36.7933857,34.1659571 Z" id="Stroke-1" stroke="#00C6FF"></path>
            </g>
        </g>
    </g>
</svg>