<?xml version="1.0" encoding="UTF-8"?>
<svg width="1048px" height="1098px" viewBox="0 0 1048 1098" version="1.1" xmlns="http://www.w3.org/2000/svg" xmlns:xlink="http://www.w3.org/1999/xlink">
    <title>Group 225</title>
    <g id="Page-1" stroke="none" stroke-width="1" fill="none" fill-rule="evenodd" opacity="0.1">
        <g id="HGF---Home---Desktop" transform="translate(164.000000, -1981.000000)" stroke="#083A62" stroke-width="1.5">
            <g id="Group-225" transform="translate(-163.000000, 1982.309505)">
                <path d="M645.660982,669.0023 C636.935952,681.367805 636.791832,697.898379 645.263211,710.338826" id="Stroke-1"></path>
                <line x1="359.416568" y1="747.274212" x2="380.726165" y2="717.79877" id="Stroke-3"></line>
                <path d="M395.635101,750.000388 C394.983678,758.356471 391.484442,766.53961 385.082628,772.938542 C382.964062,775.05999 380.629317,776.82402 378.176393,778.314221" id="Stroke-5"></path>
                <line x1="395.635101" y1="750.000388" x2="359.417721" y2="747.273635" id="Stroke-7"></line>
                <path d="M395.635101,750.000388 C396.430644,739.79092 392.960232,729.322037 385.163335,721.528022 C383.771135,720.132939 382.272286,718.919448 380.724436,717.801076" id="Stroke-9"></path>
                <line x1="405.516551" y1="683.505106" x2="380.725013" y2="717.799923" id="Stroke-11"></line>
                <path d="M599.401603,781.12341 C606.37125,769.121089 605.95042,754.03748 598.081462,742.481931" id="Stroke-13"></path>
                <line x1="645.262634" y1="710.337673" x2="598.08348" y2="742.482219" id="Stroke-15"></line>
                <line x1="645.660982" y1="669.0023" x2="615.60906" y2="647.894471" id="Stroke-17"></line>
                <line x1="654.933093" y1="496.687415" x2="632.291826" y2="505.841924" id="Stroke-19"></line>
                <line x1="402.25569" y1="818.155069" x2="378.176105" y2="778.31451" id="Stroke-21"></line>
                <path d="M539.528639,396.265398 C563.928171,402.9641 591.172633,396.717935 610.386724,377.503844 C611.519508,376.37106 612.591762,375.197923 613.635191,374.010373" id="Stroke-23"></path>
                <line x1="667.862971" y1="421.551557" x2="613.636344" y2="374.00922" id="Stroke-25"></line>
                <path d="M725.366024,299.293328 C764.439864,299.829455 803.729884,285.1955 833.59445,255.330934 C892.14468,196.780705 892.303212,102.013095 833.951868,43.6646341 C775.597642,-14.6924746 680.830032,-14.5339425 622.279803,44.0162871 C563.732456,102.563634 563.573923,197.331244 621.931032,255.688352 C622.712163,256.469483 623.527883,257.201613 624.323426,257.962567" id="Stroke-27"></path>
                <path d="M539.528639,396.265398 C527.814557,393.048638 516.754781,386.863003 507.559919,377.668141 C479.211497,349.319719 479.286439,303.281996 507.724216,274.844219 C535.787281,246.781154 580.963166,246.351676 609.395178,273.567315" id="Stroke-29"></path>
                <path d="M725.366024,299.293328 C688.869051,298.79179 652.585376,285.016791 624.323426,257.962567" id="Stroke-31"></path>
                <polyline id="Stroke-33" points="725.366024 299.293328 727.942891 149.676493 624.323426 257.962567"></polyline>
                <path d="M380.724724,717.799635 C367.511794,708.247355 349.312308,708.662421 336.511562,719.11401" id="Stroke-35"></path>
                <line x1="624.32429" y1="257.962567" x2="609.393449" y2="273.565009" id="Stroke-37"></line>
                <polyline id="Stroke-39" points="609.394313 273.565873 559.061812 326.166826 539.527774 396.263957"></polyline>
                <path d="M613.634903,374.010662 C638.775212,345.405705 637.775019,301.890084 610.556498,274.671563 C610.176021,274.291086 609.781132,273.93655 609.39489,273.564721" id="Stroke-41"></path>
                <line x1="613.634903" y1="374.010662" x2="559.059506" y2="326.165673" id="Stroke-43"></line>
                <line x1="645.262634" y1="710.337673" x2="675.340498" y2="689.846678" id="Stroke-45"></line>
                <line x1="685.320814" y1="724.765824" x2="675.339057" y2="689.848407" id="Stroke-47"></line>
                <line x1="654.933093" y1="496.687415" x2="722.436062" y2="469.396834" id="Stroke-49"></line>
                <path d="M701.651062,781.899065 C724.445097,775.335836 749.766997,780.11774 768.741849,796.241896" id="Stroke-51"></path>
                <line x1="722.437215" y1="469.39597" x2="773.366374" y2="521.106259" id="Stroke-53"></line>
                <line x1="682.93505" y1="654.291674" x2="707.236581" y2="540.543448" id="Stroke-55"></line>
                <line x1="711.018869" y1="682.761158" x2="749.423991" y2="675.134322" id="Stroke-57"></line>
                <line x1="675.339345" y1="689.847543" x2="645.662135" y2="669.002012" id="Stroke-59"></line>
                <line x1="336.512138" y1="719.113722" x2="359.415704" y2="747.274788" id="Stroke-61"></line>
                <line x1="206.778688" y1="686.960817" x2="213.866514" y2="669.758643" id="Stroke-63"></line>
                <line x1="359.416568" y1="747.274212" x2="378.178122" y2="778.314798" id="Stroke-65"></line>
                <path d="M791.498123,539.517602 C850.106001,481.774444 944.259659,481.863799 1002.33717,539.944197 C1060.68852,598.292658 1060.53575,693.068915 1001.9884,751.616262 C946.358047,807.246619 858.047018,810.114609 799.326727,760.214467" id="Stroke-67"></path>
                <line x1="531.782184" y1="760.249344" x2="567.999563" y2="762.976096" id="Stroke-69"></line>
                <line x1="555.361961" y1="728.957413" x2="567.99841" y2="762.97552" id="Stroke-71"></line>
                <line x1="479.561132" y1="946.065688" x2="544.746651" y2="811.111631" id="Stroke-73"></line>
                <line x1="768.742713" y1="796.241896" x2="799.32788" y2="760.214755" id="Stroke-75"></line>
                <path d="M723.688466,396.706982 C704.704967,396.444684 685.617702,403.555569 671.107691,418.06558 C669.974907,419.198364 668.905536,420.365737 667.862106,421.550404" id="Stroke-77"></path>
                <line x1="701.651062" y1="781.899065" x2="721.61746" y2="851.751192" id="Stroke-79"></line>
                <line x1="539.528639" y1="396.265398" x2="533.547655" y2="417.727763" id="Stroke-81"></line>
                <path d="M667.862971,421.551557 C649.30895,442.656504 644.985347,471.878294 654.932516,496.687127" id="Stroke-83"></path>
                <path d="M773.366086,521.107412 C773.498677,520.977704 773.637032,520.856643 773.76674,520.726935 C802.213164,492.280511 802.288107,446.242788 773.939684,417.894366 C760.052272,404.006953 741.919082,396.959481 723.68789,396.705829" id="Stroke-85"></path>
                <line x1="725.366024" y1="299.293328" x2="723.688466" y2="396.706982" id="Stroke-87"></line>
                <polyline id="Stroke-89" points="653.79022 878.179647 721.618901 851.750904 768.74329 796.241608"></polyline>
                <path d="M653.79022,878.179647 C657.31828,887.316861 662.748725,895.886242 670.116145,903.253661 C698.464567,931.602083 744.505172,931.527141 772.948714,903.080717 C801.392256,874.637175 801.470081,828.596569 773.118776,800.248147 C771.706399,798.83577 770.239257,797.512747 768.74329,796.241608" id="Stroke-91"></path>
                <line x1="658.747087" y1="815.418804" x2="721.618037" y2="851.75148" id="Stroke-93"></line>
                <line x1="791.498123" y1="539.517602" x2="773.364933" y2="521.107701" id="Stroke-95"></line>
                <line x1="722.437215" y1="469.39597" x2="667.861818" y2="421.550981" id="Stroke-97"></line>
                <line x1="479.561132" y1="946.065688" x2="619.176032" y2="891.666117" id="Stroke-99"></line>
                <line x1="552.179789" y1="795.725658" x2="544.746074" y2="811.11192" id="Stroke-101"></line>
                <path d="M378.177257,778.31451 C364.177432,786.817595 345.730059,785.082389 333.67009,773.02242 C329.85379,769.20612 327.101096,764.738397 325.345713,759.985316" id="Stroke-103"></path>
                <polyline id="Stroke-105" points="799.327592 760.21562 896.32618 645.954327 791.498988 539.518755"></polyline>
                <path d="M402.25569,818.155069 C392.164401,824.285937 382.623651,831.682181 373.901503,840.404329 C357.979114,856.326717 346.412036,874.935503 339.128206,894.754899" id="Stroke-107"></path>
                <line x1="402.25569" y1="818.155069" x2="479.561709" y2="946.064535" id="Stroke-109"></line>
                <line x1="395.635101" y1="750.000388" x2="531.782472" y2="760.250209" id="Stroke-111"></line>
                <line x1="479.561132" y1="946.065688" x2="339.12763" y2="894.753169" id="Stroke-113"></line>
                <path d="M402.25569,818.155069 C445.702134,791.760914 499.571343,789.405992 544.747227,811.113361" id="Stroke-115"></path>
                <line x1="599.401603" y1="781.12341" x2="567.997834" y2="762.975808" id="Stroke-117"></line>
                <line x1="598.082904" y1="742.480778" x2="567.999275" y2="762.974655" id="Stroke-119"></line>
                <path d="M599.401603,781.12341 C597.845105,783.804044 595.960015,786.346323 593.665623,788.640714 C582.421373,799.882082 565.70056,802.222592 552.179212,795.725658" id="Stroke-121"></path>
                <path d="M555.361961,728.957413 C550.614645,730.73009 546.152686,733.491431 542.333504,737.310613 C535.934572,743.712428 532.432453,751.895567 531.781031,760.248768" id="Stroke-123"></path>
                <path d="M632.290385,505.841636 C625.015202,487.694033 614.041898,470.696509 599.353178,456.004907 C580.427327,437.079056 557.659235,424.347487 533.547943,417.729492 C483.324972,403.940082 427.239197,416.801359 387.683995,456.35656 C352.403396,491.637159 338.360334,540.064393 345.511573,585.756228 C350.230065,615.89174 364.143419,644.839702 387.332342,668.028625 C393.062557,673.75884 399.153073,678.903927 405.517416,683.504241 C446.557054,713.181451 499.322303,719.375732 545.403262,702.156263 C564.9373,694.858022 583.278023,683.388945 598.99576,667.671207 C605.204454,661.462514 610.715606,654.830107 615.609925,647.895048 C645.258311,605.88404 650.85017,552.135892 632.290385,505.841636 Z" id="Stroke-125"></path>
                <path d="M598.082904,742.480778 C596.823294,740.630276 595.393623,738.860481 593.753536,737.220394 C583.385536,726.852395 568.29328,724.125642 555.362825,728.956548" id="Stroke-127"></path>
                <line x1="545.404415" y1="702.156552" x2="555.363113" y2="728.957124" id="Stroke-129"></line>
                <path d="M531.782184,760.249344 C530.986641,770.458812 534.457053,780.927695 542.251067,788.724592 C545.222824,791.693466 548.595234,794.00227 552.180942,795.725947" id="Stroke-131"></path>
                <path d="M206.778688,686.960817 C224.574637,694.236 241.24645,705.079595 255.684401,719.517546 C271.393491,735.226637 282.819332,753.584654 290.048396,773.156163" id="Stroke-133"></path>
                <path d="M213.867955,669.759507 C237.985012,679.617322 266.365141,675.945142 287.418204,658.754497" id="Stroke-135"></path>
                <line x1="241.612227" y1="602.441588" x2="287.416475" y2="658.755073" id="Stroke-137"></line>
                <line x1="290.048684" y1="773.155299" x2="149.669948" y2="825.528541" id="Stroke-139"></line>
                <line x1="359.416568" y1="747.274212" x2="325.346578" y2="759.985604" id="Stroke-141"></line>
                <polyline id="Stroke-143" points="228.175622 952.678206 149.670524 825.529694 206.779553 686.961105"></polyline>
                <path d="M206.778688,686.960817 C152.650063,664.829735 88.0813782,675.811687 44.0181005,719.874964 C-14.5292466,778.422311 -14.6964259,873.184156 43.6606827,931.541265 C93.6645907,981.54229 170.394129,988.53788 228.174757,952.677918" id="Stroke-145"></path>
                <path d="M287.417052,658.755362 C289.319437,657.201747 291.161292,655.538601 292.936851,653.765924 C310.07273,636.627162 316.895376,613.103881 313.422081,590.909386" id="Stroke-147"></path>
                <path d="M336.512138,719.113722 C335.560946,719.889088 334.638577,720.722102 333.750797,721.609882 C323.359738,732.003823 320.578221,747.081668 325.345713,759.986181" id="Stroke-149"></path>
                <line x1="336.512138" y1="719.113722" x2="287.416187" y2="658.756226" id="Stroke-151"></line>
                <path d="M213.867955,669.759507 C205.223632,666.225683 197.124083,660.956652 190.108317,653.943768 C161.759894,625.595346 161.837719,579.557623 190.281261,551.111198 C218.719038,522.673421 264.759643,522.598479 293.108066,550.946902 C304.372492,562.211328 311.131725,576.271685 313.423234,590.908521" id="Stroke-153"></path>
                <line x1="345.512438" y1="585.756804" x2="313.422658" y2="590.910539" id="Stroke-155"></line>
                <polyline id="Stroke-157" points="213.867955 669.759507 241.611074 602.441011 313.423234 590.908521"></polyline>
                <line x1="552.179789" y1="795.725658" x2="567.99841" y2="762.975808" id="Stroke-159"></line>
                <line x1="675.339345" y1="689.847543" x2="711.017716" y2="682.759716" id="Stroke-161"></line>
                <path d="M685.320814,724.765824 C691.059677,723.114208 696.478592,720.038685 701.003963,715.513314 C709.91635,706.600927 713.251289,694.238305 711.02031,682.760581" id="Stroke-163"></path>
                <line x1="675.339345" y1="689.847543" x2="682.934474" y2="654.290233" id="Stroke-165"></line>
                <path d="M682.93505,654.291674 C689.590516,655.686757 695.926036,658.940988 701.085535,664.100488 C706.380507,669.392578 709.686622,675.921218 711.018292,682.761158" id="Stroke-167"></path>
                <path d="M645.262634,710.337673 C646.522244,712.188175 647.951915,713.955087 649.589119,715.595174 C659.253813,725.259868 673.025929,728.303684 685.319373,724.766977" id="Stroke-169"></path>
                <path d="M619.176032,891.666405 C611.91238,872.85585 600.737308,855.218433 585.572991,840.054117 C573.345842,827.826968 559.504549,818.202628 544.746651,811.11192" id="Stroke-171"></path>
                <line x1="685.320814" y1="724.765824" x2="701.652504" y2="781.897912" id="Stroke-173"></line>
                <polyline id="Stroke-175" points="707.237157 540.542872 722.436062 469.396546 723.689907 396.708135"></polyline>
                <path d="M791.498123,539.517602 C791.227178,539.785665 790.944702,540.030669 790.673757,540.301615 C753.99231,576.983061 740.237488,627.880514 749.423703,675.131728" id="Stroke-177"></path>
                <line x1="896.327045" y1="645.955191" x2="749.425433" y2="675.133746" id="Stroke-179"></line>
                <path d="M799.327592,760.21562 C796.246304,757.598399 793.222665,754.874529 790.317203,751.966186 C768.523363,730.175227 754.901131,703.302595 749.424568,675.132881" id="Stroke-181"></path>
                <path d="M654.933093,496.687415 C658.4698,505.5018 663.799361,513.762764 670.936188,520.896709 C681.258069,531.221472 693.926225,537.755878 707.237157,540.54316" id="Stroke-183"></path>
                <path d="M645.660982,669.0023 C646.851414,667.316095 648.165789,665.690421 649.673286,664.182924 C658.718263,655.137947 671.314359,651.854892 682.936203,654.290521" id="Stroke-185"></path>
                <line x1="599.401603" y1="781.12341" x2="658.747375" y2="815.418228" id="Stroke-187"></line>
                <path d="M773.366086,521.107412 C755.307838,538.900479 730.311649,545.377236 707.238022,540.543448" id="Stroke-189"></path>
                <path d="M701.651062,781.899065 C690.17622,785.202297 679.338389,791.370637 670.287647,800.421379 C665.698864,805.010163 661.859504,810.063014 658.74651,815.418516" id="Stroke-191"></path>
                <path d="M290.095379,876.837889 C302.385941,843.396262 302.371529,806.513047 290.049261,773.15501" id="Stroke-193"></path>
                <line x1="290.048684" y1="773.155299" x2="325.346578" y2="759.985604" id="Stroke-195"></line>
                <line x1="290.095379" y1="876.837889" x2="339.127918" y2="894.754899" id="Stroke-197"></line>
                <path d="M658.747087,815.418804 C647.583544,834.635778 645.931928,857.830466 653.789356,878.180223" id="Stroke-199"></path>
                <line x1="653.79022" y1="878.179647" x2="619.175456" y2="891.666405" id="Stroke-201"></line>
                <path d="M339.017234,997.999652 C346.23765,1017.73546 357.724022,1036.24913 373.548408,1052.07639 C431.899752,1110.42486 526.667361,1110.26632 585.214709,1051.71898 C628.545856,1008.38783 639.856401,945.228638 619.175168,891.664964" id="Stroke-203"></path>
                <path d="M228.175622,952.678206 C237.817256,946.69434 246.951588,939.557513 255.324965,931.181253 C271.244471,915.261747 282.81155,896.65296 290.095379,876.83933" id="Stroke-205"></path>
                <line x1="305.65862" y1="1010.32624" x2="339.016657" y2="998.001093" id="Stroke-207"></line>
                <path d="M339.128494,894.753746 C326.892698,928.04837 326.852345,964.758641 339.016081,997.998499" id="Stroke-209"></path>
                <line x1="228.175622" y1="952.678206" x2="252.497329" y2="992.071993" id="Stroke-211"></line>
                <line x1="479.561132" y1="946.065688" x2="339.018098" y2="998.000805" id="Stroke-213"></line>
                <path d="M305.65862,1010.32624 C303.90612,1005.53281 301.141896,1001.02762 297.299655,997.182491 C285.150331,985.03605 266.532897,983.361374 252.498482,992.071993" id="Stroke-215"></path>
                <line x1="149.671101" y1="825.529117" x2="290.095956" y2="876.838753" id="Stroke-217"></line>
                <polyline id="Stroke-219" points="305.65862 1010.32624 271.551159 1022.93099 252.498482 992.071993"></polyline>
                <path d="M305.65862,1010.32624 C310.371347,1023.20482 307.581182,1038.23078 297.216065,1048.59589 C282.991412,1062.81766 259.975433,1062.85225 245.802662,1048.6766 C231.62701,1034.50383 231.670246,1011.49362 245.892017,997.271846 C247.926993,995.23687 250.155089,993.527606 252.498482,992.071993" id="Stroke-221"></path>
                <path d="M447.273331,573.218356 L541.455813,573.218356 L541.455813,549.770017 L447.273331,549.770017 L447.273331,573.218356 Z M540.44409,532.714845 L446.267373,532.714845 L446.267373,488.305679 L424.882833,488.305679 L424.882833,635.726124 L446.267373,635.726124 L446.267373,590.270646 L540.44409,590.270646 L540.44409,635.726124 L561.814217,635.726124 L561.814217,488.305679 L540.44409,488.305679 L540.44409,532.714845 Z" id="Stroke-223"></path>
            </g>
        </g>
    </g>
</svg>