<?xml version="1.0" encoding="UTF-8"?>
<svg width="820px" height="343px" viewBox="0 0 820 343" version="1.1" xmlns="http://www.w3.org/2000/svg" xmlns:xlink="http://www.w3.org/1999/xlink">
    <title>Fill 4</title>
    <defs>
        <linearGradient x1="41.2785399%" y1="-6.24500451e-14%" x2="58.7214601%" y2="100%" id="linearGradient-1">
            <stop stop-color="#00C6FF" offset="0%"></stop>
            <stop stop-color="#0072FF" offset="100%"></stop>
        </linearGradient>
    </defs>
    <g id="Page-1" stroke="none" stroke-width="1" fill="none" fill-rule="evenodd">
        <g id="HGF---About" transform="translate(0.000000, -731.000000)" fill="url(#linearGradient-1)">
            <g id="Fill-4" transform="translate(-0.000152, 731.529282)">
                <path d="M578.957691,185.656007 C578.957691,198.423713 568.568744,208.812659 555.800279,208.813418 C546.276129,208.813418 537.835442,203.096195 534.296534,194.248545 C533.198645,191.504582 532.642867,188.614081 532.642867,185.656007 C532.642867,181.999413 533.476534,178.493913 535.120331,175.238208 C539.086702,167.380633 547.011092,162.498595 555.800279,162.498595 C568.568744,162.498595 578.957691,172.887541 578.957691,185.656007 L578.957691,185.656007 Z M578.957691,385.910673 C578.957691,398.678379 568.568744,409.067326 555.800279,409.068085 C551.075408,409.068085 546.528203,407.650548 542.649147,404.968084 C536.383738,400.63575 532.642867,393.51086 532.642867,385.910673 C532.642867,377.681061 537.075424,370.000393 544.210184,365.865466 C547.723277,363.829132 551.731408,362.753262 555.800279,362.753262 C568.568744,362.753262 578.957691,373.142208 578.957691,385.910673 L578.957691,385.910673 Z M578.957691,533.958664 C578.957691,546.727888 568.568744,557.116075 555.800279,557.116075 C543.031814,557.116075 532.642867,546.727888 532.642867,533.958664 C532.642867,529.901181 533.713423,525.902921 535.739127,522.395902 C539.871776,515.244438 547.558518,510.801252 555.800279,510.801252 C568.568744,510.801252 578.957691,521.190198 578.957691,533.958664 L578.957691,533.958664 Z M482.701062,514.979456 C469.931837,514.979456 459.54365,504.591269 459.54365,491.822045 C459.54365,479.053579 469.931837,468.664633 482.701062,468.664633 C487.425174,468.664633 491.973137,470.08217 495.852194,472.765393 C502.117602,477.097727 505.858473,484.221858 505.858473,491.822045 C505.858473,495.880286 504.787158,499.878546 502.761454,503.384047 L503.746973,503.954251 L502.761454,503.384806 C498.629565,510.53703 490.942822,514.979456 482.701062,514.979456 L482.701062,514.979456 Z M433.135089,515.230771 C433.135089,527.999996 422.746902,538.388183 409.977678,538.388183 C397.209212,538.388183 386.820266,527.999996 386.820266,515.230771 C386.820266,502.462306 397.209212,492.07336 409.977678,492.07336 C415.060919,492.07336 419.886013,493.691341 423.932106,496.751916 C429.780681,501.175361 433.135089,507.911511 433.135089,515.230771 L433.135089,515.230771 Z M360.246187,441.713202 C360.246187,454.481667 349.858,464.870614 337.088775,464.870614 C333.226423,464.870614 329.403552,463.90104 326.033959,462.066669 C318.56892,458.002353 313.931364,450.204 313.931364,441.713202 C313.931364,428.944737 324.32031,418.55579 337.088775,418.55579 C341.197887,418.55579 345.239425,419.651402 348.776815,421.724939 C355.851594,425.871255 360.246187,433.529904 360.246187,441.713202 L360.246187,441.713202 Z M241.042461,491.822045 C241.042461,479.053579 251.431408,468.664633 264.199873,468.664633 C267.832929,468.664633 271.316411,469.486911 274.555412,471.109448 C282.45171,475.066708 287.357285,483.003247 287.357285,491.822045 C287.357285,498.789768 284.261784,505.321677 278.864209,509.743604 C274.74219,513.12003 269.535189,514.979456 264.199873,514.979456 C251.431408,514.979456 241.042461,504.591269 241.042461,491.822045 L241.042461,491.822045 Z M241.042461,315.673864 C241.042461,302.905399 251.431408,292.516452 264.199873,292.516452 C273.083967,292.516452 281.045561,297.472138 284.978525,305.447399 C286.557025,308.648437 287.357285,312.088641 287.357285,315.673864 C287.357285,318.758735 286.758988,321.756291 285.579858,324.583014 L286.629914,325.021866 L285.579099,324.583773 C281.967302,333.238571 273.575967,338.831276 264.199873,338.831276 C251.431408,338.831276 241.042461,328.443089 241.042461,315.673864 L241.042461,315.673864 Z M241.042461,242.025702 C241.042461,229.257237 251.431408,218.868291 264.199873,218.868291 C269.876856,218.868291 275.339727,220.946384 279.582468,224.721421 C284.523729,229.116774 287.357285,235.423942 287.357285,242.025702 C287.357285,245.751388 286.493247,249.31763 284.78871,252.623445 C280.791209,260.370169 272.901745,265.183114 264.199873,265.183114 C251.431408,265.183114 241.042461,254.794927 241.042461,242.025702 L241.042461,242.025702 Z M241.042461,13.1234191 C241.042461,0.35419451 251.431408,-10.0339926 264.199873,-10.0339926 C276.969098,-10.0339926 287.357285,0.35419451 287.357285,13.1234191 C287.357285,21.9741059 282.427413,29.9227926 274.491634,33.8679044 C271.271615,35.4691825 267.808633,36.2808308 264.199873,36.2808308 C251.431408,36.2808308 241.042461,25.8926437 241.042461,13.1234191 L241.042461,13.1234191 Z M241.042461,-123.282088 C241.042461,-136.050553 251.431408,-146.439499 264.199873,-146.439499 C276.969098,-146.439499 287.357285,-136.050553 287.357285,-123.282088 C287.357285,-110.512863 276.969098,-100.124676 264.199873,-100.124676 C251.431408,-100.124676 241.042461,-110.512863 241.042461,-123.282088 L241.042461,-123.282088 Z M313.931364,13.1234191 C313.931364,0.35419451 324.32031,-10.0339926 337.088775,-10.0339926 C349.858,-10.0339926 360.246187,0.35419451 360.246187,13.1234191 C360.246187,19.0008461 358.037501,24.6064583 354.026334,28.9076628 C349.657555,33.5938118 343.484017,36.2808308 337.088775,36.2808308 C324.32031,36.2808308 313.931364,25.8926437 313.931364,13.1234191 L313.931364,13.1234191 Z M313.931364,-68.8196516 C313.931364,-81.588117 324.32031,-91.9770633 337.088775,-91.9770633 C349.858,-91.9770633 360.246187,-81.588117 360.246187,-68.8196516 C360.246187,-56.050427 349.858,-45.6622399 337.088775,-45.6622399 C324.32031,-45.6622399 313.931364,-56.050427 313.931364,-68.8196516 L313.931364,-68.8196516 Z M313.931364,-194.097453 C313.931364,-206.865918 324.32031,-217.254864 337.088775,-217.254864 C349.858,-217.254864 360.246187,-206.865918 360.246187,-194.097453 C360.246187,-187.573137 357.471853,-181.317598 352.633852,-176.933635 C348.369092,-173.068245 342.847758,-170.940041 337.088775,-170.940041 C324.32031,-170.940041 313.931364,-181.328228 313.931364,-194.097453 L313.931364,-194.097453 Z M433.135089,-113.615956 C433.135089,-111.844604 432.927812,-110.060344 432.518571,-108.313289 C430.054774,-97.8005829 420.785735,-90.4585445 409.977678,-90.4585445 C397.209212,-90.4585445 386.820266,-100.846732 386.820266,-113.615956 C386.820266,-120.139513 389.595359,-126.39581 394.43336,-130.780533 C398.69812,-134.644405 404.218695,-136.773368 409.977678,-136.773368 C422.746902,-136.773368 433.135089,-126.384422 433.135089,-113.615956 L433.135089,-113.615956 Z M459.54365,-140.255332 C459.54365,-153.024556 469.931837,-163.412743 482.701062,-163.412743 C495.469527,-163.412743 505.858473,-153.024556 505.858473,-140.255332 C505.858473,-127.486107 495.469527,-117.09792 482.701062,-117.09792 C469.931837,-117.09792 459.54365,-127.486107 459.54365,-140.255332 L459.54365,-140.255332 Z M555.800279,-102.475343 C568.568744,-102.475343 578.957691,-92.0871559 578.957691,-79.3179314 C578.957691,-66.5487068 568.568744,-56.1605197 555.800279,-56.1605197 C549.869704,-56.1605197 544.226888,-58.4056497 539.90898,-62.4828727 C535.222831,-66.9070772 532.642867,-72.886245 532.642867,-79.3179314 C532.642867,-81.0892835 532.850145,-82.8735431 533.259386,-84.620599 C535.723942,-95.1333047 544.992981,-102.475343 555.800279,-102.475343 L555.800279,-102.475343 Z M578.957691,33.0524598 C578.957691,45.8216844 568.568744,56.2098715 555.800279,56.2098715 C547.83337,56.2098715 540.520943,52.1842782 536.240238,45.4420547 L536.240238,45.4420547 C533.887293,41.7345911 532.642867,37.4500903 532.642867,33.0524598 C532.642867,29.5575888 533.402886,26.197866 534.900905,23.0666802 L534.901664,23.0666802 C538.732887,15.0648454 546.935925,9.89504813 555.800279,9.89504813 C568.568744,9.89504813 578.957691,20.2832352 578.957691,33.0524598 L578.957691,33.0524598 Z M483.839951,213.185993 L483.839951,174.224597 C492.654952,173.836616 500.542898,168.978115 504.866121,161.271632 L532.602626,175.244282 C531.122071,178.525802 530.365089,182.021432 530.365089,185.656007 C530.365089,188.523729 530.842663,191.333748 531.783386,194.026841 L483.839951,213.185993 Z M459.54365,418.936939 C459.54365,415.300086 460.368206,411.813567 461.993021,408.573048 C465.95104,400.681306 473.885301,395.779527 482.701062,395.779527 C495.469527,395.779527 505.858473,406.168473 505.858473,418.936939 C505.858473,431.704645 495.469527,442.093591 482.701062,442.09435 C477.61782,442.09435 472.792726,440.476369 468.746633,437.415794 C462.898058,432.992349 459.54365,426.256959 459.54365,418.936939 L459.54365,418.936939 Z M398.140824,339.571554 C401.44588,341.312535 405.100955,342.303369 408.838789,342.471165 L408.838789,380.691524 L381.961765,367.238207 L398.140824,339.571554 Z M335.949886,281.630191 L335.949886,320.659161 C326.496347,321.077513 318.112605,326.664903 314.085493,335.230108 L288.093766,324.397755 C289.115729,321.606717 289.635063,318.677494 289.635063,315.673864 C289.635063,312.119771 288.912248,308.69627 287.496988,305.47701 L335.949886,281.630191 Z M321.061569,179.777061 C325.293681,183.214988 330.505996,185.198932 335.949886,185.442655 L335.949886,277.682042 L287.305655,252.639389 C288.846952,249.299407 289.635063,245.736203 289.635063,242.025702 C289.635063,235.154405 286.837192,228.5777 281.927061,223.798921 L321.061569,179.777061 Z M360.246187,160.03252 C360.246187,172.801745 349.858,183.190691 337.088775,183.190691 C331.413311,183.190691 325.95044,181.111839 321.706939,177.336801 C316.765679,172.940689 313.931364,166.633522 313.931364,160.03252 C313.931364,151.182593 318.861994,143.233147 326.797773,139.288035 C330.017793,137.687516 333.480015,136.875109 337.088775,136.875109 C349.858,136.875109 360.246187,147.264055 360.246187,160.03252 L360.246187,160.03252 Z M503.543491,64.8084842 C498.992491,58.2887238 491.766619,54.3109638 483.839951,53.9609452 L483.839951,23.513884 C492.755175,23.1069209 500.906584,17.9690126 505.124269,10.0977704 L532.38396,23.1243839 C531.047663,26.26544 530.365089,29.5985888 530.365089,33.0524598 C530.365089,37.5017199 531.537385,41.8386096 533.740756,45.6789436 L503.543491,64.8084842 Z M482.701062,-25.0377176 C488.630878,-25.0377176 494.275212,-22.7925876 498.591602,-18.7153646 C503.277751,-14.2904008 505.858473,-8.31123302 505.858473,-1.8803059 C505.858473,1.61456511 505.098455,4.97428796 503.598917,8.10547372 L504.626195,8.59747381 L503.598917,8.10547372 C499.767694,16.1065493 491.564656,21.2771058 482.701062,21.2771058 C469.931837,21.2771058 459.54365,10.8889187 459.54365,-1.8803059 C459.54365,-14.6495305 469.931837,-25.0377176 482.701062,-25.0377176 L482.701062,-25.0377176 Z M482.701062,102.517862 C477.355116,102.517862 472.330337,100.744232 468.171874,97.3875458 C462.687743,92.962582 459.54365,86.3919512 459.54365,79.3604499 C459.54365,66.5912253 469.931837,56.2030382 482.701062,56.2030382 C490.66797,56.2030382 497.980398,60.2286315 502.259584,66.970855 L503.221565,66.3604104 L502.259584,66.970855 C504.614047,70.6775594 505.858473,74.9620602 505.858473,79.3604499 C505.858473,92.1296745 495.469527,102.517862 482.701062,102.517862 L482.701062,102.517862 Z M398.290398,337.062961 C391.214859,332.915886 386.820266,325.256477 386.820266,317.073938 C386.820266,313.347493 387.685063,309.781252 389.390359,306.476196 C393.387101,298.729472 401.275047,293.916527 409.977678,293.916527 C422.746902,293.916527 433.135089,304.305473 433.135089,317.073938 C433.135089,329.842404 422.746902,340.23135 409.977678,340.23135 C405.867807,340.23135 401.827028,339.135739 398.290398,337.062961 L398.290398,337.062961 Z M338.227664,320.645495 L338.227664,281.417598 L386.873414,306.460251 C385.331358,309.800233 384.542488,313.362678 384.542488,317.073938 C384.542488,325.681662 388.977322,333.75259 396.17586,338.419757 L379.920876,366.216244 L360.31452,356.402816 C361.776854,353.137241 362.523965,349.662111 362.523965,346.051833 C362.523965,332.4087 351.725778,321.243791 338.227664,320.645495 L338.227664,320.645495 Z M387.695692,256.163112 C391.990823,263.995632 399.924324,268.933096 408.838789,269.323355 L408.838789,291.67823 C400.114898,292.063934 392.27023,296.849546 387.922711,304.438343 L339.870702,279.700913 L387.695692,256.163112 Z M409.977678,220.770235 C419.501828,220.770235 427.943274,226.487459 431.482182,235.335108 C432.579312,238.078313 433.135089,240.969572 433.135089,243.927647 C433.135089,256.696112 422.746902,267.085059 409.977678,267.085059 C401.094343,267.085059 393.132749,262.130132 389.199785,254.153353 C387.621285,250.952315 386.820266,247.512111 386.820266,243.927647 C386.820266,231.159182 397.209212,220.770235 409.977678,220.770235 L409.977678,220.770235 Z M409.977678,146.430388 C415.324382,146.430388 420.348402,148.204777 424.506106,151.560704 C429.990237,155.985668 433.135089,162.556299 433.135089,169.5878 C433.135089,176.604116 430.001626,183.165636 424.538755,187.58984 C420.434198,190.914637 415.262123,192.745212 409.977678,192.745212 C397.209212,192.745212 386.820266,182.357025 386.820266,169.5878 C386.820266,156.819335 397.209212,146.430388 409.977678,146.430388 L409.977678,146.430388 Z M425.033032,149.093111 C420.993013,146.125166 416.12692,144.406962 411.116567,144.179943 L411.116567,83.672284 L449.175204,119.141087 L425.033032,149.093111 Z M455.779242,224.398736 L426.837033,188.619396 C432.298386,183.783673 435.412868,176.913894 435.412868,169.5878 C435.412868,162.245002 432.286237,155.363834 426.802866,150.527352 L450.845574,120.698328 L463.339947,132.34233 C459.415335,136.944201 457.265872,142.754813 457.265872,148.829648 C457.265872,162.472021 468.064059,173.63693 481.562173,174.235227 L481.562173,214.096345 L455.779242,224.398736 Z M433.13433,233.448349 C429.171755,224.677384 420.726513,218.957124 411.116567,218.534976 L411.116567,194.996416 C416.142864,194.768638 421.022624,193.041323 425.070236,190.056674 L453.565241,225.283273 L433.13433,233.448349 Z M467.608503,239.023591 L457.27802,226.252088 L481.562173,216.548753 L481.562173,234.083849 C476.535116,234.311627 471.655356,236.038942 467.608503,239.023591 L467.608503,239.023591 Z M467.644948,99.8551389 C471.685726,102.823843 476.55182,104.542047 481.562173,104.769066 L481.562173,123.424069 C475.325616,123.707273 469.360874,126.30394 464.895669,130.678793 L452.278297,118.920142 L467.644948,99.8551389 Z M409.977678,-71.4770595 C422.746902,-71.4770595 433.135089,-61.0881132 433.135089,-48.3196478 C433.135089,-35.5504233 422.746902,-25.1622361 409.977678,-25.1622361 C397.209212,-25.1622361 386.820266,-35.5504233 386.820266,-48.3196478 C386.820266,-61.0881132 397.209212,-71.4770595 409.977678,-71.4770595 L409.977678,-71.4770595 Z M337.088775,369.209244 C333.456478,369.209244 329.972237,368.386207 326.733996,366.76367 C318.836939,362.807169 313.931364,354.870631 313.931364,346.051833 C313.931364,342.966202 314.52966,339.968646 315.709549,337.142683 L314.658734,336.703072 L315.710308,337.142683 C319.322105,328.487126 327.71344,322.894421 337.088775,322.894421 C349.858,322.894421 360.246187,333.283367 360.246187,346.051833 C360.246187,349.687926 359.421631,353.174445 357.796816,356.414964 C353.838797,364.306706 345.903777,369.209244 337.088775,369.209244 L337.088775,369.209244 Z M460.502595,406.55114 L411.116567,381.831173 L411.116567,342.480276 C424.61468,341.88198 435.412868,330.717071 435.412868,317.073938 C435.412868,303.430806 424.61468,292.265897 411.116567,291.6676 L411.116567,269.333985 C424.61468,268.735689 435.412868,257.570779 435.412868,243.927647 C435.412868,241.059165 434.935294,238.249146 433.994571,235.556812 L455.064019,227.136625 L465.841707,240.460869 C460.380354,245.295832 457.265872,252.165612 457.265872,259.492465 C457.265872,273.135597 468.064059,284.300506 481.562173,284.898803 L481.562173,393.54123 C472.718319,393.929971 464.818225,398.810491 460.502595,406.55114 L460.502595,406.55114 Z M494.290397,279.536913 C490.777304,281.572487 486.769933,282.649117 482.701062,282.649876 C469.931837,282.649876 459.54365,272.26093 459.54365,259.492465 C459.54365,252.476149 462.677113,245.91387 468.139985,241.490424 C472.243023,238.165627 477.415098,236.335053 482.701062,236.335053 C495.469527,236.335053 505.858473,246.723999 505.858473,259.492465 C505.858473,267.721318 501.425917,275.401986 494.290397,279.536913 L494.290397,279.536913 Z M503.38101,159.246687 L503.38101,159.246687 C499.41312,167.105022 491.489489,171.9863 482.701062,171.9863 C469.931837,171.9863 459.54365,161.598113 459.54365,148.829648 C459.54365,142.95298 461.752336,137.347368 465.763503,133.044645 L465.763503,133.044645 C470.133041,128.359255 476.30582,125.672236 482.701062,125.672236 C495.469527,125.672236 505.858473,136.060423 505.858473,148.829648 C505.858473,152.484723 505.024806,155.989464 503.38101,159.246687 L503.38101,159.246687 Z M533.376312,21.0743835 L506.116622,8.04777001 C507.452918,4.90671387 508.136252,1.57356511 508.136252,-1.8803059 C508.136252,-8.5640664 505.59577,-14.7998639 500.964287,-19.5687721 L539.191479,-60.0638722 C543.526091,-56.3184456 548.944926,-54.1629082 554.66139,-53.9100748 L554.66139,7.65826994 C545.746925,8.06523298 537.593998,13.2031413 533.376312,21.0743835 L533.376312,21.0743835 Z M537.536294,-61.6294651 L499.309102,-21.1336058 C494.97449,-24.8797916 489.556415,-27.0353291 483.839951,-27.2889217 L483.839951,-95.0740824 L530.814571,-84.0253396 C530.520737,-82.4665801 530.365089,-80.8888391 530.365089,-79.3179314 C530.365089,-72.6334116 532.904812,-66.3976141 537.536294,-61.6294651 L537.536294,-61.6294651 Z M434.450886,-106.689992 L481.562173,-95.6093603 L481.562173,-27.2866439 C468.064059,-26.6883475 457.265872,-15.5234381 457.265872,-1.8803059 C457.265872,11.7628263 468.064059,22.9277357 481.562173,23.5260321 L481.562173,53.9541118 C468.064059,54.5524083 457.265872,65.7173177 457.265872,79.3604499 C457.265872,86.7032475 460.392502,93.5836562 465.875114,98.4208979 L450.607926,117.362901 L411.116567,80.5585612 L411.116567,-22.9133098 C424.61468,-23.5116062 435.412868,-34.6757564 435.412868,-48.3196478 C435.412868,-61.96278 424.61468,-73.1276895 411.116567,-73.7259859 L411.116567,-88.2058219 C422.116717,-88.6864331 431.474589,-96.0990826 434.450886,-106.689992 L434.450886,-106.689992 Z M362.523965,-68.8196516 C362.523965,-82.4627838 351.725778,-93.6276933 338.227664,-94.2259897 L338.227664,-168.688078 C343.760388,-168.934078 349.038,-170.969652 353.301241,-174.500208 L392.081174,-131.681015 C387.278859,-126.919699 384.542488,-120.400698 384.542488,-113.615956 C384.542488,-99.9720648 395.341434,-88.8079146 408.838789,-88.2096182 L408.838789,-73.7259859 C395.341434,-73.1276895 384.542488,-61.96278 384.542488,-48.3196478 C384.542488,-34.6757564 395.341434,-23.5116062 408.838789,-22.9133098 L408.838789,78.4356719 L356.449131,29.6099777 C360.374502,25.0088657 362.523965,19.1982536 362.523965,13.1234191 C362.523965,-0.519713059 351.725778,-11.6846225 338.227664,-12.2829189 L338.227664,-43.4133136 C351.725778,-44.01161 362.523965,-55.1757602 362.523965,-68.8196516 L362.523965,-68.8196516 Z M354.894168,31.2735151 L408.838789,81.5493947 L408.838789,144.181462 C395.341434,144.779758 384.542488,155.944668 384.542488,169.5878 C384.542488,183.231691 395.341434,194.395842 408.838789,194.994138 L408.838789,218.521309 C395.341434,219.119605 384.542488,230.284515 384.542488,243.927647 C384.542488,247.48174 385.266062,250.905241 386.681322,254.124501 L338.227664,277.97132 L338.227664,185.439618 C351.725778,184.841321 362.523965,173.676412 362.523965,160.03252 C362.523965,146.389388 351.725778,135.224479 338.227664,134.626942 L338.227664,38.5289979 C344.464221,38.2457941 350.428963,35.649127 354.894168,31.2735151 L354.894168,31.2735151 Z M274.471134,36.3863678 L324.78194,137.790016 C316.660901,142.279517 311.653585,150.69363 311.653585,160.03252 C311.653585,166.903059 314.451456,173.480523 319.362346,178.259302 L280.227839,222.281162 C275.997246,218.843235 270.78493,216.860049 265.338762,216.616327 L265.338762,38.5267201 C268.512466,38.3885349 271.57456,37.6702755 274.471134,36.3863678 L274.471134,36.3863678 Z M286.255599,254.661297 L334.804923,279.655357 L286.482618,303.43764 C282.186728,295.60512 274.253986,290.668415 265.338762,290.278156 L265.338762,267.421411 C274.063412,267.035707 281.907321,262.250095 286.255599,254.661297 L286.255599,254.661297 Z M287.203914,326.494829 L313.194882,337.327183 C312.173678,340.11898 311.653585,343.047443 311.653585,346.051833 C311.653585,355.356557 316.634327,363.755484 324.713606,368.254855 L274.541745,468.591744 C271.624671,467.287337 268.538281,466.559207 265.338762,466.419503 L265.338762,341.066535 C274.792301,340.648183 283.176043,335.060794 287.203914,326.494829 L287.203914,326.494829 Z M291.455008,523.33131 L281.167802,510.759493 C286.560822,505.929844 289.635063,499.094991 289.635063,491.822045 C289.635063,482.517321 284.654321,474.118393 276.575801,469.618263 L326.747662,369.281374 C329.664737,370.586541 332.750367,371.314671 335.949886,371.454374 L335.949886,416.306864 C322.452532,416.905161 311.653585,428.07007 311.653585,441.713202 C311.653585,450.657278 316.347327,458.892205 323.964217,463.488762 L291.455008,523.33131 Z M325.963347,464.580577 C329.070996,466.092262 332.48083,466.957059 335.949886,467.112707 L335.949886,557.25502 C331.278163,557.479001 326.738551,559.078002 322.958958,561.831076 L293.013008,525.235532 L325.963347,464.580577 Z M272.28143,558.627761 C270.043893,557.825983 267.717522,557.363594 265.338762,557.252742 L265.338762,517.230661 C270.417448,517.001364 275.338968,515.244438 279.408598,512.206641 L290.280433,525.493681 L272.28143,558.627761 Z M338.227664,416.315975 L338.227664,371.447541 C347.070759,371.0588 354.970853,366.178281 359.287242,358.436872 L378.767561,368.18804 L348.926389,419.216346 C345.620573,417.475364 341.966258,416.483772 338.227664,416.315975 L338.227664,416.315975 Z M411.116567,489.841137 L411.116567,384.380006 L459.475317,408.585196 C458.012983,411.850771 457.265872,415.325901 457.265872,418.936939 C457.265872,426.596348 460.614206,433.666571 466.48404,438.519757 L424.370199,494.284323 C420.434957,491.571489 415.898383,490.050693 411.116567,489.841137 L411.116567,489.841137 Z M496.185509,470.278819 C492.4621,467.941059 488.23834,466.624503 483.839951,466.429373 L483.839951,444.343277 C497.337305,443.744221 508.136252,432.579312 508.136252,418.936939 C508.136252,405.293807 497.337305,394.128897 483.839951,393.530601 L483.839951,284.889692 C487.535266,284.723414 491.151619,283.751562 494.427064,282.047024 L542.103239,364.49804 C534.839405,369.156855 530.365089,377.252079 530.365089,385.910673 C530.365089,393.878341 534.113553,401.363121 540.436665,406.165436 L496.185509,470.278819 Z M534.369423,520.290476 L505.271566,503.517677 C507.141622,499.913472 508.136252,495.898508 508.136252,491.822045 C508.136252,483.854377 504.387029,476.369597 498.063916,471.568041 L542.315073,407.4539 C546.03924,409.791659 550.263,411.108215 554.66139,411.303345 L554.66139,508.562196 C546.423425,508.934992 538.820202,513.328827 534.369423,520.290476 L534.369423,520.290476 Z M544.073517,363.355354 L496.398101,280.904339 C503.661936,276.245523 508.136252,268.1503 508.136252,259.492465 C508.136252,245.849333 497.337305,234.684423 483.839951,234.086127 L483.839951,215.638401 L532.644386,196.135305 C536.606201,204.906269 545.051444,210.62653 554.66139,211.048678 L554.66139,360.512687 C550.966074,360.678965 547.348962,361.650058 544.073517,363.355354 L544.073517,363.355354 Z M533.635219,173.214023 L505.898714,159.240613 C507.37927,155.957575 508.136252,152.461945 508.136252,148.829648 C508.136252,135.185757 497.337305,124.021606 483.839951,123.42331 L483.839951,104.766788 C497.337305,104.168492 508.136252,93.003582 508.136252,79.3604499 C508.136252,74.9111898 506.963196,70.5743001 504.759825,66.7339661 L534.95709,47.6044255 C539.508091,54.1241859 546.733962,58.1019459 554.66139,58.4512053 L554.66139,160.260298 C545.845629,160.64828 537.957683,165.506781 533.635219,173.214023 L533.635219,173.214023 Z M581.235469,33.0524598 C581.235469,19.4093277 570.437282,8.24441819 556.939168,7.64612179 L556.939168,-53.9115933 C570.437282,-54.5098897 581.235469,-65.6747992 581.235469,-79.3179314 C581.235469,-92.9610635 570.437282,-104.125973 556.939168,-104.724269 L556.939168,-238.764683 L554.66139,-238.764683 L554.66139,-104.728066 C543.66124,-104.247454 534.304127,-96.834805 531.32783,-86.2438956 L483.839951,-97.4133606 L483.839951,-114.848993 C497.337305,-115.44729 508.136252,-126.612199 508.136252,-140.255332 C508.136252,-153.898464 497.337305,-165.063373 483.839951,-165.66167 L483.839951,-238.764683 L481.562173,-238.764683 L481.562173,-165.66167 C468.064059,-165.063373 457.265872,-153.898464 457.265872,-140.255332 C457.265872,-126.612199 468.064059,-115.44729 481.562173,-114.848993 L481.562173,-97.9493978 L434.963386,-108.909307 C435.257219,-110.468067 435.412868,-112.045808 435.412868,-113.615956 C435.412868,-127.259088 424.61468,-138.423998 411.116567,-139.022294 L411.116567,-237.862683 L408.838789,-237.862683 L408.838789,-139.024572 C403.306065,-138.778572 398.028453,-136.743757 393.765971,-133.213201 L354.986038,-176.032394 C359.788354,-180.793709 362.523965,-187.311951 362.523965,-194.097453 C362.523965,-207.740585 351.725778,-218.905494 338.227664,-219.503791 L338.227664,-238.764683 L335.949886,-238.764683 L335.949886,-219.503791 C322.452532,-218.905494 311.653585,-207.740585 311.653585,-194.097453 C311.653585,-180.453561 322.452532,-169.289411 335.949886,-168.691115 L335.949886,-94.2259897 C322.452532,-93.6276933 311.653585,-82.4627838 311.653585,-68.8196516 C311.653585,-55.1757602 322.452532,-44.01161 335.949886,-43.4133136 L335.949886,-12.2829189 C322.452532,-11.6846225 311.653585,-0.519713059 311.653585,13.1234191 C311.653585,26.7665513 322.452532,37.9314607 335.949886,38.5297571 L335.949886,134.629979 C332.776941,134.768164 329.714848,135.485664 326.818273,136.770331 L276.507468,35.3659232 C284.628506,30.8764224 289.635063,22.463069 289.635063,13.1234191 C289.635063,-0.519713059 278.836876,-11.6846225 265.338762,-12.2829189 L265.338762,-97.8757496 C278.836876,-98.4732868 289.635063,-109.638196 289.635063,-123.282088 C289.635063,-136.92522 278.836876,-148.090129 265.338762,-148.687666 L265.338762,-238.764683 L263.060984,-238.764683 L263.060984,-148.687666 C249.56363,-148.090129 238.764683,-136.92522 238.764683,-123.282088 C238.764683,-109.638196 249.56363,-98.4732868 263.060984,-97.8757496 L263.060984,-12.2829189 C249.56363,-11.6846225 238.764683,-0.519713059 238.764683,13.1234191 C238.764683,26.7665513 249.56363,37.9314607 263.060984,38.5297571 L263.060984,216.619364 C249.56363,217.217661 238.764683,228.383329 238.764683,242.025702 C238.764683,255.668834 249.56363,266.833744 263.060984,267.43204 L263.060984,290.267526 C249.56363,290.865822 238.764683,302.031491 238.764683,315.673864 C238.764683,329.316996 249.56363,340.481906 263.060984,341.080202 L263.060984,466.415707 C249.56363,467.014003 238.764683,478.179672 238.764683,491.822045 C238.764683,505.465177 249.56363,516.630086 263.060984,517.228383 L263.060984,557.254261 C250.349463,557.851038 240.190572,568.37817 240.190572,581.235469 L242.46835,581.235469 C242.46835,569.252078 252.217241,559.503187 264.199873,559.503187 L264.199873,558.364298 L264.200632,558.364298 L264.200632,559.503187 C267.02204,559.503187 269.773596,560.040743 272.378615,561.099909 L272.807597,560.045298 L272.379375,561.099909 C280.612783,564.447484 285.932914,572.351375 285.932914,581.235469 L288.210692,581.235469 C288.210692,571.845708 282.823747,563.460447 274.39369,559.511539 L291.838434,527.397903 L321.184569,563.260762 C316.022364,567.825429 313.079475,574.311023 313.079475,581.235469 L315.357253,581.235469 C315.357253,574.620042 318.320642,568.444226 323.486643,564.291077 C327.383922,561.158372 332.087534,559.503187 337.088775,559.503187 C349.072926,559.503187 358.821057,569.252078 358.821057,581.235469 L361.098835,581.235469 C361.098835,568.37817 350.939945,557.851038 338.227664,557.254261 L338.227664,467.11954 C351.725778,466.521244 362.523965,455.356334 362.523965,441.713202 C362.523965,433.105478 358.08989,425.03531 350.891352,420.368143 L380.80845,369.209244 L408.838789,383.239599 L408.838789,489.824433 C395.341434,490.42273 384.542488,501.588398 384.542488,515.230771 C384.542488,528.873903 395.341434,540.038813 408.838789,540.637109 L408.838789,580.33195 L411.116567,580.33195 L411.116567,540.637109 C424.61468,540.038813 435.412868,528.873903 435.412868,515.230771 C435.412868,507.571363 432.064534,500.501139 426.195459,495.647953 L468.30854,439.884146 C472.243782,442.59698 476.780357,444.117777 481.562173,444.326573 L481.562173,466.415707 C468.064059,467.014003 457.265872,478.179672 457.265872,491.822045 C457.265872,505.465177 468.064059,516.630086 481.562173,517.228383 L481.562173,581.235469 L483.839951,581.235469 L483.839951,517.219272 C492.077915,516.845716 499.68038,512.451123 504.131158,505.490232 L533.229015,522.262273 C531.35896,525.867236 530.365089,529.882959 530.365089,533.958664 C530.365089,547.601796 541.163276,558.766705 554.66139,559.365002 L554.66139,581.235469 L556.939168,581.235469 L556.939168,559.365002 C570.437282,558.766705 581.235469,547.601796 581.235469,533.958664 C581.235469,520.316291 570.437282,509.150622 556.939168,508.552326 L556.939168,411.317011 C570.437282,410.717956 581.235469,399.553046 581.235469,385.910673 C581.235469,372.267541 570.437282,361.102632 556.939168,360.504335 L556.939168,211.062345 C570.437282,210.463289 581.235469,199.298379 581.235469,185.656007 C581.235469,172.012874 570.437282,160.847965 556.939168,160.249669 L556.939168,58.4587979 C570.437282,57.8605015 581.235469,46.695592 581.235469,33.0524598 L581.235469,33.0524598 Z" id="Fill-1" transform="translate(410.000076, 171.235393) rotate(90.000000) translate(-410.000076, -171.235393) "></path>
            </g>
        </g>
    </g>
</svg>