<?xml version="1.0" encoding="UTF-8"?>
<svg width="52px" height="52px" viewBox="0 0 52 52" version="1.1" xmlns="http://www.w3.org/2000/svg" xmlns:xlink="http://www.w3.org/1999/xlink">
    <title>Group 8</title>
    <g id="Page-1" stroke="none" stroke-width="1" fill="none" fill-rule="evenodd" stroke-linecap="round" stroke-linejoin="round">
        <g id="HGF---Home---Desktop" transform="translate(-169.000000, -1419.000000)" stroke-width="2">
            <g id="Group-8" transform="translate(170.000000, 1420.000000)">
                <path d="M22.9588592,7.68815376 L22.9588592,2.0400408 C22.9588592,0.91201824 23.8728775,0 24.9989,0 C25.5629113,0 26.0729215,0.22800456 26.4429289,0.59801196 C26.8129363,0.96601932 27.0409408,1.47602952 27.0409408,2.0400408 L27.0409408,7.68815376" id="Stroke-66" stroke="#083A62"></path>
                <line x1="46.9389388" y1="11.2240245" x2="29.0805816" y2="11.2240245" id="Stroke-68" stroke="#083A62"></line>
                <line x1="20.9180184" y1="11.2240245" x2="3.05966119" y2="11.2240245" id="Stroke-70" stroke="#083A62"></line>
                <polygon id="Stroke-72" stroke="#083A62" points="14.2852857 25.5099102 3.06106122 25.5099102 8.67317346 11.2236245"></polygon>
                <polygon id="Stroke-74" stroke="#083A62" points="46.9389388 25.5099102 35.7147143 25.5099102 41.3268265 11.2236245"></polygon>
                <path d="M22.9598592,14.7596952 L22.9578592,14.7596952 L22.9578592,39.9881998 C20.3178064,40.6682134 18.3677674,43.0662613 18.3677674,45.9183184 L15.3057061,45.9183184 C13.6156723,45.9183184 12.2436449,47.2883458 12.2436449,48.9803796 L12.2436449,50.0004 L37.7541551,50.0004 L37.7541551,48.9803796 C37.7541551,47.2883458 36.3841277,45.9183184 34.6940939,45.9183184 L31.6320326,45.9183184 C31.6320326,43.0662613 29.6819936,40.6682134 27.0399408,39.9881998 L27.0399408,14.7596952 L27.0399408,14.7596952" id="Stroke-76" stroke="#083A62"></path>
                <path d="M20.9714194,10.5700114 C21.3334267,8.34396688 23.4294686,6.83393668 25.6535131,7.19394388 C27.8795576,7.55595112 29.3915878,9.65199304 29.0295806,11.8780376 C28.6675734,14.102082 26.5715314,15.6141123 24.3474869,15.252105 C22.1214424,14.8920978 20.6094122,12.7960559 20.9714194,10.5700114 Z" id="Stroke-78" stroke="#00C6FF"></path>
                <path d="M8.70817416,34.6938939 L8.63817276,34.6938939 C3.86607732,34.6938939 0,30.8258165 0,26.0557211 L0,25.5097102 L17.3463469,25.5097102 L17.3463469,26.0557211 C17.3463469,30.8258165 13.4782696,34.6938939 8.70817416,34.6938939 Z" id="Stroke-80" stroke="#00C6FF"></path>
                <path d="M41.3618272,34.6938939 L41.2918258,34.6938939 C36.5197304,34.6938939 32.6536531,30.8258165 32.6536531,26.0557211 L32.6536531,25.5097102 L50,25.5097102 L50,26.0557211 C50,30.8258165 46.1319226,34.6938939 41.3618272,34.6938939 Z" id="Stroke-82" stroke="#00C6FF"></path>
            </g>
        </g>
    </g>
</svg>