<?xml version="1.0" encoding="UTF-8"?>
<svg width="63px" height="51px" viewBox="0 0 63 51" version="1.1" xmlns="http://www.w3.org/2000/svg" xmlns:xlink="http://www.w3.org/1999/xlink">
    <title>Group 10</title>
    <g id="Page-1" stroke="none" stroke-width="1" fill="none" fill-rule="evenodd" stroke-linecap="round" stroke-linejoin="round">
        <g id="HGF---Home---Desktop" transform="translate(-649.000000, -1420.000000)" stroke-width="2">
            <g id="Group-10" transform="translate(650.000000, 1420.000400)">
                <path d="M24.9686415,43.8571015 C16.7912968,50.0564454 6.23552682,43.1792744 4.00424547,38.7408337 C4.00424547,38.7408337 11.5109996,35.3782323 11.5109996,31.2340795 C5.29235816,31.2340795 0,26.1925897 0,19.9739483 L0,16.2205712 C2.48456195,18.5483404 4.81474334,21.0763219 7.63218834,21.0763219 C13.7760517,21.0763219 16.0386916,10.6483983 23.9338093,15.984176" id="Stroke-30" stroke="#00C6FF"></path>
                <path d="M39.6620513,8.71285218 C51.0645021,8.71285218 60.3056252,17.9563875 60.3056252,29.3564261 C60.3056252,40.7588769 51.0645021,50 39.6620513,50 C28.2596005,50 19.0184774,40.7588769 19.0184774,29.3564261 C19.0184774,17.9563875 28.2596005,8.71285218 39.6620513,8.71285218 Z" id="Stroke-32" stroke="#083A62"></path>
                <path d="M39.6620513,29.3566673 L48.9514184,20.0673003 C46.5729931,17.688875 43.2827576,16.2198475 39.6620513,16.2198475 C32.4182266,16.2198475 26.5252316,22.1128425 26.5252316,29.3566673" id="Stroke-34" stroke="#00C6FF"></path>
                <line x1="39.6620513" y1="1.20609803" x2="39.6620513" y2="8.71285218" id="Stroke-36" stroke="#083A62"></line>
                <line x1="35.9086743" y1="1.20609803" x2="43.4154284" y2="1.20609803" id="Stroke-38" stroke="#083A62"></line>
                <line x1="29.3402644" y1="11.4786762" x2="27.4635758" y2="8.22703589" id="Stroke-40" stroke="#083A62"></line>
                <line x1="49.9840795" y1="11.4786762" x2="51.860768" y2="8.22703589" id="Stroke-42" stroke="#083A62"></line>
            </g>
        </g>
    </g>
</svg>