<?xml version="1.0" encoding="UTF-8"?>
<svg width="45px" height="52px" viewBox="0 0 45 52" version="1.1" xmlns="http://www.w3.org/2000/svg" xmlns:xlink="http://www.w3.org/1999/xlink">
    <title>Group 11</title>
    <g id="Page-1" stroke="none" stroke-width="1" fill="none" fill-rule="evenodd" stroke-linecap="round" stroke-linejoin="round">
        <g id="HGF---Home---Desktop" transform="translate(-1129.000000, -1419.000000)" stroke-width="2">
            <g id="Group-11" transform="translate(1130.000000, 1420.000400)">
                <path d="M42.0646932,12.8813712 C42.0386935,12.3053769 42.0246936,11.7413826 42.0146937,11.1833882 C41.984694,9.05540945 40.3107108,7.31942681 38.186732,7.20142799 C31.688797,6.83743163 26.6088478,4.67745323 22.3168907,0.493495065 C21.5988979,-0.164498355 20.5209087,-0.164498355 19.8029159,0.493495065 C15.5109588,4.67745323 10.4310096,6.83743163 3.93307455,7.20142799 C1.80909579,7.31942681 0.135112534,9.05540945 0.103112854,11.1833882 C0.0951129338,11.7413826 0.0811130738,12.3053769 0.0551133338,12.8813712 C-0.184884266,25.4192458 -0.542880686,42.601074 20.3109108,49.8730013 C20.4109098,49.9070009 20.5129088,49.9350006 20.6169077,49.9550004 L20.6169077,49.9550004 C20.9089048,50.0149999 21.2089018,50.0149999 21.5008989,49.9550004 C21.6048978,49.9350006 21.7088968,49.9070009 21.8088958,49.8710013 C42.6026879,42.601074 42.3026909,25.4772452 42.0646932,12.8813712 Z" id="Stroke-22" stroke="#083A62"></path>
                <path d="M32.7379865,24.99985 C32.7379865,31.4497855 27.5080388,36.6797332 21.0581033,36.6797332 C14.6081678,36.6797332 9.3782201,31.4497855 9.3782201,24.99985 C9.3782201,18.5499145 14.6081678,13.3199668 21.0581033,13.3199668 C27.5080388,13.3199668 32.7379865,18.5499145 32.7379865,24.99985 Z" id="Stroke-24" stroke="#00C6FF"></path>
                <line x1="25.9654542" y1="21.9916801" x2="18.7155267" y2="29.2416076" id="Stroke-26" stroke="#083A62"></line>
                <line x1="15.9437544" y1="26.4716353" x2="18.7137267" y2="29.2416076" id="Stroke-28" stroke="#083A62"></line>
            </g>
        </g>
    </g>
</svg>