<?xml version="1.0" encoding="UTF-8"?>
<svg width="103px" height="24px" viewBox="0 0 103 24" version="1.1" xmlns="http://www.w3.org/2000/svg" xmlns:xlink="http://www.w3.org/1999/xlink">
    <title>HGF - Logo - Abrdn</title>
    <defs>
        <polygon id="path-1" points="0.356977192 0 2.27754083 0 2.27754083 2.63073281 0.356977192 2.63073281"></polygon>
        <polygon id="path-3" points="0.356977192 0 2.27754083 0 2.27754083 2.63073281 0.356977192 2.63073281"></polygon>
        <polygon id="path-5" points="0.356977192 0 2.27754083 0 2.27754083 2.63073281 0.356977192 2.63073281"></polygon>
        <polygon id="path-7" points="0.356977192 0 2.27754083 0 2.27754083 2.63073281 0.356977192 2.63073281"></polygon>
        <polygon id="path-9" points="0.356977192 0 2.27754083 0 2.27754083 2.63073281 0.356977192 2.63073281"></polygon>
        <polygon id="path-11" points="0.356977192 0 2.27754083 0 2.27754083 2.63073281 0.356977192 2.63073281"></polygon>
        <polygon id="path-13" points="0.356977192 0 2.27754083 0 2.27754083 2.63073281 0.356977192 2.63073281"></polygon>
        <polygon id="path-15" points="0.356977192 0 2.27754083 0 2.27754083 2.63073281 0.356977192 2.63073281"></polygon>
        <polygon id="path-17" points="0.356977192 0 2.27754083 0 2.27754083 2.63073281 0.356977192 2.63073281"></polygon>
    </defs>
    <g id="Page-1" stroke="none" stroke-width="1" fill="none" fill-rule="evenodd">
        <g id="HGF---Home---Desktop" transform="translate(-140.000000, -2801.000000)">
            <g id="Logo---Abrdn" transform="translate(140.000000, 2801.696560)">
                <path d="M11.8142326,21.1855544 C12.1461819,21.1855544 12.4175372,21.4538891 12.4175372,21.7879922 C12.4175372,22.1194645 12.1461819,22.39043 11.8142326,22.39043 C11.4822833,22.39043 11.210928,22.1194645 11.210928,21.7879922 C11.210928,21.4538891 11.4822833,21.1855544 11.8142326,21.1855544" id="Fill-1" fill="#010202"></path>
                <path d="M13.020315,21.1855544 C13.3522642,21.1855544 13.6236196,21.4538891 13.6236196,21.7879922 C13.6236196,22.1194645 13.3522642,22.39043 13.020315,22.39043 C12.6883657,22.39043 12.4170103,22.1194645 12.4170103,21.7879922 C12.4170103,21.4538891 12.6883657,21.1855544 13.020315,21.1855544" id="Fill-3" fill="#010202"></path>
                <path d="M17.8443809,21.1855544 C18.1763302,21.1855544 18.4476855,21.4538891 18.4476855,21.7879922 C18.4476855,22.1194645 18.1763302,22.39043 17.8443809,22.39043 C17.5124316,22.39043 17.2410763,22.1194645 17.2410763,21.7879922 C17.2410763,21.4538891 17.5124316,21.1855544 17.8443809,21.1855544" id="Fill-5" fill="#010202"></path>
                <path d="M19.0504633,21.1855544 C19.3824125,21.1855544 19.6537679,21.4538891 19.6537679,21.7879922 C19.6537679,22.1194645 19.3824125,22.39043 19.0504633,22.39043 C18.718514,22.39043 18.4471586,22.1194645 18.4471586,21.7879922 C18.4471586,21.4538891 18.718514,21.1855544 19.0504633,21.1855544" id="Fill-7" fill="#010202"></path>
                <path d="M20.2565456,21.1855544 C20.5884949,21.1855544 20.8598502,21.4538891 20.8598502,21.7879922 C20.8598502,22.1194645 20.5884949,22.39043 20.2565456,22.39043 C19.9245963,22.39043 19.653241,22.1194645 19.653241,21.7879922 C19.653241,21.4538891 19.9245963,21.1855544 20.2565456,21.1855544" id="Fill-9" fill="#010202"></path>
                <path d="M21.462628,21.1855544 C21.7945772,21.1855544 22.0659326,21.4538891 22.0659326,21.7879922 C22.0659326,22.1194645 21.7945772,22.39043 21.462628,22.39043 C21.1306787,22.39043 20.8593233,22.1194645 20.8593233,21.7879922 C20.8593233,21.4538891 21.1306787,21.1855544 21.462628,21.1855544" id="Fill-11" fill="#010202"></path>
                <path d="M10.6081503,21.1855544 C10.9400995,21.1855544 11.2114549,21.4538891 11.2114549,21.7879922 C11.2114549,22.1194645 10.9400995,22.39043 10.6081503,22.39043 C10.276201,22.39043 10.0048456,22.1194645 10.0048456,21.7879922 C10.0048456,21.4538891 10.276201,21.1855544 10.6081503,21.1855544" id="Fill-13" fill="#010202"></path>
                <path d="M4.57800196,21.1855544 C4.90995123,21.1855544 5.18130659,21.4538891 5.18130659,21.7879922 C5.18130659,22.1194645 4.90995123,22.39043 4.57800196,22.39043 C4.24605269,22.39043 3.97469734,22.1194645 3.97469734,21.7879922 C3.97469734,21.4538891 4.24605269,21.1855544 4.57800196,21.1855544" id="Fill-15" fill="#010202"></path>
                <path d="M5.78408431,21.1855544 C6.11603358,21.1855544 6.38738894,21.4538891 6.38738894,21.7879922 C6.38738894,22.1194645 6.11603358,22.39043 5.78408431,22.39043 C5.45213504,22.39043 5.18077969,22.1194645 5.18077969,21.7879922 C5.18077969,21.4538891 5.45213504,21.1855544 5.78408431,21.1855544" id="Fill-17" fill="#010202"></path>
                <path d="M6.99016666,21.1855544 C7.32211593,21.1855544 7.59347129,21.4538891 7.59347129,21.7879922 C7.59347129,22.1194645 7.32211593,22.39043 6.99016666,22.39043 C6.65821739,22.39043 6.38686203,22.1194645 6.38686203,21.7879922 C6.38686203,21.4538891 6.65821739,21.1855544 6.99016666,21.1855544" id="Fill-19" fill="#010202"></path>
                <path d="M8.19624901,21.1855544 C8.52819828,21.1855544 8.79955364,21.4538891 8.79955364,21.7879922 C8.79955364,22.1194645 8.52819828,22.39043 8.19624901,22.39043 C7.86429974,22.39043 7.59294438,22.1194645 7.59294438,21.7879922 C7.59294438,21.4538891 7.86429974,21.1855544 8.19624901,21.1855544" id="Fill-21" fill="#010202"></path>
                <path d="M9.40233136,21.1855544 C9.73428063,21.1855544 10.005636,21.4538891 10.005636,21.7879922 C10.005636,22.1194645 9.73428063,22.39043 9.40233136,22.39043 C9.07038209,22.39043 8.79902673,22.1194645 8.79902673,21.7879922 C8.79902673,21.4538891 9.07038209,21.1855544 9.40233136,21.1855544" id="Fill-23" fill="#010202"></path>
                <path d="M17.8443809,19.9814679 C18.1763302,19.9814679 18.4476855,20.2498027 18.4476855,20.5839058 C18.4476855,20.9153781 18.1763302,21.1863436 17.8443809,21.1863436 C17.5124316,21.1863436 17.2410763,20.9153781 17.2410763,20.5839058 C17.2410763,20.2498027 17.5124316,19.9814679 17.8443809,19.9814679" id="Fill-25" fill="#010202"></path>
                <path d="M19.0504633,19.9814679 C19.3824125,19.9814679 19.6537679,20.2498027 19.6537679,20.5839058 C19.6537679,20.9153781 19.3824125,21.1863436 19.0504633,21.1863436 C18.718514,21.1863436 18.4471586,20.9153781 18.4471586,20.5839058 C18.4471586,20.2498027 18.718514,19.9814679 19.0504633,19.9814679" id="Fill-27" fill="#010202"></path>
                <path d="M20.2565456,19.9814679 C20.5884949,19.9814679 20.8598502,20.2498027 20.8598502,20.5839058 C20.8598502,20.9153781 20.5884949,21.1863436 20.2565456,21.1863436 C19.9245963,21.1863436 19.653241,20.9153781 19.653241,20.5839058 C19.653241,20.2498027 19.9245963,19.9814679 20.2565456,19.9814679" id="Fill-29" fill="#010202"></path>
                <path d="M21.462628,19.9814679 C21.7945772,19.9814679 22.0659326,20.2498027 22.0659326,20.5839058 C22.0659326,20.9153781 21.7945772,21.1863436 21.462628,21.1863436 C21.1306787,21.1863436 20.8593233,20.9153781 20.8593233,20.5839058 C20.8593233,20.2498027 21.1306787,19.9814679 21.462628,19.9814679" id="Fill-31" fill="#010202"></path>
                <path d="M11.8142326,19.9814679 C12.1461819,19.9814679 12.4175372,20.2498027 12.4175372,20.5839058 C12.4175372,20.9153781 12.1461819,21.1863436 11.8142326,21.1863436 C11.4822833,21.1863436 11.210928,20.9153781 11.210928,20.5839058 C11.210928,20.2498027 11.4822833,19.9814679 11.8142326,19.9814679" id="Fill-33" fill="#010202"></path>
                <path d="M13.020315,19.9814679 C13.3522642,19.9814679 13.6236196,20.2498027 13.6236196,20.5839058 C13.6236196,20.9153781 13.3522642,21.1863436 13.020315,21.1863436 C12.6883657,21.1863436 12.4170103,20.9153781 12.4170103,20.5839058 C12.4170103,20.2498027 12.6883657,19.9814679 13.020315,19.9814679" id="Fill-35" fill="#010202"></path>
                <path d="M14.2263973,19.9814679 C14.5583466,19.9814679 14.8297019,20.2498027 14.8297019,20.5839058 C14.8297019,20.9153781 14.5583466,21.1863436 14.2263973,21.1863436 C13.894448,21.1863436 13.6230927,20.9153781 13.6230927,20.5839058 C13.6230927,20.2498027 13.894448,19.9814679 14.2263973,19.9814679" id="Fill-37" fill="#010202"></path>
                <path d="M10.6081503,19.9814679 C10.9400995,19.9814679 11.2114549,20.2498027 11.2114549,20.5839058 C11.2114549,20.9153781 10.9400995,21.1863436 10.6081503,21.1863436 C10.276201,21.1863436 10.0048456,20.9153781 10.0048456,20.5839058 C10.0048456,20.2498027 10.276201,19.9814679 10.6081503,19.9814679" id="Fill-39" fill="#010202"></path>
                <path d="M3.37218307,19.9814679 C3.70413234,19.9814679 3.97548769,20.2498027 3.97548769,20.5839058 C3.97548769,20.9153781 3.70413234,21.1863436 3.37218307,21.1863436 C3.04023379,21.1863436 2.76887844,20.9153781 2.76887844,20.5839058 C2.76887844,20.2498027 3.04023379,19.9814679 3.37218307,19.9814679" id="Fill-41" fill="#010202"></path>
                <path d="M4.57800196,19.9814679 C4.90995123,19.9814679 5.18130659,20.2498027 5.18130659,20.5839058 C5.18130659,20.9153781 4.90995123,21.1863436 4.57800196,21.1863436 C4.24605269,21.1863436 3.97469734,20.9153781 3.97469734,20.5839058 C3.97469734,20.2498027 4.24605269,19.9814679 4.57800196,19.9814679" id="Fill-43" fill="#010202"></path>
                <path d="M5.78408431,19.9814679 C6.11603358,19.9814679 6.38738894,20.2498027 6.38738894,20.5839058 C6.38738894,20.9153781 6.11603358,21.1863436 5.78408431,21.1863436 C5.45213504,21.1863436 5.18077969,20.9153781 5.18077969,20.5839058 C5.18077969,20.2498027 5.45213504,19.9814679 5.78408431,19.9814679" id="Fill-45" fill="#010202"></path>
                <path d="M6.99016666,19.9814679 C7.32211593,19.9814679 7.59347129,20.2498027 7.59347129,20.5839058 C7.59347129,20.9153781 7.32211593,21.1863436 6.99016666,21.1863436 C6.65821739,21.1863436 6.38686203,20.9153781 6.38686203,20.5839058 C6.38686203,20.2498027 6.65821739,19.9814679 6.99016666,19.9814679" id="Fill-47" fill="#010202"></path>
                <path d="M8.19624901,19.9814679 C8.52819828,19.9814679 8.79955364,20.2498027 8.79955364,20.5839058 C8.79955364,20.9153781 8.52819828,21.1863436 8.19624901,21.1863436 C7.86429974,21.1863436 7.59294438,20.9153781 7.59294438,20.5839058 C7.59294438,20.2498027 7.86429974,19.9814679 8.19624901,19.9814679" id="Fill-49" fill="#010202"></path>
                <path d="M9.40233136,19.9814679 C9.73428063,19.9814679 10.005636,20.2498027 10.005636,20.5839058 C10.005636,20.9153781 9.73428063,21.1863436 9.40233136,21.1863436 C9.07038209,21.1863436 8.79902673,20.9153781 8.79902673,20.5839058 C8.79902673,20.2498027 9.07038209,19.9814679 9.40233136,19.9814679" id="Fill-51" fill="#010202"></path>
                <path d="M11.8142326,19.9814679 C11.4822833,19.9814679 11.210928,19.7131332 11.210928,19.3790301 C11.210928,19.0475578 11.4822833,18.7765923 11.8142326,18.7765923 C12.1461819,18.7765923 12.4175372,19.0475578 12.4175372,19.3790301 C12.4175372,19.7131332 12.1461819,19.9814679 11.8142326,19.9814679" id="Fill-53" fill="#010202"></path>
                <path d="M14.2263973,19.9814679 C13.894448,19.9814679 13.6230927,19.7131332 13.6230927,19.3790301 C13.6230927,19.0475578 13.894448,18.7765923 14.2263973,18.7765923 C14.5583466,18.7765923 14.8297019,19.0475578 14.8297019,19.3790301 C14.8297019,19.7131332 14.5583466,19.9814679 14.2263973,19.9814679" id="Fill-55" fill="#010202"></path>
                <path d="M19.0504633,19.9814679 C18.718514,19.9814679 18.4471586,19.7131332 18.4471586,19.3790301 C18.4471586,19.0475578 18.718514,18.7765923 19.0504633,18.7765923 C19.3824125,18.7765923 19.6537679,19.0475578 19.6537679,19.3790301 C19.6537679,19.7131332 19.3824125,19.9814679 19.0504633,19.9814679" id="Fill-57" fill="#010202"></path>
                <path d="M15.4324797,19.9814679 C15.1005304,19.9814679 14.829175,19.7131332 14.829175,19.3790301 C14.829175,19.0475578 15.1005304,18.7765923 15.4324797,18.7765923 C15.7644289,18.7765923 16.0357843,19.0475578 16.0357843,19.3790301 C16.0357843,19.7131332 15.7644289,19.9814679 15.4324797,19.9814679" id="Fill-59" fill="#010202"></path>
                <path d="M20.2565456,19.9814679 C19.9245963,19.9814679 19.653241,19.7131332 19.653241,19.3790301 C19.653241,19.0475578 19.9245963,18.7765923 20.2565456,18.7765923 C20.5884949,18.7765923 20.8598502,19.0475578 20.8598502,19.3790301 C20.8598502,19.7131332 20.5884949,19.9814679 20.2565456,19.9814679" id="Fill-61" fill="#010202"></path>
                <path d="M21.462628,19.9814679 C21.1306787,19.9814679 20.8593233,19.7131332 20.8593233,19.3790301 C20.8593233,19.0475578 21.1306787,18.7765923 21.462628,18.7765923 C21.7945772,18.7765923 22.0659326,19.0475578 22.0659326,19.3790301 C22.0659326,19.7131332 21.7945772,19.9814679 21.462628,19.9814679" id="Fill-63" fill="#010202"></path>
                <path d="M13.020315,19.9814679 C12.6883657,19.9814679 12.4170103,19.7131332 12.4170103,19.3790301 C12.4170103,19.0475578 12.6883657,18.7765923 13.020315,18.7765923 C13.3522642,18.7765923 13.6236196,19.0475578 13.6236196,19.3790301 C13.6236196,19.7131332 13.3522642,19.9814679 13.020315,19.9814679" id="Fill-65" fill="#010202"></path>
                <path d="M17.8443809,19.9814679 C17.5124316,19.9814679 17.2410763,19.7131332 17.2410763,19.3790301 C17.2410763,19.0475578 17.5124316,18.7765923 17.8443809,18.7765923 C18.1763302,18.7765923 18.4476855,19.0475578 18.4476855,19.3790301 C18.4476855,19.7131332 18.1763302,19.9814679 17.8443809,19.9814679" id="Fill-67" fill="#010202"></path>
                <path d="M10.6081503,19.9814679 C10.276201,19.9814679 10.0048456,19.7131332 10.0048456,19.3790301 C10.0048456,19.0475578 10.276201,18.7765923 10.6081503,18.7765923 C10.9400995,18.7765923 11.2114549,19.0475578 11.2114549,19.3790301 C11.2114549,19.7131332 10.9400995,19.9814679 10.6081503,19.9814679" id="Fill-69" fill="#010202"></path>
                <path d="M2.16610072,19.9814679 C1.83415145,19.9814679 1.56279609,19.7131332 1.56279609,19.3790301 C1.56279609,19.0475578 1.83415145,18.7765923 2.16610072,18.7765923 C2.49804999,18.7765923 2.76940534,19.0475578 2.76940534,19.3790301 C2.76940534,19.7131332 2.49804999,19.9814679 2.16610072,19.9814679" id="Fill-71" fill="#010202"></path>
                <path d="M9.40233136,19.9814679 C9.07038209,19.9814679 8.79902673,19.7131332 8.79902673,19.3790301 C8.79902673,19.0475578 9.07038209,18.7765923 9.40233136,18.7765923 C9.73428063,18.7765923 10.005636,19.0475578 10.005636,19.3790301 C10.005636,19.7131332 9.73428063,19.9814679 9.40233136,19.9814679" id="Fill-73" fill="#010202"></path>
                <path d="M3.97522424,19.3795563 C3.97522424,19.7110286 3.70386888,19.9819941 3.37191961,19.9819941 C3.03997034,19.9819941 2.76861499,19.7110286 2.76861499,19.3795563 C2.76861499,19.0480839 3.03997034,18.7771185 3.37191961,18.7771185 C3.70386888,18.7771185 3.97522424,19.0480839 3.97522424,19.3795563" id="Fill-75" fill="#010202"></path>
                <path d="M8.19624901,19.9814679 C7.86429974,19.9814679 7.59294438,19.7131332 7.59294438,19.3790301 C7.59294438,19.0475578 7.86429974,18.7765923 8.19624901,18.7765923 C8.52819828,18.7765923 8.79955364,19.0475578 8.79955364,19.3790301 C8.79955364,19.7131332 8.52819828,19.9814679 8.19624901,19.9814679" id="Fill-77" fill="#010202"></path>
                <path d="M6.99016666,19.9814679 C6.65821739,19.9814679 6.38686203,19.7131332 6.38686203,19.3790301 C6.38686203,19.0475578 6.65821739,18.7765923 6.99016666,18.7765923 C7.32211593,18.7765923 7.59347129,19.0475578 7.59347129,19.3790301 C7.59347129,19.7131332 7.32211593,19.9814679 6.99016666,19.9814679" id="Fill-79" fill="#010202"></path>
                <path d="M5.78408431,19.9814679 C5.45213504,19.9814679 5.18077969,19.7131332 5.18077969,19.3790301 C5.18077969,19.0475578 5.45213504,18.7765923 5.78408431,18.7765923 C6.11603358,18.7765923 6.38738894,19.0475578 6.38738894,19.3790301 C6.38738894,19.7131332 6.11603358,19.9814679 5.78408431,19.9814679" id="Fill-81" fill="#010202"></path>
                <path d="M4.57800196,19.9814679 C4.24605269,19.9814679 3.97469734,19.7131332 3.97469734,19.3790301 C3.97469734,19.0475578 4.24605269,18.7765923 4.57800196,18.7765923 C4.90995123,18.7765923 5.18130659,19.0475578 5.18130659,19.3790301 C5.18130659,19.7131332 4.90995123,19.9814679 4.57800196,19.9814679" id="Fill-83" fill="#010202"></path>
                <path d="M11.8142326,17.5730321 C12.1461819,17.5730321 12.4175372,17.8413668 12.4175372,18.1754699 C12.4175372,18.5069422 12.1461819,18.7779077 11.8142326,18.7779077 C11.4822833,18.7779077 11.210928,18.5069422 11.210928,18.1754699 C11.210928,17.8413668 11.4822833,17.5730321 11.8142326,17.5730321" id="Fill-85" fill="#010202"></path>
                <path d="M13.020315,17.5730321 C13.3522642,17.5730321 13.6236196,17.8413668 13.6236196,18.1754699 C13.6236196,18.5069422 13.3522642,18.7779077 13.020315,18.7779077 C12.6883657,18.7779077 12.4170103,18.5069422 12.4170103,18.1754699 C12.4170103,17.8413668 12.6883657,17.5730321 13.020315,17.5730321" id="Fill-87" fill="#010202"></path>
                <path d="M17.8443809,17.5730321 C18.1763302,17.5730321 18.4476855,17.8413668 18.4476855,18.1754699 C18.4476855,18.5069422 18.1763302,18.7779077 17.8443809,18.7779077 C17.5124316,18.7779077 17.2410763,18.5069422 17.2410763,18.1754699 C17.2410763,17.8413668 17.5124316,17.5730321 17.8443809,17.5730321" id="Fill-89" fill="#010202"></path>
                <path d="M13.6233561,18.1752068 C13.6233561,17.8437345 13.892077,17.572769 14.2266608,17.572769 C14.55861,17.572769 14.8299654,17.8437345 14.8299654,18.1752068 C14.8299654,18.5066791 14.55861,18.7776446 14.2266608,18.7776446 C13.892077,18.7776446 13.6233561,18.5066791 13.6233561,18.1752068" id="Fill-91" fill="#010202"></path>
                <path d="M18.4474221,18.1752068 C18.4474221,17.8437345 18.7187774,17.572769 19.0507267,17.572769 C19.382676,17.572769 19.6540313,17.8437345 19.6540313,18.1752068 C19.6540313,18.5066791 19.382676,18.7776446 19.0507267,18.7776446 C18.7187774,18.7776446 18.4474221,18.5066791 18.4474221,18.1752068" id="Fill-93" fill="#010202"></path>
                <path d="M14.8294385,18.1752068 C14.8294385,17.8437345 15.0981593,17.572769 15.4327431,17.572769 C15.7646924,17.572769 16.0360477,17.8437345 16.0360477,18.1752068 C16.0360477,18.5066791 15.7646924,18.7776446 15.4327431,18.7776446 C15.0981593,18.7776446 14.8294385,18.5066791 14.8294385,18.1752068" id="Fill-95" fill="#010202"></path>
                <path d="M19.6535044,18.1752068 C19.6535044,17.8437345 19.9222253,17.572769 20.2568091,17.572769 C20.5887583,17.572769 20.8601137,17.8437345 20.8601137,18.1752068 C20.8601137,18.5066791 20.5887583,18.7776446 20.2568091,18.7776446 C19.9222253,18.7776446 19.6535044,18.5066791 19.6535044,18.1752068" id="Fill-97" fill="#010202"></path>
                <path d="M16.0352574,18.1752068 C16.0352574,17.8437345 16.3066127,17.572769 16.638562,17.572769 C16.9705113,17.572769 17.2418666,17.8437345 17.2418666,18.1752068 C17.2418666,18.5066791 16.9705113,18.7776446 16.638562,18.7776446 C16.3066127,18.7776446 16.0352574,18.5066791 16.0352574,18.1752068" id="Fill-99" fill="#010202"></path>
                <path d="M20.8595868,18.1752068 C20.8595868,17.8437345 21.1283076,17.572769 21.4628914,17.572769 C21.7948407,17.572769 22.066196,17.8437345 22.066196,18.1752068 C22.066196,18.5066791 21.7948407,18.7776446 21.4628914,18.7776446 C21.1283076,18.7776446 20.8595868,18.5066791 20.8595868,18.1752068" id="Fill-101" fill="#010202"></path>
                <path d="M10.6081503,17.5730321 C10.9400995,17.5730321 11.2114549,17.8413668 11.2114549,18.1754699 C11.2114549,18.5069422 10.9400995,18.7779077 10.6081503,18.7779077 C10.276201,18.7779077 10.0048456,18.5069422 10.0048456,18.1754699 C10.0048456,17.8413668 10.276201,17.5730321 10.6081503,17.5730321" id="Fill-103" fill="#010202"></path>
                <path d="M9.40233136,17.5730321 C9.73428063,17.5730321 10.005636,17.8413668 10.005636,18.1754699 C10.005636,18.5069422 9.73428063,18.7779077 9.40233136,18.7779077 C9.07038209,18.7779077 8.79902673,18.5069422 8.79902673,18.1754699 C8.79902673,17.8413668 9.07038209,17.5730321 9.40233136,17.5730321" id="Fill-105" fill="#010202"></path>
                <path d="M1.56305954,18.1752068 C1.56305954,17.8437345 1.83178038,17.572769 2.16636417,17.572769 C2.49831344,17.572769 2.76966879,17.8437345 2.76966879,18.1752068 C2.76966879,18.5066791 2.49831344,18.7776446 2.16636417,18.7776446 C1.83178038,18.7776446 1.56305954,18.5066791 1.56305954,18.1752068" id="Fill-107" fill="#010202"></path>
                <g id="Group-111" transform="translate(0.000000, 16.859840)">
                    <mask id="mask-2" fill="white">
                        <use xlink:href="#path-1"></use>
                    </mask>
                    <g id="Clip-110"></g>
                    <path d="M0.356977192,1.3153664 C0.356977192,0.983894069 0.62569803,0.71292859 0.960281818,0.71292859 C1.29223109,0.71292859 1.56358644,0.983894069 1.56358644,1.3153664 C1.56358644,1.64683874 1.29223109,1.91780422 0.960281818,1.91780422 C0.62569803,1.91780422 0.356977192,1.64683874 0.356977192,1.3153664" id="Fill-109" fill="#010202" mask="url(#mask-2)"></path>
                </g>
                <path d="M4.57800196,17.5730321 C4.90995123,17.5730321 5.18130659,17.8413668 5.18130659,18.1754699 C5.18130659,18.5069422 4.90995123,18.7779077 4.57800196,18.7779077 C4.24605269,18.7779077 3.97469734,18.5069422 3.97469734,18.1754699 C3.97469734,17.8413668 4.24605269,17.5730321 4.57800196,17.5730321" id="Fill-112" fill="#010202"></path>
                <path d="M5.78408431,17.5730321 C6.11603358,17.5730321 6.38738894,17.8413668 6.38738894,18.1754699 C6.38738894,18.5069422 6.11603358,18.7779077 5.78408431,18.7779077 C5.45213504,18.7779077 5.18077969,18.5069422 5.18077969,18.1754699 C5.18077969,17.8413668 5.45213504,17.5730321 5.78408431,17.5730321" id="Fill-114" fill="#010202"></path>
                <path d="M6.99016666,17.5730321 C7.32211593,17.5730321 7.59347129,17.8413668 7.59347129,18.1754699 C7.59347129,18.5069422 7.32211593,18.7779077 6.99016666,18.7779077 C6.65821739,18.7779077 6.38686203,18.5069422 6.38686203,18.1754699 C6.38686203,17.8413668 6.65821739,17.5730321 6.99016666,17.5730321" id="Fill-116" fill="#010202"></path>
                <path d="M8.19624901,17.5730321 C8.52819828,17.5730321 8.79955364,17.8413668 8.79955364,18.1754699 C8.79955364,18.5069422 8.52819828,18.7779077 8.19624901,18.7779077 C7.86429974,18.7779077 7.59294438,18.5069422 7.59294438,18.1754699 C7.59294438,17.8413668 7.86429974,17.5730321 8.19624901,17.5730321" id="Fill-118" fill="#010202"></path>
                <path d="M3.97522424,18.1752068 C3.97522424,18.5066791 3.70386888,18.7776446 3.37191961,18.7776446 C3.03997034,18.7776446 2.76861499,18.5066791 2.76861499,18.1752068 C2.76861499,17.8437345 3.03997034,17.572769 3.37191961,17.572769 C3.70386888,17.572769 3.97522424,17.8437345 3.97522424,18.1752068" id="Fill-120" fill="#010202"></path>
                <path d="M18.4474221,16.973225 C18.4474221,16.6417527 18.7187774,16.3707872 19.0507267,16.3707872 C19.382676,16.3707872 19.6540313,16.6417527 19.6540313,16.973225 C19.6540313,17.3046973 19.382676,17.5756628 19.0507267,17.5756628 C18.7187774,17.5756628 18.4474221,17.3046973 18.4474221,16.973225" id="Fill-122" fill="#010202"></path>
                <path d="M19.6535044,16.973225 C19.6535044,16.6417527 19.9222253,16.3707872 20.2568091,16.3707872 C20.5887583,16.3707872 20.8601137,16.6417527 20.8601137,16.973225 C20.8601137,17.3046973 20.5887583,17.5756628 20.2568091,17.5756628 C19.9222253,17.5756628 19.6535044,17.3046973 19.6535044,16.973225" id="Fill-124" fill="#010202"></path>
                <path d="M20.8595868,16.973225 C20.8595868,16.6417527 21.1283076,16.3707872 21.4628914,16.3707872 C21.7948407,16.3707872 22.066196,16.6417527 22.066196,16.973225 C22.066196,17.3046973 21.7948407,17.5756628 21.4628914,17.5756628 C21.1283076,17.5756628 20.8595868,17.3046973 20.8595868,16.973225" id="Fill-126" fill="#010202"></path>
                <path d="M17.2413397,16.973225 C17.2413397,16.6417527 17.5100606,16.3707872 17.8446444,16.3707872 C18.1765936,16.3707872 18.447949,16.6417527 18.447949,16.973225 C18.447949,17.3046973 18.1765936,17.5756628 17.8446444,17.5756628 C17.5100606,17.5756628 17.2413397,17.3046973 17.2413397,16.973225" id="Fill-128" fill="#010202"></path>
                <path d="M3.97522424,16.973225 C3.97522424,16.6417527 4.24394508,16.3707872 4.57852887,16.3707872 C4.91047814,16.3707872 5.18183349,16.6417527 5.18183349,16.973225 C5.18183349,17.3046973 4.91047814,17.5756628 4.57852887,17.5756628 C4.24394508,17.5756628 3.97522424,17.3046973 3.97522424,16.973225" id="Fill-130" fill="#010202"></path>
                <path d="M3.97522424,16.973225 C3.97522424,17.3046973 3.70386888,17.5756628 3.37191961,17.5756628 C3.03997034,17.5756628 2.76861499,17.3046973 2.76861499,16.973225 C2.76861499,16.6417527 3.03997034,16.3707872 3.37191961,16.3707872 C3.70386888,16.3707872 3.97522424,16.6417527 3.97522424,16.973225" id="Fill-132" fill="#010202"></path>
                <path d="M1.56305954,16.973225 C1.56305954,16.6417527 1.83178038,16.3707872 2.16636417,16.3707872 C2.49831344,16.3707872 2.76966879,16.6417527 2.76966879,16.973225 C2.76966879,17.3046973 2.49831344,17.5756628 2.16636417,17.5756628 C1.83178038,17.5756628 1.56305954,17.3046973 1.56305954,16.973225" id="Fill-134" fill="#010202"></path>
                <g id="Group-138" transform="translate(0.000000, 15.657859)">
                    <mask id="mask-4" fill="white">
                        <use xlink:href="#path-3"></use>
                    </mask>
                    <g id="Clip-137"></g>
                    <path d="M0.356977192,1.3153664 C0.356977192,0.983894069 0.62569803,0.71292859 0.960281818,0.71292859 C1.29223109,0.71292859 1.56358644,0.983894069 1.56358644,1.3153664 C1.56358644,1.64683874 1.29223109,1.91780422 0.960281818,1.91780422 C0.62569803,1.91780422 0.356977192,1.64683874 0.356977192,1.3153664" id="Fill-136" fill="#010202" mask="url(#mask-4)"></path>
                </g>
                <path d="M18.4474221,15.7807138 C18.4474221,15.4492415 18.7187774,15.178276 19.0507267,15.178276 C19.382676,15.178276 19.6540313,15.4492415 19.6540313,15.7807138 C19.6540313,16.1121861 19.382676,16.3831516 19.0507267,16.3831516 C18.7187774,16.3831516 18.4474221,16.1121861 18.4474221,15.7807138" id="Fill-139" fill="#010202"></path>
                <path d="M19.6535044,15.7807138 C19.6535044,15.4492415 19.9222253,15.178276 20.2568091,15.178276 C20.5887583,15.178276 20.8601137,15.4492415 20.8601137,15.7807138 C20.8601137,16.1121861 20.5887583,16.3831516 20.2568091,16.3831516 C19.9222253,16.3831516 19.6535044,16.1121861 19.6535044,15.7807138" id="Fill-141" fill="#010202"></path>
                <path d="M20.8595868,15.7807138 C20.8595868,15.4492415 21.1283076,15.178276 21.4628914,15.178276 C21.7948407,15.178276 22.066196,15.4492415 22.066196,15.7807138 C22.066196,16.1121861 21.7948407,16.3831516 21.4628914,16.3831516 C21.1283076,16.3831516 20.8595868,16.1121861 20.8595868,15.7807138" id="Fill-143" fill="#010202"></path>
                <path d="M17.2413397,15.7807138 C17.2413397,15.4492415 17.5100606,15.178276 17.8446444,15.178276 C18.1765936,15.178276 18.447949,15.4492415 18.447949,15.7807138 C18.447949,16.1121861 18.1765936,16.3831516 17.8446444,16.3831516 C17.5100606,16.3831516 17.2413397,16.1121861 17.2413397,15.7807138" id="Fill-145" fill="#010202"></path>
                <path d="M3.97522424,15.7807138 C3.97522424,15.4492415 4.24394508,15.178276 4.57852887,15.178276 C4.91047814,15.178276 5.18183349,15.4492415 5.18183349,15.7807138 C5.18183349,16.1121861 4.91047814,16.3831516 4.57852887,16.3831516 C4.24394508,16.3831516 3.97522424,16.1121861 3.97522424,15.7807138" id="Fill-147" fill="#010202"></path>
                <path d="M3.97522424,15.7807138 C3.97522424,16.1121861 3.70386888,16.3831516 3.37191961,16.3831516 C3.03997034,16.3831516 2.76861499,16.1121861 2.76861499,15.7807138 C2.76861499,15.4492415 3.03997034,15.178276 3.37191961,15.178276 C3.70386888,15.178276 3.97522424,15.4492415 3.97522424,15.7807138" id="Fill-149" fill="#010202"></path>
                <path d="M1.56305954,15.7807138 C1.56305954,15.4492415 1.83178038,15.178276 2.16636417,15.178276 C2.49831344,15.178276 2.76966879,15.4492415 2.76966879,15.7807138 C2.76966879,16.1121861 2.49831344,16.3831516 2.16636417,16.3831516 C1.83178038,16.3831516 1.56305954,16.1121861 1.56305954,15.7807138" id="Fill-151" fill="#010202"></path>
                <g id="Group-155" transform="translate(0.000000, 14.465347)">
                    <mask id="mask-6" fill="white">
                        <use xlink:href="#path-5"></use>
                    </mask>
                    <g id="Clip-154"></g>
                    <path d="M0.356977192,1.3153664 C0.356977192,0.983894069 0.62569803,0.71292859 0.960281818,0.71292859 C1.29223109,0.71292859 1.56358644,0.983894069 1.56358644,1.3153664 C1.56358644,1.64683874 1.29223109,1.91780422 0.960281818,1.91780422 C0.62569803,1.91780422 0.356977192,1.64683874 0.356977192,1.3153664" id="Fill-153" fill="#010202" mask="url(#mask-6)"></path>
                </g>
                <path d="M18.4474221,14.5668937 C18.4474221,14.2354214 18.7187774,13.9644559 19.0507267,13.9644559 C19.382676,13.9644559 19.6540313,14.2354214 19.6540313,14.5668937 C19.6540313,14.898366 19.382676,15.1693315 19.0507267,15.1693315 C18.7187774,15.1693315 18.4474221,14.898366 18.4474221,14.5668937" id="Fill-156" fill="#010202"></path>
                <path d="M19.6535044,14.5668937 C19.6535044,14.2354214 19.9222253,13.9644559 20.2568091,13.9644559 C20.5887583,13.9644559 20.8601137,14.2354214 20.8601137,14.5668937 C20.8601137,14.898366 20.5887583,15.1693315 20.2568091,15.1693315 C19.9222253,15.1693315 19.6535044,14.898366 19.6535044,14.5668937" id="Fill-158" fill="#010202"></path>
                <path d="M20.8595868,14.5668937 C20.8595868,14.2354214 21.1283076,13.9644559 21.4628914,13.9644559 C21.7948407,13.9644559 22.066196,14.2354214 22.066196,14.5668937 C22.066196,14.898366 21.7948407,15.1693315 21.4628914,15.1693315 C21.1283076,15.1693315 20.8595868,14.898366 20.8595868,14.5668937" id="Fill-160" fill="#010202"></path>
                <path d="M17.2413397,14.5668937 C17.2413397,14.2354214 17.5100606,13.9644559 17.8446444,13.9644559 C18.1765936,13.9644559 18.447949,14.2354214 18.447949,14.5668937 C18.447949,14.898366 18.1765936,15.1693315 17.8446444,15.1693315 C17.5100606,15.1693315 17.2413397,14.898366 17.2413397,14.5668937" id="Fill-162" fill="#010202"></path>
                <path d="M3.97522424,14.5668937 C3.97522424,14.2354214 4.24394508,13.9644559 4.57852887,13.9644559 C4.91047814,13.9644559 5.18183349,14.2354214 5.18183349,14.5668937 C5.18183349,14.898366 4.91047814,15.1693315 4.57852887,15.1693315 C4.24394508,15.1693315 3.97522424,14.898366 3.97522424,14.5668937" id="Fill-164" fill="#010202"></path>
                <path d="M3.97522424,14.5668937 C3.97522424,14.898366 3.70386888,15.1693315 3.37191961,15.1693315 C3.03997034,15.1693315 2.76861499,14.898366 2.76861499,14.5668937 C2.76861499,14.2354214 3.03997034,13.9644559 3.37191961,13.9644559 C3.70386888,13.9644559 3.97522424,14.2354214 3.97522424,14.5668937" id="Fill-166" fill="#010202"></path>
                <path d="M1.56305954,14.5668937 C1.56305954,14.2354214 1.83178038,13.9644559 2.16636417,13.9644559 C2.49831344,13.9644559 2.76966879,14.2354214 2.76966879,14.5668937 C2.76966879,14.898366 2.49831344,15.1693315 2.16636417,15.1693315 C1.83178038,15.1693315 1.56305954,14.898366 1.56305954,14.5668937" id="Fill-168" fill="#010202"></path>
                <g id="Group-172" transform="translate(0.000000, 13.251527)">
                    <mask id="mask-8" fill="white">
                        <use xlink:href="#path-7"></use>
                    </mask>
                    <g id="Clip-171"></g>
                    <path d="M0.356977192,1.3153664 C0.356977192,0.983894069 0.62569803,0.71292859 0.960281818,0.71292859 C1.29223109,0.71292859 1.56358644,0.983894069 1.56358644,1.3153664 C1.56358644,1.64683874 1.29223109,1.91780422 0.960281818,1.91780422 C0.62569803,1.91780422 0.356977192,1.64683874 0.356977192,1.3153664" id="Fill-170" fill="#010202" mask="url(#mask-8)"></path>
                </g>
                <path d="M18.4474221,13.3651749 C18.4474221,13.0337026 18.7187774,12.7627371 19.0507267,12.7627371 C19.382676,12.7627371 19.6540313,13.0337026 19.6540313,13.3651749 C19.6540313,13.6966473 19.382676,13.9676128 19.0507267,13.9676128 C18.7187774,13.9676128 18.4474221,13.6966473 18.4474221,13.3651749" id="Fill-173" fill="#010202"></path>
                <path d="M17.2413397,13.3651749 C17.2413397,13.0337026 17.5100606,12.7627371 17.8446444,12.7627371 C18.1765936,12.7627371 18.447949,13.0337026 18.447949,13.3651749 C18.447949,13.6966473 18.1765936,13.9676128 17.8446444,13.9676128 C17.5100606,13.9676128 17.2413397,13.6966473 17.2413397,13.3651749" id="Fill-175" fill="#010202"></path>
                <path d="M19.6535044,13.3651749 C19.6535044,13.0337026 19.9222253,12.7627371 20.2568091,12.7627371 C20.5887583,12.7627371 20.8601137,13.0337026 20.8601137,13.3651749 C20.8601137,13.6966473 20.5887583,13.9676128 20.2568091,13.9676128 C19.9222253,13.9676128 19.6535044,13.6966473 19.6535044,13.3651749" id="Fill-177" fill="#010202"></path>
                <path d="M20.8595868,13.3651749 C20.8595868,13.0337026 21.1283076,12.7627371 21.4628914,12.7627371 C21.7948407,12.7627371 22.066196,13.0337026 22.066196,13.3651749 C22.066196,13.6966473 21.7948407,13.9676128 21.4628914,13.9676128 C21.1283076,13.9676128 20.8595868,13.6966473 20.8595868,13.3651749" id="Fill-179" fill="#010202"></path>
                <path d="M3.97522424,13.3651749 C3.97522424,13.6966473 3.70386888,13.9676128 3.37191961,13.9676128 C3.03997034,13.9676128 2.76861499,13.6966473 2.76861499,13.3651749 C2.76861499,13.0337026 3.03997034,12.7627371 3.37191961,12.7627371 C3.70386888,12.7627371 3.97522424,13.0337026 3.97522424,13.3651749" id="Fill-181" fill="#010202"></path>
                <path d="M3.97522424,13.3651749 C3.97522424,13.0337026 4.24394508,12.7627371 4.57852887,12.7627371 C4.91047814,12.7627371 5.18183349,13.0337026 5.18183349,13.3651749 C5.18183349,13.6966473 4.91047814,13.9676128 4.57852887,13.9676128 C4.24394508,13.9676128 3.97522424,13.6966473 3.97522424,13.3651749" id="Fill-183" fill="#010202"></path>
                <path d="M1.56305954,13.3651749 C1.56305954,13.0337026 1.83178038,12.7627371 2.16636417,12.7627371 C2.49831344,12.7627371 2.76966879,13.0337026 2.76966879,13.3651749 C2.76966879,13.6966473 2.49831344,13.9676128 2.16636417,13.9676128 C1.83178038,13.9676128 1.56305954,13.6966473 1.56305954,13.3651749" id="Fill-185" fill="#010202"></path>
                <g id="Group-189" transform="translate(0.000000, 12.049809)">
                    <mask id="mask-10" fill="white">
                        <use xlink:href="#path-9"></use>
                    </mask>
                    <g id="Clip-188"></g>
                    <path d="M0.356977192,1.3153664 C0.356977192,0.983894069 0.62569803,0.71292859 0.960281818,0.71292859 C1.29223109,0.71292859 1.56358644,0.983894069 1.56358644,1.3153664 C1.56358644,1.64683874 1.29223109,1.91780422 0.960281818,1.91780422 C0.62569803,1.91780422 0.356977192,1.64683874 0.356977192,1.3153664" id="Fill-187" fill="#010202" mask="url(#mask-10)"></path>
                </g>
                <path d="M18.4474221,12.1513548 C18.4474221,11.8198825 18.7187774,11.548917 19.0507267,11.548917 C19.382676,11.548917 19.6540313,11.8198825 19.6540313,12.1513548 C19.6540313,12.4828272 19.382676,12.7537926 19.0507267,12.7537926 C18.7187774,12.7537926 18.4474221,12.4828272 18.4474221,12.1513548" id="Fill-190" fill="#010202"></path>
                <path d="M17.2413397,12.1513548 C17.2413397,11.8198825 17.5100606,11.548917 17.8446444,11.548917 C18.1765936,11.548917 18.447949,11.8198825 18.447949,12.1513548 C18.447949,12.4828272 18.1765936,12.7537926 17.8446444,12.7537926 C17.5100606,12.7537926 17.2413397,12.4828272 17.2413397,12.1513548" id="Fill-192" fill="#010202"></path>
                <path d="M19.6535044,12.1513548 C19.6535044,11.8198825 19.9222253,11.548917 20.2568091,11.548917 C20.5887583,11.548917 20.8601137,11.8198825 20.8601137,12.1513548 C20.8601137,12.4828272 20.5887583,12.7537926 20.2568091,12.7537926 C19.9222253,12.7537926 19.6535044,12.4828272 19.6535044,12.1513548" id="Fill-194" fill="#010202"></path>
                <path d="M20.8595868,12.1513548 C20.8595868,11.8198825 21.1283076,11.548917 21.4628914,11.548917 C21.7948407,11.548917 22.066196,11.8198825 22.066196,12.1513548 C22.066196,12.4828272 21.7948407,12.7537926 21.4628914,12.7537926 C21.1283076,12.7537926 20.8595868,12.4828272 20.8595868,12.1513548" id="Fill-196" fill="#010202"></path>
                <path d="M3.97522424,12.1513548 C3.97522424,12.4828272 3.70386888,12.7537926 3.37191961,12.7537926 C3.03997034,12.7537926 2.76861499,12.4828272 2.76861499,12.1513548 C2.76861499,11.8198825 3.03997034,11.548917 3.37191961,11.548917 C3.70386888,11.548917 3.97522424,11.8198825 3.97522424,12.1513548" id="Fill-198" fill="#010202"></path>
                <path d="M3.97522424,12.1513548 C3.97522424,11.8198825 4.24394508,11.548917 4.57852887,11.548917 C4.91047814,11.548917 5.18183349,11.8198825 5.18183349,12.1513548 C5.18183349,12.4828272 4.91047814,12.7537926 4.57852887,12.7537926 C4.24394508,12.7537926 3.97522424,12.4828272 3.97522424,12.1513548" id="Fill-200" fill="#010202"></path>
                <path d="M1.56305954,12.1513548 C1.56305954,11.8198825 1.83178038,11.548917 2.16636417,11.548917 C2.49831344,11.548917 2.76966879,11.8198825 2.76966879,12.1513548 C2.76966879,12.4828272 2.49831344,12.7537926 2.16636417,12.7537926 C1.83178038,12.7537926 1.56305954,12.4828272 1.56305954,12.1513548" id="Fill-202" fill="#010202"></path>
                <g id="Group-206" transform="translate(0.000000, 10.835988)">
                    <mask id="mask-12" fill="white">
                        <use xlink:href="#path-11"></use>
                    </mask>
                    <g id="Clip-205"></g>
                    <path d="M0.356977192,1.3153664 C0.356977192,0.983894069 0.62569803,0.71292859 0.960281818,0.71292859 C1.29223109,0.71292859 1.56358644,0.983894069 1.56358644,1.3153664 C1.56358644,1.64683874 1.29223109,1.91780422 0.960281818,1.91780422 C0.62569803,1.91780422 0.356977192,1.64683874 0.356977192,1.3153664" id="Fill-204" fill="#010202" mask="url(#mask-12)"></path>
                </g>
                <path d="M18.4474221,10.9591067 C18.4474221,10.6276344 18.7187774,10.3566689 19.0507267,10.3566689 C19.382676,10.3566689 19.6540313,10.6276344 19.6540313,10.9591067 C19.6540313,11.2905791 19.382676,11.5615445 19.0507267,11.5615445 C18.7187774,11.5615445 18.4474221,11.2905791 18.4474221,10.9591067" id="Fill-207" fill="#010202"></path>
                <path d="M17.2413397,10.9591067 C17.2413397,10.6276344 17.5100606,10.3566689 17.8446444,10.3566689 C18.1765936,10.3566689 18.447949,10.6276344 18.447949,10.9591067 C18.447949,11.2905791 18.1765936,11.5615445 17.8446444,11.5615445 C17.5100606,11.5615445 17.2413397,11.2905791 17.2413397,10.9591067" id="Fill-209" fill="#010202"></path>
                <path d="M19.6535044,10.9591067 C19.6535044,10.6276344 19.9222253,10.3566689 20.2568091,10.3566689 C20.5887583,10.3566689 20.8601137,10.6276344 20.8601137,10.9591067 C20.8601137,11.2905791 20.5887583,11.5615445 20.2568091,11.5615445 C19.9222253,11.5615445 19.6535044,11.2905791 19.6535044,10.9591067" id="Fill-211" fill="#010202"></path>
                <path d="M20.8595868,10.9591067 C20.8595868,10.6276344 21.1283076,10.3566689 21.4628914,10.3566689 C21.7948407,10.3566689 22.066196,10.6276344 22.066196,10.9591067 C22.066196,11.2905791 21.7948407,11.5615445 21.4628914,11.5615445 C21.1283076,11.5615445 20.8595868,11.2905791 20.8595868,10.9591067" id="Fill-213" fill="#010202"></path>
                <path d="M3.97522424,10.9591067 C3.97522424,11.2905791 3.70386888,11.5615445 3.37191961,11.5615445 C3.03997034,11.5615445 2.76861499,11.2905791 2.76861499,10.9591067 C2.76861499,10.6276344 3.03997034,10.3566689 3.37191961,10.3566689 C3.70386888,10.3566689 3.97522424,10.6276344 3.97522424,10.9591067" id="Fill-215" fill="#010202"></path>
                <path d="M3.97522424,10.9591067 C3.97522424,10.6276344 4.24394508,10.3566689 4.57852887,10.3566689 C4.91047814,10.3566689 5.18183349,10.6276344 5.18183349,10.9591067 C5.18183349,11.2905791 4.91047814,11.5615445 4.57852887,11.5615445 C4.24394508,11.5615445 3.97522424,11.2905791 3.97522424,10.9591067" id="Fill-217" fill="#010202"></path>
                <path d="M1.56305954,10.9591067 C1.56305954,10.6276344 1.83178038,10.3566689 2.16636417,10.3566689 C2.49831344,10.3566689 2.76966879,10.6276344 2.76966879,10.9591067 C2.76966879,11.2905791 2.49831344,11.5615445 2.16636417,11.5615445 C1.83178038,11.5615445 1.56305954,11.2905791 1.56305954,10.9591067" id="Fill-219" fill="#010202"></path>
                <g id="Group-223" transform="translate(0.000000, 9.643740)">
                    <mask id="mask-14" fill="white">
                        <use xlink:href="#path-13"></use>
                    </mask>
                    <g id="Clip-222"></g>
                    <path d="M0.356977192,1.3153664 C0.356977192,0.983894069 0.62569803,0.71292859 0.960281818,0.71292859 C1.29223109,0.71292859 1.56358644,0.983894069 1.56358644,1.3153664 C1.56358644,1.64683874 1.29223109,1.91780422 0.960281818,1.91780422 C0.62569803,1.91780422 0.356977192,1.64683874 0.356977192,1.3153664" id="Fill-221" fill="#010202" mask="url(#mask-14)"></path>
                </g>
                <path d="M18.4474221,9.74502353 C18.4474221,9.4135512 18.7187774,9.14258572 19.0507267,9.14258572 C19.382676,9.14258572 19.6540313,9.4135512 19.6540313,9.74502353 C19.6540313,10.0764959 19.382676,10.3474613 19.0507267,10.3474613 C18.7187774,10.3474613 18.4474221,10.0764959 18.4474221,9.74502353" id="Fill-224" fill="#010202"></path>
                <path d="M17.2413397,9.74502353 C17.2413397,9.4135512 17.5100606,9.14258572 17.8446444,9.14258572 C18.1765936,9.14258572 18.447949,9.4135512 18.447949,9.74502353 C18.447949,10.0764959 18.1765936,10.3474613 17.8446444,10.3474613 C17.5100606,10.3474613 17.2413397,10.0764959 17.2413397,9.74502353" id="Fill-226" fill="#010202"></path>
                <path d="M19.6535044,9.74502353 C19.6535044,9.4135512 19.9222253,9.14258572 20.2568091,9.14258572 C20.5887583,9.14258572 20.8601137,9.4135512 20.8601137,9.74502353 C20.8601137,10.0764959 20.5887583,10.3474613 20.2568091,10.3474613 C19.9222253,10.3474613 19.6535044,10.0764959 19.6535044,9.74502353" id="Fill-228" fill="#010202"></path>
                <path d="M20.8595868,9.74502353 C20.8595868,9.4135512 21.1283076,9.14258572 21.4628914,9.14258572 C21.7948407,9.14258572 22.066196,9.4135512 22.066196,9.74502353 C22.066196,10.0764959 21.7948407,10.3474613 21.4628914,10.3474613 C21.1283076,10.3474613 20.8595868,10.0764959 20.8595868,9.74502353" id="Fill-230" fill="#010202"></path>
                <path d="M3.97522424,9.74502353 C3.97522424,10.0764959 3.70386888,10.3474613 3.37191961,10.3474613 C3.03997034,10.3474613 2.76861499,10.0764959 2.76861499,9.74502353 C2.76861499,9.4135512 3.03997034,9.14258572 3.37191961,9.14258572 C3.70386888,9.14258572 3.97522424,9.4135512 3.97522424,9.74502353" id="Fill-232" fill="#010202"></path>
                <path d="M3.97522424,9.74502353 C3.97522424,9.4135512 4.24394508,9.14258572 4.57852887,9.14258572 C4.91047814,9.14258572 5.18183349,9.4135512 5.18183349,9.74502353 C5.18183349,10.0764959 4.91047814,10.3474613 4.57852887,10.3474613 C4.24394508,10.3474613 3.97522424,10.0764959 3.97522424,9.74502353" id="Fill-234" fill="#010202"></path>
                <path d="M1.56305954,9.74502353 C1.56305954,9.4135512 1.83178038,9.14258572 2.16636417,9.14258572 C2.49831344,9.14258572 2.76966879,9.4135512 2.76966879,9.74502353 C2.76966879,10.0764959 2.49831344,10.3474613 2.16636417,10.3474613 C1.83178038,10.3474613 1.56305954,10.0764959 1.56305954,9.74502353" id="Fill-236" fill="#010202"></path>
                <g id="Group-240" transform="translate(0.000000, 8.429657)">
                    <mask id="mask-16" fill="white">
                        <use xlink:href="#path-15"></use>
                    </mask>
                    <g id="Clip-239"></g>
                    <path d="M0.356977192,1.3153664 C0.356977192,0.983894069 0.62569803,0.71292859 0.960281818,0.71292859 C1.29223109,0.71292859 1.56358644,0.983894069 1.56358644,1.3153664 C1.56358644,1.64683874 1.29223109,1.91780422 0.960281818,1.91780422 C0.62569803,1.91780422 0.356977192,1.64683874 0.356977192,1.3153664" id="Fill-238" fill="#010202" mask="url(#mask-16)"></path>
                </g>
                <path d="M18.4474221,8.54093713 C18.4474221,8.20946479 18.7187774,7.93849931 19.0507267,7.93849931 C19.382676,7.93849931 19.6540313,8.20946479 19.6540313,8.54093713 C19.6540313,8.87240946 19.382676,9.14337494 19.0507267,9.14337494 C18.7187774,9.14337494 18.4474221,8.87240946 18.4474221,8.54093713" id="Fill-241" fill="#010202"></path>
                <path d="M19.6535044,8.54093713 C19.6535044,8.20946479 19.9222253,7.93849931 20.2568091,7.93849931 C20.5887583,7.93849931 20.8601137,8.20946479 20.8601137,8.54093713 C20.8601137,8.87240946 20.5887583,9.14337494 20.2568091,9.14337494 C19.9222253,9.14337494 19.6535044,8.87240946 19.6535044,8.54093713" id="Fill-243" fill="#010202"></path>
                <path d="M20.8595868,8.54093713 C20.8595868,8.20946479 21.1283076,7.93849931 21.4628914,7.93849931 C21.7948407,7.93849931 22.066196,8.20946479 22.066196,8.54093713 C22.066196,8.87240946 21.7948407,9.14337494 21.4628914,9.14337494 C21.1283076,9.14337494 20.8595868,8.87240946 20.8595868,8.54093713" id="Fill-245" fill="#010202"></path>
                <path d="M17.2413397,8.54093713 C17.2413397,8.20946479 17.5100606,7.93849931 17.8446444,7.93849931 C18.1765936,7.93849931 18.447949,8.20946479 18.447949,8.54093713 C18.447949,8.87240946 18.1765936,9.14337494 17.8446444,9.14337494 C17.5100606,9.14337494 17.2413397,8.87240946 17.2413397,8.54093713" id="Fill-247" fill="#010202"></path>
                <path d="M3.97522424,8.54093713 C3.97522424,8.20946479 4.24394508,7.93849931 4.57852887,7.93849931 C4.91047814,7.93849931 5.18183349,8.20946479 5.18183349,8.54093713 C5.18183349,8.87240946 4.91047814,9.14337494 4.57852887,9.14337494 C4.24394508,9.14337494 3.97522424,8.87240946 3.97522424,8.54093713" id="Fill-249" fill="#010202"></path>
                <path d="M3.97522424,8.54093713 C3.97522424,8.87240946 3.70386888,9.14337494 3.37191961,9.14337494 C3.03997034,9.14337494 2.76861499,8.87240946 2.76861499,8.54093713 C2.76861499,8.20946479 3.03997034,7.93849931 3.37191961,7.93849931 C3.70386888,7.93849931 3.97522424,8.20946479 3.97522424,8.54093713" id="Fill-251" fill="#010202"></path>
                <path d="M1.56305954,8.54093713 C1.56305954,8.20946479 1.83178038,7.93849931 2.16636417,7.93849931 C2.49831344,7.93849931 2.76966879,8.20946479 2.76966879,8.54093713 C2.76966879,8.87240946 2.49831344,9.14337494 2.16636417,9.14337494 C1.83178038,9.14337494 1.56305954,8.87240946 1.56305954,8.54093713" id="Fill-253" fill="#010202"></path>
                <g id="Group-257" transform="translate(0.000000, 7.225571)">
                    <mask id="mask-18" fill="white">
                        <use xlink:href="#path-17"></use>
                    </mask>
                    <g id="Clip-256"></g>
                    <path d="M0.356977192,1.3153664 C0.356977192,0.983894069 0.62569803,0.71292859 0.960281818,0.71292859 C1.29223109,0.71292859 1.56358644,0.983894069 1.56358644,1.3153664 C1.56358644,1.64683874 1.29223109,1.91780422 0.960281818,1.91780422 C0.62569803,1.91780422 0.356977192,1.64683874 0.356977192,1.3153664" id="Fill-255" fill="#010202" mask="url(#mask-18)"></path>
                </g>
                <path d="M17.2413397,7.33658765 C17.2413397,7.00511531 17.5100606,6.73414983 17.8446444,6.73414983 C18.1765936,6.73414983 18.447949,7.00511531 18.447949,7.33658765 C18.447949,7.66805998 18.1765936,7.93902546 17.8446444,7.93902546 C17.5100606,7.93902546 17.2413397,7.66805998 17.2413397,7.33658765" id="Fill-258" fill="#010202"></path>
                <path d="M18.4474221,7.33658765 C18.4474221,7.00511531 18.7187774,6.73414983 19.0507267,6.73414983 C19.382676,6.73414983 19.6540313,7.00511531 19.6540313,7.33658765 C19.6540313,7.66805998 19.382676,7.93902546 19.0507267,7.93902546 C18.7187774,7.93902546 18.4474221,7.66805998 18.4474221,7.33658765" id="Fill-260" fill="#010202"></path>
                <path d="M19.6535044,7.33658765 C19.6535044,7.00511531 19.9222253,6.73414983 20.2568091,6.73414983 C20.5887583,6.73414983 20.8601137,7.00511531 20.8601137,7.33658765 C20.8601137,7.66805998 20.5887583,7.93902546 20.2568091,7.93902546 C19.9222253,7.93902546 19.6535044,7.66805998 19.6535044,7.33658765" id="Fill-262" fill="#010202"></path>
                <path d="M20.8595868,7.33658765 C20.8595868,7.00511531 21.1283076,6.73414983 21.4628914,6.73414983 C21.7948407,6.73414983 22.066196,7.00511531 22.066196,7.33658765 C22.066196,7.66805998 21.7948407,7.93902546 21.4628914,7.93902546 C21.1283076,7.93902546 20.8595868,7.66805998 20.8595868,7.33658765" id="Fill-264" fill="#010202"></path>
                <path d="M3.97522424,7.33658765 C3.97522424,7.00511531 4.24394508,6.73414983 4.57852887,6.73414983 C4.91047814,6.73414983 5.18183349,7.00511531 5.18183349,7.33658765 C5.18183349,7.66805998 4.91047814,7.93902546 4.57852887,7.93902546 C4.24394508,7.93902546 3.97522424,7.66805998 3.97522424,7.33658765" id="Fill-266" fill="#010202"></path>
                <path d="M3.97522424,7.33658765 C3.97522424,7.66805998 3.70386888,7.93902546 3.37191961,7.93902546 C3.03997034,7.93902546 2.76861499,7.66805998 2.76861499,7.33658765 C2.76861499,7.00511531 3.03997034,6.73414983 3.37191961,6.73414983 C3.70386888,6.73414983 3.97522424,7.00511531 3.97522424,7.33658765" id="Fill-268" fill="#010202"></path>
                <path d="M1.56305954,7.33658765 C1.56305954,7.00511531 1.83178038,6.73414983 2.16636417,6.73414983 C2.49831344,6.73414983 2.76966879,7.00511531 2.76966879,7.33658765 C2.76966879,7.66805998 2.49831344,7.93902546 2.16636417,7.93902546 C1.83178038,7.93902546 1.56305954,7.66805998 1.56305954,7.33658765" id="Fill-270" fill="#010202"></path>
                <path d="M17.2413397,6.13223817 C17.2413397,5.80076584 17.5100606,5.52980036 17.8446444,5.52980036 C18.1765936,5.52980036 18.447949,5.80076584 18.447949,6.13223817 C18.447949,6.4637105 18.1765936,6.73467598 17.8446444,6.73467598 C17.5100606,6.73467598 17.2413397,6.4637105 17.2413397,6.13223817" id="Fill-272" fill="#010202"></path>
                <path d="M18.4474221,6.13223817 C18.4474221,5.80076584 18.7187774,5.52980036 19.0507267,5.52980036 C19.382676,5.52980036 19.6540313,5.80076584 19.6540313,6.13223817 C19.6540313,6.4637105 19.382676,6.73467598 19.0507267,6.73467598 C18.7187774,6.73467598 18.4474221,6.4637105 18.4474221,6.13223817" id="Fill-274" fill="#010202"></path>
                <path d="M19.6535044,6.13223817 C19.6535044,5.80076584 19.9222253,5.52980036 20.2568091,5.52980036 C20.5887583,5.52980036 20.8601137,5.80076584 20.8601137,6.13223817 C20.8601137,6.4637105 20.5887583,6.73467598 20.2568091,6.73467598 C19.9222253,6.73467598 19.6535044,6.4637105 19.6535044,6.13223817" id="Fill-276" fill="#010202"></path>
                <path d="M20.8595868,6.13223817 C20.8595868,5.80076584 21.1283076,5.52980036 21.4628914,5.52980036 C21.7948407,5.52980036 22.066196,5.80076584 22.066196,6.13223817 C22.066196,6.4637105 21.7948407,6.73467598 21.4628914,6.73467598 C21.1283076,6.73467598 20.8595868,6.4637105 20.8595868,6.13223817" id="Fill-278" fill="#010202"></path>
                <path d="M3.97522424,6.13223817 C3.97522424,6.4637105 3.70386888,6.73467598 3.37191961,6.73467598 C3.03997034,6.73467598 2.76861499,6.4637105 2.76861499,6.13223817 C2.76861499,5.80076584 3.03997034,5.52980036 3.37191961,5.52980036 C3.70386888,5.52980036 3.97522424,5.80076584 3.97522424,6.13223817" id="Fill-280" fill="#010202"></path>
                <path d="M3.97522424,6.13223817 C3.97522424,5.80076584 4.24394508,5.52980036 4.57852887,5.52980036 C4.91047814,5.52980036 5.18183349,5.80076584 5.18183349,6.13223817 C5.18183349,6.4637105 4.91047814,6.73467598 4.57852887,6.73467598 C4.24394508,6.73467598 3.97522424,6.4637105 3.97522424,6.13223817" id="Fill-282" fill="#010202"></path>
                <path d="M11.8142326,4.32571395 C12.1461819,4.32571395 12.4175372,4.5940487 12.4175372,4.92815176 C12.4175372,5.2596241 12.1461819,5.53058958 11.8142326,5.53058958 C11.4822833,5.53058958 11.210928,5.2596241 11.210928,4.92815176 C11.210928,4.5940487 11.4822833,4.32571395 11.8142326,4.32571395" id="Fill-284" fill="#010202"></path>
                <path d="M13.020315,4.32571395 C13.3522642,4.32571395 13.6236196,4.5940487 13.6236196,4.92815176 C13.6236196,5.2596241 13.3522642,5.53058958 13.020315,5.53058958 C12.6883657,5.53058958 12.4170103,5.2596241 12.4170103,4.92815176 C12.4170103,4.5940487 12.6883657,4.32571395 13.020315,4.32571395" id="Fill-286" fill="#010202"></path>
                <path d="M17.8443809,4.32571395 C18.1763302,4.32571395 18.4476855,4.5940487 18.4476855,4.92815176 C18.4476855,5.2596241 18.1763302,5.53058958 17.8443809,5.53058958 C17.5124316,5.53058958 17.2410763,5.2596241 17.2410763,4.92815176 C17.2410763,4.5940487 17.5124316,4.32571395 17.8443809,4.32571395" id="Fill-288" fill="#010202"></path>
                <path d="M13.6233561,4.92815176 C13.6233561,4.59667943 13.892077,4.32571395 14.2266608,4.32571395 C14.55861,4.32571395 14.8299654,4.59667943 14.8299654,4.92815176 C14.8299654,5.2596241 14.55861,5.53058958 14.2266608,5.53058958 C13.892077,5.53058958 13.6233561,5.2596241 13.6233561,4.92815176" id="Fill-290" fill="#010202"></path>
                <path d="M18.4474221,4.92815176 C18.4474221,4.59667943 18.7187774,4.32571395 19.0507267,4.32571395 C19.382676,4.32571395 19.6540313,4.59667943 19.6540313,4.92815176 C19.6540313,5.2596241 19.382676,5.53058958 19.0507267,5.53058958 C18.7187774,5.53058958 18.4474221,5.2596241 18.4474221,4.92815176" id="Fill-292" fill="#010202"></path>
                <path d="M14.8294385,4.92815176 C14.8294385,4.59667943 15.0981593,4.32571395 15.4327431,4.32571395 C15.7646924,4.32571395 16.0360477,4.59667943 16.0360477,4.92815176 C16.0360477,5.2596241 15.7646924,5.53058958 15.4327431,5.53058958 C15.0981593,5.53058958 14.8294385,5.2596241 14.8294385,4.92815176" id="Fill-294" fill="#010202"></path>
                <path d="M19.6535044,4.92815176 C19.6535044,4.59667943 19.9222253,4.32571395 20.2568091,4.32571395 C20.5887583,4.32571395 20.8601137,4.59667943 20.8601137,4.92815176 C20.8601137,5.2596241 20.5887583,5.53058958 20.2568091,5.53058958 C19.9222253,5.53058958 19.6535044,5.2596241 19.6535044,4.92815176" id="Fill-296" fill="#010202"></path>
                <path d="M16.0352574,4.92815176 C16.0352574,4.59667943 16.3066127,4.32571395 16.638562,4.32571395 C16.9705113,4.32571395 17.2418666,4.59667943 17.2418666,4.92815176 C17.2418666,5.2596241 16.9705113,5.53058958 16.638562,5.53058958 C16.3066127,5.53058958 16.0352574,5.2596241 16.0352574,4.92815176" id="Fill-298" fill="#010202"></path>
                <path d="M20.8595868,4.92815176 C20.8595868,4.59667943 21.1283076,4.32571395 21.4628914,4.32571395 C21.7948407,4.32571395 22.066196,4.59667943 22.066196,4.92815176 C22.066196,5.2596241 21.7948407,5.53058958 21.4628914,5.53058958 C21.1283076,5.53058958 20.8595868,5.2596241 20.8595868,4.92815176" id="Fill-300" fill="#010202"></path>
                <path d="M10.6081503,4.32571395 C10.9400995,4.32571395 11.2114549,4.5940487 11.2114549,4.92815176 C11.2114549,5.2596241 10.9400995,5.53058958 10.6081503,5.53058958 C10.276201,5.53058958 10.0048456,5.2596241 10.0048456,4.92815176 C10.0048456,4.5940487 10.276201,4.32571395 10.6081503,4.32571395" id="Fill-302" fill="#010202"></path>
                <path d="M4.57800196,4.32571395 C4.90995123,4.32571395 5.18130659,4.5940487 5.18130659,4.92815176 C5.18130659,5.2596241 4.90995123,5.53058958 4.57800196,5.53058958 C4.24605269,5.53058958 3.97469734,5.2596241 3.97469734,4.92815176 C3.97469734,4.5940487 4.24605269,4.32571395 4.57800196,4.32571395" id="Fill-304" fill="#010202"></path>
                <path d="M5.78408431,4.32571395 C6.11603358,4.32571395 6.38738894,4.5940487 6.38738894,4.92815176 C6.38738894,5.2596241 6.11603358,5.53058958 5.78408431,5.53058958 C5.45213504,5.53058958 5.18077969,5.2596241 5.18077969,4.92815176 C5.18077969,4.5940487 5.45213504,4.32571395 5.78408431,4.32571395" id="Fill-306" fill="#010202"></path>
                <path d="M6.99016666,4.32571395 C7.32211593,4.32571395 7.59347129,4.5940487 7.59347129,4.92815176 C7.59347129,5.2596241 7.32211593,5.53058958 6.99016666,5.53058958 C6.65821739,5.53058958 6.38686203,5.2596241 6.38686203,4.92815176 C6.38686203,4.5940487 6.65821739,4.32571395 6.99016666,4.32571395" id="Fill-308" fill="#010202"></path>
                <path d="M8.19624901,4.32571395 C8.52819828,4.32571395 8.79955364,4.5940487 8.79955364,4.92815176 C8.79955364,5.2596241 8.52819828,5.53058958 8.19624901,5.53058958 C7.86429974,5.53058958 7.59294438,5.2596241 7.59294438,4.92815176 C7.59294438,4.5940487 7.86429974,4.32571395 8.19624901,4.32571395" id="Fill-310" fill="#010202"></path>
                <path d="M9.40233136,4.32571395 C9.73428063,4.32571395 10.005636,4.5940487 10.005636,4.92815176 C10.005636,5.2596241 9.73428063,5.53058958 9.40233136,5.53058958 C9.07038209,5.53058958 8.79902673,5.2596241 8.79902673,4.92815176 C8.79902673,4.5940487 9.07038209,4.32571395 9.40233136,4.32571395" id="Fill-312" fill="#010202"></path>
                <path d="M11.8142326,3.12162755 C12.1461819,3.12162755 12.4175372,3.38996229 12.4175372,3.72406536 C12.4175372,4.05553769 12.1461819,4.32650317 11.8142326,4.32650317 C11.4822833,4.32650317 11.210928,4.05553769 11.210928,3.72406536 C11.210928,3.38996229 11.4822833,3.12162755 11.8142326,3.12162755" id="Fill-314" fill="#010202"></path>
                <path d="M13.020315,3.12162755 C13.3522642,3.12162755 13.6236196,3.38996229 13.6236196,3.72406536 C13.6236196,4.05553769 13.3522642,4.32650317 13.020315,4.32650317 C12.6883657,4.32650317 12.4170103,4.05553769 12.4170103,3.72406536 C12.4170103,3.38996229 12.6883657,3.12162755 13.020315,3.12162755" id="Fill-316" fill="#010202"></path>
                <path d="M17.8443809,3.12162755 C18.1763302,3.12162755 18.4476855,3.38996229 18.4476855,3.72406536 C18.4476855,4.05553769 18.1763302,4.32650317 17.8443809,4.32650317 C17.5124316,4.32650317 17.2410763,4.05553769 17.2410763,3.72406536 C17.2410763,3.38996229 17.5124316,3.12162755 17.8443809,3.12162755" id="Fill-318" fill="#010202"></path>
                <path d="M14.2263973,3.12162755 C14.5583466,3.12162755 14.8297019,3.38996229 14.8297019,3.72406536 C14.8297019,4.05553769 14.5583466,4.32650317 14.2263973,4.32650317 C13.894448,4.32650317 13.6230927,4.05553769 13.6230927,3.72406536 C13.6230927,3.38996229 13.894448,3.12162755 14.2263973,3.12162755" id="Fill-320" fill="#010202"></path>
                <path d="M19.0504633,3.12162755 C19.3824125,3.12162755 19.6537679,3.38996229 19.6537679,3.72406536 C19.6537679,4.05553769 19.3824125,4.32650317 19.0504633,4.32650317 C18.718514,4.32650317 18.4471586,4.05553769 18.4471586,3.72406536 C18.4471586,3.38996229 18.718514,3.12162755 19.0504633,3.12162755" id="Fill-322" fill="#010202"></path>
                <path d="M15.4324797,3.12162755 C15.7644289,3.12162755 16.0357843,3.38996229 16.0357843,3.72406536 C16.0357843,4.05553769 15.7644289,4.32650317 15.4324797,4.32650317 C15.1005304,4.32650317 14.829175,4.05553769 14.829175,3.72406536 C14.829175,3.38996229 15.1005304,3.12162755 15.4324797,3.12162755" id="Fill-324" fill="#010202"></path>
                <path d="M20.2565456,3.12162755 C20.5884949,3.12162755 20.8598502,3.38996229 20.8598502,3.72406536 C20.8598502,4.05553769 20.5884949,4.32650317 20.2565456,4.32650317 C19.9245963,4.32650317 19.653241,4.05553769 19.653241,3.72406536 C19.653241,3.38996229 19.9245963,3.12162755 20.2565456,3.12162755" id="Fill-326" fill="#010202"></path>
                <path d="M16.6382986,3.12162755 C16.9702478,3.12162755 17.2416032,3.38996229 17.2416032,3.72406536 C17.2416032,4.05553769 16.9702478,4.32650317 16.6382986,4.32650317 C16.3063493,4.32650317 16.0349939,4.05553769 16.0349939,3.72406536 C16.0349939,3.38996229 16.3063493,3.12162755 16.6382986,3.12162755" id="Fill-328" fill="#010202"></path>
                <path d="M21.462628,3.12162755 C21.7945772,3.12162755 22.0659326,3.38996229 22.0659326,3.72406536 C22.0659326,4.05553769 21.7945772,4.32650317 21.462628,4.32650317 C21.1306787,4.32650317 20.8593233,4.05553769 20.8593233,3.72406536 C20.8593233,3.38996229 21.1306787,3.12162755 21.462628,3.12162755" id="Fill-330" fill="#010202"></path>
                <path d="M10.6081503,3.12162755 C10.9400995,3.12162755 11.2114549,3.38996229 11.2114549,3.72406536 C11.2114549,4.05553769 10.9400995,4.32650317 10.6081503,4.32650317 C10.276201,4.32650317 10.0048456,4.05553769 10.0048456,3.72406536 C10.0048456,3.38996229 10.276201,3.12162755 10.6081503,3.12162755" id="Fill-332" fill="#010202"></path>
                <path d="M5.78408431,3.12162755 C6.11603358,3.12162755 6.38738894,3.38996229 6.38738894,3.72406536 C6.38738894,4.05553769 6.11603358,4.32650317 5.78408431,4.32650317 C5.45213504,4.32650317 5.18077969,4.05553769 5.18077969,3.72406536 C5.18077969,3.38996229 5.45213504,3.12162755 5.78408431,3.12162755" id="Fill-334" fill="#010202"></path>
                <path d="M6.99016666,3.12162755 C7.32211593,3.12162755 7.59347129,3.38996229 7.59347129,3.72406536 C7.59347129,4.05553769 7.32211593,4.32650317 6.99016666,4.32650317 C6.65821739,4.32650317 6.38686203,4.05553769 6.38686203,3.72406536 C6.38686203,3.38996229 6.65821739,3.12162755 6.99016666,3.12162755" id="Fill-336" fill="#010202"></path>
                <path d="M8.19624901,3.12162755 C8.52819828,3.12162755 8.79955364,3.38996229 8.79955364,3.72406536 C8.79955364,4.05553769 8.52819828,4.32650317 8.19624901,4.32650317 C7.86429974,4.32650317 7.59294438,4.05553769 7.59294438,3.72406536 C7.59294438,3.38996229 7.86429974,3.12162755 8.19624901,3.12162755" id="Fill-338" fill="#010202"></path>
                <path d="M9.40233136,3.12162755 C9.73428063,3.12162755 10.005636,3.38996229 10.005636,3.72406536 C10.005636,4.05553769 9.73428063,4.32650317 9.40233136,4.32650317 C9.07038209,4.32650317 8.79902673,4.05553769 8.79902673,3.72406536 C8.79902673,3.38996229 9.07038209,3.12162755 9.40233136,3.12162755" id="Fill-340" fill="#010202"></path>
                <path d="M11.8142326,1.91727807 C12.1461819,1.91727807 12.4175372,2.18561281 12.4175372,2.51971588 C12.4175372,2.85118821 12.1461819,3.12215369 11.8142326,3.12215369 C11.4822833,3.12215369 11.210928,2.85118821 11.210928,2.51971588 C11.210928,2.18561281 11.4822833,1.91727807 11.8142326,1.91727807" id="Fill-342" fill="#010202"></path>
                <path d="M13.020315,1.91727807 C13.3522642,1.91727807 13.6236196,2.18561281 13.6236196,2.51971588 C13.6236196,2.85118821 13.3522642,3.12215369 13.020315,3.12215369 C12.6883657,3.12215369 12.4170103,2.85118821 12.4170103,2.51971588 C12.4170103,2.18561281 12.6883657,1.91727807 13.020315,1.91727807" id="Fill-344" fill="#010202"></path>
                <path d="M17.8443809,1.91727807 C18.1763302,1.91727807 18.4476855,2.18561281 18.4476855,2.51971588 C18.4476855,2.85118821 18.1763302,3.12215369 17.8443809,3.12215369 C17.5124316,3.12215369 17.2410763,2.85118821 17.2410763,2.51971588 C17.2410763,2.18561281 17.5124316,1.91727807 17.8443809,1.91727807" id="Fill-346" fill="#010202"></path>
                <path d="M14.2263973,1.91727807 C14.5583466,1.91727807 14.8297019,2.18561281 14.8297019,2.51971588 C14.8297019,2.85118821 14.5583466,3.12215369 14.2263973,3.12215369 C13.894448,3.12215369 13.6230927,2.85118821 13.6230927,2.51971588 C13.6230927,2.18561281 13.894448,1.91727807 14.2263973,1.91727807" id="Fill-348" fill="#010202"></path>
                <path d="M19.0504633,1.91727807 C19.3824125,1.91727807 19.6537679,2.18561281 19.6537679,2.51971588 C19.6537679,2.85118821 19.3824125,3.12215369 19.0504633,3.12215369 C18.718514,3.12215369 18.4471586,2.85118821 18.4471586,2.51971588 C18.4471586,2.18561281 18.718514,1.91727807 19.0504633,1.91727807" id="Fill-350" fill="#010202"></path>
                <path d="M15.4324797,1.91727807 C15.7644289,1.91727807 16.0357843,2.18561281 16.0357843,2.51971588 C16.0357843,2.85118821 15.7644289,3.12215369 15.4324797,3.12215369 C15.1005304,3.12215369 14.829175,2.85118821 14.829175,2.51971588 C14.829175,2.18561281 15.1005304,1.91727807 15.4324797,1.91727807" id="Fill-352" fill="#010202"></path>
                <path d="M20.2565456,1.91727807 C20.5884949,1.91727807 20.8598502,2.18561281 20.8598502,2.51971588 C20.8598502,2.85118821 20.5884949,3.12215369 20.2565456,3.12215369 C19.9245963,3.12215369 19.653241,2.85118821 19.653241,2.51971588 C19.653241,2.18561281 19.9245963,1.91727807 20.2565456,1.91727807" id="Fill-354" fill="#010202"></path>
                <path d="M16.6382986,1.91727807 C16.9702478,1.91727807 17.2416032,2.18561281 17.2416032,2.51971588 C17.2416032,2.85118821 16.9702478,3.12215369 16.6382986,3.12215369 C16.3063493,3.12215369 16.0349939,2.85118821 16.0349939,2.51971588 C16.0349939,2.18561281 16.3063493,1.91727807 16.6382986,1.91727807" id="Fill-356" fill="#010202"></path>
                <path d="M21.462628,1.91727807 C21.7945772,1.91727807 22.0659326,2.18561281 22.0659326,2.51971588 C22.0659326,2.85118821 21.7945772,3.12215369 21.462628,3.12215369 C21.1306787,3.12215369 20.8593233,2.85118821 20.8593233,2.51971588 C20.8593233,2.18561281 21.1306787,1.91727807 21.462628,1.91727807" id="Fill-358" fill="#010202"></path>
                <path d="M6.99016666,1.91727807 C7.32211593,1.91727807 7.59347129,2.18561281 7.59347129,2.51971588 C7.59347129,2.85118821 7.32211593,3.12215369 6.99016666,3.12215369 C6.65821739,3.12215369 6.38686203,2.85118821 6.38686203,2.51971588 C6.38686203,2.18561281 6.65821739,1.91727807 6.99016666,1.91727807" id="Fill-360" fill="#010202"></path>
                <path d="M8.19624901,1.91727807 C8.52819828,1.91727807 8.79955364,2.18561281 8.79955364,2.51971588 C8.79955364,2.85118821 8.52819828,3.12215369 8.19624901,3.12215369 C7.86429974,3.12215369 7.59294438,2.85118821 7.59294438,2.51971588 C7.59294438,2.18561281 7.86429974,1.91727807 8.19624901,1.91727807" id="Fill-362" fill="#010202"></path>
                <path d="M9.40233136,1.91727807 C9.73428063,1.91727807 10.005636,2.18561281 10.005636,2.51971588 C10.005636,2.85118821 9.73428063,3.12215369 9.40233136,3.12215369 C9.07038209,3.12215369 8.79902673,2.85118821 8.79902673,2.51971588 C8.79902673,2.18561281 9.07038209,1.91727807 9.40233136,1.91727807" id="Fill-364" fill="#010202"></path>
                <path d="M10.6081503,1.91727807 C10.9400995,1.91727807 11.2114549,2.18561281 11.2114549,2.51971588 C11.2114549,2.85118821 10.9400995,3.12215369 10.6081503,3.12215369 C10.276201,3.12215369 10.0048456,2.85118821 10.0048456,2.51971588 C10.0048456,2.18561281 10.276201,1.91727807 10.6081503,1.91727807" id="Fill-366" fill="#010202"></path>
                <path d="M17.8443809,0.71292859 C18.1763302,0.71292859 18.4476855,0.981263336 18.4476855,1.3153664 C18.4476855,1.64683874 18.1763302,1.91780422 17.8443809,1.91780422 C17.5124316,1.91780422 17.2410763,1.64683874 17.2410763,1.3153664 C17.2410763,0.981263336 17.5124316,0.71292859 17.8443809,0.71292859" id="Fill-368" fill="#010202"></path>
                <path d="M19.0504633,0.71292859 C19.3824125,0.71292859 19.6537679,0.981263336 19.6537679,1.3153664 C19.6537679,1.64683874 19.3824125,1.91780422 19.0504633,1.91780422 C18.718514,1.91780422 18.4471586,1.64683874 18.4471586,1.3153664 C18.4471586,0.981263336 18.718514,0.71292859 19.0504633,0.71292859" id="Fill-370" fill="#010202"></path>
                <path d="M20.2565456,0.71292859 C20.5884949,0.71292859 20.8598502,0.981263336 20.8598502,1.3153664 C20.8598502,1.64683874 20.5884949,1.91780422 20.2565456,1.91780422 C19.9245963,1.91780422 19.653241,1.64683874 19.653241,1.3153664 C19.653241,0.981263336 19.9245963,0.71292859 20.2565456,0.71292859" id="Fill-372" fill="#010202"></path>
                <path d="M21.462628,0.71292859 C21.7945772,0.71292859 22.0659326,0.981263336 22.0659326,1.3153664 C22.0659326,1.64683874 21.7945772,1.91780422 21.462628,1.91780422 C21.1306787,1.91780422 20.8593233,1.64683874 20.8593233,1.3153664 C20.8593233,0.981263336 21.1306787,0.71292859 21.462628,0.71292859" id="Fill-374" fill="#010202"></path>
                <path d="M11.8142326,0.71292859 C12.1461819,0.71292859 12.4175372,0.981263336 12.4175372,1.3153664 C12.4175372,1.64683874 12.1461819,1.91780422 11.8142326,1.91780422 C11.4822833,1.91780422 11.210928,1.64683874 11.210928,1.3153664 C11.210928,0.981263336 11.4822833,0.71292859 11.8142326,0.71292859" id="Fill-376" fill="#010202"></path>
                <path d="M13.020315,0.71292859 C13.3522642,0.71292859 13.6236196,0.981263336 13.6236196,1.3153664 C13.6236196,1.64683874 13.3522642,1.91780422 13.020315,1.91780422 C12.6883657,1.91780422 12.4170103,1.64683874 12.4170103,1.3153664 C12.4170103,0.981263336 12.6883657,0.71292859 13.020315,0.71292859" id="Fill-378" fill="#010202"></path>
                <path d="M14.2263973,0.71292859 C14.5583466,0.71292859 14.8297019,0.981263336 14.8297019,1.3153664 C14.8297019,1.64683874 14.5583466,1.91780422 14.2263973,1.91780422 C13.894448,1.91780422 13.6230927,1.64683874 13.6230927,1.3153664 C13.6230927,0.981263336 13.894448,0.71292859 14.2263973,0.71292859" id="Fill-380" fill="#010202"></path>
                <path d="M15.4324797,0.71292859 C15.7644289,0.71292859 16.0357843,0.981263336 16.0357843,1.3153664 C16.0357843,1.64683874 15.7644289,1.91780422 15.4324797,1.91780422 C15.1005304,1.91780422 14.829175,1.64683874 14.829175,1.3153664 C14.829175,0.981263336 15.1005304,0.71292859 15.4324797,0.71292859" id="Fill-382" fill="#010202"></path>
                <path d="M16.6382986,0.71292859 C16.9702478,0.71292859 17.2416032,0.981263336 17.2416032,1.3153664 C17.2416032,1.64683874 16.9702478,1.91780422 16.6382986,1.91780422 C16.3063493,1.91780422 16.0349939,1.64683874 16.0349939,1.3153664 C16.0349939,0.981263336 16.3063493,0.71292859 16.6382986,0.71292859" id="Fill-384" fill="#010202"></path>
                <path d="M8.19624901,0.71292859 C8.52819828,0.71292859 8.79955364,0.981263336 8.79955364,1.3153664 C8.79955364,1.64683874 8.52819828,1.91780422 8.19624901,1.91780422 C7.86429974,1.91780422 7.59294438,1.64683874 7.59294438,1.3153664 C7.59294438,0.981263336 7.86429974,0.71292859 8.19624901,0.71292859" id="Fill-386" fill="#010202"></path>
                <path d="M9.40233136,0.71292859 C9.73428063,0.71292859 10.005636,0.981263336 10.005636,1.3153664 C10.005636,1.64683874 9.73428063,1.91780422 9.40233136,1.91780422 C9.07038209,1.91780422 8.79902673,1.64683874 8.79902673,1.3153664 C8.79902673,0.981263336 9.07038209,0.71292859 9.40233136,0.71292859" id="Fill-388" fill="#010202"></path>
                <path d="M10.6081503,0.71292859 C10.9400995,0.71292859 11.2114549,0.981263336 11.2114549,1.3153664 C11.2114549,1.64683874 10.9400995,1.91780422 10.6081503,1.91780422 C10.276201,1.91780422 10.0048456,1.64683874 10.0048456,1.3153664 C10.0048456,0.981263336 10.276201,0.71292859 10.6081503,0.71292859" id="Fill-390" fill="#010202"></path>
                <path d="M50.516883,19.5110929 C51.1649745,19.5110929 51.7656446,19.3874485 52.337335,19.1427903 C52.9011218,18.9007629 53.3937767,18.5613984 53.8152996,18.1352197 C54.239457,17.7064102 54.5661372,17.1960481 54.7979748,16.6093946 C55.0298124,16.0227412 55.1483657,15.3992575 55.1483657,14.7336821 C55.1483657,14.0707375 55.0298124,13.4525153 54.7979748,12.8763848 C54.5661372,12.302885 54.2315534,11.7977843 53.8152996,11.3689749 C53.3937767,10.9427962 52.9011218,10.6060624 52.337335,10.3614042 C51.7709136,10.1193768 51.1649745,9.99310163 50.516883,9.99310163 C49.85035,9.99310163 49.2391418,10.1193768 48.685893,10.3745579 C48.1273752,10.6271082 47.6452584,10.9664728 47.2342736,11.4005437 C46.8259233,11.8267224 46.5045121,12.3318231 46.2674055,12.9079536 C46.0355679,13.4814533 45.91438,14.0944141 45.91438,14.7336821 C45.91438,15.3992575 46.0355679,16.0174798 46.2674055,16.5909795 C46.499243,17.16711 46.8259233,17.6722107 47.2342736,18.0983894 C47.6452584,18.5245681 48.1273752,18.8691941 48.685893,19.1243752 C49.2391418,19.3874485 49.85035,19.5110929 50.516883,19.5110929 M50.9858272,22.3838531 C49.9873449,22.3838531 49.0547255,22.1812867 48.1853346,21.7840461 C47.3185782,21.3868054 46.6046238,20.8211979 46.0592785,20.0977463 L46.0592785,22.1102569 L42.979527,22.1102569 L42.979527,0.719768496 L46.0882582,0.719768496 L46.0882582,9.41170968 C46.636238,8.73034989 47.3370198,8.18315746 48.1853346,7.77539388 C49.0362839,7.36499956 49.9583652,7.15717167 50.9568475,7.15717167 C51.9131776,7.15717167 52.8352589,7.3360615 53.7151879,7.68594896 C54.5951169,8.03583643 55.3722997,8.54619859 56.0441018,9.21177399 C56.7185384,9.87471866 57.2586146,10.6770922 57.6564269,11.613633 C58.0542391,12.5501739 58.257097,13.5998363 58.257097,14.7757739 C58.257097,15.9517114 58.04897,17.0013738 57.6379852,17.9379147 C57.2296349,18.8770863 56.6869242,19.6715676 56.0098531,20.3239894 C55.338051,20.9764111 54.5661372,21.4867733 53.6914772,21.8498144 C52.8299898,22.1997019 51.9263502,22.3838531 50.9858272,22.3838531" id="Fill-392" fill="#010202"></path>
                <path d="M79.4204437,19.1317413 C79.9789615,18.8765602 80.4610783,18.5398264 80.8720631,18.1057555 C81.2804134,17.676946 81.6018246,17.174476 81.8389312,16.5983456 C82.0707688,16.0222151 82.1919566,15.4066236 82.1919566,14.7410482 C82.1919566,14.0938879 82.0707688,13.4888194 81.8389312,12.9126889 C81.6070936,12.3365584 81.2804134,11.8340885 80.8720631,11.405279 C80.4610783,10.9791003 79.9789615,10.6344743 79.4204437,10.3792932 C78.8619259,10.1241121 78.2559867,10.0004677 77.5894536,10.0004677 C76.9413622,10.0004677 76.3406921,10.1241121 75.7690017,10.3687703 C75.2052148,10.6107977 74.71256,10.9501622 74.2910371,11.3763409 C73.8668797,11.8051504 73.5401995,12.3076204 73.3083619,12.8837508 C73.0765243,13.4598813 72.957971,14.083365 72.957971,14.7410482 C72.957971,15.4066236 73.0765243,16.0274765 73.3083619,16.6167607 C73.5401995,17.2034141 73.8747832,17.7085148 74.2910371,18.139955 C74.71256,18.5687644 75.2052148,18.9054982 75.7690017,19.1501564 C76.3354231,19.3921838 76.9413622,19.518459 77.5894536,19.518459 C78.2559867,19.5105668 78.8671949,19.3869223 79.4204437,19.1317413 M74.4095904,21.8387653 C73.5401995,21.4757242 72.7682857,20.9706235 72.0912145,20.3129403 C71.4194124,19.6605185 70.8714327,18.8634065 70.4604479,17.9268656 C70.0520976,16.9903247 69.8439707,15.9406624 69.8439707,14.7647248 C69.8439707,13.5887872 70.044194,12.5391248 70.4446408,11.602584 C70.842453,10.6634124 71.3825292,9.86366958 72.0543313,9.19809418 C72.7261334,8.53514951 73.5059507,8.03004881 74.3858797,7.67489989 C75.2658088,7.32501242 76.1852555,7.14612259 77.1442201,7.14612259 C78.1427024,7.14612259 79.0647837,7.35395048 79.9130985,7.7643448 C80.7640479,8.17210839 81.4648297,8.71930081 82.0128094,9.40066061 L82.0128094,0.719242349 L85.1215407,0.719242349 L85.1215407,22.1097308 L82.0417891,22.1097308 L82.0417891,20.0998509 C81.4938094,20.8233024 80.7877585,21.3810178 79.9130985,21.7835199 C79.0463421,22.1807606 78.1110882,22.383327 77.1126059,22.383327 C76.1799865,22.383327 75.2763468,22.1991757 74.4095904,21.8387653" id="Fill-394" fill="#010202"></path>
                <path d="M60.397116,7.15796089 L63.5348269,7.15796089 L63.5348269,9.4124989 C63.9273701,8.68904738 64.4569082,8.13133203 65.1234413,7.74461431 C65.7899743,7.35263512 66.6093094,7.15796089 67.5893501,7.15796089 L69.3202285,7.15796089 L69.3202285,10.1491041 L67.1204059,10.1491041 C65.8294921,10.1491041 64.9153144,10.4989916 64.3726036,11.2040279 C63.8325275,11.9038029 63.5664411,13.0192336 63.5664411,14.5450586 L63.5822482,22.1163076 L60.397116,22.1163076 L60.397116,7.15796089 Z" id="Fill-396" fill="#010202"></path>
                <path d="M94.8468639,10.3974453 C97.2363718,10.3974453 99.1806461,12.3389261 99.1806461,14.72237 L99.1806461,18.8762971 L99.1806461,22.1042062 L102.426372,22.1042062 L102.426372,14.72237 C102.426372,10.5447663 99.0331131,7.15638245 94.8468639,7.15638245 C90.6606148,7.15638245 87.2673556,10.5447663 87.2673556,14.72237 L87.2673556,22.1094677 L90.5130818,22.1094677 L90.5130818,14.72237 C90.5130818,12.3389261 92.4573561,10.3974453 94.8468639,10.3974453" id="Fill-398" fill="#010202"></path>
                <path d="M37.4204305,16.6101839 C37.1885929,17.1968373 36.8566436,17.701938 36.4377553,18.1360089 C36.0188669,18.5621876 35.5235775,18.9015521 34.9597907,19.1435796 C34.3933693,19.3882377 33.7874301,19.5118821 33.1393387,19.5118821 C32.4754402,19.5118821 31.8615975,19.3882377 31.3083487,19.1330566 C30.7498309,18.8778755 30.2677141,18.538511 29.8593638,18.1044401 C29.448379,17.6782614 29.1269678,17.1731607 28.8898612,16.5970302 C28.6580236,16.0235304 28.5394703,15.4053082 28.5394703,14.7397328 C28.5394703,14.0952033 28.6580236,13.4901348 28.8898612,12.9140043 C29.1216987,12.3378738 29.448379,11.8327731 29.8593638,11.4065944 C30.2677141,10.9777849 30.7498309,10.6357897 31.3083487,10.3806086 C31.8668665,10.1254275 32.4754402,10.0017831 33.1393387,10.0017831 C33.7874301,10.0017831 34.3881003,10.1254275 34.9597907,10.3674549 C35.5235775,10.6121131 36.0188669,10.9488469 36.4377553,11.3776563 C36.8619127,11.803835 37.1885929,12.3089357 37.4204305,12.8850662 C37.6522681,13.458566 37.7708214,14.0820496 37.7708214,14.7397328 C37.7708214,15.4000468 37.6522681,16.0235304 37.4204305,16.6101839 M40.2499029,11.7670048 C39.8573597,10.8436175 39.3225525,10.0359826 38.6507504,9.34673058 C37.9736793,8.66537079 37.1780548,8.12607056 36.2559735,7.73409137 C35.3338922,7.34211219 34.345948,7.14480723 33.2895062,7.14480723 C32.23043,7.14480723 31.2451203,7.34211219 30.323039,7.73409137 C29.4009576,8.12607056 28.5921606,8.66537079 27.8966479,9.34673058 C27.2011351,10.0307211 26.6610589,10.8357254 26.2685157,11.7670048 C25.8759725,12.7009149 25.6783837,13.6979626 25.6783837,14.7765631 C25.6783837,15.8499021 25.8759725,16.8522113 26.2685157,17.7834907 C26.6610589,18.7174008 27.1958661,19.5171436 27.8676682,20.1879805 C28.5447393,20.8640788 29.3350947,21.3928561 30.2440034,21.7848353 C31.1529121,22.1768145 32.1408564,22.3714887 33.1999326,22.3714887 C34.1799733,22.3714887 35.0546333,22.1820759 35.8265471,21.8032504 C36.6010954,21.4217942 37.2412833,20.8877554 37.7523798,20.2063956 L37.7523798,22.1163076 L40.8400349,22.1163076 L40.8400349,14.7765631 C40.8400349,13.6979626 40.642446,12.7009149 40.2499029,11.7670048" id="Fill-400" fill="#010202"></path>
            </g>
        </g>
    </g>
</svg>