<?xml version="1.0" encoding="UTF-8"?>
<svg width="119px" height="27px" viewBox="0 0 119 27" version="1.1" xmlns="http://www.w3.org/2000/svg" xmlns:xlink="http://www.w3.org/1999/xlink">
    <title>HGF - Logo - Boeing</title>
    <g id="Page-1" stroke="none" stroke-width="1" fill="none" fill-rule="evenodd">
        <g id="HGF---Home---Desktop" transform="translate(-503.000000, -2800.000000)" fill="#010202">
            <g id="Logo---Boeing" transform="translate(503.880156, 2800.247815)">
                <path d="M115.621092,6.59051182 L115.760722,6.59051182 L116.058422,6.40372979 L115.784432,6.20905557 L115.621092,6.22483996 L115.621092,6.59051182 Z M115.613189,7.31396335 L115.315488,7.31396335 L115.315488,6.03805793 L116.253377,6.09067259 C116.403544,6.20905557 116.479945,6.55894303 116.111113,6.66943381 L116.111113,6.6852182 C116.40091,6.79307825 116.327143,7.14559645 116.440427,7.31396335 L116.121651,7.31396335 L116.018905,7.00353687 L115.613189,6.80097045 L115.613189,7.31396335 Z M114.825468,6.64575721 C114.825468,7.2139955 115.246991,7.66648154 115.82395,7.66648154 C116.385103,7.66648154 116.798722,7.2139955 116.798722,6.65364941 C116.798722,6.08541113 116.385103,5.62503288 115.816047,5.62503288 C115.246991,5.62503288 114.825468,6.08541113 114.825468,6.64575721 L114.825468,6.64575721 Z M117.128037,6.64575721 C117.128037,7.36920873 116.556346,7.93744702 115.816047,7.93744702 C115.083651,7.93744702 114.498788,7.36920873 114.498788,6.64575721 C114.498788,5.93545936 115.083651,5.36722107 115.816047,5.36722107 C116.556346,5.36722107 117.128037,5.93545936 117.128037,6.64575721 L117.128037,6.64575721 Z" id="Fill-428"></path>
                <path d="M39.7888622,7.98532636 L39.2092682,8.74823887 C39.0169484,9.00078922 38.7166134,9.15074099 38.3978367,9.15074099 L36.2507045,9.15074099 L37.5284457,7.46707199 L39.5306794,7.46707199 C39.7994003,7.46707199 39.9522023,7.772237 39.7888622,7.98532636 M37.0357909,11.6104762 L36.3165674,12.5549092 C36.1400547,12.7890445 35.8634303,12.9284733 35.5683643,12.9284733 L33.3817144,12.9284733 L34.7622018,11.1080062 L36.7855117,11.1080062 C37.0463289,11.1080062 37.1912274,11.405279 37.0357909,11.6104762 M44.2754464,5.50454532 L33.908618,5.50454532 L26.7743432,14.8988922 L37.5521564,14.8988922 C38.9142022,14.8988922 40.1972125,14.2622548 41.0218166,13.1783929 L42.0123954,11.8709187 C42.3311721,11.4552629 42.2837508,10.8659788 41.9070147,10.5003069 L41.8332482,10.4266464 C42.8053853,10.2082956 43.6668727,9.65321096 44.2675428,8.86136038 L45.2923703,7.55388618 C45.9325582,6.71205168 45.3318881,5.50454532 44.2754464,5.50454532" id="Fill-430"></path>
                <path d="M55.4808419,8.04846394 L52.140273,12.4496799 C51.9084354,12.7495835 51.5527755,12.9284733 51.1734049,12.9284733 L49.7402271,12.9284733 C49.4846789,12.9284733 49.3397804,12.636462 49.4925824,12.4338955 L52.9253594,7.9169273 C53.1413899,7.63280816 53.4759737,7.46707199 53.8316336,7.46707199 L55.1910449,7.46707199 C55.49138,7.46707199 55.6626236,7.80906726 55.4808419,8.04846394 M59.9674261,5.50454532 L51.7292882,5.50454532 C50.3488008,5.50454532 49.0447144,6.15170559 48.2095721,7.2513519 L43.9548255,12.852182 C43.3172722,13.6940165 43.9179423,14.8988922 44.9717495,14.8988922 L53.1730041,14.8988922 C54.5772022,14.8988922 55.9023648,14.241209 56.7506796,13.1231475 L60.98435,7.55125544 C61.6219034,6.71205168 61.0212333,5.50454532 59.9674261,5.50454532" id="Fill-432"></path>
                <polygon id="Fill-434" points="75.7729535 5.50507147 65.466719 5.50507147 58.3324442 14.8994183 68.6386787 14.8994183 70.1350849 12.9263687 64.963526 12.9263687 66.346648 11.1085323 71.5182069 11.1085323 72.9961715 9.15126714 67.8325162 9.15126714 69.1128919 7.46496741 74.2264914 7.46496741"></polygon>
                <polygon id="Fill-436" points="78.6419436 5.50507147 83.8266751 5.50507147 76.6924003 14.8994183 71.5076688 14.8994183"></polygon>
                <polygon id="Fill-438" points="92.088787 14.8981029 87.9921115 14.8981029 86.9409388 10.2022449 83.3738014 14.8981029 79.9304864 14.8981029 87.0647612 5.5037561 91.0692285 5.5037561 92.1362083 10.2417059 95.73496 5.5037561 99.2230618 5.5037561"></polygon>
                <path d="M107.470947,8.73955745 L112.668851,8.73955745 L113.522435,7.61097308 C114.181065,6.74809272 113.561953,5.50638683 112.476532,5.50638683 L104.349044,5.50638683 C102.94748,5.50638683 101.624952,6.1614393 100.776637,7.27687001 L96.5798499,12.8014089 C95.9264894,13.6642893 96.5403321,14.8981029 97.623119,14.8981029 L105.674206,14.8981029 C107.133729,14.8981029 108.506313,14.2167432 109.388877,13.05659 L110.337303,11.8096226 L111.488587,11.8096226 L113.000801,9.83131157 L106.641074,9.83131157 L104.628302,12.4804595 C104.414906,12.7619479 104.082957,12.9276841 103.729932,12.9276841 L102.309927,12.9276841 C102.035937,12.9276841 101.877866,12.6119961 102.046475,12.3936453 L105.434465,7.93192248 C105.658399,7.63728041 106.003521,7.46628277 106.372353,7.46628277 L107.773917,7.46628277 C108.047907,7.46628277 108.200709,7.77670925 108.037369,7.99506007 L107.470947,8.73955745 Z" id="Fill-440"></path>
                <path d="M9.0943562,19.8541405 C7.22121389,19.8541405 5.50087362,19.2201339 4.13619329,18.1573178 C4.57088876,17.1918389 5.12940658,16.1316536 5.81701579,14.9978077 C8.19071652,11.085908 10.9437879,7.75013884 13.3069505,5.22726608 C15.5858086,6.61892374 17.103291,9.1102277 17.103291,11.9487884 C17.103291,13.1694484 16.8240321,14.3269709 16.3234736,15.3582181 C14.8850268,14.6952735 13.5572297,13.8613312 12.4639048,12.8011458 L14.9034684,17.3917746 C13.4439455,18.9070767 11.3811178,19.8541405 9.0943562,19.8541405 M1.08542142,11.9487884 C1.08542142,7.58440268 4.67100045,4.04606705 9.0943562,4.04606705 C10.237737,4.04606705 11.325793,4.28283301 12.3111027,4.70901172 C10.1771431,6.58472421 8.5094932,8.45780597 6.98674179,10.328257 C5.17682791,12.5512262 3.74891914,14.7321037 2.7188226,16.7340914 C1.69399509,15.4055713 1.08542142,13.7482096 1.08542142,11.9487884 M17.3377631,15.7896583 C17.8831083,14.6242437 18.1887124,13.3220309 18.1887124,11.9487884 C18.1887124,8.78664757 16.5684838,6.00333226 14.1157475,4.37753939 C16.813494,1.59159335 18.8209967,0 18.8209967,0 C16.660692,1.29695127 14.845509,2.59127181 13.2779708,3.88559235 C12.0239402,3.23580135 10.603935,2.86749876 9.0943562,2.86749876 C4.07033034,2.86749876 0,6.93461167 0,11.9487884 C0,14.2006957 0.819335104,16.2579287 2.17611188,17.8442606 C0.424157401,21.6851305 0.25291373,24.6973196 1.77566515,25.7653971 C2.80312717,26.4862179 6.30440162,25.6996288 9.09962524,21.4851948 C7.51627991,22.8952676 4.77374665,24.6999503 3.53552318,23.6029347 C2.81893428,22.9662974 2.87425916,21.4115343 3.68569071,19.2517027 C5.19790405,20.3697641 7.06841185,21.030078 9.0943562,21.030078 C11.5734377,21.030078 13.8206815,20.0409225 15.4593517,18.4361755 L15.7728594,19.0228289 C18.8894942,18.8097396 24.9383476,18.5545585 31.5694294,18.3809301 C31.7380386,17.820584 23.7528145,18.3177925 17.3377631,15.7896583" id="Fill-442"></path>
            </g>
        </g>
    </g>
</svg>