<?xml version="1.0" encoding="UTF-8"?>
<svg width="81px" height="24px" viewBox="0 0 81 24" version="1.1" xmlns="http://www.w3.org/2000/svg" xmlns:xlink="http://www.w3.org/1999/xlink">
    <title>HGF - Logo - DBS</title>
    <g id="Page-1" stroke="none" stroke-width="1" fill="none" fill-rule="evenodd">
        <g id="HGF---Home---Desktop" transform="translate(-1066.000000, -2801.000000)" fill="#010202">
            <g id="Logo---DBS" transform="translate(1066.460393, 2801.242297)">
                <path d="M23.3771416,4.34695764 C23.3586999,4.03390044 23.1268623,3.73662763 22.9661567,3.53669194 C22.4814054,2.94214632 21.6409942,2.60804326 20.8480043,2.8684858 L20.3843291,3.02896051 C20.876984,2.10031182 20.6767606,1.25058513 19.9575372,0.537656539 C19.1382021,-0.277870631 18.2029482,-0.0121666177 17.3704405,0.400858433 C16.6722932,0.753376629 15.6369276,1.19270901 14.8781864,1.38212177 C13.6109833,1.70044044 13.0867142,1.7451629 11.7246684,1.7451629 C9.480059,1.7451629 8.0758609,1.39790617 6.07889624,0.400858433 C5.09095198,-0.0910886019 4.38753567,-0.219994509 3.48916503,0.532395073 C2.84897715,1.06906457 2.62767764,1.95299079 2.93064721,2.74484136 L3.06764214,3.06316003 C2.6961751,2.8684858 2.21142379,2.7001189 1.64500241,2.82376335 C1.21557598,2.91057753 0.794053093,3.17628154 0.533235809,3.45250849 C0.0458499758,3.98654725 -0.141200804,4.70736803 0.114347444,5.41503516 C0.485814485,6.44102095 0.902068332,6.79353915 1.38418513,8.49299254 C1.87947452,10.2371684 1.88474355,12.8968393 1.39999224,14.7593981 C1.2629973,15.2802832 0.915240922,16.1694709 0.691306891,16.6587872 C0.37253021,17.3427777 0.00106316945,17.8505091 0.00633220549,18.6107909 C0.0116012415,19.6946528 1.14707851,20.7101157 2.40637812,20.4865034 C2.70671318,20.4338887 2.8568807,20.3260287 3.10189088,20.2418452 C2.57498727,20.9837119 2.74886546,22.1517573 3.46808888,22.7568258 C4.82750018,23.9038253 5.7074292,22.990961 7.25389128,22.3753696 C7.65433802,22.2148949 8.11010963,22.0386358 8.54480511,21.9307757 C9.8304499,21.6098263 10.3152012,21.5598424 11.6904196,21.5598424 C13.4107599,21.5598424 14.5409681,21.7124249 16.1190444,22.3464315 L17.3467298,22.8936239 C17.9500344,23.1908967 18.6481817,23.4986925 19.4016539,23.148805 C20.510786,22.6252892 20.9718266,21.386214 20.3843291,20.2760448 C20.8585423,20.3891663 21.6357251,20.8758519 22.6131313,20.1103086 C23.1479385,19.6893914 23.587903,18.9080637 23.4298319,18.28458 L23.3376238,18.1267361 L23.0847101,17.3427777 C22.3654866,15.9063976 21.9966541,14.9435494 21.7595475,13.283557 C21.6699739,12.6600733 21.7042226,11.8419154 21.7042226,11.1500327 C21.7042226,9.21644406 22.2232227,7.6879883 23.0504613,6.0358881 C23.1769182,5.78596849 23.2954715,5.55183327 23.3666035,5.28086779 L23.3771416,4.34695764 L23.3771416,4.34695764 Z M18.5612426,18.2924722 C18.5954914,18.4503162 18.8721157,18.6502519 19.0249178,18.9133252 L18.5954914,18.5634377 C17.957938,18.0346604 13.2500543,14.0701461 12.9075669,13.8596875 C11.3900846,12.9178851 10.5839221,13.8202265 9.61705394,14.5962926 C9.16655136,14.9540723 4.51926157,18.8712335 4.40861182,18.9028023 L4.57985549,18.7002358 C5.16998752,18.0399219 6.00776425,17.0034132 6.59789629,16.3010075 L8.06005379,14.5726161 C8.29979493,14.2700818 8.55534318,14.0070085 8.79508432,13.707105 C9.16655136,13.2493575 9.91475448,12.5495825 9.90421641,11.6367182 C9.89367833,10.6817622 9.16128232,10.0793244 8.77927721,9.58211592 C8.55007414,9.27958165 8.29189138,9.0112469 8.0468812,8.7139741 L5.84969317,6.12007155 C5.60204848,5.83069094 5.37021089,5.5228952 5.1225662,5.24929899 L4.75373368,4.81522808 L4.3769976,4.40220303 C4.57985549,4.43903329 7.49363242,6.95401385 7.87036849,7.25654812 L9.61705394,8.7139741 C10.0912672,9.08753816 10.7657038,9.83203554 11.6904196,9.85045067 C12.5202928,9.86360433 13.2105365,9.25590506 13.798034,8.74291216 L15.5368159,7.28811692 C16.1348515,6.81195428 16.6881003,6.31474578 17.2835014,5.83069094 L19.0249178,4.3916801 L18.3610192,5.20720727 C18.1397197,5.49395714 17.8947096,5.75439969 17.6602375,6.0358881 C17.1912932,6.58834199 16.7302526,7.14079588 16.2613084,7.6958805 C16.0162982,7.98526111 15.7976332,8.22991926 15.5631611,8.5219306 C15.32342,8.81657268 15.0968514,9.05333863 14.8597448,9.3479807 C14.3802625,9.94252632 13.8322828,10.4423656 13.6162523,11.1579249 C13.2500543,12.3706927 14.3196686,13.2888184 15.028354,14.1674832 L16.4378211,15.8169527 L16.7855775,16.2326085 L18.4374203,18.1951351 L18.5612426,18.2924722 Z" id="Fill-420"></path>
                <path d="M46.9189311,1.43184262 L47.192921,1.56864072 C48.1070988,1.76857642 48.3073221,2.59462652 48.3073221,3.51275227 L48.3073221,8.4795758 C48.3073221,11.5549025 48.2546318,14.651275 48.2730734,17.7476475 C48.2730734,17.9949364 48.2335556,18.0922735 48.2388247,18.3343009 C48.2440937,19.5681146 48.4732968,21.2044304 47.2087281,21.6437628 L46.7081697,21.7700379 L46.7081697,22.0146961 L58.9823891,22.0146961 C59.7964552,22.0146961 60.6711152,21.8147604 61.2717853,21.5911481 C62.099024,21.2886138 62.3730138,21.0465864 62.989491,20.5599008 C63.3793997,20.2521051 63.8878617,19.4207935 64.0801815,18.9446309 C64.6518719,17.5371889 64.6703135,15.8193203 64.001146,14.4355549 C63.2134251,12.7966083 61.9172422,11.9310972 60.3049172,11.2865677 L59.2273993,10.978772 L59.2273993,10.9051115 L59.5935973,10.7551597 C60.283841,10.4710405 61.295496,9.72391242 61.8250341,9.19513513 L62.0700443,8.92416965 L62.5337194,8.30594744 C62.7839986,7.88766092 62.8999174,7.66667937 63.0369124,7.1799938 C63.4347246,5.79359761 63.0711611,3.97049978 62.1385417,2.96555984 C61.4878158,2.26315419 60.64477,1.81856034 59.7016126,1.58442512 C59.0113688,1.41868896 58.2552622,1.29504451 57.4174854,1.29504451 L46.9189311,1.29504451 L46.9189311,1.43184262 Z M53.8371754,11.1155701 L55.1939522,11.2523682 C58.5476937,11.7153772 60.4787954,13.4069383 60.4787954,16.8426754 C60.4787954,17.5608654 60.3418004,18.352716 60.136308,18.8604475 C58.9981962,21.6621779 56.2240488,21.2096918 53.8371754,21.2149533 C53.3603277,21.2149533 52.899287,21.1860153 52.5726068,21.0202791 C52.1721601,20.8177127 52.2011398,20.4967633 52.2011398,19.928525 L52.2011398,18.4737297 C52.2011398,17.9765212 52.2353885,17.5713884 52.2353885,17.0478726 C52.2353885,16.5638177 52.2406575,16.0771321 52.2353885,15.5930773 C52.2353885,15.3089582 52.2722717,15.1774215 52.2722717,14.9011946 C52.2643682,13.2359407 52.3407692,11.5364873 52.3407692,9.86597199 L52.3750179,7.71140183 C52.3750179,7.47200514 52.4092667,7.30100751 52.4092667,7.01688836 C52.4092667,6.02773283 52.451419,5.13854514 52.4435154,4.13623594 C52.4435154,3.85737827 52.4856677,3.72584163 52.4777642,3.44435322 L52.4777642,2.71564023 C52.4856677,2.16055561 52.7280434,2.05795703 53.2812921,2.05795703 C54.4167694,2.05795703 55.8288711,1.96851211 56.8273534,2.3683835 C58.2262825,2.92609885 58.884912,3.92840805 59.1351912,5.44634088 C59.3117039,6.54072573 59.2484755,7.50620467 58.7400135,8.4795758 C58.5029069,8.93206185 58.1367089,9.34771763 57.7309931,9.66077483 C56.8958509,10.2947814 55.884196,10.6604533 54.8303887,10.8235587 C54.0057846,10.9498339 53.8424445,10.8130358 53.8371754,11.1155701 L53.8371754,11.1155701 Z" id="Fill-422"></path>
                <path d="M26.6781926,1.5344412 C27.2551521,1.58179439 27.8136699,1.99481944 27.9849136,2.58936505 C28.0613146,2.84717687 28.1061014,3.87316266 28.1008324,4.24409599 L28.1403501,4.79654988 C28.1350811,5.59892338 28.1745989,6.30659051 28.1745989,7.12474841 C28.1745989,7.53514273 28.2088476,7.837677 28.2088476,8.26911718 L28.119274,19.1813969 C28.0771217,19.4707775 28.0902943,19.8706489 28.0665836,20.1705524 C28.048142,20.4520408 28.0270659,20.8571737 27.89534,21.0439557 L27.3236496,21.5122261 L26.5411977,21.7700379 L26.5411977,22.0146961 L37.701016,22.0146961 C38.4439501,22.0146961 39.2105949,21.8436985 39.7849198,21.6648086 C40.0668132,21.5701022 40.401397,21.4596115 40.6701178,21.3307056 C40.9678184,21.1833845 41.2260011,21.0728937 41.499991,20.912419 C41.8978032,20.6677609 42.2192144,20.4757174 42.5775089,20.1837061 C43.7498694,19.2155964 44.6508746,18.1817184 45.3305802,16.8189988 C45.8232351,15.8272125 46.2105092,14.6302291 46.3712148,13.5174291 C46.4160016,13.2096334 46.4792301,12.7808239 46.4976717,12.4335672 L46.5029407,11.8127143 C46.5371895,11.5443795 46.463423,10.318458 46.4344433,10.1053687 C46.1762605,8.04287416 45.6045701,6.4907418 44.3268288,4.88336406 C43.4468998,3.77056408 42.1111992,2.80508514 40.8308234,2.22895466 C40.248595,1.96851211 39.6953462,1.76331495 39.0024679,1.59231732 C38.3807217,1.43710408 37.5824627,1.29504451 36.8316251,1.29504451 L26.6781926,1.29504451 L26.6781926,1.5344412 Z M34.8847163,21.2491528 C34.1022644,21.2491528 32.5953201,21.3017675 32.1896043,20.7098526 C31.8708277,20.2415822 32.0815891,18.3763926 31.9841119,17.7213401 C31.8971728,17.1557326 31.999919,7.56145006 31.999919,6.25660658 C31.999919,5.70941416 32.0236297,3.210218 32.0921272,2.73931682 C32.1948734,2.0316497 32.366117,2.09215655 33.2170664,2.09215655 C36.9343713,2.09215655 39.4714121,2.92083739 41.133793,6.23292999 C41.7397322,7.44832854 42.003184,8.64005051 42.2297525,9.96330911 C42.4062652,11.00771 42.4299759,11.9258358 42.4299759,12.9912826 C42.4299759,15.0748229 41.7555393,17.3556683 40.5357574,18.9788304 C39.9904122,19.7101741 39.2711888,20.3889032 38.3069552,20.7072219 C37.3005693,21.0386942 36.2046098,21.2491528 34.8847163,21.2491528 L34.8847163,21.2491528 Z" id="Fill-424"></path>
                <path d="M65.208809,6.9840042 C65.208809,8.06786612 65.6039867,9.09911338 66.1809462,9.86465663 C66.7289259,10.5933696 67.4586874,11.2168533 68.280657,11.6246169 C69.3054845,12.134979 70.024708,12.3612221 71.1153984,12.6821715 C72.2798554,13.0241667 74.1477287,13.3530083 75.0144851,13.9607076 L75.6731146,14.586822 C76.2606121,15.4076106 76.3343786,15.9784797 76.3343786,17.0149884 C76.3343786,17.6384721 76.0946375,18.4408456 75.883876,18.8565014 C75.6151552,19.3879094 75.3200892,19.8114574 74.8722211,20.169237 C74.5007541,20.4612484 74.5745206,20.3981108 74.1872464,20.632246 C73.32049,21.1557618 72.0559214,21.282037 70.9784035,21.282037 C69.2185455,21.282037 68.0435504,20.79009 66.881728,19.9245789 C66.0782,19.332664 65.9069563,18.909116 65.6593116,17.8489307 L65.4143014,17.8147312 C65.4143014,18.4987217 65.4380121,19.2169117 65.4195705,19.8956408 L65.3800527,20.9005807 C65.3800527,21.2241609 65.3115552,21.8397524 65.4880679,21.8397524 C65.8885147,21.8397524 65.6013522,21.3556975 66.3179411,21.3556975 L67.5508955,21.6529703 C68.3438855,21.8476446 69.292312,22.01075 70.1274542,22.1317637 C71.8293528,22.3764218 74.1345561,22.2869769 75.6783836,21.8108143 C78.8582469,20.8269202 80.3678257,18.8854394 80.3678257,15.5943927 C80.3678257,12.4927587 78.3682265,10.7012297 75.5914445,9.91464055 C74.3057998,9.55159942 72.7751448,9.33851007 71.4789619,8.81499424 C70.5726877,8.45458384 69.7032968,7.97052901 69.3660785,6.99715787 C68.8286368,5.45554844 69.4082308,3.73241846 70.6991446,2.81955417 C72.9200433,1.25689889 77.7570184,1.82776791 78.7502316,4.75314279 C78.8529779,5.06093852 78.7634042,5.07409219 79.0821809,5.07409219 C79.0821809,4.40062459 79.0479322,3.80607898 79.0479322,3.1668109 C79.0479322,2.85901517 79.0637393,2.5012355 79.0479322,2.19343977 L79.0136835,1.74358446 L78.945186,1.33055941 L78.5500083,1.55943316 C78.0599879,1.81198351 77.4013584,1.58837122 76.9640284,1.50155704 C76.4502974,1.39895846 75.3754141,1.21217643 74.8432414,1.18849983 C74.2214952,1.16219251 73.8790078,1.08590126 73.1360737,1.08590126 L72.5775559,1.05170173 L71.4341751,1.12010078 C70.8967334,1.14377738 69.9035201,1.34371307 69.3845201,1.50418777 C68.1094134,1.90932062 67.2005047,2.44862085 66.4312254,3.38516173 C65.6698497,4.31381041 65.208809,5.71072953 65.208809,6.9840042" id="Fill-426"></path>
            </g>
        </g>
    </g>
</svg>