<?xml version="1.0" encoding="UTF-8"?>
<svg width="77px" height="33px" viewBox="0 0 77 33" version="1.1" xmlns="http://www.w3.org/2000/svg" xmlns:xlink="http://www.w3.org/1999/xlink">
    <title>HGF - Logo - EDF</title>
    <g id="Page-1" stroke="none" stroke-width="1" fill="none" fill-rule="evenodd">
        <g id="HGF---Home---Desktop" transform="translate(-524.000000, -2900.000000)" fill="#010202">
            <g id="Logo---EDF" transform="translate(524.723672, 2900.667944)">
                <path d="M19.3452658,4.90862478 C19.4664536,3.90894631 19.3189206,2.4488896 20.109276,1.75963761 C20.3411136,0.691560091 22.0219361,0.941479707 21.7611188,0.260119911 C21.5977787,-0.163428071 20.8074233,0.0391383553 20.4860121,0.118060339 C20.2436365,0.175936461 17.9384332,0.904649448 17.0506006,1.00198656 C16.6764991,0.899387983 16.299763,0.79415867 15.9256614,0.688929358 C14.4766765,0.883603586 13.6415343,2.03323382 12.8380063,2.94609811 C12.1635697,3.71164135 11.2467574,5.58998457 11.9765189,6.71067675 C11.9343666,6.9553349 11.8922143,7.20262378 11.8526966,7.44728193 L13.4992703,9.84651025 C14.0656917,10.2542738 14.1420927,10.5568081 14.7506664,10.9566795 L15.130037,11.5249178 C15.6279609,11.8511287 17.103291,11.8563901 17.3483012,11.64067 C19.7220019,11.8616516 19.4638191,7.06845641 20.2146568,6.06088575 C20.1224486,5.61103044 19.7220019,5.14012926 19.3452658,4.90862478 M9.12597042,19.301364 C9.62916336,19.172458 10.4853817,19.104059 10.9358843,18.8830774 C11.6524732,18.5252978 14.113113,16.8074293 13.3280267,15.4078794 C13.0882855,12.4614587 9.52641716,14.9527626 8.00893478,13.9188846 C6.47301077,13.7215797 4.75003599,10.8225121 4.28899534,9.58080624 C4.10984811,9.08885921 4.18361462,9.2572261 3.93596992,8.87050838 L3.78053336,8.96258403 C3.33266529,9.48346913 3.41170084,9.94121663 3.34056885,11.2118606 L2.73726422,11.1750303 C2.69774645,11.6354086 2.65295965,11.8853282 2.43692917,12.1247249 L2.30256875,12.3562293 C1.92056364,12.2299542 2.11288345,12.408844 1.95744689,12.0905253 C0.54534523,12.1615551 0.648091433,13.5821508 0,14.3871551 C0.0263451802,17.0336723 5.27430508,20.2984117 9.12597042,19.301364 M26.5533071,11.2644752 C24.2665455,11.6091012 22.8649819,12.3378142 22.00086,12.9349906 C21.3949208,13.3585385 21.2210426,13.6373962 21.0919513,13.8162861 C20.9602254,13.9925452 20.8706518,14.3845243 20.9338802,14.7975494 C21.0023777,15.2079437 21.1709868,15.6420146 21.5266467,15.8866728 C24.3376775,15.6788449 29.2194394,15.5025858 30.1678658,17.8597224 C30.2179217,18.188564 30.2943227,18.3858689 30.2995917,18.4647909 C31.2295766,18.2359172 30.549871,18.3174699 31.9224548,18.5305592 C32.2359625,18.5805432 33.0105108,18.4069148 33.5242418,18.2806396 L33.8878053,18.0149356 L33.8561911,17.6676789 L34.5358967,17.5519266 C35.8347141,17.341468 35.1523739,16.731138 35.7635821,16.0445167 C35.3973841,11.6354086 30.8686476,10.6120535 26.5533071,11.2644752 M21.5371848,20.8534963 C20.8838243,21.3507048 20.6098345,21.2296911 20.2278294,21.9978651 L20.2489055,22.1136173 C20.6361796,22.8896835 21.5266467,23.20011 22.1826417,23.7446717 C22.3854996,23.9183 22.9387484,24.8758868 23.2022002,24.9442858 C23.4972662,25.296804 23.689586,26.2675444 23.8819058,26.2675444 C24.0821292,26.5411406 23.8660987,27.1856702 24.0610531,27.4355898 C24.0742257,28.5904815 23.9161546,28.6694035 23.7132967,28.890385 L23.8239465,29.2586876 L24.5431699,29.6059444 C25.1728197,29.6217288 27.7467438,31.6289779 27.9522362,32.0156956 C29.7990333,32.1551244 29.6646729,31.5921476 30.9397796,31.0528474 C31.282267,30.9028956 31.5588914,31.0449552 31.7854599,30.8081892 C32.019932,30.5687926 32.0410082,30.0926299 32.2676782,29.845341 C32.2965564,25.3073269 26.1159771,21.0087095 21.5371848,20.8534963 M14.260646,21.890005 C13.9998288,22.1636012 13.2937779,22.2635691 13.0961891,22.5766263 C12.7932195,23.0501582 12.1003413,24.1261279 11.5576306,24.6391208 C9.80831059,26.2964825 6.06202596,27.1304248 4.21522883,25.5467236 C4.094041,25.5546158 4.16253847,25.6256456 4.31007148,26.0781317 C4.4444319,26.9357506 5.13467562,28.9508919 4.87912737,29.4638848 C5.04773653,30.0373845 5.2189802,29.8269259 5.53512236,30.1452446 C5.74851832,30.3583339 5.83545741,30.91868 6.08310211,31.0712625 C6.36499554,31.0528474 6.64688896,31.0318015 6.92614787,31.0133864 L7.08158444,31.4842876 C7.43987889,31.460611 7.80344237,31.4316729 8.16437134,31.4079963 L9.16285367,31.8183906 C9.56593493,31.7894526 9.96638167,31.7631453 10.3668284,31.7368379 C11.2862752,31.9788653 12.0898032,31.5974091 12.8643515,31.0738933 C13.2964124,30.7845127 13.7706257,30.8292351 14.1526308,30.5030242 C14.7085141,30.0242309 15.4672553,29.0929515 15.8229152,28.4484219 C16.6923062,26.8699822 16.3972402,23.0896192 15.6095193,22.1530783 C15.3012807,21.8163445 14.9350827,21.8110831 14.260646,21.890005" id="Fill-402"></path>
                <path d="M58.6095955,11.5767432 C62.411205,11.5767432 64.9851291,13.9759715 64.9851291,18.2719582 C64.9851291,23.6702219 61.4522404,25.2697075 57.7481081,25.2697075 L52.7899452,25.2697075 C52.8083868,24.9698039 52.7899452,24.1726919 52.7899452,23.1703827 L52.7899452,13.676068 C52.7899452,12.6763895 52.8083868,12.0371215 52.7899452,11.5767432 L58.6095955,11.5767432 Z M57.4951944,22.6705435 C59.5949052,22.6705435 61.3047074,21.9786607 61.3047074,18.2719582 C61.3047074,15.122971 59.5949052,14.0759394 57.4951944,14.0759394 L56.3939658,14.0759394 L56.3939658,22.6705435 L57.4951944,22.6705435 Z" id="Fill-404"></path>
                <path d="M70.3748261,23.1703827 C70.3748261,24.1726919 70.4248819,25.2697075 70.4248819,25.2697075 L66.7470947,25.2697075 C66.7470947,25.2697075 66.7708054,24.1726919 66.7708054,23.1703827 L66.7708054,13.6734373 C66.7708054,12.6737588 66.7470947,11.5767432 66.7470947,11.5767432 L75.4410042,11.5767432 L75.4410042,14.2258912 C75.4410042,14.2258912 73.4967299,14.1759072 72.8381004,14.1759072 L70.3748261,14.1759072 L70.3748261,16.9355459 L72.8381004,16.9592225 C73.2991411,16.9592225 74.8851209,16.9355459 74.8851209,16.9355459 L74.8851209,19.4584187 C74.8851209,19.4584187 73.4782883,19.4189577 72.8381004,19.4189577 L70.3748261,19.4347421 L70.3748261,23.1703827 Z" id="Fill-406"></path>
                <path d="M45.4512318,22.5024396 C43.722988,22.5024396 42.3925564,21.3396557 42.3925564,19.5244501 L42.3925564,19.3692369 C42.3925564,19.3692369 45.6040338,19.2903149 46.6947243,19.2903149 C48.5467905,19.2903149 49.3108007,19.2745305 50.7703237,19.2534846 L50.7703237,18.2222374 C50.7703237,13.5553174 48.7891661,11.284995 44.7082977,11.284995 C42.8272518,11.284995 38.4513174,11.9900313 38.4513174,18.5247716 C38.4513174,22.8838959 40.656409,25.4883214 44.5080743,25.4883214 C47.5351355,25.4883214 49.3898362,24.7175167 50.7360749,23.7388841 L49.3108007,21.2686259 C48.5020036,21.8842174 47.171572,22.5024396 45.4512318,22.5024396 L45.4512318,22.5024396 Z M42.3925564,16.7516577 C42.4452467,15.9598071 42.7297747,14.1182942 44.7320084,14.1182942 C46.7869324,14.1182942 46.9002167,15.8466856 46.9002167,16.7621807 L46.9002167,16.9463319 C46.9002167,16.9463319 45.5276328,16.9857929 44.7082977,16.9857929 C43.8889626,16.9857929 42.3793838,16.9463319 42.3793838,16.9463319 L42.3925564,16.7516577 Z" id="Fill-408"></path>
            </g>
        </g>
    </g>
</svg>