<?xml version="1.0" encoding="UTF-8"?>
<svg width="77px" height="32px" viewBox="0 0 77 32" version="1.1" xmlns="http://www.w3.org/2000/svg" xmlns:xlink="http://www.w3.org/1999/xlink">
    <title>HGF - Logo - IBM</title>
    <g id="Page-1" stroke="none" stroke-width="1" fill="none" fill-rule="evenodd">
        <g id="HGF---Home---Desktop" transform="translate(-1252.000000, -2901.000000)" fill="#010202">
            <g id="Logo---IBM" transform="translate(1252.931852, 2901.211131)">
                <polygon id="Fill-632" points="75.6296357 2.39949139 63.0392741 2.39949139 63.8164569 0.23176756 75.6296357 0.23176756"></polygon>
                <polygon id="Fill-633" points="42.0690375 0.231504487 53.758394 0.228873754 54.5224042 2.40185905 42.0743066 2.40185905"></polygon>
                <path d="M32.7860499,0.231504487 C34.7118825,0.415655783 36.387436,1.10227705 37.8127102,2.40185905 L16.6259163,2.40185905 L16.6259163,0.231504487 L32.7860499,0.231504487 Z" id="Fill-634"></path>
                <polygon id="Fill-635" points="0.000526903604 2.40001754 14.7195791 2.40001754 14.7195791 0.232293707 0.000526903604 0.232293707"></polygon>
                <polygon id="Fill-636" points="75.6296357 6.46607816 61.5981927 6.46607816 62.3569339 4.30887726 75.6296357 4.30887726"></polygon>
                <polygon id="Fill-637" points="55.9692815 6.46844582 42.0695644 6.46844582 42.0695644 4.30861419 55.2079058 4.30861419"></polygon>
                <path d="M39.4637627,4.30808804 C39.7430216,5.02101663 40.0723363,5.62871591 40.0723363,6.46528894 L16.630395,6.46528894 L16.630395,4.30808804 L39.4637627,4.30808804 Z" id="Fill-638"></path>
                <polygon id="Fill-639" points="0.000526903604 6.46449972 14.7195791 6.46449972 14.7195791 4.30729882 0.000526903604 4.30729882"></polygon>
                <polygon id="Fill-640" points="60.1623804 10.5426617 60.9342942 8.37493789 71.4670972 8.38019935 71.4670972 10.5374003"></polygon>
                <polygon id="Fill-641" points="56.6452988 8.37493789 57.4119436 10.5426617 46.2126075 10.5426617 46.2126075 8.37493789"></polygon>
                <path d="M40.2591237,8.37467481 C40.2591237,9.1191722 40.1669155,9.89260764 39.9482505,10.5423986 L33.5305646,10.5423986 L33.5305646,8.37467481 L40.2591237,8.37467481 Z" id="Fill-642"></path>
                <polygon id="Fill-643" points="4.10247146 10.5421356 10.4279492 10.5421356 10.4279492 8.38493467 4.10247146 8.38493467"></polygon>
                <polygon id="Fill-644" points="20.8896203 10.5421356 27.20456 10.5421356 27.20456 8.37441174 20.8896203 8.37441174"></polygon>
                <polygon id="Fill-645" points="52.4337583 12.8829616 52.4337583 14.5271696 46.2136613 14.5271696 46.2136613 12.3699687 58.0689924 12.3699687 58.8040229 14.3798486 59.5179773 12.3699687 71.4655165 12.3699687 71.4655165 14.5271696 65.2743992 14.5271696 65.2691301 12.8829616 64.6974397 14.5271696 53.0054487 14.5245389"></polygon>
                <path d="M20.8896203,12.3694426 L39.0177388,12.3694426 C38.6225611,13.0902634 37.9033377,13.9689281 37.2209975,14.5266435 L20.8896203,14.5266435 L20.8896203,12.3694426 Z" id="Fill-646"></path>
                <polygon id="Fill-647" points="4.10247146 14.5276958 10.4279492 14.5276958 10.4279492 12.3704949 4.10247146 12.3704949"></polygon>
                <polygon id="Fill-648" points="65.2733454 18.5948087 71.4644627 18.5948087 71.4644627 16.4376078 65.2733454 16.4376078"></polygon>
                <polygon id="Fill-649" points="52.4337583 16.4362924 46.2136613 16.4362924 46.2136613 18.5934933 52.4363929 18.5934933"></polygon>
                <polygon id="Fill-650" points="64.02353 16.4362924 63.2700579 18.5934933 54.4496915 18.5961241 53.6751432 16.4362924"></polygon>
                <path d="M20.8880396,16.4355032 L37.1878026,16.4355032 C37.9333712,17.0563561 38.6051733,17.8192687 39.1320769,18.5927041 L20.8880396,18.5927041 L20.8880396,16.4355032 Z" id="Fill-651"></path>
                <polygon id="Fill-652" points="4.11300953 18.592178 10.4279492 18.592178 10.4279492 16.4349771 4.11300953 16.4349771"></polygon>
                <polygon id="Fill-653" points="65.2733454 22.6619216 71.4644627 22.6619216 71.4644627 20.5047207 65.2733454 20.5047207"></polygon>
                <polygon id="Fill-654" points="46.2126075 22.6619216 52.4327045 22.6619216 52.4327045 20.5047207 46.2126075 20.5047207"></polygon>
                <polygon id="Fill-655" points="61.8210729 22.6711292 62.5956212 20.5034053 55.1004175 20.5034053 55.8670622 22.6606062"></polygon>
                <polygon id="Fill-656" points="20.8896203 22.6592909 27.2994026 22.6592909 27.2994026 20.50209 20.8896203 20.50209"></polygon>
                <path d="M40.0317648,20.5026161 C40.3426379,21.1524071 40.3742521,21.9258426 40.434846,22.6703399 L33.6430586,22.6703399 L33.6430586,20.5026161 L40.0317648,20.5026161 Z" id="Fill-657"></path>
                <polygon id="Fill-658" points="4.11300953 22.6592909 10.4279492 22.6592909 10.4279492 20.50209 4.11300953 20.50209"></polygon>
                <polygon id="Fill-659" points="65.2733454 26.6448511 75.6296357 26.6448511 75.6296357 24.4876502 65.2733454 24.4876502"></polygon>
                <polygon id="Fill-660" points="42.0685106 26.6448511 52.4327045 26.6448511 52.4327045 24.4876502 42.0685106 24.4876502"></polygon>
                <polygon id="Fill-661" points="60.4282033 26.6443249 57.2667816 26.6443249 56.5080405 24.487124 61.1605993 24.487124"></polygon>
                <polygon id="Fill-662" points="0.000526903604 26.6422203 14.709041 26.6422203 14.709041 24.4850194 0.000526903604 24.4850194"></polygon>
                <path d="M40.1658617,24.4860717 C40.0104252,25.1990003 39.8681612,26.0645114 39.3491611,26.6432726 L39.1542068,26.6432726 L16.6290777,26.6432726 L16.6290777,24.4860717 L40.1658617,24.4860717 Z" id="Fill-663"></path>
                <polygon id="Fill-664" points="58.9950255 30.7159101 58.7052285 30.7159101 57.9649289 28.5534477 59.7537667 28.5534477"></polygon>
                <polygon id="Fill-665" points="65.2733454 30.7224869 75.6296357 30.7224869 75.6296357 28.5547631 65.2733454 28.5547631"></polygon>
                <path d="M16.6269701,30.7159101 L16.6269701,28.5560785 L37.9375864,28.5587092 C36.5123121,29.9214288 34.5548652,30.6896028 32.4446163,30.7211716 L16.6296046,30.7159101" id="Fill-666"></path>
                <polygon id="Fill-667" points="42.0685106 30.7224869 52.4327045 30.7224869 52.4327045 28.5547631 42.0685106 28.5547631"></polygon>
                <polygon id="Fill-668" points="14.7085141 28.5631814 14.7085141 30.7151209 0 30.7203823 0 28.55792"></polygon>
            </g>
        </g>
    </g>
</svg>