<?xml version="1.0" encoding="UTF-8"?>
<svg width="126px" height="45px" viewBox="0 0 126 45" version="1.1" xmlns="http://www.w3.org/2000/svg" xmlns:xlink="http://www.w3.org/1999/xlink">
    <title>HGF - Logo - IIT</title>
    <g id="Page-1" stroke="none" stroke-width="1" fill="none" fill-rule="evenodd">
        <g id="HGF---Home---Desktop" transform="translate(-1415.000000, -2894.000000)" fill="#010202">
            <g id="Logo---IIT" transform="translate(1415.103560, 2894.626407)">
                <path d="M18.4808805,39.0824296 L18.5283018,38.793049 L18.4756114,38.6088977 L18.2753881,38.7009734 L18.4808805,39.0824296 Z M17.0424336,39.9637251 L17.023992,39.9137412 L16.7420986,39.7795738 L16.4707432,39.8295577 L16.4180528,40.0084476 L16.6551595,40.1136769 L17.0424336,39.9637251 Z M21.0758807,40.1136769 C20.8519467,39.797989 20.6016675,39.708544 20.3513882,39.8242963 L20.1590684,40.1294613 L20.4752106,40.3030896 L21.0758807,40.1136769 Z M14.3341491,37.4040221 L14.2340374,37.7907398 L14.2999004,38.1616731 L14.7082507,38.2800561 L14.8109969,38.2090263 L15.0375654,37.7433866 C14.7951897,37.6250037 14.5659867,37.5145129 14.3367836,37.4040221 L14.3341491,37.4040221 Z M22.0822666,39.0140306 C22.5670179,38.9877232 23.0175205,38.9666774 23.5049063,38.9377393 C23.2414545,38.5931133 22.9569266,38.3537166 22.5433072,38.3168864 L22.1217844,38.6115285 L22.0822666,39.0140306 Z M17.2900783,38.3195171 L17.324327,38.2747947 C17.2347534,37.956476 17.0819514,37.6749876 16.8079615,37.4724212 C16.4733777,37.227763 16.1387939,37.3514074 16.0255097,37.7512788 L16.1019107,37.9012306 C16.4970884,38.0380287 16.8922661,38.1800883 17.2900783,38.3195171 L17.2900783,38.3195171 Z M14.8505146,37.3777148 C14.7925552,36.9515361 14.6687329,36.6042793 14.3499562,36.3569904 L13.7940729,36.3938207 L13.5648698,36.725293 C14.0021998,36.9462746 14.4079156,37.1541025 14.8505146,37.3777148 L14.8505146,37.3777148 Z M15.8806112,37.8223086 L15.8806112,37.4882055 C15.9280325,37.0830727 16.2757889,36.8726141 16.6472559,37.0488732 L17.023992,37.3619304 C17.1820631,37.6328959 17.2953473,37.9301687 17.4244387,38.2169185 L17.4455149,38.3142556 L18.0777992,38.4694689 L18.6231444,38.5115606 C18.7917536,38.7009734 18.8734236,38.911432 18.8101952,39.1718745 L18.7153526,39.6953904 L19.2844085,39.8032504 C19.3318298,39.5533308 19.3766166,39.3165648 19.4266724,39.0613838 C19.2554288,38.9772003 18.9524592,39.058753 18.9682663,38.7114963 L19.4661902,38.7877876 L19.292312,38.2563795 C19.2501597,38.0011984 19.3845201,37.8328315 19.6137232,37.7933706 L20.166972,38.1379966 L20.1458958,38.2405951 L20.0694948,38.1800883 L19.6295303,38.1301044 L19.5320531,38.5799597 L19.6084542,38.793049 L19.5689364,38.8456637 C20.3566573,38.9009091 21.1470127,38.9561545 21.9584442,39.0113998 L21.855698,38.6483587 C21.7713935,38.2537488 22.074363,37.9406916 22.4748098,37.9985677 C22.7672413,38.0380287 22.9911753,38.2011341 23.1940332,38.3984391 L23.5312515,38.7877876 L23.7894343,38.9140627 L24.1872465,39.137675 L23.9053531,39.1639823 C23.9422363,39.758528 23.9817541,40.3451814 24.0186373,40.9344655 C23.7103987,40.8423899 23.6735155,40.8029289 23.6524393,40.5188097 L23.6129216,39.8795417 L22.9595611,39.9347871 L22.8120281,40.1610301 L23.0333276,40.6635 L23.23882,40.8923738 L23.1229012,41.0212797 C22.9147743,40.7608372 22.7171854,40.5451171 22.5591144,40.3004589 C22.3457184,39.974248 22.5275001,39.5585923 22.9727337,39.5822689 L23.5707693,39.5428079 L23.5707693,39.1876589 C23.1149977,39.2139663 22.6723986,39.2429043 22.1981854,39.2718424 L22.1981854,41.018649 C21.9083884,40.9449885 21.8372564,40.8581743 21.8425254,40.6082547 C21.850429,40.2136447 21.8609671,39.8190348 21.8688706,39.4217942 L21.8688706,39.256058 L21.4631549,39.256058 C21.418368,39.8453421 21.3735812,40.4293648 21.3287944,41.0160182 C21.0205558,40.9239426 20.9652309,40.713484 21.0495355,40.4319956 L20.9652309,40.4556722 C20.5542461,40.6608693 20.2591801,40.5872088 19.9957283,40.2136447 L19.9272308,39.7453743 L20.3671954,39.4901932 L20.9441548,39.748005 L21.0627081,39.8821724 L21.0890533,39.7532665 L21.123302,39.2192277 C20.6701649,39.1876589 20.2222969,39.1560901 19.7586217,39.1218906 C19.7032968,39.4165327 19.6506065,39.7032826 19.5979161,39.9926632 C19.5452257,40.2767823 19.4951699,40.5582707 19.434576,40.8897431 L19.1605861,40.5345941 L19.2343526,40.0978925 L18.6705658,39.9874017 L18.6257789,40.1847067 L18.3649617,40.2767823 L18.0830682,39.8532343 L18.26485,39.6190991 L18.3807688,39.6243606 L18.4413627,39.3139341 L17.8828449,38.7088656 L17.7010631,39.2849961 L17.0134539,39.0850604 L16.6551595,39.216597 L16.8685554,39.561223 L17.105662,39.6190991 L17.3480377,39.4007483 L17.6114895,39.6348835 L17.3454032,39.9610944 L17.6404692,40.5451171 L17.4481494,40.6214083 L17.2821748,40.1820759 C16.9607636,40.3767502 16.657794,40.4188419 16.367997,40.1531379 L16.2336366,39.6269913 C15.8068447,39.33498 15.777865,39.0824296 16.1651391,38.871971 L16.3495554,39.1587209 L16.225733,39.4375786 L16.5128955,39.4402093 L16.4523016,39.256058 C16.3785351,38.9061705 16.6156417,38.6772968 16.9660326,38.7614802 L17.466591,38.9035398 L17.5403575,38.6430972 C17.023992,38.4852533 16.5181645,38.33004 15.9912609,38.1695653 C15.7857685,38.6930812 15.5723726,39.2376429 15.3563421,39.787466 C15.1139664,39.5822689 15.0981593,39.5322849 15.20354,39.2665809 C15.345804,38.9035398 15.488068,38.5404987 15.6276974,38.1774575 L15.6830223,38.0275058 L15.3379005,37.8985999 C15.0797177,38.4273772 14.8241694,38.9561545 14.5633522,39.4875625 C14.3394181,39.2639502 14.3262455,39.2087048 14.4500679,38.9561545 L14.618677,38.6036363 C14.323611,38.5483909 14.1629054,38.3589781 14.0838699,38.0880126 L13.6149257,38.2905791 C13.7150374,38.5510216 13.8204181,38.8246178 13.9310678,39.1139984 L13.7203064,39.2060741 C13.6122912,38.7562188 13.509545,38.3274093 13.4067988,37.8959691 L13.4067988,37.798632 L13.5754079,37.5592353 L13.7677277,37.7486481 L13.7835348,37.809155 L14.1576364,37.3671918 L14.0443521,37.2593318 L13.7888039,37.1356874 L13.5490627,36.9988892 C13.2539967,37.4960977 12.9562962,38.0038292 12.6585956,38.5115606 C12.4504687,38.2695332 12.4451997,38.2169185 12.5953672,37.9617375 C12.8166667,37.5829119 13.0379662,37.2040864 13.2698038,36.8094765 C13.0906566,36.725293 12.9457581,36.617433 13.0168901,36.3701441 L13.4673927,36.6279559 L13.5569663,36.2806992 C13.6965957,35.8939815 14.0891389,35.78086 14.4184537,36.0307796 C14.6502913,36.2017772 14.7635755,36.4516968 14.837342,36.7174008 L14.9532608,37.3224694 L15.0085857,37.4408524 C15.2904791,37.5697583 15.5750071,37.690772 15.8806112,37.8223086 L15.8806112,37.8223086 Z" id="Fill-707"></path>
                <path d="M25.8588482,39.6243606 L25.252909,39.6532986 L25.2397364,39.8769109 L25.4610359,39.9584637 L25.8588482,39.6243606 Z M27.4132138,38.4063313 C27.5001529,38.6562509 27.5791884,38.8877554 27.663493,39.1324136 L28.2404525,38.9351086 C28.1535134,38.685189 28.0718433,38.4510538 27.9875387,38.2063956 L27.4132138,38.4037006 L27.4132138,38.4063313 Z M26.7018939,40.0978925 L26.8178127,39.6769752 L26.6834523,39.4086405 L26.4015589,39.4717781 L26.2566604,39.8742802 L26.3936553,40.5345941 C26.0485335,40.5267019 25.9589599,40.3083511 25.9589599,40.0294934 L25.9168076,40.0294934 C25.5716857,40.3057204 25.0658582,40.1399842 24.9710156,39.7032826 L25.0711273,39.374441 L25.5295334,39.2692117 L25.8245994,39.413902 L25.7113152,38.8614481 C25.4452288,38.9140627 25.1896806,38.9693081 24.9341323,39.019292 C24.6864877,39.0666452 24.6864877,39.0640145 24.4809952,38.8509251 C25.6533558,38.6115285 26.8230818,38.4300079 27.9216758,37.9380609 L27.7899499,37.8670311 L27.4580006,37.5460817 L27.4738077,37.0962264 L28.024422,36.962059 L28.243087,37.0883342 L28.2272799,37.1409488 L28.1166301,37.1383181 L27.7267214,37.3093157 L27.8505438,37.7486481 L28.0270565,37.8985999 L28.0191529,37.9643682 C28.5276149,37.7328637 29.0413459,37.5092514 29.5471734,37.2645933 C29.8870262,37.0988571 30.2189755,36.9173365 30.5430212,36.7200316 L31.0172345,36.7384467 L30.7827623,36.8936599 C31.0778284,37.4092836 31.3702599,37.917015 31.6679604,38.4326386 C31.314935,38.4826225 31.3070314,38.4799918 31.1542294,38.2116571 C30.9329299,37.8328315 30.7142649,37.454006 30.4955999,37.0751805 L30.1820922,37.2593318 C30.4323715,37.7933706 30.6826507,38.3247786 30.9355644,38.8614481 C30.6931887,38.871971 30.5245796,38.7772646 30.4297369,38.5773289 L30.1847268,38.064336 L29.7105135,38.2853176 L30.0345592,38.4957762 L30.1583816,38.9614159 L29.7368587,39.2087048 C29.2968942,39.1692438 28.9860211,38.9009091 28.7067621,38.5878519 L28.7225693,38.4799918 L29.3127013,38.8588173 L29.7816455,38.7720032 L29.5366353,38.369501 L29.3232394,38.2800561 L29.0887673,38.2063956 C29.418082,38.0511824 29.7210516,37.9064921 30.0371937,37.7539096 L29.8659501,37.3961299 C29.34695,37.6407881 28.8384881,37.8801847 28.3168535,38.1274736 C28.5012697,38.6720353 28.690955,39.2218585 28.8780058,39.7743124 C28.4643865,39.8479729 28.4433103,39.521762 28.3458332,39.2586887 L27.7767773,39.4481015 L27.8321022,39.640145 L27.6345133,39.8479729 L27.1471275,39.5796381 L27.2235285,39.2849961 L27.3368128,39.2350121 C27.2551427,38.9929847 27.1734727,38.7588495 27.1049752,38.5615445 C26.7440462,38.6430972 26.4041934,38.7220192 26.0458989,38.8009412 L26.1381071,39.295519 L26.6676452,39.1929204 C26.9152899,39.374441 27.1076097,39.5927918 27.0812645,39.9268949 L26.99696,40.2794131 L26.6992594,40.0978925 L26.7018939,40.0978925 Z" id="Fill-708"></path>
                <path d="M38.6296743,23.2298968 L38.6296743,22.7195347 C39.2198063,22.6879659 39.8125729,22.6563971 40.4501262,22.6221975 C40.205116,22.5537985 39.9996236,22.4959224 39.7967658,22.4380462 C39.467451,22.3433399 39.1381362,22.2381105 38.8035525,22.1512964 L38.6428469,21.9355763 L38.6454814,21.6698723 C39.2224408,21.5093976 39.7914967,21.3489229 40.3631871,21.1884482 L40.3658216,21.1674023 L40.2314612,21.1674023 C39.7361718,21.1542486 39.2408825,21.1384642 38.7455931,21.1332028 L38.5848875,20.9674666 L38.587522,20.6175791 C39.3778774,20.6544094 40.1655983,20.6912397 40.9902024,20.7307007 L40.9849334,21.3962761 L40.8716491,21.4909824 C40.3842633,21.6383035 39.8916084,21.780363 39.401588,21.9250533 C39.6940196,22.0013446 39.9969891,22.0802666 40.2973242,22.16445 L40.8900907,22.3354477 L41.0060095,22.4880302 L41.0112786,22.9694543 L40.9058978,23.0930987 C40.1708673,23.1483441 39.4384713,23.1930666 38.7034408,23.2430505 L38.6296743,23.2298968 Z" id="Fill-709"></path>
                <path d="M4.06005572,24.8635819 C4.61066999,24.7872906 5.16128425,24.7083687 5.73034014,24.6294467 L5.80147213,25.1319166 C5.00848221,25.2345152 4.22603036,25.3344831 3.43304043,25.4397124 L3.36190844,24.8977814 L3.45938561,24.7294145 C3.8967156,24.4110958 4.33931463,24.1033001 4.78191366,23.7902429 L4.81616239,23.7507819 C4.29189331,23.8270732 3.77289326,23.9033644 3.24072062,23.9796557 L3.17485767,23.4771857 C3.96257855,23.3745871 4.73976137,23.2719885 5.54328937,23.1667592 L5.60124876,23.6929058 L5.49323352,23.8244424 C5.01638576,24.1716992 4.539538,24.5163252 4.06005572,24.8609512 L4.06005572,24.8635819 Z" id="Fill-710"></path>
                <path d="M5.58412439,20.3455614 C4.79376899,20.2192862 4.01658617,20.0956418 3.22359625,19.9719973 L3.31580438,19.4353278 L3.45279932,19.2985297 C3.96916485,19.1196399 4.48553038,18.9460115 5.00189591,18.7697524 L5.04141368,18.7487066 C4.5171446,18.6724153 3.99287551,18.5961241 3.45543383,18.5198328 L3.53973841,18.0173628 C4.3274593,18.143638 5.09937308,18.2672825 5.89499752,18.3935576 L5.81332746,18.8881354 L5.68950512,18.9959954 C5.15469796,19.1854082 4.61725628,19.3695595 4.08244912,19.5537108 L3.96653033,19.5931718 C4.55666237,19.6826167 5.10464211,19.7641694 5.66315994,19.8483529 L5.58412439,20.3481921 L5.58412439,20.3455614 Z" id="Fill-711"></path>
                <path d="M32.9659874,6.53079419 L33.3875103,6.8122826 C32.9422768,7.477858 32.5049468,8.13291047 32.0623478,8.79585513 L31.6513629,8.51962819 L31.5960381,8.36441495 C31.6487284,7.76723861 31.7066878,7.17006226 31.7620127,6.56499372 C31.4564086,7.03326415 31.1508045,7.49890386 30.8372969,7.97769723 L30.415774,7.70147029 C30.8557385,7.04115635 31.2930685,6.38610388 31.7409366,5.71526702 L32.2151498,6.03621642 L32.2546676,6.19932186 C32.2125153,6.75177574 32.165094,7.30686037 32.1203071,7.84089913 C32.3863935,7.42524334 32.6709214,6.9885417 32.9686219,6.53079419 L32.9659874,6.53079419 Z" id="Fill-712"></path>
                <path d="M7.97231498,34.6459618 L7.62982764,34.2171524 L7.6245586,34.0251089 C7.83005101,33.512116 8.04344697,32.9991231 8.24630485,32.5045453 C7.86429974,32.822864 7.46121848,33.1569671 7.04496464,33.5042238 L6.72618796,33.1096139 C7.34529969,32.6071439 7.95650787,32.1151969 8.58352316,31.6074654 L8.90756888,32.015229 L8.89176177,32.1678115 C8.66782774,32.6992195 8.44125919,33.2306276 8.21469064,33.7620356 L8.17517287,33.8514805 C8.63621352,33.472655 9.06827448,33.1175061 9.50823898,32.7544649 L9.82965018,33.1464441 C9.20790393,33.6489141 8.59669575,34.1408611 7.97231498,34.6485926 L7.97231498,34.6459618 Z" id="Fill-713"></path>
                <path d="M38.2795468,27.0081553 C38.0845925,27.3975037 38.1030341,27.7342375 38.3190646,27.9631113 C38.5482677,28.2077694 39.0172119,28.3314139 39.2859327,28.2182924 C39.5335774,28.1156938 39.7232627,27.8000058 39.7179937,27.4948408 C39.2411459,27.3343661 38.7642981,27.1738914 38.2795468,27.0081553 L38.2795468,27.0081553 Z M40.3212983,27.1265382 C40.1895724,27.5001023 40.0920952,27.8631434 39.9392932,28.1972465 C39.694283,28.7233931 39.2332423,28.9285902 38.7037042,28.7970536 C38.0556128,28.6365789 37.6999529,28.2261846 37.7025874,27.6395311 C37.7052219,27.2107217 37.8580239,26.824004 38.0319021,26.4425477 L38.1425519,26.3899331 C38.8538718,26.626699 39.5651916,26.8687264 40.3239328,27.1239075 L40.3212983,27.1265382 Z" id="Fill-714"></path>
                <path d="M7.56238398,30.7887814 C7.43329259,30.4257403 7.17774434,30.202128 6.88794736,30.1889743 C6.5428255,30.1758206 6.12130262,30.4073251 6.00801834,30.694075 C5.88156148,31.0202859 6.01855642,31.2886206 6.22668334,31.5516939 C6.67718592,31.2938821 7.11978495,31.0413317 7.56238398,30.7887814 M8.19203378,31.0571161 C7.50969361,31.4464646 6.84579507,31.8252901 6.15028232,32.2225308 C5.82096756,31.7095379 5.37573402,31.2438982 5.49692185,30.5704306 C5.64972389,29.739119 6.81944989,29.355032 7.45173422,29.9153781 C7.7994906,30.2231738 7.99707945,30.625676 8.19203378,31.0571161" id="Fill-715"></path>
                <path d="M17.1852245,5.34380755 C17.1852245,5.02285815 17.035057,4.67560141 16.821661,4.49671158 C16.531864,4.2573149 16.1235137,4.36780568 16.0154985,4.72558534 C15.9127523,5.06231914 16.0075949,5.37537634 16.2025493,5.65686475 C16.3658894,5.89626144 16.6003615,5.98307562 16.8348336,5.9094151 C17.0587676,5.83838531 17.1852245,5.63318816 17.1852245,5.34380755 M16.5740163,6.38820847 C15.9338284,6.3908392 15.4148284,5.79366286 15.4174629,5.06231914 C15.4227319,4.41252813 15.936463,3.91005817 16.597727,3.91005817 C17.2379149,3.91005817 17.7516459,4.51249598 17.7542804,5.2596241 C17.7542804,5.89626144 17.2431839,6.38820847 16.5740163,6.38820847" id="Fill-716"></path>
                <path d="M37.1248376,13.5427494 C37.4357107,13.5085499 37.7439493,13.340183 37.9520762,13.0166028 L37.9731524,12.4957178 L37.5015737,12.2405367 C37.111665,12.2694747 36.7955228,12.4431031 36.6005685,12.7877291 C36.3950761,13.1481395 36.6400863,13.5453801 37.1248376,13.5427494 M37.1722589,14.0873111 C36.6901421,14.0741574 36.379269,13.8242378 36.1711421,13.4269972 C35.9709187,13.0402794 35.9893603,12.6561925 36.2501776,12.3115665 C36.5742233,11.882757 37.0062843,11.656514 37.554264,11.7275438 C38.0232082,11.7906814 38.3103707,12.0905849 38.4605382,12.5167636 C38.6080712,12.9271579 38.5079595,13.300722 38.210259,13.6111485 C37.9283656,13.9084213 37.5753402,14.0741574 37.1722589,14.0873111" id="Fill-717"></path>
                <path d="M34.8667922,8.85583584 C34.8746957,8.50857911 34.5875333,8.27181316 34.250315,8.35073514 C33.8867515,8.43491859 33.528457,8.81637485 33.4704976,9.18467744 C33.4204418,9.48984245 33.6522794,9.76343866 33.9631525,9.76343866 C34.3635992,9.76343866 34.8562541,9.26886089 34.8667922,8.85583584 M32.9488631,9.15047792 C32.9488631,8.48490252 33.5758784,7.85089591 34.2424114,7.84563445 C34.8430815,7.84037298 35.3963303,8.37178101 35.3989648,8.95843442 C35.4015993,9.60296396 34.7429698,10.2685394 34.1001474,10.2685394 C33.4968428,10.2685394 32.9514976,9.73713133 32.9488631,9.15047792" id="Fill-718"></path>
                <path d="M29.738176,6.2422028 C29.4641861,6.11855836 29.2086378,6.00017538 28.939917,5.87916167 C28.8002875,6.18169595 28.6685616,6.47107655 28.5262977,6.77887229 L28.0310083,6.55526 C28.360323,5.83180848 28.6870033,5.11624916 29.0215871,4.38227471 L29.5168764,4.60851773 C29.3904196,4.88737541 29.2665972,5.15834088 29.1401404,5.44246003 C29.3983231,5.56347374 29.6565059,5.67922598 29.9331303,5.80813189 C30.0622217,5.52927421 30.1913131,5.255678 30.3204044,4.97418959 L30.8130593,5.20043261 C30.48111,5.92651486 30.1570643,6.64207419 29.8224805,7.37078717 L29.3298257,7.14454415 C29.4641861,6.84464061 29.595912,6.55526 29.738176,6.2422028" id="Fill-719"></path>
                <path d="M38.0695757,29.9598375 L37.958926,30.5517524 L38.2618956,30.7043349 C38.5016367,30.6780275 38.5595961,30.4596767 38.6412661,30.2571103 L38.0695757,29.9598375 Z M36.8866771,29.3416153 L37.1343218,28.8654526 C37.8298346,29.2232323 38.5174438,29.581012 39.2261291,29.9493145 C39.0601545,30.3702318 38.9178905,30.7990412 38.5701342,31.1094677 C38.3804489,31.2778346 38.1538803,31.3120341 37.9167737,31.2015434 C37.6849361,31.0936833 37.5532102,30.9147935 37.5374031,30.6569817 L37.5294995,30.5543831 C37.1027076,30.7543188 36.723337,30.496507 36.2991796,30.4728304 L36.5231137,30.0519131 L36.6680122,29.9914063 L37.1422254,30.0887434 C37.4689056,30.1571424 37.5716518,30.0992663 37.7033777,29.7704247 C37.4346569,29.6309959 37.1659361,29.4889363 36.8866771,29.3416153 L36.8866771,29.3416153 Z" id="Fill-720"></path>
                <path d="M38.5019001,16.0159013 L38.3728088,15.6739061 L38.7679865,15.5186928 C38.8786362,15.7975505 38.9840169,16.0632545 39.0973012,16.3500044 C38.7205651,16.4973254 38.3570017,16.6446465 37.9881691,16.7840753 L37.8801539,16.7498758 C37.6167021,16.4184034 37.4164787,16.0527316 37.376961,15.6239221 C37.3242706,15.0293765 37.6851996,14.5611061 38.3016768,14.413785 C38.8075042,14.2901406 39.2290271,14.4348309 39.5478038,14.8452252 C39.7901795,15.1609132 39.9219054,15.5186928 39.9271744,15.9343486 L39.5293622,15.9843325 L39.3027936,15.3108649 C39.1605297,15.0109614 38.8707327,14.8794247 38.5730321,14.9346701 C38.1673164,15.0109614 37.8880574,15.2424659 37.8722503,15.5844611 L37.9987072,16.1263921 L38.114626,16.1684838 L38.5019001,16.0159013 Z" id="Fill-721"></path>
                <path d="M8.92232218,8.40229751 L9.32803795,7.99716465 C9.70740855,8.38914384 10.1157588,8.74955424 10.4477081,9.16784075 C10.9140178,9.75186344 10.4951294,10.6463126 9.74692632,10.7252346 C9.48874355,10.7515419 9.27007856,10.6357897 9.0724897,10.4805764 L8.87226633,10.3043173 C8.56666224,9.99652159 8.26105815,9.68609512 7.95545406,9.37303791 L8.34272821,8.98632019 C8.57720032,9.22834761 8.80640338,9.46774429 9.04087549,9.70451025 L9.45712934,10.0885972 L10.0446269,10.0833358 L10.0261852,9.49668235 C9.77063698,9.20993248 9.49137807,8.94422846 9.22002271,8.67326299 L8.92232218,8.40229751 Z" id="Fill-722"></path>
                <path d="M39.4284601,24.673643 L39.3441556,25.1734822 C39.6708358,25.1392827 39.9659018,25.1077139 40.3057546,25.0735144 C39.992247,24.9314548 39.7156226,24.8051796 39.4284601,24.673643 M38.1928712,25.8469498 L38.2824448,25.3497413 L38.4062671,25.2550349 L38.8040794,25.2024203 L38.9437088,25.0787758 L38.9463433,25.0603607 L38.9990337,24.5447371 L38.5643382,24.2974482 L38.4853027,24.1474964 L38.5564347,23.7055333 L38.7145058,23.7739324 C39.3599627,24.0975125 40.0080541,24.4237234 40.6561455,24.7446728 L40.7694298,24.9551314 L40.6877597,25.3997252 L40.5586684,25.5286311 C39.7814855,25.6391219 39.0043027,25.7390898 38.1928712,25.8469498" id="Fill-723"></path>
                <path d="M36.1719324,32.4477215 C36.4722675,32.560843 36.7594299,32.6660723 37.0808411,32.7844553 C36.8648106,32.521382 36.6724908,32.2898775 36.4669984,32.0399579 L36.1719324,32.4477215 Z M34.8415008,32.5450586 L35.1418359,32.1346643 L35.2524856,32.0952033 L35.3157141,32.1136184 L35.7793892,32.2372629 L36.1271456,31.803192 L36.119242,31.6506095 L35.7899273,31.2349537 L36.1218766,30.7772062 C36.3616177,31.0928941 36.5881863,31.3954284 36.8173893,31.6953319 C37.0623995,32.018912 37.3047752,32.3424922 37.5524199,32.6660723 L37.5603234,32.8686387 L37.2705264,33.2553565 L37.1282625,33.3053404 C36.3747903,33.0580515 35.6213181,32.8055012 34.8415008,32.5450586 L34.8415008,32.5450586 Z" id="Fill-724"></path>
                <path d="M4.36302529,27.2517611 L5.31145178,27.2517611 L5.16128425,26.7545526 C4.88465986,26.928181 4.62647709,27.0886557 4.36302529,27.2517611 M5.88577671,25.6522756 L5.91475641,25.6996288 L6.03857875,26.1705299 L5.66184268,26.4704335 L5.53538581,26.5598784 L5.70399496,27.1018094 L5.83835538,27.2017772 L5.92002544,27.2017772 C6.41531483,27.1807313 6.42848742,27.193885 6.49698489,27.7279238 L6.2651473,27.7279238 C5.57490358,27.7226623 4.88465986,27.7147701 4.19441614,27.7174008 L3.96784759,27.5437725 L3.86246687,27.1912543 L3.94940596,26.9360732 C4.5974974,26.5151559 5.23768527,26.0837158 5.88577671,25.6522756" id="Fill-725"></path>
                <path d="M25.4731547,3.83666072 C25.1543781,3.79193827 24.8645811,3.74984654 24.5563425,3.70775482 L24.482576,4.18654819 C24.7750075,4.22863991 25.0516318,4.27073164 25.3466979,4.31545409 L25.286104,4.74952501 C24.9989415,4.71269475 24.7223171,4.67586449 24.421982,4.63377276 L24.340312,5.17833445 C24.6643577,5.22831838 24.9699618,5.27304083 25.3019111,5.32302476 L25.2465862,5.76235714 C24.7460278,5.69395808 24.2560074,5.6229283 23.7370074,5.54926778 C23.8502916,4.76267867 23.9609414,3.98661249 24.0742257,3.18686972 C24.5616115,3.25789951 25.0331902,3.32366783 25.5311141,3.39469761 L25.4731547,3.83929146 L25.4731547,3.83666072 Z" id="Fill-726"></path>
                <path d="M13.5933226,5.57452281 C13.3219673,5.72973605 13.0637845,5.87968782 12.7897946,6.03753179 L13.0269013,6.45844904 C13.279815,6.31375873 13.5274597,6.17696063 13.788277,6.02963959 L14.012211,6.40846511 C13.7592973,6.55315542 13.5116526,6.69784572 13.2534698,6.84779749 L13.5274597,7.3292216 C13.8093531,7.16874689 14.0859775,7.01353366 14.378409,6.84779749 L14.5997085,7.23451521 C14.154475,7.48706556 13.7197795,7.73435445 13.2745459,7.98953553 C12.8793682,7.2976528 12.4920941,6.61629301 12.0916474,5.91651808 C12.5131702,5.67449066 12.9320586,5.43772471 13.3720231,5.18517436 L13.5933226,5.57189208 L13.5933226,5.57452281 Z" id="Fill-727"></path>
                <path d="M34.6254703,32.9367747 L34.862577,33.3156002 L34.4858409,33.5418433 L34.2329271,33.8443775 L34.4884754,34.1600655 L34.7703688,34.0600976 L35.1286633,33.9259303 C35.3842115,33.8549005 35.6160491,33.9048844 35.7951963,34.1100816 C35.9743436,34.312648 36.0033233,34.5441525 35.9163842,34.7967028 C35.8030999,35.1176522 35.4764197,35.4412324 35.1312978,35.5648768 L34.9152673,35.2018357 L35.2445821,34.9808541 L35.4237293,34.7677648 L35.4105567,34.5257373 L35.1787191,34.4678612 L34.6807952,34.657274 C34.4384196,34.7414574 34.2013129,34.7572418 33.9826479,34.5888749 C33.7060235,34.3705241 33.621719,34.0548362 33.774521,33.7233638 C33.9431302,33.3524305 34.2381962,33.1077724 34.6254703,32.9367747" id="Fill-728"></path>
                <path d="M5.94004778,17.8021689 L5.55804267,17.5680337 L5.79251477,17.2023618 L5.85837772,17.0471486 L5.76616959,16.6157084 L5.37099189,16.7814446 L5.06011876,17.1287013 C4.86252991,17.3102219 4.62805781,17.3838824 4.36724052,17.2760223 C4.10378872,17.1655316 3.9694283,16.9577037 3.94835216,16.678846 C3.92200698,16.3000205 4.05900191,15.9738096 4.29874305,15.6686446 L4.65967202,15.9027798 L4.43837251,16.3236971 L4.50423546,16.7314606 L4.87043346,16.5762474 L5.27351472,16.1579609 C5.66869242,15.8606881 6.25618994,16.1000848 6.33259096,16.5894011 C6.40372295,17.0471486 6.2351138,17.4391278 5.94004778,17.8021689" id="Fill-729"></path>
                <path d="M28.1627342,4.13314431 L27.9335311,4.51196983 C27.5778712,4.29888048 27.2248458,4.14629797 26.8507442,4.42252492 C26.6030995,4.60404548 26.4766426,5.04074713 26.5662163,5.34591213 C26.6610589,5.66686154 26.9455869,5.8247055 27.546257,5.87995089 L27.5146427,6.21668469 L27.3881859,6.30612961 C27.0140843,6.29034521 26.6557899,6.20616176 26.3607239,5.96413434 C25.9813533,5.65370787 25.8891451,5.24857502 26.0050639,4.79082751 C26.1262517,4.30677268 26.4055107,3.95688521 26.9113381,3.8437637 C27.3618407,3.74379586 27.764922,3.8753325 28.1627342,4.13051358 L28.1627342,4.13314431 Z" id="Fill-730"></path>
                <path d="M18.8238947,3.83061004 L18.9081993,4.35149513 C19.1900927,4.30677268 19.4640826,4.26205022 19.751245,4.21732776 L19.8276461,4.64876794 C19.5562907,4.69875186 19.2849354,4.74610505 18.9898693,4.79871971 C19.0372907,5.10914618 19.0873465,5.41694192 19.1400369,5.74052205 L18.6052297,5.82733624 C18.4735038,5.04074713 18.3417779,4.26994242 18.2074175,3.47809184 C18.6921688,3.39653912 19.166382,3.31498641 19.6484988,3.23343369 L19.7196308,3.67276607 C19.4245648,3.72538073 19.1321333,3.77536465 18.8238947,3.83061004" id="Fill-731"></path>
                <path d="M40.7433481,18.7508111 C40.2612313,18.6087516 39.8159977,18.4745842 39.3654952,18.3509398 L39.0572565,18.3430476 C38.7911702,18.3930315 38.5277184,18.4587998 38.245825,18.5245681 L38.1220026,17.9984216 C38.3854544,17.935284 38.6383682,17.8853 38.8886474,17.8142703 L39.1942515,17.6643185 C39.5525459,17.3670457 39.9029368,17.0539885 40.2796729,16.7277776 L40.4061298,17.2881237 L40.3139216,17.4091374 C40.0636424,17.5932887 39.8107287,17.7748093 39.5314698,17.9721142 C39.8423429,18.0247289 40.1268709,18.0773435 40.4113988,18.1168045 L40.661678,18.3430476 L40.7433481,18.7508111 Z" id="Fill-732"></path>
                <polygon id="Fill-733" points="22.0596097 3.54622782 21.4510361 3.54622782 21.4510361 3.09900324 23.2688535 3.09900324 23.2688535 3.55938149 22.610224 3.55938149 22.610224 5.47192423 22.0596097 5.47192423"></polygon>
                <path d="M5.27061675,13.2315337 L5.68423608,13.4235772 L5.41814976,14.0128614 C6.00037824,14.2838268 6.57470317,14.5495309 7.16746972,14.8257578 L6.93826666,15.3150741 C6.35340366,15.0467394 5.77907873,14.7810353 5.18894669,14.5100699 L4.9123223,15.0888311 L4.50133749,14.8967876 C4.75952025,14.341703 5.01243398,13.7945105 5.27061675,13.2315337" id="Fill-734"></path>
                <path d="M7.38613472,10.8112595 C7.90513477,11.1953465 8.41096223,11.5689106 8.9325968,11.958259 L8.6111856,12.3949607 C8.08691651,12.008243 7.57845454,11.6320482 7.05945449,11.2505919 L6.67481485,11.7609541 L6.30598233,11.4899886 C6.67218034,10.9954108 7.03310931,10.511356 7.40194183,10.0141475 L7.76550531,10.2877437 L7.38613472,10.8112595 Z" id="Fill-735"></path>
                <path d="M10.738032,7.43260939 L10.224301,7.81143492 L9.94767659,7.45102452 C10.4376969,7.08272193 10.9198137,6.71705007 11.4151031,6.34348601 L11.689093,6.70652714 L11.175362,7.10376779 C11.5600016,7.61676069 11.9420067,8.12186139 12.3319154,8.64011575 L11.902489,8.96895735 C11.5125803,8.45596446 11.1279407,7.94823302 10.738032,7.43260939" id="Fill-736"></path>
                <path d="M35.253276,11.2784777 C35.4534993,11.5283973 35.6431846,11.7651633 35.843408,12.0177136 L35.4851136,12.3018327 C35.1716059,11.915115 34.8686363,11.5362895 34.5524942,11.1416796 C35.1716059,10.6444711 35.7854486,10.152524 36.4124639,9.64742334 L36.7549512,10.0683406 C36.2543928,10.4734734 35.7591034,10.8733448 35.253276,11.2784777" id="Fill-737"></path>
                <path d="M3.17169624,20.9214288 C3.98576231,20.9556283 4.76294513,20.9898278 5.55856957,21.0240274 L5.52958987,21.5685891 C4.73923447,21.5343895 3.95678261,21.50019 3.17169624,21.4659905 L3.17169624,20.9214288 Z" id="Fill-738"></path>
                <path d="M4.74608421,29.6217883 L4.53268825,29.1219491 C5.26771878,28.8088919 5.99221124,28.5037269 6.7325108,28.1906697 L6.94590676,28.6905089 C6.21351075,29.0009354 5.48638378,29.3087311 4.74608421,29.6217883" id="Fill-739"></path>
                <path d="M8.98054503,35.6353804 L8.66176834,35.2960159 C9.19921002,34.7488235 9.74718977,34.1911081 10.292535,33.6333928 L10.6850782,34.0490486 C10.139733,34.55678 9.56540803,35.0908187 8.98054503,35.6353804" id="Fill-740"></path>
                <path d="M7.70306724,13.8081903 C7.01545803,13.4004268 6.3383869,12.9979246 5.64814318,12.5901611 L5.92476757,12.1218906 C6.60974226,12.5270235 7.28681339,12.9268949 7.97969163,13.3399199 L7.70306724,13.8081903 Z" id="Fill-741"></path>
                <polygon id="Fill-742" points="32.9312118 36.5216743 32.5860899 36.1717869 32.9443844 35.8140072 33.2921408 36.1717869"></polygon>
                <polygon id="Fill-743" points="11.2017072 36.5216743 10.8513163 36.1770483 11.1911691 35.8140072 11.5573671 36.1744176"></polygon>
                <path d="M21.885995,35.0326795 C22.1942336,34.7564526 22.4682235,34.5091637 22.7843656,34.2276753 C20.8611675,34.0330011 18.9853907,33.8409576 17.064827,33.6462834 C17.3941418,33.4016252 17.6918423,33.1806437 18.0132535,32.9438777 C16.5906138,32.4519307 15.1943192,31.9705066 13.8006592,31.4917132 L13.8059282,31.4654059 C15.6211111,31.788986 17.4336595,32.1099354 19.2751876,32.438777 C19.0723298,32.675543 18.8879135,32.8938938 18.6797866,33.1411827 C20.5265837,33.3016574 22.3417666,33.4595013 24.2017363,33.6226068 L23.6563911,34.0724621 C25.4531324,34.1513841 27.2050869,34.230306 28.9570414,34.3065973 L28.9570414,34.3329046 C26.6175894,34.5644091 24.2755028,34.7959136 21.8886295,35.0326795 L21.885995,35.0326795 Z" id="Fill-744"></path>
                <path d="M21.435229,15.1730145 L21.5274371,14.9967554 L21.4378635,14.7994505 L21.374635,14.8152349 L21.435229,15.1730145 Z M22.7445844,14.7442051 L22.5944169,14.952033 L22.6602798,15.1572301 L22.7761986,15.1019847 L22.7445844,14.7442051 Z M24.0565744,19.4400631 C23.7720464,19.3585104 23.566554,19.421648 23.4427317,19.6294759 C23.7351632,19.7005057 23.9406556,19.6373681 24.0565744,19.4400631 L24.0565744,19.4400631 Z M20.6870258,19.647891 C20.5157822,19.4190173 20.3287314,19.3611412 20.046838,19.4400631 L20.4709954,19.6663062 L20.6870258,19.647891 Z M22.82362,20.1766683 L23.1476657,20.7317529 L23.2951987,20.8185671 C23.6719348,20.7791061 23.9459246,20.5607553 24.21728,20.3055742 C23.7667774,20.071439 23.3215439,19.9767326 22.8209854,20.1766683 L22.82362,20.1766683 Z M19.9072085,20.3213586 L20.276041,20.6081085 L20.8819802,20.8211979 L21.0426858,20.7475373 L21.3324828,20.2108678 C20.9847264,19.9872556 20.3498075,20.0346088 19.9072085,20.3213586 L19.9072085,20.3213586 Z M20.7054675,18.8928707 L20.6896604,18.7797492 C20.6000868,18.3667242 20.6027213,17.9510684 20.6554116,17.5354126 C20.7397162,16.8961445 20.9373051,16.2884452 21.1902188,15.6991611 L21.1954878,15.5518401 L20.6896604,15.1019847 C20.7528888,16.0043261 20.5473964,16.8356377 20.4446502,17.6774722 C20.3945943,18.1010201 20.4683608,18.5166759 20.7054675,18.8928707 L20.7054675,18.8928707 Z M23.4005794,15.1256613 L23.1002444,15.3834732 C22.8631377,15.5991932 22.8657722,15.5965625 22.9869601,15.8990968 C23.2846606,16.6435942 23.4954221,17.4065067 23.4796149,18.2167724 C23.4743459,18.4614305 23.4242901,18.7008272 23.3768687,18.9481161 L23.4796149,18.811318 C23.6824728,18.358832 23.708818,17.8879308 23.632417,17.4038759 C23.5639195,16.9724358 23.4769804,16.5409956 23.4348281,16.1016632 C23.4058484,15.7859753 23.4242901,15.4702873 23.4005794,15.1256613 L23.4005794,15.1256613 Z M21.4325944,21.0763789 L21.5300716,21.4394201 L22.0438026,22.0023969 L22.1597214,21.9997662 L22.6550108,21.4604659 C22.8710413,21.1105785 22.7709296,20.6265236 22.4468839,20.4265879 C21.9832087,20.1424688 21.4510361,20.4739411 21.4325944,21.0763789 L21.4325944,21.0763789 Z M22.0543407,14.94151 L21.6934117,15.6386542 C21.2850614,16.5357341 20.9610157,17.4512291 21.069031,18.4614305 C21.1269904,18.9849464 21.3403863,19.4295402 21.7250259,19.7899506 L21.883097,19.8715033 C22.1570869,19.9057028 22.391559,19.8504575 22.5496301,19.6057993 L22.7498535,19.3190494 C23.0870718,18.7402882 23.1002444,18.1115431 23.0001327,17.4749057 C22.8605032,16.5778258 22.4969397,15.7570372 22.0543407,14.94151 L22.0543407,14.94151 Z M23.6587622,25.2723978 C24.5571328,25.4802257 25.4396964,25.6091316 26.3354325,25.6433311 C27.2100925,25.6775306 28.0794834,25.5828242 28.9488744,25.4854871 C29.9315496,25.3749963 30.8984177,25.1934758 31.8521132,24.9382947 C32.1603518,24.8541113 32.4712249,24.7620356 32.7294077,24.5568384 L32.7346767,24.1806437 L32.2235803,23.8702172 C31.6097376,23.5887288 30.9616461,23.4151004 30.3056511,23.2651486 C28.7064987,22.9021075 27.0836356,22.7074333 25.4502344,22.5890503 L25.3079705,22.6942796 C25.1103816,23.0888895 24.8917166,23.4756073 24.6519755,23.8491713 C24.3463714,24.3305954 24.0117876,24.7936044 23.6587622,25.269767 L23.6587622,25.2723978 Z M17.2015585,25.6591155 C18.3870916,25.6564848 19.3513252,25.5328403 20.3023862,25.319751 L20.3787872,25.1355997 C19.833442,24.3963637 19.3091729,23.6466049 18.9060917,22.8205548 L18.5135485,22.6074654 C17.5387768,22.6942796 16.5613706,22.788986 15.5945025,22.9389378 C14.6618831,23.0862588 13.7318983,23.2625179 12.8282586,23.5413756 C12.3487763,23.6886966 11.8719286,23.8439099 11.4635783,24.1438134 C11.2159336,24.325334 11.2238371,24.4516091 11.4846544,24.619976 C11.7691823,24.8014966 12.087959,24.8909415 12.4093702,24.975125 C13.4025835,25.2355675 14.4089694,25.4118266 15.4311624,25.5196867 C16.0897919,25.5880857 16.7484214,25.6512233 17.2015585,25.6564848 L17.2015585,25.6591155 Z M23.8642546,18.9875771 C24.1593206,18.9954693 24.4333105,19.0349303 24.6888587,19.155944 L24.8205846,19.3848177 L24.6414374,19.5558154 L24.3358333,19.7899506 L24.3674475,19.913595 L24.7415491,20.1635147 L24.7204729,20.4976177 L24.2067419,20.8685511 C23.932752,21.0816404 23.6297825,21.2184385 23.2767571,21.2342229 L23.1687418,21.2999912 C23.0844372,21.6788168 22.8367925,21.9497822 22.5601682,22.1970711 L22.4784981,22.3996375 C22.4811326,23.1967496 22.4837671,23.9938616 22.4784981,24.7909737 L22.604955,24.9777557 L23.0976098,25.1250767 L23.2899296,25.0593084 C23.8431784,24.314811 24.3779856,23.55716 24.8153156,22.7337406 C25.7611076,20.947473 26.0877878,19.0612376 25.7189553,17.0697729 C25.4607725,15.6728538 24.9259653,14.381164 24.1751277,13.1789191 C23.7904881,12.5659583 23.3847723,11.968782 23.0027672,11.3558212 C22.6233966,10.7454912 22.3125235,10.0983309 22.096493,9.41434042 L22.0464371,9.46695507 C21.8198686,10.1798837 21.4773813,10.8375669 21.0901071,11.4742042 C20.6554116,12.1923943 20.1522187,12.8684926 19.7359648,13.5972056 C18.9903962,14.9046798 18.4951069,16.2963374 18.3370358,17.7984859 C18.1921373,19.195405 18.4002642,20.5449709 18.9324368,21.8471837 C19.4171882,23.0283827 20.1258735,24.0754143 20.8793457,25.0961387 L21.0558584,25.1382304 L21.5933,24.975125 L21.7118534,24.7962351 C21.7092188,23.9938616 21.7092188,23.1914881 21.7118534,22.3891146 L21.6091072,22.1628716 C21.3482899,21.9234749 21.1111832,21.6656631 21.0400513,21.302622 L20.9135944,21.2342229 C20.5342238,21.2342229 20.2101781,21.0895326 19.9177466,20.8606589 L19.4198227,20.5002485 L19.396112,20.1556225 L19.7438684,19.924118 L19.7939242,19.8267809 L19.5093963,19.5637076 L19.2880968,19.3611412 L19.4830511,19.1243752 C19.7254268,19.0322996 19.975706,18.9928386 20.2338887,18.9875771 L20.2286197,18.9323317 C20.0152238,18.4324925 19.9862441,17.9116074 20.0652796,17.3801994 C20.1522187,16.7856537 20.2865791,16.1963696 20.2813101,15.5939318 C20.276041,15.2940282 20.3392695,14.991494 20.2549649,14.6942212 L20.3313659,14.4179942 L20.6158939,14.4706089 L20.9425741,14.754728 C21.0769345,14.4679781 21.1981223,14.2022741 21.3272137,13.918155 L21.7882544,14.5469001 L22.0859549,14.3127649 L22.3467722,14.5784689 L22.8315235,13.918155 C22.9474423,14.1707053 23.052823,14.4022098 23.1555692,14.636345 L23.2793916,14.6679138 L23.5296708,14.4469323 L23.8036607,14.4285171 L23.8642546,14.6810675 L23.8273713,14.8415422 C23.8194678,15.3939961 23.8247368,15.9438192 23.9090414,16.4910117 C23.9670008,16.8750987 24.0460363,17.2591856 24.0829196,17.6459034 C24.1277064,18.1036509 24.0565744,18.5535062 23.8668891,18.9875771 L23.8642546,18.9875771 Z M11.568959,25.1724299 L11.5505174,25.161907 L11.5610554,25.1803221 L11.5900351,25.2908129 C12.0695174,26.4115051 12.7992789,27.348046 13.7108221,28.1504195 C14.5986547,28.9291164 15.5945025,29.5289234 16.6799239,29.9893017 C18.3607464,30.7022303 20.123239,31.0231797 21.9436909,31.0573792 C22.3836555,31.0652714 22.8209854,31.0231797 23.2583154,30.9995031 C23.7430667,30.970565 24.2199145,30.902166 24.6941278,30.8127211 C26.0509045,30.5628014 27.3444529,30.1287305 28.5563312,29.4631551 C29.2808236,29.0659145 29.9552602,28.5950133 30.5664684,28.0399287 C31.1934837,27.4690597 31.7335599,26.8297916 32.1524483,26.0905557 C32.3263265,25.7853907 32.4923011,25.4749642 32.618758,25.1171845 C32.1419102,25.3302739 31.6597934,25.4302417 31.1855802,25.5407325 C30.437377,25.7117301 29.6812704,25.8301131 28.9198947,25.9169273 C28.3218591,25.9826956 27.726458,26.0458332 27.1257879,26.0721405 C26.3301634,26.1089708 25.5371735,26.0353103 24.7494526,25.9116658 C23.8853307,25.7801292 23.0343814,25.5907164 22.2124118,25.2829207 L21.9884777,25.2750285 C21.4800158,25.4775949 20.9531122,25.6170238 20.4209395,25.732776 C19.533107,25.9274502 18.6400053,26.0589869 17.7310966,26.0800327 C16.8617057,26.1010786 15.9975838,26.0168952 15.1360964,25.9169273 C14.3114922,25.8195902 13.4974262,25.6775306 12.6912637,25.4907486 C12.3118931,25.4013037 11.9430605,25.2750285 11.568959,25.1724299 L11.568959,25.1724299 Z M22.0648788,31.473035 C19.980975,31.4677735 17.9787413,31.0731636 16.0871574,30.1866066 C14.4063349,29.4026483 12.9705226,28.3082634 11.9114463,26.7640233 C11.4425021,26.077402 11.1079183,25.3302739 10.8734462,24.5357926 L11.0104412,24.0043846 C11.2001265,23.7676186 11.4635783,23.6308205 11.7322991,23.5045453 C12.5068474,23.1467657 13.328817,22.94683 14.1560557,22.7758323 C15.5839644,22.4785595 17.0250458,22.297039 18.4766652,22.2023326 L18.5557008,22.0339657 C18.2685383,21.3236678 18.0551423,20.5975856 17.9523961,19.8373038 C17.783787,18.6061208 17.8865332,17.393353 18.2026754,16.1963696 C18.5530662,14.8704803 19.1458328,13.6577124 19.9072085,12.5212359 C20.4472847,11.7109702 20.997899,10.9059659 21.3904422,10.008886 C21.6064726,9.51167753 21.7803508,9.00131537 21.8409447,8.46201514 L22.1202036,8.30417117 L22.3125235,8.46201514 C22.4468839,9.44327848 22.8684068,10.3193125 23.3689652,11.1585163 C23.8089297,11.8951215 24.3226607,12.5843734 24.7520871,13.3288708 C25.5134629,14.6494987 26.0298284,16.05431 26.2168792,17.5722428 C26.4065645,19.1006986 26.2010721,20.5791704 25.61094,21.9997662 L25.7294933,22.1944404 C26.6700163,22.2523165 27.6052702,22.3575458 28.535255,22.5048669 C29.7840166,22.6995411 31.0275091,22.9284148 32.2077731,23.4045775 C32.481763,23.5150683 32.7452148,23.6492356 32.9770524,23.8360177 L33.2984636,24.3121803 L33.2694839,24.5173775 C32.8110778,26.1800006 31.8573822,27.5164128 30.5480268,28.6134284 C28.8777424,30.0129783 26.9334681,30.8179825 24.807412,31.2231154 C23.9011378,31.3967437 22.9869601,31.4782965 22.0648788,31.4704043 L22.0648788,31.473035 Z" id="Fill-745"></path>
                <path d="M22.0930681,0.605068545 C10.2456406,0.605068545 0.608573663,10.2282891 0.608573663,22.0586946 C0.608573663,33.8891 10.2456406,43.5149513 22.0930681,43.5149513 C33.9404956,43.5149513 43.5801971,33.8891 43.5801971,22.0586946 C43.5801971,10.2282891 33.9404956,0.605068545 22.0930681,0.605068545 M22.0930681,44.1200199 C9.91105679,44.1200199 2.27373675e-13,34.2232031 2.27373675e-13,22.0586946 C2.27373675e-13,9.89418608 9.91105679,0 22.0930681,0 C34.2750794,0 44.1861362,9.89418608 44.1861362,22.0586946 C44.1861362,34.2232031 34.2750794,44.1200199 22.0930681,44.1200199" id="Fill-746"></path>
                <path d="M22.0930681,7.53073573 C14.0709607,7.53073573 7.54262509,14.0496916 7.54262509,22.060273 C7.54262509,30.0708544 14.0709607,36.5898103 22.0930681,36.5898103 C30.11781,36.5898103 36.6435111,30.0708544 36.6435111,22.060273 C36.6435111,14.0496916 30.11781,7.53073573 22.0930681,7.53073573 M22.0930681,37.1975096 C13.736377,37.1975096 6.93668595,30.4075882 6.93668595,22.060273 C6.93668595,13.7155886 13.736377,6.92566718 22.0930681,6.92566718 C30.4523938,6.92566718 37.2520848,13.7155886 37.2520848,22.060273 C37.2520848,30.4075882 30.4523938,37.1975096 22.0930681,37.1975096" id="Fill-747"></path>
                <path d="M124.236493,26.9379147 C123.667437,27.3430476 123.066767,27.6666277 122.358082,27.7534419 C121.101417,27.9033936 119.918518,27.7429189 118.843635,27.0220982 C118.619701,26.8695157 118.501147,26.7037795 118.522224,26.4117681 C118.551203,25.9829587 118.530127,25.5488878 118.530127,25.0885095 L119.973843,25.0885095 C120.039706,25.3147526 120.134549,25.55678 120.179335,25.8066996 C120.224122,26.0513578 120.361117,26.1855251 120.585051,26.2565549 C121.104051,26.4170296 121.630955,26.4433369 122.155224,26.2960159 C122.489808,26.2013095 122.726914,25.9934816 122.769067,25.6225483 C122.811219,25.2489842 122.618899,24.975388 122.302757,24.8464821 C121.854889,24.6649616 121.378041,24.5544708 120.919635,24.3992575 C120.477036,24.2519365 120.029168,24.1230306 119.607645,23.9309871 C117.990051,23.1891205 118.156026,21.2502704 119.309944,20.3847593 C120.126645,19.7717985 121.061899,19.7060302 122.031402,19.7691678 C122.811219,19.8191517 123.527808,20.0848557 124.236493,20.3768671 L124.236493,22.5866826 C123.988848,22.5761597 123.738569,22.5419602 123.493559,22.5603753 C123.216935,22.5814212 123.111554,22.4735611 123.066767,22.2104879 C123.024615,21.9737219 122.982463,21.686972 122.829661,21.5264973 C122.431848,21.1134723 121.362234,21.0450732 120.86431,21.3502382 C120.600858,21.5107129 120.416442,21.7343252 120.424346,22.0579054 C120.432249,22.3972699 120.629838,22.6314051 120.932808,22.7497881 C121.254219,22.8734325 121.588803,22.9734004 121.923386,23.0496916 C122.75326,23.2391044 123.567326,23.4521937 124.236493,24.0151706 L124.236493,26.9379147 Z" id="Fill-748"></path>
                <path d="M86.1679712,27.4466984 L85.8623671,27.4598521 C84.6373163,27.4572214 83.4122654,27.4440677 82.1872145,27.4493292 C81.9448388,27.4493292 81.818382,27.401976 81.8447272,27.1283798 C81.8737069,26.8416299 81.7735952,26.475958 81.9158591,26.2812838 C82.0449505,26.1102862 82.4269556,26.1181784 82.698311,26.062933 L82.9775699,25.7551372 C83.0487019,23.8846862 83.1382755,22.0168659 83.2199456,20.1464149 L83.2199456,19.8649265 L83.1382755,19.8386192 L83.0091841,20.0938002 C82.1476967,22.4272602 81.2809403,24.7607202 80.4326255,27.0994417 C80.3377828,27.3572535 80.2192295,27.4624828 79.9452397,27.4361755 C79.6027523,27.401976 79.1785949,27.5150975 78.9362193,27.3493613 C78.7096507,27.1941481 78.6648639,26.7627079 78.5515796,26.44702 C77.800742,24.3371723 77.0551734,22.2273245 76.3043358,20.1174768 L76.1067469,19.830727 L76.0777672,20.0385549 C76.1330921,21.9405747 76.188417,23.8452252 76.259549,25.747245 L76.4650414,26.0024261 L76.8733917,26.091871 C77.4635237,26.1918389 77.3607775,26.181316 77.363412,26.712724 C77.3660465,27.4098682 77.3607775,27.4098682 76.6573612,27.4046067 C75.5719397,27.401976 74.4891528,27.3967145 73.4037314,27.3940838 L73.0217263,27.3940838 C73.0217263,27.0126275 73.0085537,26.6680015 73.0322644,26.3260063 L73.2588329,26.1208091 C73.5433609,26.0287334 73.9464421,26.05241 74.0939751,25.8682587 C74.2441427,25.6762153 74.1598381,25.2894975 74.1624726,24.989594 C74.1756452,22.921838 74.1782797,20.854082 74.2046249,18.7889568 C74.2098939,18.4680074 74.0992442,18.3575166 73.8041782,18.3049019 C73.0744167,18.1707346 73.0770512,18.1602116 73.0796857,17.4341294 L73.0796857,16.9684897 L73.2851781,16.9395516 C74.4127518,16.9421823 75.5429601,16.955336 76.6705338,16.9448131 C76.920813,16.9421823 76.9761379,17.0868726 77.0367318,17.2657625 C77.8376252,19.6228991 78.6385187,21.9774049 79.4394122,24.3345415 L79.5816762,24.7212592 L79.7529198,24.3503259 C80.5880621,22.0168659 81.4232043,19.6834059 82.2451739,17.3446845 C82.337382,17.0789804 82.4559353,16.9790126 82.7483668,16.9869048 C83.7995395,17.0105814 84.8533467,17.0105814 85.9045194,16.9974277 C86.1811438,16.994797 86.2707174,17.0868726 86.2443722,17.3499459 C86.2180271,17.6288036 86.3128697,17.9865833 86.1732403,18.1681038 C86.0362453,18.3417322 85.6674128,18.3496244 85.3960574,18.3943468 L85.0930879,18.757388 C85.0851843,21.0750636 85.0720117,23.3901084 85.0509356,25.7051533 L85.3512706,26.0760866 C85.6252605,26.131332 86.0178037,26.1287013 86.131088,26.2996989 C86.2733519,26.5127883 86.1864128,26.8784601 86.1916819,27.1783637 L86.1653367,27.4466984 L86.1679712,27.4466984 Z" id="Fill-749"></path>
                <path d="M100.146724,23.6713338 L100.159896,23.6713338 C100.159896,23.2398936 100.144089,22.8058227 100.165165,22.3743825 C100.180973,22.0718482 100.062419,21.8534974 99.8569269,21.6588232 C99.0823786,20.9274795 97.9389977,21.1537225 97.5543581,22.1481395 C97.1855256,23.1057262 97.177622,24.1001432 97.46215,25.0787758 C97.7176982,25.9548099 98.5080536,26.3125895 99.369541,25.9969016 C99.9043482,25.8022274 100.144089,25.4654936 100.146724,24.9051475 C100.149358,24.4921224 100.146724,24.0817281 100.146724,23.6713338 L100.146724,23.6713338 Z M100.186242,20.4776242 C100.186242,20.0303996 100.183607,19.5805443 100.186242,19.130689 C100.186242,18.786063 100.178338,18.4388062 100.19678,18.0941802 L99.8938101,17.7311391 L99.8621959,17.7232469 C99.6040131,17.6522171 99.1851248,17.6495864 99.1218963,17.4970039 C99.0007085,17.1997311 99.0639369,16.8235363 99.0771095,16.4789103 L99.2905055,16.3158049 C100.212587,16.3131741 101.134668,16.3289585 102.056749,16.3315893 L102.283318,16.6314928 C102.275414,17.3786209 102.270145,18.125749 102.264876,18.8728771 C102.251704,21.1642454 102.2438,23.4582444 102.22009,25.7496127 C102.217455,26.0232089 102.280683,26.1494841 102.573115,26.2020987 C103.226475,26.317851 103.226475,26.3362661 103.218572,27.0176259 C103.210668,27.6332174 103.305511,27.5621876 102.660054,27.5621876 C102.009328,27.5621876 101.358602,27.5411417 100.707876,27.5516647 C100.47077,27.5569261 100.375927,27.470112 100.354851,27.2491304 L100.270546,26.7071994 L100.133551,26.583555 L100.007094,26.8860893 C99.1192618,28.00152 97.2856373,27.7884306 96.5189925,27.1596855 C95.8419214,26.6019701 95.4572818,25.8837801 95.3202868,25.0314226 C95.1042563,23.6818567 95.133236,22.3559674 95.7971346,21.1142615 C96.4425915,19.9067551 97.5754342,19.3648242 98.8294648,19.691035 C99.150876,19.7725878 99.445942,19.9883079 99.73047,20.1777206 L100.022901,20.5644383 L100.180973,20.4776242 L100.186242,20.4776242 Z" id="Fill-750"></path>
                <path d="M59.3593792,16.9108766 L68.7435325,16.9108766 L68.7435325,18.2788577 L68.7356289,18.8628804 C68.7277254,19.3995499 68.451101,19.6652539 67.9031212,19.6626231 L67.1443801,19.6626231 C67.1206694,19.339043 67.1127658,19.0417702 67.0653445,18.7471281 L66.8598521,18.50247 C66.2881617,18.4814241 65.7138368,18.491947 65.0973596,18.491947 L65.0973596,25.9106135 C65.3555423,25.9632282 65.6453393,26.034258 65.9404053,26.0816112 L66.1696084,26.3630996 C66.1564358,26.6735261 66.1669739,26.989214 66.1669739,27.33384 L61.8463643,27.33384 L61.8463643,26.1079185 C62.1335268,26.0526731 62.4259583,25.9895355 62.7236588,25.9421823 L62.9554964,25.6659554 C62.9660345,23.3614335 62.9792071,21.0569115 63.0002832,18.7523896 L62.7210243,18.4709012 C62.2441765,18.4814241 61.7673288,18.4787934 61.290481,18.4656397 L61.0138566,18.7234515 L61.0112221,18.7550203 C60.9664353,19.0391395 61.0191257,19.4363801 60.853151,19.575809 C60.6792728,19.7204993 60.2946332,19.6257929 60.0048362,19.6257929 C59.3567448,19.6205314 59.3593792,19.6152699 59.3593792,18.9602175 C59.3620138,18.2788577 59.3593792,17.6001286 59.3593792,16.9108766" id="Fill-751"></path>
                <path d="M90.938293,24.1688054 L90.5799986,24.1688054 C90.205897,24.1793283 89.844968,24.2266815 89.5472675,24.4818626 C89.2363944,24.7501973 89.107303,25.1711146 89.2363944,25.5394171 C89.3733893,25.9261349 89.6868969,26.1155476 90.0662675,26.091871 C90.424562,26.0708252 90.7933945,25.9866417 91.1227093,25.8524744 C91.5205215,25.6893689 91.7154758,25.3789424 91.6891306,24.9027798 C91.6522474,24.1793283 91.6838616,24.1793283 90.938293,24.1688054 L90.938293,24.1688054 Z M87.571379,22.1957558 C87.571379,21.6354097 87.5608409,21.119786 87.5792825,20.6041624 L87.7636988,20.3700272 C88.9782116,19.6360527 90.282298,19.3940253 91.6680545,19.7360206 C93.0380039,20.0701236 93.7387857,20.9619421 93.7545928,22.3746456 C93.7677654,23.4874456 93.7519582,24.6028763 93.7493237,25.7156762 C93.7466892,26.0392564 93.9021258,26.2260384 94.2103644,26.2786531 L94.4053187,26.3154833 C94.4053187,26.6680015 94.4132223,27.0205197 94.3947806,27.3756686 L94.1840192,27.5335126 C93.5201207,27.5414048 92.8588566,27.5387741 92.1975926,27.5177282 L91.9446789,27.3335769 L91.7312829,26.7285084 L91.4441205,26.9705358 C90.5141356,27.7308176 89.4761355,27.8334162 88.3880796,27.4072374 C87.5292267,27.0731344 87.062917,26.2654994 87.0945312,25.3105434 C87.1261454,24.3924176 87.6188003,23.7242115 88.52244,23.3795855 C89.331237,23.0717898 90.1769173,23.069159 91.0252321,23.0717898 C91.7576281,23.0744205 91.6548819,23.1901728 91.670689,22.4483061 C91.6838616,21.9484669 91.599557,21.474935 91.0884605,21.2434305 C90.5115011,20.9829879 89.9134655,21.0198182 89.3707548,21.3302447 L89.1731659,21.8774371 C89.1468207,22.1484026 89.030902,22.2168016 88.7779882,22.2010172 C88.3880796,22.1826021 87.9981709,22.1957558 87.5687445,22.1957558 L87.571379,22.1957558 Z" id="Fill-752"></path>
                <path d="M114.658966,25.0482593 L114.658966,24.5431586 L114.437667,24.3037619 C114.018778,24.3169156 113.586718,24.2748239 113.178367,24.3511151 C112.901743,24.4010991 112.606677,24.5668352 112.409088,24.7694017 C112.024448,25.1613808 112.121925,25.8453714 112.572428,26.0873988 C113.070352,26.3583643 113.578814,26.2662886 114.063565,26.0216305 C114.495626,25.8032796 114.780154,25.4954839 114.658966,25.0482593 L114.658966,25.0482593 Z M117.393596,26.4425477 C117.393596,26.8003274 117.406769,27.1344304 117.383058,27.4659028 L117.172297,27.660577 C116.508398,27.6710999 115.847134,27.6658385 115.18587,27.6474233 L114.935591,27.4606413 L114.724829,26.8608342 L114.487723,27.0581392 C113.594621,27.8210517 112.577697,27.9578498 111.500179,27.5842858 C110.593905,27.2738593 110.156575,26.5819766 110.103885,25.632282 C110.051194,24.6957411 110.446372,24.027535 111.281514,23.6118792 C112.003372,23.2567303 112.78319,23.2146386 113.565641,23.1988542 L114.250616,23.2041156 C114.52724,23.2041156 114.66687,23.0620561 114.669504,22.7753062 L114.669504,22.6437695 C114.677408,22.1386688 114.624718,21.6414603 114.110987,21.38891 C113.539296,21.1074216 112.949164,21.1679284 112.385377,21.4336325 L112.214134,21.7203823 L112.106118,22.3070357 L110.564925,22.3070357 C110.564925,21.7808892 110.559656,21.2652656 110.572829,20.7496419 L110.715093,20.5233989 C112.121925,19.6789337 113.610428,19.4316448 115.167428,20.0419748 C116.181718,20.4392155 116.724428,21.2258046 116.737601,22.3280816 C116.753408,23.5066499 116.740236,24.6878489 116.740236,25.8664172 C116.740236,26.4425477 116.716525,26.3057496 117.193373,26.4083482 L117.393596,26.4425477 Z" id="Fill-753"></path>
                <path d="M58.5977401,27.3001666 L58.286867,27.3212125 C57.0618161,27.315951 55.8341307,27.3027973 54.6090799,27.3054281 C54.3640697,27.3054281 54.2481509,27.247552 54.2744961,26.9792172 C54.3034758,26.6898366 54.192826,26.3136418 54.340359,26.1321212 C54.482623,25.9558621 54.8698972,25.9611236 55.1544251,25.9111397 L55.4257805,25.592821 C55.4310495,23.2435766 55.4442221,20.896963 55.4626637,18.5477186 L55.1939429,18.2293999 L55.1596941,18.2241384 C54.8909733,18.1531086 54.4694504,18.1557394 54.3904149,17.9926339 C54.258689,17.7190377 54.33509,17.3402122 54.3482626,17.0061091 L54.5511205,16.8351115 C55.9052627,16.8245886 57.259405,16.8272193 58.6609686,16.8272193 C58.6609686,17.2455058 58.6662376,17.608547 58.6556995,17.9689574 L58.5397808,18.1031247 L58.35273,18.1478472 C57.5412984,18.2951682 57.5386639,18.2951682 57.5333949,19.1080647 C57.5228568,21.241589 57.5202223,23.3724825 57.4938771,25.5033761 C57.4912426,25.8111718 57.5913543,25.9242934 57.8811512,25.9532314 C58.1156234,25.976908 58.3474609,26.0400456 58.5977401,26.0900295 L58.5977401,27.3001666 Z" id="Fill-754"></path>
                <path d="M49.1798651,16.8240624 L53.5083782,16.8240624 C53.5083782,17.2055187 53.5162818,17.5685598 53.4978402,17.9316009 L53.3002513,18.0920756 L52.6310837,18.2157201 L52.372901,18.5103622 C52.3649974,20.8780217 52.3570939,23.2483119 52.3412868,25.6186022 L52.5836624,25.8895677 C52.8681904,25.9395516 53.1527183,26.0000585 53.4214391,26.0526731 L53.4556879,26.1394873 C53.4477843,26.5051592 53.4398808,26.870831 53.4293427,27.2365029 C53.0763173,27.2522873 52.7232919,27.2838561 52.3702665,27.2838561 C51.4165709,27.2864868 50.4628754,27.2785946 49.5091799,27.2733331 L49.1403474,27.2575487 L49.1403474,26.0421502 C49.4881037,25.9737511 49.8437637,25.9027213 50.2310378,25.8237994 L50.2468449,25.5081114 C50.2652866,23.2141124 50.2758246,20.9201134 50.3021698,18.6287451 C50.3074388,18.3551489 50.2389414,18.2315045 49.9491444,18.1815206 C49.1745961,18.0420917 49.1772306,18.0263073 49.1798651,17.2265646 L49.1798651,16.8240624 Z" id="Fill-755"></path>
                <path d="M107.243588,20.8243547 L107.470157,20.4902517 C107.910122,19.8720295 108.494985,19.5800181 109.264264,19.6931396 L109.527716,20.0272427 C109.443411,20.5507585 109.390721,21.0769051 109.319589,21.6372512 L108.768974,21.6398819 C108.500254,21.6530356 108.223629,21.6477741 107.965446,21.708281 C107.462253,21.8240332 107.227781,22.1528748 107.225147,22.6606062 C107.219878,23.6997457 107.225147,24.7388852 107.201436,25.7753939 C107.196167,26.0621438 107.29101,26.1831575 107.567634,26.2147263 L108.202553,26.3436322 L108.202553,27.5537693 L104.113781,27.5537693 C104.113781,27.1802052 104.103243,26.8355792 104.124319,26.4935839 L104.324543,26.3015404 C104.574822,26.2147263 104.935751,26.2305107 105.062208,26.0621438 C105.193933,25.8858847 105.106994,25.5438894 105.106994,25.2729239 C105.117532,24.0522639 105.114898,22.8289731 105.135974,21.6083131 C105.138609,21.3557628 105.070111,21.2479027 104.811928,21.1979188 C104.011035,21.0427056 104.026842,21.0321826 104.018938,20.2087633 C104.016304,19.8904446 104.095339,19.7799538 104.437827,19.7931075 C105.228182,19.8220455 106.018538,19.8141533 106.811528,19.8062611 L107.109228,20.0798574 C107.114497,20.3218848 107.146111,20.5639122 107.167187,20.8059396 L107.243588,20.8243547 Z" id="Fill-756"></path>
                <path d="M124.236493,26.9379147 C124.236493,26.9379147 124.895123,26.4959516 124.895123,25.5699336 C124.895123,24.641285 124.236493,24.0151706 124.236493,24.0151706" id="Fill-757"></path>
            </g>
        </g>
    </g>
</svg>