<?xml version="1.0" encoding="UTF-8"?>
<svg width="38px" height="38px" viewBox="0 0 38 38" version="1.1" xmlns="http://www.w3.org/2000/svg" xmlns:xlink="http://www.w3.org/1999/xlink">
    <title>HGF - Lgoo - LSE</title>
    <g id="Page-1" stroke="none" stroke-width="1" fill="none" fill-rule="evenodd">
        <g id="HGF---Home---Desktop" transform="translate(-354.000000, -3001.000000)" fill="#010202">
            <g id="Lgoo---LSE" transform="translate(354.357295, 3001.356026)">
                <path d="M30.5814852,9.73634211 L26.8009518,9.73634211 L26.8009518,17.1392242 L30.3206679,17.1392242 L30.3206679,19.848879 L26.8009518,19.848879 L26.8009518,27.7700155 L30.5814852,27.7700155 L30.5814852,30.33498 L24.3218704,30.33498 L24.3218704,7.20031569 L30.5814852,7.20031569 L30.5814852,9.73634211 Z M21.6662762,25.4944316 C21.1182964,28.8670311 18.5496414,30.363918 16.1258848,30.3060419 L15.3776817,30.33498 L15.3776817,27.8568297 L15.3776817,27.7989536 L16.1548645,27.7989536 C17.1665194,27.7989536 18.8973978,27.0781328 19.158215,25.4944316 C19.4163978,23.9396685 19.2135399,22.8163456 17.2244788,19.4148081 L17.1665194,19.3595627 C15.7807629,17.0839788 14.4529659,15.1240829 14.9429862,12.011926 C15.4936005,8.64195727 18.1175804,7.14243957 20.5123573,7.20031569 L21.2921746,7.20031569 L21.2921746,9.67846599 L21.2921746,9.73634211 L20.5123573,9.73634211 C19.5033369,9.73634211 17.7144992,10.4282248 17.4826616,12.040864 C17.2244788,13.5956271 17.398357,14.6058285 19.3584384,17.9468592 L19.4163978,18.0336734 C20.8574792,20.3671334 22.1562965,22.4112128 21.6662762,25.4944316 L21.6662762,25.4944316 Z M13.2147424,30.33498 L7.06841185,30.33498 L7.06841185,7.20031569 L9.55012782,7.20031569 L9.55012782,27.7989536 L13.2147424,27.7989536 L13.2147424,30.33498 Z M0,37.5379264 L37.5919376,37.5379264 L37.5919376,0 L0,0 L0,37.5379264 Z" id="Fill-462"></path>
            </g>
        </g>
    </g>
</svg>