<?xml version="1.0" encoding="UTF-8"?>
<svg width="109px" height="24px" viewBox="0 0 109 24" version="1.1" xmlns="http://www.w3.org/2000/svg" xmlns:xlink="http://www.w3.org/1999/xlink">
    <title>HGF - Logo - Magalu</title>
    <g id="Page-1" stroke="none" stroke-width="1" fill="none" fill-rule="evenodd">
        <g id="HGF---Home---Desktop" transform="translate(-508.000000, -3008.000000)" fill="#010202">
            <g id="Logo---Magalu" transform="translate(508.475900, 3008.362720)">
                <path d="M106.81934,0.379877817 L104.374507,0.379877817 C103.678995,0.379877817 103.257472,0.800795066 103.257472,1.49530853 L103.257472,8.71667008 C103.257472,11.3684487 101.824294,12.862705 99.8299638,12.862705 C97.7328875,12.862705 96.5526234,11.5052469 96.5526234,8.88503698 L96.5526234,1.49530853 C96.5526234,0.800795066 96.1311005,0.379877817 95.4355877,0.379877817 L92.990755,0.379877817 C92.2952423,0.379877817 91.8737194,0.800795066 91.8737194,1.49530853 L91.8737194,9.23229371 C91.8737194,14.1465026 94.4239328,16.9350794 98.2597911,16.9350794 C100.567629,16.9350794 102.340659,16.1669054 103.605228,14.5989886 L103.81599,15.5776212 C103.952985,16.2089971 104.374507,16.5562538 105.038406,16.5562538 L106.81934,16.5562538 C107.514853,16.5562538 107.936376,16.1353366 107.936376,15.4408231 L107.936376,1.49530853 C107.936376,0.800795066 107.525391,0.379877817 106.81934,0.379877817" id="Fill-584"></path>
                <path d="M89.7869177,12.3042004 L85.3925416,12.3042004 C83.8513486,12.3042004 83.0504551,11.5044576 83.0504551,9.96810967 L83.0504551,1.49451931 C83.0504551,0.800005846 82.6315667,0.379088597 81.9334194,0.379088597 L79.4253583,0.379088597 C78.7298455,0.379088597 78.3083226,0.800005846 78.3083226,1.49451931 L78.3083226,10.5573938 C78.3083226,14.2825115 80.5740081,16.5554646 84.3176582,16.5554646 L89.7974557,16.5554646 C90.4929685,16.5554646 90.9144914,16.1345474 90.9144914,15.4400339 L90.9144914,13.4196311 C90.9039533,12.7251177 90.4824304,12.3042004 89.7869177,12.3042004" id="Fill-585"></path>
                <path d="M18.6428123,1.46373973 C18.5690458,0.727134547 18.1896752,0.379877817 17.4941625,0.379877817 L15.6394618,0.379877817 C15.0493298,0.379877817 14.6278069,0.621905235 14.3116647,1.1480518 L9.80927343,8.74823887 L5.62565881,1.1480518 C5.35166894,0.621905235 4.88799376,0.379877817 4.29786173,0.379877817 L2.30616611,0.379877817 C1.61065335,0.379877817 1.23128275,0.737657479 1.15751625,1.46373973 L0.00886639241,15.4092543 C-0.0649001121,16.1774283 0.325008555,16.5562538 1.05213553,16.5562538 L3.28620681,16.5562538 C3.98171957,16.5562538 4.40324245,16.2089971 4.43485667,15.4723919 L4.91960798,7.66174622 L7.60681636,12.5049253 C7.88080624,13.0310719 8.34448141,13.2730993 8.93461344,13.2730993 L10.4758065,13.2730993 C11.063304,13.2730993 11.4874614,13.0626407 11.8036036,12.5049253 L14.8385683,7.31448949 L15.1863247,15.4723919 C15.2179389,16.2089971 15.6078476,16.5562538 16.3033603,16.5562538 L18.7165788,16.5562538 C19.4542439,16.5562538 19.8336145,16.1774283 19.759848,15.4092543 L18.6428123,1.46373973 Z" id="Fill-586"></path>
                <path d="M67.5478972,12.8616527 C65.0714503,12.8616527 63.5012776,11.1569378 63.5012776,8.50515916 C63.5012776,5.8218117 65.1452168,4.07500512 67.5478972,4.07500512 C70.0243442,4.07500512 71.5945673,5.77971997 71.5945673,8.43149864 C71.605055,11.125369 69.9611158,12.8616527 67.5478972,12.8616527 M75.0615426,0.378825524 L73.1436135,0.378825524 C72.479715,0.378825524 72.0265779,0.726082254 71.9211972,1.38902692 L71.8158164,2.18876969 C70.730395,1.04177019 69.1602223,0 66.5362423,0 C62.1418663,0 58.8935056,3.45152144 58.8935056,8.43149864 C58.8935056,13.3141387 61.9311048,16.9340271 66.2622525,16.9340271 C68.981075,16.9340271 70.7620092,15.7870276 71.8474307,14.5979363 L72.0265779,15.5765689 C72.1319586,16.2079448 72.5534815,16.5552015 73.21738,16.5552015 L75.0720807,16.5552015 C75.7675935,16.5552015 76.1891164,16.1342843 76.1891164,15.4397708 L76.1891164,1.49425623 C76.1812128,0.799742773 75.7596899,0.378825524 75.0615426,0.378825524" id="Fill-587"></path>
                <path d="M48.5972822,12.3357692 C46.1840637,12.3357692 44.5506626,10.7362837 44.5506626,8.25287188 C44.5506626,5.64318494 46.2578302,4.07526819 48.5972822,4.07526819 C51.0105007,4.07526819 52.6439019,5.50638683 52.6439019,8.1897343 C52.6439019,10.5994855 50.9367342,12.3357692 48.5972822,12.3357692 M56.1003895,0.379088597 L54.1824604,0.379088597 C53.5185619,0.379088597 53.0654248,0.726345328 52.9600441,1.38928999 L52.8546633,2.18903277 C51.7692419,1.04203326 50.1990692,0.000263073281 47.5856273,0.000263073281 C43.1912513,0.000263073281 39.9428905,3.24132589 39.9428905,8.23182602 C39.9428905,12.9671451 42.9462411,16.3134372 47.2800232,16.3134372 C49.9672316,16.3134372 51.5690186,15.1980065 52.65444,14.0089153 L52.65444,14.808658 C52.65444,17.5972348 51.0842672,19.3756102 47.7647745,19.3756102 C46.373749,19.3756102 45.1091804,19.102014 43.8235356,18.5469294 C43.159637,18.2286107 42.6327334,18.3680395 42.3271293,19.0283535 L41.5552156,20.5647014 C41.2417079,21.198708 41.3444541,21.7143316 41.9372207,22.0615884 C43.7919214,23.1033586 46.0576069,23.5242758 48.2495258,23.5242758 C53.7293233,23.5242758 57.2200597,20.0701236 57.2200597,15.2611441 L57.2200597,1.49451931 C57.2200597,0.800005846 56.7959023,0.379088597 56.1003895,0.379088597" id="Fill-588"></path>
                <path d="M29.6464038,12.8616527 C27.1699568,12.8616527 25.5997841,11.1569378 25.5997841,8.50515916 C25.5997841,5.8218117 27.2437233,4.07500512 29.6464038,4.07500512 C32.1228507,4.07500512 33.6930234,5.77971997 33.6930234,8.43149864 C33.6930234,11.125369 32.0490842,12.8616527 29.6464038,12.8616527 M37.1495111,0.378825524 L35.231582,0.378825524 C34.5676834,0.378825524 34.1145463,0.726082254 34.0091656,1.38902692 L33.9037849,2.18876969 C32.8183635,1.04177019 31.2481907,0 28.6347488,0 C24.2403728,0 20.9920121,3.45152144 20.9920121,8.43149864 C20.9920121,13.3141387 24.0296113,16.9340271 28.360759,16.9340271 C31.0795816,16.9340271 32.8605157,15.7870276 33.9459372,14.5979363 L34.1250844,15.5765689 C34.2304651,16.2079448 34.651988,16.5552015 35.3158865,16.5552015 L37.1705872,16.5552015 C37.8661,16.5552015 38.2876229,16.1342843 38.2876229,15.4397708 L38.2876229,1.49425623 C38.2665467,0.799742773 37.8450238,0.378825524 37.1495111,0.378825524" id="Fill-589"></path>
            </g>
        </g>
    </g>
</svg>