<?xml version="1.0" encoding="UTF-8"?>
<svg width="133px" height="20px" viewBox="0 0 133 20" version="1.1" xmlns="http://www.w3.org/2000/svg" xmlns:xlink="http://www.w3.org/1999/xlink">
    <title>HGF - Logo - Servicenow</title>
    <g id="Page-1" stroke="none" stroke-width="1" fill="none" fill-rule="evenodd">
        <g id="HGF---Home---Desktop" transform="translate(-882.000000, -3010.000000)" fill="#010202">
            <g id="Logo---Servicenow" transform="translate(882.953840, 3010.387332)">
                <path d="M81.9256069,19.1359504 L81.9256069,6.10066938 L85.2846173,6.10066938 L85.2846173,7.16611616 C86.2751961,6.3269124 87.4976125,5.87179562 88.9465974,5.87179562 C90.7828564,5.87179562 92.3820089,6.71363012 93.4542577,8.00795066 C94.294669,8.99973693 94.8294761,10.3729795 94.8294761,12.582795 L94.8294761,19.2148724 L91.3150291,19.2148724 L91.3150291,12.27763 C91.3150291,10.9833095 91.0120595,10.2966882 90.5536534,9.83894069 C90.0926127,9.38119318 89.4050035,9.07865891 88.5698613,9.07865891 C87.1182419,9.07865891 85.89846,9.99415393 85.4400539,10.6807752 L85.4400539,19.1412119 L81.9256069,19.1412119 L81.9256069,19.1359504 Z M76.9621749,10.978048 C76.8884084,9.83367923 75.8161596,8.68931046 74.3645401,8.68931046 C72.9155552,8.68931046 71.7669054,9.75475724 71.6193724,10.978048 L76.9621749,10.978048 Z M80.2447844,17.0813481 C79.0250025,18.6045424 76.8884084,19.4437462 74.9019818,19.4437462 C71.0107987,19.4437462 68.1101944,16.7788138 68.1101944,12.661717 C68.1101944,9.00236766 70.5523926,5.87968782 74.4462102,5.87968782 C78.0317892,5.87968782 80.5556575,8.92870714 80.5556575,12.5117652 C80.5556575,12.8958522 80.5556575,13.1983865 80.4792565,13.5035515 L71.4692048,13.5035515 C71.6246414,15.3345415 73.1500273,16.6288621 74.9836519,16.6288621 C76.4326368,16.6288621 77.6550531,15.7870276 78.2688958,15.1056678 L80.2447844,17.0813481 Z M67.5727527,16.4683874 C66.0473668,18.5282511 64.1373412,19.3648242 61.6898739,19.3648242 C57.6432543,19.3648242 54.7426499,16.3131741 54.7426499,12.582795 C54.7426499,8.76823244 57.7986908,5.7981351 61.7636405,5.7981351 C63.9766356,5.7981351 66.0420977,6.86358189 67.2618796,8.39203765 L64.8196814,10.6018532 C64.1320722,9.68635819 63.0650924,9.07865891 61.8453105,9.07865891 C59.8615184,9.07865891 58.3308635,10.6807752 58.3308635,12.661717 C58.3308635,14.7215808 59.7824829,16.2447751 61.919077,16.2447751 C63.3706964,16.2447751 64.4403108,15.4029406 65.0488844,14.492707 L67.5727527,16.4683874 Z M49.7054515,19.1412119 L53.2198985,19.1412119 L53.2198985,6.10066938 L49.7054515,6.10066938 L49.7054515,19.1412119 Z M51.462675,4.54747351e-13 C52.6850914,4.54747351e-13 53.7573402,0.989155535 53.7573402,2.20981556 C53.7573402,3.42784485 52.7641269,4.41963111 51.462675,4.41963111 C50.1612231,4.41963111 49.1706443,3.42784485 49.1706443,2.20981556 C49.1706443,0.997047733 50.1612231,4.54747351e-13 51.462675,4.54747351e-13 L51.462675,4.54747351e-13 Z M41.306608,14.1033586 L44.8948216,6.09540791 L48.4830351,6.09540791 L42.5263899,19.1359504 L40.0841917,19.1359504 L34.1301809,6.10066938 L37.792161,6.10066938 L41.306608,14.1033586 Z M14.5820572,10.978048 C14.7374938,9.76001871 15.9572756,8.68931046 17.327225,8.68931046 C18.7788444,8.68931046 19.7694232,9.83367923 19.9248598,10.978048 L14.5820572,10.978048 Z M23.5183424,12.5065038 C23.5183424,8.84978516 20.9971086,5.87179562 17.4088951,5.87179562 C13.5150774,5.87179562 11.0728792,9.07339745 11.0728792,12.6564555 C11.0728792,16.7709216 13.9734836,19.4384847 17.8673012,19.4384847 C19.8510933,19.4384847 21.9139209,18.5992809 23.2101038,17.0760866 L21.2263117,15.0951448 C20.612469,15.7817661 19.3926871,16.6183391 17.9410677,16.6183391 C16.1074432,16.6183391 14.5820572,15.3240186 14.4266207,13.4930286 L23.4393068,13.4930286 C23.4393068,13.193125 23.5183424,12.8853293 23.5183424,12.5065038 L23.5183424,12.5065038 Z M1.60442147,15.1740668 C2.52123374,16.0159013 3.81741661,16.4683874 5.19263502,16.4683874 C6.10944729,16.4683874 6.87345751,16.0106399 6.87345751,15.4029406 C6.87345751,13.4219988 0.611208181,14.1112508 0.611208181,9.91523194 C0.611208181,7.39498992 3.05340638,5.87179562 5.57727465,5.87179562 C7.25546263,5.87179562 9.08908717,6.48475636 10.008534,7.16611616 L8.40147796,9.68635819 C7.71386876,9.22861068 6.87609203,8.76823244 5.88024422,8.76823244 C4.88966544,8.76823244 4.12565522,9.15231943 4.12565522,9.83367923 C4.12565522,11.5120868 10.38527,10.8254655 10.38527,15.3976791 C10.38527,17.9152904 7.94307183,19.4384847 5.19263502,19.4384847 C3.35901048,19.4384847 1.53065497,18.8281547 0,17.6864166 L1.60442147,15.1740668 Z M31.9909523,6.02700886 C30.5419674,6.02700886 29.319551,6.55841688 28.3289723,7.3213294 L28.3289723,6.10066938 L24.9699618,6.10066938 L24.9699618,19.1412119 L28.4817743,19.1412119 L28.4817743,10.830727 C28.9401804,10.1441057 30.1625968,9.22861068 31.6115817,9.22861068 C32.1463889,9.22861068 32.604795,9.3022712 32.9894346,9.45748443 L32.9894346,6.10066938 C32.6785615,6.02700886 32.3755919,6.02700886 31.9909523,6.02700886 L31.9909523,6.02700886 Z" id="Fill-412"></path>
                <path d="M103.685408,17.3096957 C101.472413,17.3096957 99.8679918,15.6312882 99.8679918,13.4977639 C99.8679918,11.3616088 101.393378,9.68583204 103.685408,9.68583204 C105.977439,9.68583204 107.502825,11.4379001 107.502825,13.4977639 C107.502825,15.5576277 105.97217,17.3096957 103.685408,17.3096957 M103.759175,5.87390021 C99.6387888,5.87390021 96.1243417,9.22808453 96.1243417,13.4214726 C96.1243417,15.6312882 97.041154,17.6174915 98.4927734,19.0670252 C99.0249461,19.5984333 99.8679918,19.5984333 100.476565,19.1406857 C101.316977,18.4540645 102.460358,18.075239 103.759175,18.075239 C105.055358,18.075239 106.127607,18.4593259 107.044419,19.1406857 C107.658262,19.5984333 108.496038,19.5247727 109.028211,18.9881032 C110.477196,17.61223 111.394008,15.6312882 111.394008,13.4214726 C111.320242,9.30174505 107.961231,5.87390021 103.759175,5.87390021" id="Fill-414"></path>
                <polygon id="Fill-416" points="118.188694 19.1412119 115.591059 19.1412119 110.398424 6.10066938 113.912871 6.10066938 116.737074 13.5719505 119.563912 6.10066938 122.464516 6.10066938 125.209684 13.5719505 128.036522 6.10066938 131.550969 6.10066938 126.358334 19.1412119 123.760699 19.1412119 121.015531 11.746222"></polygon>
                <path d="M130.713456,18.5290404 L131.327298,17.5398848 L131.556501,17.5398848 L131.556501,19.1420011 L131.250897,19.1420011 L131.250897,18.2265061 L130.792491,18.9131274 L130.563288,18.9131274 L130.181283,18.2265061 L130.181283,19.1420011 L129.875679,19.1420011 L129.875679,17.5398848 L130.104882,17.5398848 L130.713456,18.5290404 Z M129.641207,17.5398848 L129.641207,17.7687586 L129.182801,17.7687586 L129.182801,19.1420011 L128.879831,19.1420011 L128.879831,17.7687586 L128.421425,17.7687586 L128.421425,17.5398848 L129.641207,17.5398848 Z" id="Fill-418"></path>
            </g>
        </g>
    </g>
</svg>