<?xml version="1.0" encoding="UTF-8"?>
<svg width="95px" height="34px" viewBox="0 0 95 34" version="1.1" xmlns="http://www.w3.org/2000/svg" xmlns:xlink="http://www.w3.org/1999/xlink">
    <title>HGF - Logo - Swirlds</title>
    <g id="Page-1" stroke="none" stroke-width="1" fill="none" fill-rule="evenodd">
        <g id="HGF---Home---Desktop" transform="translate(-1430.000000, -3003.000000)" fill="#010202">
            <g id="Logo---Swirlds" transform="translate(1430.923050, 3003.897314)">
                <path d="M17.9621439,26.5782935 C16.2312655,27.007103 14.2869912,27.233346 12.3427169,27.2359767 C10.3984426,27.2359767 8.45680284,27.0123644 6.72328999,26.5861857 C6.74436613,27.0728713 6.7838839,27.5358803 6.83393974,27.9725819 C7.03679763,29.7193885 7.455686,31.0110783 8.01420382,31.6766537 C9.36044252,32.1791237 10.8146965,32.4553506 12.3374479,32.4553506 C13.8654683,32.4553506 15.3302604,32.1764929 16.6791336,31.6713922 C17.2350169,31.0005554 17.6486362,29.7088656 17.8488596,27.9673205 C17.8989154,27.5306188 17.9384332,27.0649791 17.9621439,26.5782935 L17.9621439,26.5782935 Z M24.4404237,22.5243343 C23.8002358,23.9265149 22.0877991,25.205051 19.7114638,26.0574084 C19.6851186,26.4520184 19.6508699,26.8334746 19.6008141,27.1991465 C19.3795146,28.8696618 18.9079358,30.1639823 18.2624789,30.94531 C21.4133625,29.2195493 23.7238348,26.1573763 24.4404237,22.5243343 L24.4404237,22.5243343 Z M0.221299514,22.4638274 C0.922081307,26.1258075 3.2457262,29.2142878 6.42032041,30.9479407 C5.76959446,30.1666131 5.29801574,28.8670311 5.07671622,27.1912543 C5.0292949,26.8282131 4.99504617,26.4467569 4.9713355,26.0547777 C2.56338603,25.1892666 0.840411248,23.8844231 0.221299514,22.4638274 L0.221299514,22.4638274 Z M7.76919364,16.2894975 C7.52418346,17.3154833 7.31869106,18.3861916 7.15271642,19.4674228 C6.86291944,21.3562889 6.70484836,23.2609395 6.69167577,24.9867002 C8.43309218,25.3813101 10.38527,25.5917687 12.3400824,25.5917687 C14.2948948,25.5917687 16.2497071,25.3839408 17.9911236,24.9893309 C17.9805855,23.255678 17.8225144,21.345766 17.5327174,19.4516384 C17.3667428,18.3782994 17.1586159,17.3154833 16.9188747,16.2921283 C14.0551536,16.6183391 10.6302802,16.6183391 7.76919364,16.2894975 L7.76919364,16.2894975 Z M1.48850268,14.266464 C0.540076194,16.0132706 0,18.0126275 0,20.1382596 C0,20.380287 0.0105380721,20.617053 0.0237106622,20.8538189 C0.508461978,22.2928298 2.31574134,23.6345035 4.93181773,24.5026453 C4.95289388,22.7216392 5.16892435,20.7591126 5.57990917,18.8281547 C5.77749802,17.8968753 6.01987367,16.9761188 6.29649807,16.0895618 C3.80424402,15.6791675 2.02330984,15.0030692 1.48850268,14.266464 L1.48850268,14.266464 Z M27.773089,13.6798106 C27.406891,15.7291514 26.2292614,17.4970039 24.5853222,18.6440034 C24.5431699,18.2888545 24.4852105,17.9337055 24.411444,17.5864488 C24.4667688,17.3549443 24.5062866,17.1076554 24.5405354,16.8445822 C24.5774186,16.5630937 24.6037638,16.2658209 24.6195709,15.9553945 C26.2160888,15.4213557 27.3673732,14.5900441 27.773089,13.6798106 L27.773089,13.6798106 Z M26.898429,8.52620502 C27.4095255,9.42854637 27.7441093,10.4440092 27.854759,11.5278712 C27.8811042,11.785683 27.8942768,12.051387 27.8942768,12.317091 L27.8890078,12.6143638 L27.8890078,12.6380404 L27.8705661,12.9063751 L27.854759,13.0668498 C27.5043681,13.9849756 26.318835,14.8294408 24.635378,15.3634796 C24.6432816,14.1901728 24.5141902,12.8748063 24.2533729,11.5831165 C24.1190125,10.9228026 23.9504033,10.2730116 23.755449,9.64952793 C25.3835811,9.40486978 26.5533071,8.98658326 26.898429,8.52620502 L26.898429,8.52620502 Z M12.3374479,7.83169156 C11.4206356,7.87115255 10.3483868,9.1417965 9.39469126,11.283213 C8.94682319,12.2907837 8.52793483,13.4877671 8.16173682,14.7873491 C10.7936203,15.0320072 13.9076206,15.0293765 16.5289661,14.7820876 C16.1601335,13.4614598 15.7359761,12.2486919 15.282839,11.2358598 C14.3291435,9.09707404 13.2516256,7.86326035 12.3374479,7.83169156 L12.3374479,7.83169156 Z M12.2162601,7.82116863 C8.03527996,7.86062962 4.34695473,9.98100026 2.14713219,13.193125 C2.6898429,13.7771477 4.41281768,14.3111865 6.79442197,14.6295051 C7.30288395,13.2562626 7.89038147,12.0066645 8.52266579,10.9754173 C9.71610246,9.02867499 11.0570721,7.89219842 12.2162601,7.82116863 L12.2162601,7.82116863 Z M20.4596669,4.61167461 L20.5703167,4.61430534 L20.5729512,4.61430534 L20.9628599,4.64587413 L20.9681289,4.64587413 C23.3339261,4.88790155 25.3809466,6.19537576 26.6244391,8.07898044 C26.2793172,8.47359037 25.1359364,8.83137003 23.5604946,9.03919792 C23.2443525,8.12896437 22.8728854,7.30028353 22.4750732,6.61892374 C21.8217128,5.50349303 21.1077584,4.77478004 20.4596669,4.61167461 L20.4596669,4.61167461 Z M19.8510933,4.61167461 C19.2109054,4.79319517 18.5022201,5.51401596 17.8593977,6.60577007 C17.5116413,7.20031569 17.1875956,7.91061355 16.8977986,8.68931046 C15.9309305,8.30522347 14.9034684,8.03951945 13.8338541,7.91061355 C15.124768,6.06120838 17.2034027,4.80634884 19.585007,4.627459 L19.8510933,4.61167461 L19.8510933,4.61167461 Z M20.1672354,4.60378241 L20.16987,4.60378241 L20.16987,4.61167461 C20.7758091,4.61956681 21.4897635,5.38774079 22.1220478,6.71889158 C22.443459,7.39498992 22.7411595,8.21314782 22.9967078,9.10496624 C21.4318041,9.26807167 19.5665653,9.2864868 17.9331642,9.16021163 L17.3957225,8.89713835 C17.6407327,8.07898044 17.9173571,7.3292216 18.2176921,6.70047645 C18.8526109,5.37195639 19.5639308,4.60904387 20.1672354,4.61167461 L20.1672354,4.60378241 Z M25.8973121,1.3074742 C28.8268962,1.3074742 31.2032314,3.67776446 31.2032314,6.60313934 C31.2032314,8.33416153 30.3707237,9.87314022 29.0824444,10.8412499 C28.4554291,7.04510245 25.4599821,4.04869779 21.6610072,3.41995265 C22.6278753,2.13878577 24.1664338,1.3074742 25.8973121,1.3074742 L25.8973121,1.3074742 Z M25.8973121,0 C23.4524794,0 21.3158853,1.32588933 20.1725045,3.2963082 C16.8213976,3.2963082 13.8997171,5.11940604 12.3400824,7.82116863 C13.52825,7.81590716 14.916641,8.9655374 16.1548645,10.9833095 C16.7845143,12.011926 17.3746463,13.2615241 17.8831083,14.6321359 C20.2699816,14.3111865 21.9903219,13.7771477 22.5224945,13.1878636 C21.6293929,11.8830201 20.4860121,10.7544357 19.1661186,9.87840168 C20.5202609,9.92838561 21.934997,9.87314022 23.1679515,9.72844991 C23.3418297,10.4098097 23.4893627,11.1279998 23.607916,11.8514513 C23.8134084,13.1299874 23.9214236,14.4190465 23.9135201,15.5686767 L23.8055048,15.5923533 C23.6237231,15.1398673 23.4182307,14.7031656 23.1863931,14.2769869 C22.6384133,15.0083307 20.8627482,15.6765368 18.3810322,16.0843004 C18.6602911,16.9761188 18.9026668,17.899506 19.1002556,18.8360469 C19.5112405,20.764374 19.7299054,22.7216392 19.7483471,24.5026453 C22.3538854,23.639765 24.1532612,22.3086142 24.6511851,20.8774955 C24.6643577,20.6328374 24.6748958,20.3881792 24.6748958,20.1382596 L24.6748958,20.1356289 C27.3805458,18.5782351 29.2036322,15.6607524 29.2036322,12.317091 C31.1795208,11.175353 32.5125869,9.04445938 32.5125869,6.60313934 C32.5125869,2.95694367 29.5513886,0 25.8973121,0 L25.8973121,0 Z" id="Fill-599"></path>
                <path d="M45.8558937,13.8423899 L46.843838,23.8233901 L49.1516758,23.8233901 L51.7888283,17.9016106 L52.3394426,23.8233901 L54.6446459,23.8233901 L59.2603214,13.8423899 L56.9524836,13.8423899 L54.3153311,19.7641694 L53.7647168,13.8423899 L51.4595136,13.8423899 L48.822361,19.7641694 L48.2717468,13.8423899 L45.8558937,13.8423899 L45.8558937,13.8423899 Z M60.3589154,13.8423899 L58.5990574,23.8233901 L60.9068952,23.8233901 L62.6641187,13.8423899 L60.3589154,13.8423899 L60.3589154,13.8423899 Z M68.2545659,13.7318991 C67.4852867,13.7318991 66.7160074,14.1712315 66.1653932,14.8289147 L66.3866927,13.8423899 L64.0788549,13.8423899 L62.3216314,23.8233901 L64.6268346,23.8233901 L65.5067637,18.5592938 C65.7280632,17.3517874 66.6053577,15.5970887 67.9226167,15.5970887 L68.1439162,15.5970887 C68.8025457,15.5970887 69.3505254,15.9259303 69.571825,16.3652626 L70.4491195,14.392213 C70.1224392,13.9528807 69.0238452,13.7266376 68.2545659,13.7266376 L68.2519314,13.7318991 L68.2545659,13.7318991 Z M72.1931704,8.46780275 L69.4480026,23.8233901 L71.8638556,23.8233901 L74.6116579,8.46780275 L72.1931704,8.46780275 L72.1931704,8.46780275 Z M79.6488564,15.9259303 L81.9540597,15.9259303 L80.8554656,21.9582006 L78.5502624,21.9582006 C77.0117038,21.9582006 76.2424246,21.1900266 76.2424246,19.7641694 C76.2424246,18.0121014 77.2303688,15.9259303 79.6488564,15.9259303 L79.6488564,15.9259303 Z M83.1633034,8.46780275 L82.1753592,13.8423899 L79.8675214,13.8423899 C74.9225311,13.8423899 73.7159218,17.7648125 73.7159218,20.093011 C73.7159218,22.5080237 75.1438306,23.9338809 77.8916329,23.9338809 L82.7233389,23.9338809 L85.4711412,8.57829353 L83.0526537,8.57829353 L83.1633034,8.46780275 Z M41.8514264,8.2468212 C36.9090706,8.2468212 35.6998268,11.7588495 35.6998268,13.8423899 C35.6998268,15.9259303 37.1277355,16.5836135 39.3249236,17.1334366 L40.4235176,17.3517874 C41.6327614,17.680629 42.5100559,18.1199614 42.5100559,19.216977 C42.5100559,20.9716758 41.0821471,22.1791821 38.8849591,22.1791821 C37.1277355,22.1791821 35.8104765,21.629359 34.3799333,20.6428342 L33.9426033,23.1657069 C35.4785273,23.6050393 36.9090706,24.1522317 38.5556443,24.1522317 C43.9405991,24.1522317 45.455447,20.7480635 45.2578582,18.5592938 C44.9944064,15.6654877 42.7682386,15.013066 40.4235176,14.7210546 C39.311751,14.5816258 38.3343448,14.1712315 38.3343448,13.0742159 C38.3343448,12.1981819 38.8849591,10.3329923 41.7407766,10.3329923 C43.5006346,10.3329923 44.2672794,10.6618339 45.6978227,11.4300079 L46.1351527,9.12548595 C45.0365586,8.57829353 43.2793351,8.2468212 41.9620761,8.2468212 L41.8514264,8.2468212 L41.8514264,8.2468212 Z M89.7416949,13.6214083 C86.1139636,13.6214083 84.9073544,15.5970887 84.9073544,17.2412967 C84.9073544,18.7776446 86.0059484,19.4353278 87.6525221,19.7641694 L88.3137862,19.8746602 C89.0804309,20.093011 90.1816594,20.093011 90.1816594,20.9716758 C90.1816594,21.5188682 89.7416949,22.2870422 87.9818369,22.2870422 C86.1139636,22.2870422 85.8952986,22.0686914 84.2487248,21.3005174 L83.8087603,23.6024086 C84.7967046,23.9312502 86.4459129,24.2627225 87.5445069,24.2627225 C90.6189894,24.2627225 92.7081622,22.7263746 92.7081622,20.4218526 C92.7081622,18.7776446 91.3882687,18.2278215 89.6310452,17.8989799 L89.0804309,17.7911198 C88.4218014,17.680629 87.3232074,17.5701383 87.3232074,16.8019643 C87.3232074,16.3652626 87.7631719,15.5970887 89.6310452,15.5970887 C91.3882687,15.7049487 91.2776189,15.7049487 92.8161774,16.3652626 L93.256142,14.2790915 C92.2681977,13.8397591 91.0589539,13.6214083 89.7416949,13.6214083 L89.7416949,13.6214083 Z M62.3374385,8.35468124 C61.4575095,8.35468124 60.9068952,9.233346 60.9068952,9.89365993 C60.9068952,10.4408524 61.3468597,10.8801847 61.8948394,10.8801847 C62.6641187,10.8801847 63.3227482,10.2225015 63.3227482,9.34383678 C63.3227482,8.79664435 62.8854182,8.35731198 62.334804,8.35731198 L62.3374385,8.35468124 Z" id="Fill-600"></path>
            </g>
        </g>
    </g>
</svg>