<?xml version="1.0" encoding="UTF-8"?>
<svg width="77px" height="20px" viewBox="0 0 77 20" version="1.1" xmlns="http://www.w3.org/2000/svg" xmlns:xlink="http://www.w3.org/1999/xlink">
    <title>HGF - Logo - Tata</title>
    <g id="Page-1" stroke="none" stroke-width="1" fill="none" fill-rule="evenodd">
        <g id="HGF---Home---Desktop" transform="translate(-155.000000, -3114.000000)" fill="#010202">
            <g id="Logo---Tata" transform="translate(155.173507, 3113.997691)">
                <polygon id="Fill-669" points="5.41920357 19.077022 5.41920357 5.62608518 0 5.62608518 0 0.00157843968 18.5127581 0.00157843968 18.5127581 5.62608518 13.1989353 5.62608518 13.1989353 19.077022"></polygon>
                <polygon id="Fill-670" points="42.3401294 19.077022 42.3401294 5.62608518 36.9209259 5.62608518 36.9209259 0.00157843968 55.433684 0.00157843968 55.433684 5.62608518 50.1198612 5.62608518 50.1198612 19.077022"></polygon>
                <polygon id="Fill-671" points="16.742362 19.130689 23.7185657 0 31.7143279 0 39.1199581 19.130689 31.6063127 19.130689 27.7441093 7.55546462 23.8792713 19.130689"></polygon>
                <polygon id="Fill-672" points="53.6632879 19.077022 60.6394916 0.00157843968 68.5272386 0.00157843968 76.040884 19.077022 68.5272386 19.077022 64.7704159 7.55441232 60.8001972 19.077022"></polygon>
            </g>
        </g>
    </g>
</svg>