<?xml version="1.0" encoding="UTF-8"?>
<svg width="31px" height="36px" viewBox="0 0 31 36" version="1.1" xmlns="http://www.w3.org/2000/svg" xmlns:xlink="http://www.w3.org/1999/xlink">
    <title>HGF - Logo - Telekom</title>
    <g id="Page-1" stroke="none" stroke-width="1" fill="none" fill-rule="evenodd">
        <g id="HGF---Home---Desktop" transform="translate(-176.000000, -2899.000000)" fill="#010202">
            <g id="Logo---Telekom" transform="translate(176.576331, 2899.038409)">
                <path d="M24.0083627,35.296542 L24.0083627,32.815761 L22.301195,32.815761 C19.3531694,32.815761 18.0016616,31.0663237 18.0016616,28.4908363 L18.0016616,2.48078104 L18.5074891,2.48078104 C24.0268043,2.48078104 27.5307133,6.13749963 27.5307133,11.5173482 L27.5307133,11.9987723 L29.6304242,11.9987723 L29.6304242,0 L0.00263451802,0 L0.00263451802,11.9987723 L2.09971086,11.9987723 L2.09971086,11.5173482 C2.09971086,6.13749963 5.60625435,2.48078104 11.1255696,2.48078104 L11.6313971,2.48078104 L11.6313971,28.4908363 C11.6313971,31.0663237 10.2798893,32.815761 7.33186365,32.815761 L5.62469597,32.815761 L5.62469597,35.296542 L24.0083627,35.296542 Z" id="Fill-697"></path>
                <polygon id="Fill-698" points="22.585723 23.2956651 29.6304242 23.2956651 29.6304242 16.237409 22.585723 16.237409"></polygon>
                <polygon id="Fill-699" points="-2.84217094e-14 23.2956651 7.04470118 23.2956651 7.04470118 16.237409 -2.84217094e-14 16.237409"></polygon>
            </g>
        </g>
    </g>
</svg>