<?xml version="1.0" encoding="UTF-8"?>
<svg width="97px" height="29px" viewBox="0 0 97 29" version="1.1" xmlns="http://www.w3.org/2000/svg" xmlns:xlink="http://www.w3.org/1999/xlink">
    <title>HGF - Logo - UCL</title>
    <g id="Page-1" stroke="none" stroke-width="1" fill="none" fill-rule="evenodd">
        <g id="HGF---Home---Desktop" transform="translate(-514.000000, -3109.000000)" fill="#010202">
            <g id="Logo---UCL" transform="translate(514.418491, 3109.865862)">
                <polyline id="Fill-606" points="75.3862062 27.3393645 75.3862062 1.02940575 84.3014152 1.02940575 84.3014152 21.7595803 95.8748529 21.7595803 95.8748529 27.3946099"></polyline>
                <path d="M49.3281885,27.3754056 C45.3869495,24.5394756 43.5243453,19.7910029 43.5243453,15.2398351 C43.5243453,7.71067785 48.5852544,0 58.1722655,0 C62.4375502,0 66.5078805,1.4995177 69.4901549,4.51433749 C70.6835916,5.76130484 71.2631855,6.68206133 71.8427795,7.80012277 L64.3370377,11.4857794 C63.6309868,9.80474117 62.2584029,6.82675163 58.4778696,6.82675163 C56.5256917,6.82675163 55.2769302,7.76592324 54.6630875,8.3236386 C52.5291279,10.3650873 52.5291279,13.5430125 52.5291279,14.6637047 C52.5291279,18.8334162 54.0834935,22.7716232 58.4778696,22.7716232 C62.6562152,22.7716232 63.8839006,19.0859665 64.1921392,18.16521 L71.7874546,21.8508667 C71.0814038,23.1846482 70.3595458,24.4684458 69.0396523,25.8416883 C68.4600584,26.4178188 67.8462157,26.9071351 67.1770481,27.3385753" id="Fill-607"></path>
                <path d="M18.5865246,27.3754056 C18.1887124,27.1044401 17.8804738,26.8518897 17.5195448,26.5256789 C14.7164177,23.8186548 14.6795344,20.6749291 14.5899608,17.7495542 L14.5899608,1.06544679 L23.5604946,1.06544679 L23.5604946,18.5992809 C23.5604946,19.7910029 23.5947434,21.0379702 24.5721496,21.9587267 C25.2782004,22.7163778 26.3978706,22.9689281 27.41216,22.9689281 C28.8400688,22.9689281 29.7252668,22.4454123 30.2495359,21.9929263 C31.2638253,21.0195551 31.3165157,19.7725878 31.3165157,18.5808658 L31.3165157,1.06544679 L40.3239328,1.06544679 L40.3239328,16.0001169 C40.3239328,19.2306568 40.3239328,23.402999 36.9965365,26.544094 C36.6882979,26.8518897 36.327369,27.1228552 35.9269222,27.3938207" id="Fill-608"></path>
                <polygon id="Fill-609" points="10.0691279 7.36789337 5.24005634 6.35769197 0.413619329 7.36789337 0.413619329 7.40472363 0.447868063 7.67568911 0.574324928 7.70988863 0.666533059 8.10976002 0.700781793 8.14395955 0.882563537 8.14395955 9.6344324 8.14395955 9.81621414 8.14395955 9.85309739 8.14395955 9.94267101 7.74671889 10.0691279 7.65727398 10.1060111 7.3863085 10.1060111 7.34947824 10.0691279 7.34947824"></polygon>
                <polygon id="Fill-610" points="9.58095168 8.25260881 9.58095168 8.25260881 9.58095168 8.10791851 8.82221049 8.10791851 8.82221049 8.23419368 8.85645923 8.23419368 8.85645923 8.27102394 8.94866736 8.4525445 8.94866736 8.48674403 8.91178411 8.48674403 8.91178411 8.52357429 8.91178411 8.56040455 8.91178411 11.2674286 8.87490085 11.3042589 8.87490085 11.3410891 8.8380176 11.3410891 8.8380176 11.430534 9.54406843 11.430534 9.54406843 11.3410891 9.50718518 11.3410891 9.47293644 11.3042589 9.47293644 8.59460407 9.47293644 8.56040455 9.47293644 8.52357429 9.47293644 8.48674403 9.56251006 8.3078542 9.56251006 8.28943907 9.59939331 8.28943907 9.59939331 8.25260881"></polygon>
                <polygon id="Fill-611" points="7.9897028 8.25260881 7.9897028 8.25260881 7.9897028 8.10791851 7.23096161 8.10791851 7.23096161 8.23419368 7.28365197 8.23419368 7.28365197 8.27102394 7.3758601 8.4525445 7.3758601 8.48674403 7.33897685 8.48674403 7.33897685 8.52357429 7.33897685 8.56040455 7.33897685 11.2674286 7.3020936 11.3042589 7.3020936 11.3410891 7.26521034 11.3410891 7.26521034 11.430534 7.97126117 11.430534 7.97126117 11.3410891 7.93437792 11.3410891 7.90012919 11.3042589 7.90012919 8.59460407 7.90012919 8.56040455 7.90012919 8.52357429 7.90012919 8.48674403 7.9897028 8.3078542 7.9897028 8.28943907 8.02658605 8.28943907 8.02658605 8.25260881"></polygon>
                <polygon id="Fill-612" points="6.43454681 8.25260881 6.43454681 8.25260881 6.43454681 8.10791851 5.67580562 8.10791851 5.67580562 8.23419368 5.71005436 8.23419368 5.71005436 8.27102394 5.80226249 8.4525445 5.80226249 8.48674403 5.76537923 8.48674403 5.76537923 8.52357429 5.76537923 8.56040455 5.76537923 11.2674286 5.72849598 11.3042589 5.72849598 11.3410891 5.69161273 11.3410891 5.69161273 11.430534 6.39766356 11.430534 6.39766356 11.3410891 6.36078031 11.3410891 6.32653157 11.3042589 6.32653157 8.59460407 6.32653157 8.56040455 6.32653157 8.52357429 6.28964832 8.52357429 6.28964832 8.48674403 6.37922193 8.3078542 6.37922193 8.28943907 6.41610519 8.28943907"></polygon>
                <polygon id="Fill-613" points="4.84303448 8.25260881 4.84303448 8.25260881 4.84303448 8.10791851 4.08429329 8.10791851 4.08429329 8.23419368 4.11854202 8.23419368 4.11854202 8.27102394 4.21075015 8.4525445 4.21075015 8.48674403 4.1738669 8.48674403 4.1738669 8.52357429 4.1738669 8.56040455 4.1738669 11.2674286 4.13698365 11.3042589 4.13698365 11.3410891 4.10010039 11.3410891 4.10010039 11.430534 4.80615122 11.430534 4.80615122 11.3410891 4.75346086 11.3410891 4.71657761 11.3042589 4.71657761 8.59460407 4.71657761 8.56040455 4.71657761 8.52357429 4.71657761 8.48674403 4.80615122 8.3078542 4.80615122 8.28943907 4.84303448 8.28943907"></polygon>
                <polygon id="Fill-614" points="3.25178559 8.25260881 3.25178559 8.25260881 3.25178559 8.10791851 2.4930444 8.10791851 2.4930444 8.23419368 2.52729314 8.23419368 2.52729314 8.27102394 2.61950127 8.4525445 2.61950127 8.48674403 2.58261801 8.48674403 2.58261801 8.52357429 2.58261801 8.56040455 2.58261801 11.2674286 2.54573476 11.3042589 2.54573476 11.3410891 2.50885151 11.3410891 2.50885151 11.430534 3.21490234 11.430534 3.21490234 11.3410891 3.17801909 11.3410891 3.14377035 11.3042589 3.14377035 8.59460407 3.14377035 8.56040455 3.14377035 8.52357429 3.1068871 8.52357429 3.1068871 8.48674403 3.19646071 8.3078542 3.19646071 8.28943907 3.23334397 8.28943907"></polygon>
                <polygon id="Fill-615" points="1.6966296 8.25260881 1.6966296 8.25260881 1.6966296 8.10791851 0.937888415 8.10791851 0.937888415 8.23419368 0.972137149 8.23419368 0.972137149 8.27102394 1.06434528 8.4525445 1.06434528 8.48674403 1.02746203 8.48674403 1.02746203 8.52357429 1.02746203 8.56040455 1.02746203 11.2674286 0.990578775 11.3042589 0.990578775 11.3410891 0.953695523 11.3410891 0.953695523 11.430534 1.65974635 11.430534 1.65974635 11.3410891 1.6228631 11.3410891 1.58861437 11.3042589 1.58861437 8.59460407 1.58861437 8.56040455 1.58861437 8.52357429 1.55173111 8.52357429 1.55173111 8.48674403 1.64130473 8.3078542 1.64130473 8.28943907 1.67818798 8.28943907"></polygon>
                <path d="M7.50152661,5.36353804 L7.411953,5.36353804 L7.411953,5.27409313 L7.31974487,5.27409313 L7.31974487,5.18201748 L7.28549613,5.18201748 L7.24861288,5.14781795 C7.24861288,5.05574231 7.28549613,4.29809126 6.88768391,3.81140569 C6.5794453,3.35891965 6.18163308,3.14319956 5.94716098,3.01692438 L5.72849598,2.83540382 L5.69424725,2.79857356 L5.69424725,2.7617433 L5.78382086,2.72754377 L5.82070411,2.72754377 L5.82070411,2.63809886 L5.78382086,2.6012686 L5.69424725,2.6012686 L5.657364,2.56443834 L5.657364,2.52760808 L5.62048074,2.49340855 L5.62048074,1.96726199 L5.657364,1.96726199 L5.657364,1.93306247 L5.62048074,1.93306247 L5.62048074,1.89623221 L5.62048074,1.85940195 L5.62048074,1.76995703 L5.58359749,1.76995703 L5.54934876,1.76995703 L5.36756701,1.58843647 L5.33068376,1.55423694 L5.33068376,1.51740668 L5.33068376,1.48057642 L5.29643503,1.39113151 L5.25955177,1.48057642 L5.25955177,1.51740668 L5.25955177,1.55423694 L5.22266852,1.58843647 L5.0435213,1.76995703 L5.00663804,1.76995703 L4.96975479,1.76995703 L4.96975479,1.80678729 L4.96975479,1.84098682 L4.96975479,1.87781708 L4.93287154,1.87781708 L4.93287154,1.91464734 L4.96975479,1.91464734 L4.96975479,2.43816316 L4.93287154,2.47499342 L4.93287154,2.50919295 L4.89862281,2.54602321 L4.80641468,2.54602321 L4.76953142,2.58285347 L4.76953142,2.67229838 L4.80641468,2.67229838 L4.89862281,2.70912864 L4.89862281,2.7459589 L4.86173955,2.78015843 L4.64307456,2.96167899 C4.42704408,3.05112391 3.97390698,3.32208939 3.70518614,3.7561603 C3.3047394,4.27967613 3.34162266,5.00312765 3.34162266,5.09257256 L3.3047394,5.12940282 L3.27049067,5.12940282 L3.27049067,5.21884774 L3.17828254,5.21884774 L3.17828254,5.30829265 L3.08870893,5.30829265 L3.08870893,5.4003683 L3.17828254,5.48981322 L3.27049067,5.57925813 L3.27049067,5.88705387 L3.17828254,5.97912952 L3.17828254,6.28429453 L5.40445027,5.79760896 L7.62798347,6.28429453 L7.62798347,5.97912952 L7.53840986,5.88705387 L7.53840986,5.57925813 L7.62798347,5.48981322 L7.71755709,5.4003683 L7.71755709,5.30829265 L7.50152661,5.36353804 Z" id="Fill-616"></path>
                <polygon id="Fill-617" points="9.94267101 11.7919967 9.58174204 11.7919967 9.58174204 11.5210312 0.937888415 11.5210312 0.937888415 11.7919967 0.574324928 11.7919967 0.574324928 12.4602029 0.176512707 12.4602029 0.176512707 13.0731636 10.3404832 13.0731636 10.3404832 12.4602029 9.94267101 12.4602029"></polygon>
            </g>
        </g>
    </g>
</svg>