<?xml version="1.0" encoding="UTF-8"?>
<svg width="69px" height="55px" viewBox="0 0 69 55" version="1.1" xmlns="http://www.w3.org/2000/svg" xmlns:xlink="http://www.w3.org/1999/xlink">
    <title>HGF - Logo - Wipro</title>
    <g id="Page-1" stroke="none" stroke-width="1" fill="none" fill-rule="evenodd">
        <g id="HGF---Home---Desktop" transform="translate(-731.000000, -3096.000000)" fill="#010202">
            <g id="Logo---Wipro" transform="translate(731.098984, 3096.126334)">
                <path d="M48.8019953,3.2550057 C48.5306399,4.2652071 47.4900053,4.86501418 46.4757159,4.59667943 C45.464061,4.32308322 44.8633909,3.28394376 45.1347462,2.27374236 C45.4061016,1.26354097 46.4467362,0.661103154 47.4583911,0.932068633 C48.4726805,1.20566484 49.0733507,2.2448043 48.8019953,3.2550057" id="Fill-464"></path>
                <path d="M46.327656,10.0238812 C46.1458742,10.6973488 45.4556305,11.0972202 44.7811939,10.9156996 C44.1067573,10.7341791 43.7089451,10.0422963 43.8880923,9.37145947 C44.069874,8.69799187 44.7601178,8.30075122 45.4345544,8.47964105 C46.108991,8.66116161 46.5094377,9.35041361 46.327656,10.0238812" id="Fill-466"></path>
                <path d="M44.4906066,15.3395399 C44.3667842,15.7999182 43.892571,16.0735144 43.4288958,15.9498699 C42.9678551,15.8262255 42.6938653,15.3526936 42.8176876,14.8923153 C42.94151,14.4319371 43.4157232,14.1557102 43.8793984,14.2793546 C44.340439,14.402999 44.6144289,14.8791617 44.4906066,15.3395399" id="Fill-468"></path>
                <path d="M43.072709,19.4813656 C42.9910389,19.7838999 42.6775313,19.9654205 42.3745617,19.8838678 C42.0715921,19.802315 41.8898104,19.4892578 41.9714804,19.1867236 C42.0531505,18.8841893 42.3666581,18.7026687 42.6696277,18.7842214 C42.9725973,18.8657742 43.154379,19.1788314 43.072709,19.4813656" id="Fill-470"></path>
                <path d="M54.7818243,6.26403788 C54.2575552,7.1716407 53.0957328,7.48206717 52.1894586,6.95855134 C51.2805499,6.43503551 50.9696767,5.27488235 51.4939458,4.36991026 C52.0182149,3.46230744 53.1800373,3.15188097 54.0863115,3.6753968 C54.9952203,4.19891263 55.3060934,5.35643506 54.7818243,6.26403788" id="Fill-472"></path>
                <path d="M50.6372006,12.162667 C50.2894442,12.7651048 49.5175304,12.9729327 48.9115912,12.6230452 C48.3082866,12.2757885 48.1001597,11.5049838 48.4505506,10.902546 C48.798307,10.3001082 49.5702208,10.0922803 50.1735254,10.439537 C50.7794645,10.7894245 50.9849569,11.5602292 50.6372006,12.162667" id="Fill-474"></path>
                <path d="M47.4849997,16.822484 C47.2452586,17.235509 46.7157205,17.3775686 46.3021011,17.1381719 C45.8884818,16.901406 45.7462178,16.3726287 45.985959,15.9569729 C46.2230656,15.5439479 46.7552382,15.4018883 47.1688576,15.641285 C47.5824769,15.8806817 47.7247409,16.4094589 47.4849997,16.822484" id="Fill-476"></path>
                <path d="M45.0417477,20.4565783 C44.8836766,20.7275438 44.5359203,20.8222502 44.2645649,20.6644062 C43.990575,20.5065622 43.8983669,20.1593055 44.0538035,19.88834 C44.2118746,19.6147438 44.5596309,19.5226681 44.8336208,19.6805121 C45.1049762,19.8357254 45.1998188,20.1856128 45.0417477,20.4565783" id="Fill-478"></path>
                <path d="M60.052968,10.9904124 C59.1598663,11.8822309 57.7108814,11.8822309 56.8177798,10.9904124 C55.9246782,10.098594 55.9246782,8.65169098 56.8177798,7.75987256 C57.7108814,6.86805413 59.1598663,6.86805413 60.052968,7.75987256 C60.9460696,8.65169098 60.9460696,10.098594 60.052968,10.9904124" id="Fill-480"></path>
                <path d="M54.4093035,15.5058022 C53.8244405,16.0898249 52.8786485,16.0898249 52.29642,15.5058022 C51.711557,14.9244103 51.711557,13.9773465 52.29642,13.3959545 C52.8786485,12.8145626 53.8244405,12.8145626 54.4093035,13.3959545 C54.9915319,13.9773465 54.9915319,14.9244103 54.4093035,15.5058022" id="Fill-482"></path>
                <path d="M49.9930609,19.0286165 C49.6558426,19.3653503 49.1052283,19.3653503 48.76801,19.0286165 C48.4307917,18.6918827 48.4307917,18.1420596 48.76801,17.8053258 C49.1052283,17.468592 49.6558426,17.468592 49.9930609,17.8053258 C50.3302792,18.1420596 50.3302792,18.6918827 49.9930609,19.0286165" id="Fill-484"></path>
                <polygon id="Fill-486" points="45.8866377 21.9079536 46.6928002 21.9079536 46.6928002 21.1029493 45.8866377 21.1029493"></polygon>
                <path d="M63.797145,16.9077197 C62.556287,17.6232791 60.9703071,17.1971003 60.2537182,15.9606559 C59.5397638,14.7215808 59.9639212,13.1378796 61.2047792,12.424951 C62.4456372,11.7093917 64.0316171,12.1329397 64.7455714,13.3720148 C65.4621604,14.6084593 65.0380029,16.1921604 63.797145,16.9077197" id="Fill-488"></path>
                <path d="M57.0804413,19.6463126 C56.311162,20.0909064 55.3258523,19.8278332 54.8832532,19.0570284 C54.4380197,18.2888545 54.7014715,17.3075911 55.4707508,16.8629973 C56.24003,16.4184034 57.2253398,16.6814767 57.6705733,17.4522814 C58.1131723,18.2204554 57.8497205,19.2017187 57.0804413,19.6463126" id="Fill-489"></path>
                <path d="M52.0716956,22.2020695 C51.4394113,22.5677414 50.6306143,22.3493905 50.2670508,21.7180147 C49.9008528,21.0866388 50.1168832,20.2790038 50.7491676,19.9159627 C51.3814519,19.5502908 52.1902489,19.7660109 52.5564469,20.4000175 C52.9200104,21.0313934 52.7039799,21.8363976 52.0716956,22.2020695" id="Fill-490"></path>
                <path d="M47.9081033,23.7352606 C47.636748,23.8931046 47.2863571,23.7983982 47.1309205,23.5274327 C46.9728494,23.2538365 47.0650576,22.9065798 47.3390474,22.7513665 C47.6104028,22.5935226 47.9607937,22.6855982 48.1162303,22.9591944 C48.2743013,23.2301599 48.1794587,23.5774166 47.9081033,23.7352606" id="Fill-491"></path>
                <path d="M65.7698721,23.4869194 C64.2971765,23.8815293 62.7849631,23.008126 62.3897854,21.5401771 C61.9972423,20.0695975 62.8692677,18.5595569 64.3419633,18.1649469 C65.8146589,17.770337 67.3268722,18.6437403 67.7194154,20.11432 C68.1145931,21.5822689 67.2425676,23.0923095 65.7698721,23.4869194" id="Fill-492"></path>
                <path d="M58.5634115,24.3621642 C57.6360611,24.6120838 56.6797311,24.0596299 56.4320864,23.133612 C56.1818072,22.207594 56.735056,21.252638 57.6624063,21.0053492 C58.5897566,20.7554295 59.5460867,21.3078834 59.7937314,22.2339014 C60.0440106,23.1599193 59.4907618,24.1122446 58.5634115,24.3621642" id="Fill-493"></path>
                <path d="M53.0454135,25.4720704 C52.3051139,25.6693753 51.5463727,25.2326737 51.3487839,24.4934378 C51.151195,23.7542019 51.588525,22.9965508 52.3288246,22.7992459 C53.0664896,22.6019409 53.8278653,23.0386425 54.0254542,23.7778785 C54.223043,24.5144836 53.785713,25.2747654 53.0454135,25.4720704" id="Fill-494"></path>
                <path d="M48.6842323,26.0923972 C48.2258262,26.2134109 47.756882,25.9450761 47.6356942,25.4873286 C47.5118718,25.0295811 47.7832272,24.5613107 48.2416333,24.440297 C48.6974049,24.3166525 49.1689837,24.587618 49.2901715,25.0453655 C49.4139938,25.5004823 49.1426385,25.9713835 48.6842323,26.0923972" id="Fill-495"></path>
                <path d="M65.9276797,30.3536582 C64.3153547,30.3536582 63.0059992,29.0488147 63.0059992,27.4361755 C63.0059992,25.826167 64.3153547,24.5186928 65.9276797,24.5186928 C67.5400047,24.5186928 68.8493602,25.826167 68.8493602,27.4361755 C68.8493602,29.0488147 67.5400047,30.3536582 65.9276797,30.3536582" id="Fill-496"></path>
                <path d="M58.7396607,29.4544737 C57.6226251,29.4544737 56.7189854,28.5521324 56.7189854,27.4367016 C56.7189854,26.3212709 57.6226251,25.4189296 58.7396607,25.4189296 C59.8566964,25.4189296 60.760336,26.3212709 60.760336,27.4367016 C60.760336,28.5521324 59.8566964,29.4544737 58.7396607,29.4544737" id="Fill-497"></path>
                <path d="M53.1220779,28.8962322 C52.3159154,28.8962322 51.6599204,28.2438105 51.6599204,27.4361755 C51.6599204,26.6311713 52.3159154,25.9761188 53.1220779,25.9761188 C53.9282405,25.9761188 54.5842354,26.6311713 54.5842354,27.4361755 C54.5842354,28.2438105 53.9282405,28.8962322 53.1220779,28.8962322" id="Fill-498"></path>
                <path d="M48.748778,28.3945515 C48.2192399,28.3945515 47.7898135,27.965742 47.7898135,27.4369647 C47.7898135,26.9081874 48.2192399,26.479378 48.748778,26.479378 C49.2783162,26.479378 49.7077426,26.9081874 49.7077426,27.4369647 C49.7077426,27.965742 49.2783162,28.3945515 48.748778,28.3945515" id="Fill-499"></path>
                <path d="M61.2674808,42.3405922 C60.0872167,41.6618631 59.6841354,40.1544532 60.3638411,38.9758849 C61.0461812,37.7999474 62.5531256,37.3948145 63.7333896,38.0761743 C64.9136537,38.7549034 65.316735,40.2623133 64.6370293,41.4382509 C63.9546891,42.6168192 62.4477448,43.0193213 61.2674808,42.3405922" id="Fill-500"></path>
                <path d="M55.3585203,38.2056064 C54.4812258,37.7005057 54.1808907,36.5798135 54.6867182,35.7037795 C55.1925457,34.8277455 56.3148503,34.5278419 57.1921448,35.0329426 C58.0694393,35.5380433 58.3697744,36.6587355 57.8639469,37.5347695 C57.3581195,38.4108035 56.2358148,38.7107071 55.3585203,38.2056064" id="Fill-501"></path>
                <path d="M50.7726148,34.9179796 C50.1614066,34.5654614 49.9532797,33.7867645 50.3063051,33.1764345 C50.656696,32.5687352 51.4391478,32.3582766 52.0477215,32.7107948 C52.6589297,33.063313 52.8670566,33.8420099 52.5140312,34.4523399 C52.1636403,35.0600392 51.383823,35.2704978 50.7726148,34.9179796" id="Fill-502"></path>
                <path d="M47.3385205,32.1236152 C47.0671652,31.9657712 46.9723225,31.6185145 47.1303936,31.347549 C47.2884647,31.0739528 47.6362211,30.9818772 47.9075764,31.1397211 C48.1815663,31.2949344 48.2737744,31.6421911 48.1157034,31.9157873 C47.9576323,32.1867528 47.6098759,32.2814592 47.3385205,32.1236152" id="Fill-503"></path>
                <path d="M56.7916981,47.139575 C55.8827894,46.2319722 55.8827894,44.7640233 56.7916981,43.8564204 C57.7006068,42.9514484 59.1706679,42.9514484 60.0795766,43.8564204 C60.9858508,44.7640233 60.9858508,46.2319722 60.0795766,47.139575 C59.1706679,48.0471778 57.7006068,48.0471778 56.7916981,47.139575" id="Fill-504"></path>
                <path d="M52.1789205,41.5950425 C51.5308291,40.9478823 51.5308291,39.8982199 52.1789205,39.2510596 C52.8270119,38.6038993 53.8781846,38.6038993 54.5262761,39.2510596 C55.1743675,39.8982199 55.1743675,40.9478823 54.5262761,41.5950425 C53.8781846,42.2422028 52.8270119,42.2422028 52.1789205,41.5950425" id="Fill-505"></path>
                <path d="M48.557512,37.2785361 C48.1017404,36.8234194 48.1017404,36.0894449 48.557512,35.6343281 C49.0106491,35.1792114 49.7483142,35.1792114 50.2040858,35.6343281 C50.6598574,36.0894449 50.6598574,36.8234194 50.2040858,37.2785361 C49.7483142,37.7336529 49.0106491,37.7336529 48.557512,37.2785361" id="Fill-506"></path>
                <polygon id="Fill-507" points="45.8866377 33.7725585 46.6928002 33.7725585 46.6928002 32.9675543 45.8866377 32.9675543"></polygon>
                <path d="M51.2510432,50.6452895 C50.6503731,49.6035193 51.0060331,48.2749993 52.0493022,47.6725615 C53.0899368,47.0727544 54.4230029,47.430534 55.0236731,48.4696735 C55.6269777,49.5114437 55.2686832,50.8399638 54.2280486,51.4424016 C53.1847795,52.0422086 51.8517134,51.6870597 51.2510432,50.6452895" id="Fill-508"></path>
                <path d="M48.2005348,44.1158107 C47.7711084,43.3739441 48.0266566,42.4268802 48.7695907,42.0007015 C49.5098903,41.5718921 50.4583168,41.8270732 50.8877432,42.5663091 C51.3145351,43.3081757 51.0616214,44.2552395 50.3186873,44.684049 C49.5783878,45.1102277 48.6299613,44.8576774 48.2005348,44.1158107" id="Fill-509"></path>
                <path d="M45.9851686,38.9159042 C45.7454275,38.5028792 45.8876915,37.9741019 46.3013108,37.7347052 C46.7175646,37.4953085 47.2471028,37.6373681 47.4842094,38.0503931 C47.7239505,38.4660489 47.5816866,38.9948262 47.1680672,39.2315922 C46.7544479,39.4709889 46.2249098,39.3289293 45.9851686,38.9159042" id="Fill-510"></path>
                <path d="M44.0551207,34.9861156 C43.8970496,34.7151501 43.9918923,34.3652626 44.2632477,34.2100494 C44.5372375,34.0522054 44.8849939,34.1442811 45.0404305,34.4178773 C45.1985016,34.6888428 45.1062934,35.0360995 44.8323035,35.1939435 C44.5609482,35.3517874 44.2131918,35.2570811 44.0551207,34.9861156" id="Fill-511"></path>
                <path d="M45.1350097,52.599924 C44.8636543,51.5897226 45.4643244,50.5505831 46.4786139,50.2769869 C47.4902688,50.0086522 48.5309034,50.6084593 48.8022587,51.6186607 C49.0736141,52.6288621 48.472944,53.6680015 47.4612891,53.9415977 C46.4469996,54.2099325 45.406365,53.6101254 45.1350097,52.599924" id="Fill-512"></path>
                <path d="M43.8886192,45.50247 C43.7068374,44.8290024 44.1072842,44.1397504 44.7817208,43.9582298 C45.4535229,43.77934 46.1464011,44.1765806 46.3281829,44.8500482 C46.5073301,45.5208851 46.1095179,46.2127678 45.4350813,46.3942884 C44.7606447,46.5731782 44.0704009,46.1759376 43.8886192,45.50247" id="Fill-513"></path>
                <path d="M42.8176876,39.9816141 C42.6938653,39.5212359 42.9678551,39.0450732 43.4288958,38.9214288 C43.892571,38.7977843 44.3667842,39.0740113 44.4906066,39.5343895 C44.6144289,39.9947678 44.340439,40.4682997 43.8793984,40.5919441 C43.4157232,40.7155886 42.94151,40.4419923 42.8176876,39.9816141" id="Fill-514"></path>
                <path d="M41.9722708,35.6866797 C41.8906007,35.3841455 42.0723825,35.0710882 42.375352,34.9895355 C42.6783216,34.9079828 42.9918293,35.0895034 43.0734993,35.3920376 C43.1551694,35.6945719 42.9733876,36.0076291 42.6704181,36.0891818 C42.3674485,36.1707346 42.0539408,35.989214 41.9722708,35.6866797" id="Fill-515"></path>
                <path d="M38.4496567,52.9795387 C38.4496567,51.9325071 39.3006061,51.0854111 40.3465097,51.0854111 C41.3976824,51.0854111 42.2459972,51.9325071 42.2459972,52.9795387 C42.2459972,54.0265704 41.3976824,54.8736664 40.3465097,54.8736664 C39.3006061,54.8736664 38.4496567,54.0265704 38.4496567,52.9795387" id="Fill-516"></path>
                <path d="M39.0853659,45.8018474 C39.0853659,45.1047032 39.6491528,44.5417263 40.3473001,44.5417263 C41.0454473,44.5417263 41.6118687,45.1047032 41.6118687,45.8018474 C41.6118687,46.4989916 41.0454473,47.0619684 40.3473001,47.0619684 C39.6491528,47.0619684 39.0853659,46.4989916 39.0853659,45.8018474" id="Fill-517"></path>
                <path d="M39.4821244,40.1923358 C39.4821244,39.7135424 39.8693985,39.3268247 40.3488808,39.3268247 C40.8257285,39.3268247 41.2130027,39.7135424 41.2130027,40.1923358 C41.2130027,40.6711292 40.8257285,41.0578469 40.3488808,41.0578469 C39.8693985,41.0578469 39.4821244,40.6711292 39.4821244,40.1923358" id="Fill-518"></path>
                <path d="M39.7785076,35.8253193 C39.7785076,35.5122621 40.0340559,35.2570811 40.3475635,35.2570811 C40.6637057,35.2570811 40.9166194,35.5122621 40.9166194,35.8253193 C40.9166194,36.1383765 40.6637057,36.3935576 40.3475635,36.3935576 C40.0340559,36.3935576 39.7785076,36.1383765 39.7785076,35.8253193" id="Fill-519"></path>
                <path d="M31.8939221,51.6186607 C32.1652775,50.6084593 33.2059121,50.0086522 34.2202015,50.2769869 C35.2318564,50.5505831 35.8325265,51.5897226 35.5611712,52.599924 C35.2898158,53.6101254 34.2491812,54.2099325 33.2348918,53.938967 C32.2232369,53.6680015 31.6225667,52.6288621 31.8939221,51.6186607" id="Fill-520"></path>
                <path d="M34.3685249,44.8497852 C34.5503066,44.1763176 35.2405503,43.7790769 35.914987,43.9579667 C36.5894236,44.1394873 36.9872358,44.83137 36.8080886,45.5022069 C36.6263068,46.1756745 35.9360631,46.5729151 35.2616265,46.3940253 C34.5871899,46.2125047 34.1867431,45.5232528 34.3685249,44.8497852" id="Fill-521"></path>
                <path d="M36.2053108,39.5341265 C36.3291332,39.0737482 36.8033464,38.800152 37.2670216,38.9237964 C37.7280623,39.0474409 38.0020521,39.5209728 37.8782298,39.981351 C37.7544074,40.4417293 37.2801942,40.7179562 36.816519,40.5943118 C36.3554784,40.4706673 36.0814885,39.9945047 36.2053108,39.5341265" id="Fill-522"></path>
                <path d="M37.7119917,35.4159773 C37.7804892,35.1607962 38.0413064,35.0108445 38.2968547,35.0792435 C38.5524029,35.1476426 38.705205,35.4080851 38.6367075,35.6632662 C38.5682101,35.9184473 38.3047582,36.0683991 38.04921,36 C37.7936618,35.9316009 37.6434942,35.6711584 37.7119917,35.4159773" id="Fill-523"></path>
                <path d="M26.1145799,48.7251177 C26.5756206,47.9280056 27.595179,47.6570401 28.3908035,48.1147876 C29.1890624,48.5751659 29.4630523,49.5932595 29.0020117,50.3903715 C28.540971,51.1848528 27.5214125,51.458449 26.7257881,50.9980708 C25.9275291,50.5403233 25.6535393,49.5222297 26.1145799,48.7251177" id="Fill-524"></path>
                <path d="M30.254725,42.8238578 C30.5418875,42.3292801 31.1741718,42.1582824 31.6720957,42.4450323 C32.1673851,42.7317822 32.3359942,43.363158 32.0488318,43.8577358 C31.7643038,44.3549443 31.129385,44.5233112 30.6340956,44.2391921 C30.1388062,43.9524422 29.9675625,43.3184356 30.254725,42.8238578" id="Fill-525"></path>
                <path d="M33.3010182,38.1030078 C33.5117796,37.7399667 33.9780893,37.6136915 34.3416528,37.8241501 C34.7052163,38.0346088 34.8316731,38.5002485 34.6209117,38.8632896 C34.4101503,39.2289614 33.9438406,39.3526059 33.5802771,39.1421473 C33.2167136,38.9316886 33.0902567,38.4660489 33.3010182,38.1030078" id="Fill-526"></path>
                <polygon id="Fill-527" points="35.7537545 34.474438 36.3755007 34.3087019 36.5414753 34.9295548 35.9197291 35.095291"></polygon>
                <path d="M21.1824987,44.4215019 C21.7778998,43.8269562 22.7447679,43.8269562 23.340169,44.4215019 C23.9355701,45.0160475 23.9355701,45.9815264 23.340169,46.576072 C22.7447679,47.1706176 21.7778998,47.1706176 21.1824987,46.576072 C20.5870977,45.9815264 20.5870977,45.0160475 21.1824987,44.4215019" id="Fill-528"></path>
                <path d="M26.7120886,39.7924644 C27.059845,39.4452077 27.6262664,39.4452077 27.9740227,39.7924644 C28.3244136,40.1397211 28.3244136,40.7053287 27.9740227,41.0525854 C27.6262664,41.4024729 27.059845,41.4024729 26.7120886,41.0525854 C26.3643322,40.7053287 26.3643322,40.1397211 26.7120886,39.7924644" id="Fill-529"></path>
                <path d="M30.8825306,36.0242027 C31.1222718,35.7848061 31.5095459,35.7848061 31.7492871,36.0242027 C31.9863937,36.2635994 31.9863937,36.6503171 31.7492871,36.8897138 C31.5095459,37.1264798 31.1222718,37.1264798 30.8825306,36.8897138 C30.6427895,36.6503171 30.6427895,36.2635994 30.8825306,36.0242027" id="Fill-530"></path>
                <path d="M17.4570268,38.9306363 C18.1630776,38.5228728 19.0667173,38.7649002 19.4750676,39.4699366 C19.8834179,40.1776037 19.6410422,41.079945 18.9349914,41.4850779 C18.2263061,41.8928415 17.3253009,41.6508141 16.9169506,40.9457777 C16.5086003,40.2407413 16.750976,39.3383999 17.4570268,38.9306363" id="Fill-531"></path>
                <path d="M24.0572848,35.9910555 C24.4050412,35.7911198 24.8476402,35.9095028 25.0504981,36.2567595 C25.2507215,36.6040163 25.1321682,37.0486101 24.7844118,37.2485458 C24.4366554,37.4484815 23.9914218,37.3300985 23.7911985,36.9828418 C23.5909751,36.635585 23.7095284,36.1909912 24.0572848,35.9910555" id="Fill-532"></path>
                <path d="M28.9764568,33.2800854 C29.2715229,33.1090877 29.6482589,33.2116863 29.8195026,33.5063284 C29.9907463,33.8009704 29.8906346,34.179796 29.5929341,34.3481629 C29.297868,34.5191605 28.921132,34.4191927 28.7498883,34.1219199 C28.5786446,33.8272778 28.6813908,33.451083 28.9764568,33.2800854" id="Fill-533"></path>
                <path d="M15.9845947,19.5423986 C16.6959145,19.7318114 17.1148029,20.4605244 16.9251176,21.1708223 C16.7354323,21.8784894 16.0056708,22.2994066 15.294351,22.1099939 C14.5856656,21.9205811 14.1641427,21.1918681 14.353828,20.4815703 C14.5461478,19.7739031 15.2759093,19.3529859 15.9845947,19.5423986" id="Fill-534"></path>
                <path d="M18.8614884,13.5138113 C19.4990417,13.8794832 19.7177067,14.6950104 19.3488742,15.329017 C18.9800417,15.9656543 18.1659756,16.1840051 17.5310568,15.8183333 C16.8935034,15.4500307 16.6748384,14.6371343 17.0436709,14.0004969 C17.4098689,13.3638596 18.223935,13.1481395 18.8614884,13.5138113" id="Fill-535"></path>
                <path d="M24.8023265,17.594341 C25.16589,17.8047996 25.2923468,18.2704393 25.0815854,18.6361112 C24.870824,18.9991523 24.4045143,19.1254275 24.0383163,18.9149689 C23.6747528,18.7045102 23.5482959,18.2388705 23.7590574,17.8731987 C23.9698188,17.5101576 24.4361285,17.3838824 24.8023265,17.594341" id="Fill-536"></path>
                <path d="M29.5879285,20.5360264 C29.8777255,20.7017626 29.9778371,21.0726959 29.809228,21.3620765 C29.6432534,21.6488264 29.2717863,21.7487942 28.9819893,21.5830581 C28.6948269,21.4146912 28.5947152,21.0463886 28.7606898,20.757008 C28.929299,20.4676274 29.2981315,20.3702903 29.5879285,20.5360264" id="Fill-537"></path>
                <path d="M23.2569182,8.38046242 C23.8075325,8.93028558 23.8075325,9.81947327 23.2569182,10.3692964 C22.706304,10.9191196 21.8158369,10.9191196 21.2652226,10.3692964 C20.7146083,9.81947327 20.7146083,8.93028558 21.2652226,8.38046242 C21.8158369,7.83063927 22.706304,7.83063927 23.2569182,8.38046242" id="Fill-538"></path>
                <path d="M27.9819263,13.8131887 C28.3349517,14.1657069 28.3349517,14.736576 27.9819263,15.0890942 C27.6289009,15.4416123 27.0572105,15.4416123 26.7041851,15.0890942 C26.3511596,14.736576 26.3511596,14.1657069 26.7041851,13.8131887 C27.0572105,13.4606705 27.6289009,13.4606705 27.9819263,13.8131887" id="Fill-539"></path>
                <path d="M31.7998698,17.9334425 C32.0685906,18.2017772 32.0685906,18.6332174 31.7998698,18.9015521 C31.531149,19.1672561 31.099088,19.1672561 30.8303672,18.9015521 C30.5642809,18.6332174 30.5642809,18.2017772 30.8303672,17.9334425 C31.099088,17.6651077 31.531149,17.6651077 31.7998698,17.9334425" id="Fill-540"></path>
                <path d="M29.0030655,4.48329485 C29.4641061,5.28040689 29.1901163,6.29850048 28.3918573,6.75887872 C27.5935983,7.21925696 26.5740399,6.94566075 26.1129992,6.14854871 C25.6519586,5.35143667 25.9259484,4.33334308 26.7242074,3.87296484 C27.5224663,3.41258659 28.5420248,3.68618281 29.0030655,4.48329485" id="Fill-541"></path>
                <path d="M32.0575257,11.010406 C32.3473227,11.5102452 32.176079,12.1468826 31.6755206,12.4362632 C31.1749621,12.7230131 30.5347743,12.5520154 30.2476118,12.0548069 C29.9578148,11.5549677 30.1290585,10.9156996 30.6296169,10.6289498 C31.1301753,10.3395691 31.7677287,10.5105668 32.0575257,11.010406" id="Fill-542"></path>
                <path d="M34.6145889,16.0135337 C34.8227158,16.3739441 34.6988934,16.8343223 34.3379645,17.0421502 C33.9770355,17.2499781 33.5159948,17.1263336 33.3078679,16.7659232 C33.099741,16.4055128 33.2235633,15.9451346 33.5844923,15.7373067 C33.9454213,15.5294788 34.4064619,15.6531233 34.6145889,16.0135337" id="Fill-543"></path>
                <polygon id="Fill-544" points="36.5056459 19.9656836 36.3554784 20.5286604 35.789057 20.3787086 35.941859 19.8157318"></polygon>
                <path d="M35.4476235,2.30425886 C35.7031717,3.25132267 35.1393848,4.22732454 34.1883238,4.48250563 C33.2398974,4.73505598 32.2624912,4.17207916 32.0069429,3.22501535 C31.7540292,2.2753208 32.317816,1.30194967 33.2662425,1.04676858 C34.2173035,0.791587501 35.1920752,1.35719505 35.4476235,2.30425886" id="Fill-545"></path>
                <path d="M36.6371083,9.41670808 C36.7925449,9.99546929 36.447423,10.5900149 35.8704636,10.7452281 C35.2908696,10.9004414 34.6954686,10.5558154 34.540032,9.9796849 C34.3845954,9.39829295 34.7270828,8.80637807 35.3066767,8.65116483 C35.8862707,8.49595159 36.4816718,8.83794686 36.6371083,9.41670808" id="Fill-546"></path>
                <path d="M37.8784932,14.8920523 C38.0023156,15.3524305 37.7283257,15.8285931 37.2672851,15.9522376 C36.8036099,16.075882 36.3293966,15.7996551 36.2055743,15.3392768 C36.0817519,14.8788986 36.3557418,14.4053667 36.8167825,14.2817223 C37.2804576,14.1580778 37.7546709,14.431674 37.8784932,14.8920523" id="Fill-547"></path>
                <path d="M38.6251156,19.213294 C38.6909786,19.4632136 38.5434456,19.7183947 38.2958009,19.784163 C38.0455217,19.852562 37.7899734,19.7026103 37.721476,19.4553214 C37.655613,19.2054018 37.803146,18.9502207 38.0534252,18.8844524 C38.3010699,18.8160533 38.5592527,18.9633744 38.6251156,19.213294" id="Fill-548"></path>
                <path d="M42.2462607,1.89412762 C42.2462607,2.94115928 41.3953113,3.78825524 40.3494077,3.78825524 C39.298235,3.78825524 38.4499202,2.94115928 38.4499202,1.89412762 C38.4499202,0.847095963 39.298235,-4.54747351e-13 40.3494077,-4.54747351e-13 C41.3953113,-4.54747351e-13 42.2462607,0.847095963 42.2462607,1.89412762" id="Fill-549"></path>
                <path d="M41.6108149,9.07181901 C41.6108149,9.7689632 41.0443935,10.33194 40.3488808,10.33194 C39.6507335,10.33194 39.0843121,9.7689632 39.0843121,9.07181901 C39.0843121,8.37467481 39.6507335,7.81169799 40.3488808,7.81169799 C41.0443935,7.81169799 41.6108149,8.37467481 41.6108149,9.07181901" id="Fill-550"></path>
                <path d="M41.2140565,14.6810675 C41.2140565,15.1598609 40.8267823,15.5465786 40.3473001,15.5465786 C39.8704523,15.5465786 39.4831782,15.1598609 39.4831782,14.6810675 C39.4831782,14.2022741 39.8704523,13.8155564 40.3473001,13.8155564 C40.8267823,13.8155564 41.2140565,14.2022741 41.2140565,14.6810675" id="Fill-551"></path>
                <path d="M40.9176732,19.048347 C40.9176732,19.3614042 40.662125,19.6165853 40.3486173,19.6165853 C40.0324752,19.6165853 39.7795614,19.3614042 39.7795614,19.048347 C39.7795614,18.7352898 40.0324752,18.4801087 40.3486173,18.4801087 C40.662125,18.4801087 40.9176732,18.7352898 40.9176732,19.048347" id="Fill-552"></path>
                <path d="M64.3419633,36.7087194 C62.8692677,36.3141095 61.9972423,34.8040689 62.39242,33.33612 C62.7849631,31.8655403 64.2971765,30.992137 65.7698721,31.386747 C67.2425676,31.7813569 68.1145931,33.2913975 67.7194154,34.7619771 C67.3268722,36.229926 65.8146589,37.1033293 64.3419633,36.7087194" id="Fill-553"></path>
                <path d="M57.6289479,33.993277 C56.6304656,33.7249423 56.0403336,32.7015872 56.3064199,31.7071702 C56.5751407,30.7101225 57.5999682,30.1208383 58.595816,30.3865423 C59.5942984,30.6548771 60.1870649,31.6782321 59.9183441,32.6726491 C59.6522578,33.6696969 58.6274303,34.2616118 57.6289479,33.993277" id="Fill-554"></path>
                <path d="M52.3351474,32.0483763 C51.610655,31.853702 51.1812285,31.1118354 51.3735483,30.3883839 C51.5685027,29.6649323 52.3140713,29.2334922 53.0385637,29.4281664 C53.7630562,29.6228406 54.1924826,30.3647073 53.9975283,31.0881588 C53.8052085,31.8116103 53.0596399,32.2430505 52.3351474,32.0483763" id="Fill-555"></path>
                <path d="M48.2384719,30.44284 C47.7774312,30.3191956 47.5034414,29.8456637 47.6272637,29.3826547 C47.7510861,28.9222765 48.2252993,28.6486802 48.68634,28.7723247 C49.1473806,28.8959691 49.4213705,29.369501 49.2975481,29.83251 C49.1763603,30.2928883 48.6995125,30.5664845 48.2384719,30.44284" id="Fill-556"></path>
                <path d="M21.0447134,27.7371313 C21.0447134,29.8522405 21.4451602,30.3257724 22.9810842,30.1837128 C23.9426833,30.0942679 24.5907747,29.5575984 24.9121859,28.6421034 C25.2599423,27.6634708 25.0649879,26.7795446 24.3510336,26.0429394 C23.7319218,25.4010406 22.9705461,25.2379352 22.1222313,25.5483616 C20.9287947,25.9850633 20.9735815,26.9715881 21.0447134,27.7371313 M21.0447134,31.9831341 C21.0447134,33.2774546 21.0183683,34.5060068 21.0552515,35.7319283 C21.0763277,36.3869808 20.8866424,36.6500541 20.1805915,36.6395311 C18.6499366,36.6132238 18.6499366,36.6526848 18.6499366,35.1294905 C18.6499366,31.6963842 18.636764,28.2632779 18.6683782,24.8301716 C18.6710127,24.382947 18.3179873,23.7226331 19.0767285,23.5121744 C19.8038555,23.309608 20.2385509,23.6805413 20.4071601,24.4697612 C21.3951043,23.6594955 22.4172973,23.1412411 23.6449827,23.2596241 C24.5749676,23.349069 25.3890337,23.7252638 26.0687393,24.3724241 C27.6046633,25.8324808 27.9366126,28.2764316 26.8590947,30.1863436 C25.7736733,32.1173015 23.9268762,32.7171085 21.0447134,31.9831341" id="Fill-557"></path>
                <path d="M3.5383412,27.8626173 C4.27864077,26.4525445 4.93463575,25.2003157 5.59063074,23.9480869 C5.75397086,23.6376604 5.86462061,23.2351583 6.30195061,23.2456812 C6.73137704,23.2588349 6.83675776,23.6587063 7.00009788,23.9717635 C7.65345835,25.2213616 8.31208785,26.4683289 9.04448386,27.8626173 C9.47127578,26.5630353 9.84010831,25.4291894 10.2194789,24.2979743 C10.4460475,23.6166145 11.8449765,23.1562363 12.4482811,23.5508462 C12.717002,23.7244746 12.6010832,23.9375639 12.5325857,24.1480226 C11.7158851,26.6708953 10.89655,29.1963988 10.0772149,31.7219023 C9.98764131,31.9981293 9.91387481,32.305925 9.55031132,32.3401245 C9.14986458,32.3795855 8.99706254,32.0823127 8.84426049,31.7850399 C8.02229087,30.2092309 7.19505221,28.6360527 6.29404705,26.9155535 C5.43782869,28.5413464 4.65537684,30.0434948 3.8597524,31.5403817 C3.6700671,31.8955307 3.57258994,32.4085236 3.01407212,32.3322323 C2.51878273,32.266464 2.53458984,31.7771477 2.42130556,31.4246295 C1.64412275,29.05697 0.906457701,26.6761568 0.097660669,24.3190202 C-0.142080471,23.6166145 0.0581428987,23.5245389 0.714137886,23.4692935 C1.75213799,23.3772179 2.32119388,23.6665985 2.54249339,24.763614 C2.74271676,25.758031 3.15897061,26.7103563 3.5383412,27.8626173" id="Fill-558"></path>
                <path d="M42.3653409,27.7708047 C42.3468992,26.4738534 41.2562088,25.3584227 40.0364269,25.3899915 C38.8034725,25.424191 37.7549343,26.5843442 37.7997211,27.8628804 C37.8471425,29.1256321 38.8877771,30.1910834 40.0785792,30.1910834 C41.3009956,30.1937096 42.381148,29.0467101 42.3653409,27.7708047 M40.1260006,32.3377569 C37.6864369,32.3640642 35.6420509,30.2831545 35.6446829,27.7892198 C35.6473199,25.3294847 37.636381,23.2722516 40.0364269,23.2406828 C42.457549,23.209114 44.5230111,25.3084388 44.5203791,27.797112 C44.5203791,30.2542165 42.523412,32.316711 40.1260006,32.3377569" id="Fill-559"></path>
                <path d="M30.9781636,24.5534185 C31.9950876,23.514279 33.0436258,23.0275935 34.3319051,23.327497 C34.758697,23.4248341 35.4173265,23.5221712 35.130164,24.1219783 C34.8746158,24.6533863 35.0353214,25.6846336 33.9024786,25.5241589 C32.2374632,25.2873929 31.692118,25.7582941 31.692118,27.3735641 C31.692118,28.6678846 31.6657728,29.9648359 31.7026561,31.2591564 C31.7210977,31.9036859 31.4708185,32.0957294 30.8490723,32.1009909 C29.276265,32.119406 29.276265,32.1430826 29.276265,30.5330742 C29.276265,28.6205314 29.2551889,26.7106194 29.2920721,24.8007074 C29.3026102,24.3508521 28.9601228,23.6852767 29.7346711,23.5011254 C30.4486255,23.3301277 30.9123007,23.6431849 30.9781636,24.5534185" id="Fill-560"></path>
                <path d="M16.526515,27.7452866 C16.526515,28.9107012 16.5028044,30.0761159 16.5370531,31.2388998 C16.5554947,31.8544912 16.368444,32.1596563 15.712449,32.0938879 C15.4252865,32.0649499 15.1302205,32.0781035 14.8404235,32.0912572 C14.3609412,32.1149338 14.1264691,31.9386747 14.1291036,31.4230511 C14.1422762,28.9975154 14.1396417,26.5719798 14.1317382,24.1438134 C14.1291036,23.7018503 14.2950783,23.478238 14.7508499,23.4887609 C15.1091443,23.4966531 15.4648043,23.5098068 15.8204642,23.4861302 C16.3868856,23.4519307 16.5449567,23.7307883 16.5344186,24.2516734 C16.5107079,25.4144573 16.526515,26.579872 16.526515,27.7452866" id="Fill-561"></path>
            </g>
        </g>
    </g>
</svg>