<svg width="1000" height="228" viewBox="0 0 1000 228" fill="none" xmlns="http://www.w3.org/2000/svg">
<path d="M258.45 50.8C224.35 50.8 197.65 78.75 197.65 114.43C197.65 150.11 224.35 177.22 258.45 177.22C292.55 177.22 319.25 149.65 319.25 114.43C319.31 78.76 292.6 50.8 258.45 50.8ZM258.45 151.55C240.36 151.55 226.72 135.6 226.72 114.39C226.72 93.18 240.37 76.41 258.45 76.41C276.53 76.41 290.48 92.78 290.48 114.43C290.48 136.08 276.72 151.55 258.45 151.55ZM466.91 0.109985H444.24C442.37 0.109985 440.84 1.63001 440.84 3.51001V170.16C440.84 172.03 442.36 173.56 444.24 173.56H466.95C468.83 173.56 470.35 172.04 470.35 170.16V3.51001C470.35 1.63001 468.83 0.109985 466.95 0.109985H466.91ZM417.72 53.92C408.65 51.87 399.37 50.84 390.07 50.84C366.63 50.84 343.1 58.09 343.1 95.14V170.2C343.1 172.07 344.62 173.6 346.5 173.6H369.23C371.1 173.6 372.63 172.08 372.63 170.2V95.74C372.63 90.32 373.58 76.82 393.86 76.82C400.01 76.89 406.15 77.44 412.22 78.46C413.88 78.91 415.6 77.94 416.06 76.28L420.98 57.91C421.52 55.82 420.21 54.4 417.73 53.89V53.93L417.72 53.92ZM184.33 54.49H160.09C158.59 54.49 157.28 55.5 156.89 56.95L133.83 138.48L112.67 65.9C110.78 59.14 104.62 54.46 97.6002 54.44H90.1202C83.1002 54.45 76.9402 59.13 75.0502 65.9L53.9102 138.44L30.8502 56.91C30.4602 55.46 29.1502 54.45 27.6502 54.45H3.38023C1.50023 54.45 -0.00976562 55.97 -0.00976562 57.85C-0.00976562 58.2 0.0502344 58.55 0.150234 58.88L33.2302 162.52C35.3102 169.09 41.4102 173.55 48.3002 173.55H58.0602C65.0802 173.52 71.2602 168.91 73.2802 162.18L93.7802 92.8L114.28 162.18C116.3 168.9 122.48 173.52 129.5 173.55H139.26C146.17 173.57 152.3 169.1 154.38 162.5L187.54 58.88C188.11 57.09 187.13 55.18 185.34 54.61C185.01 54.5 184.66 54.45 184.31 54.45V54.49H184.33ZM996.51 54.49H973.34C971.8 54.49 970.39 55.37 969.71 56.76L937.92 140.76L906.1 56.58C905.53 55.26 904.21 54.42 902.77 54.45H879.59C877.75 54.26 876.1 55.6 875.91 57.44C875.85 58 875.93 58.56 876.15 59.07L922.66 175.75L903.86 223.22C902.94 225.58 903.95 227.87 907.01 227.87H929.86C931.25 227.87 932.5 227.03 933.01 225.73L999.61 59.37C1000.48 57.73 999.86 55.7 998.23 54.83C997.69 54.54 997.09 54.41 996.49 54.44V54.48L996.51 54.49ZM600.32 0.109985H577.6C575.73 0.109985 574.2 1.63001 574.2 3.51001V53.48C566.03 51.63 557.68 50.73 549.3 50.8C504.11 50.8 494.66 91.47 494.66 113.69C494.66 162.82 524.13 177.21 551.81 177.21C575.36 177.21 591.39 171.6 599.08 168.24C603.72 166.24 603.72 163.54 603.72 161.15V3.54001C603.74 1.67001 602.24 0.129985 600.36 0.109985C600.34 0.109985 600.33 0.109985 600.31 0.109985H600.32ZM574.22 148.94C567.99 150.63 561.57 151.52 555.12 151.59C531.36 151.59 525.65 134.78 525.65 114.83C525.65 107.72 524.91 76.71 554.01 76.71C560.83 76.85 567.61 77.74 574.23 79.39V148.94H574.22ZM814.37 50.8C794.23 50.8 782.9 53.44 771.92 56.53C768.99 57.36 767.76 59.39 768.59 62.69L771.99 76.46C772.43 78.45 774.26 81.15 777.53 80.3C784.59 78.56 795.47 75.11 811.29 75.11C827.11 75.11 831.22 81.03 831.22 95.2H811.65C769.92 95.2 758.31 117.23 758.31 135.25C758.31 157.99 769.38 177.18 808.64 177.18C838.21 177.18 852.95 169.71 856.26 167.98C858.94 166.58 860.55 165.51 860.55 160.86V92.19C860.56 61.1 842.19 50.79 814.38 50.79L814.37 50.8ZM831.03 150.74C824.07 152.76 816.86 153.76 809.62 153.7C792.6 153.7 787.73 145.18 787.73 136.34C787.73 125.08 795.15 117.81 811.4 117.81H831.04V150.74H831.03ZM683.19 50.8C659.64 50.8 643.61 56.41 635.92 59.77C631.32 61.81 631.32 64.5 631.32 66.89V224.5C631.32 226.37 632.84 227.9 634.72 227.9H657.43C659.3 227.9 660.83 226.38 660.83 224.5V174.53C669.01 176.38 677.37 177.28 685.75 177.21C730.94 177.21 740.39 136.54 740.39 114.32C740.36 65.19 710.78 50.8 683.22 50.8H683.21H683.19ZM681 151.29C674.18 151.14 667.41 150.23 660.79 148.57V79.07C667.02 77.38 673.44 76.49 679.9 76.42C703.66 76.42 709.37 93.23 709.37 113.18C709.37 120.29 710.11 151.3 681.01 151.3H681V151.29Z" fill="black"/>
</svg>
