<svg width="360" height="96" viewBox="0 0 360 96" fill="none" xmlns="http://www.w3.org/2000/svg">
<path d="M127.52 76.43C126.97 76.43 126.66 76.24 126.66 75.88C126.66 75.69 126.81 75.44 127.13 75.2C131.37 71.76 159.46 49.11 163.74 45.59C171.19 39.59 172.75 36.67 172.75 32.41C172.75 29.76 171.51 27.2 169.64 25.64C167.38 23.73 164.02 22.7 158.57 22.7H110.73V23.46C110.73 25.94 111.27 28.63 112.5 30.41C114.43 33.18 118.08 34.78 123.01 34.78H154.41C154.96 34.78 155.27 34.95 155.27 35.23C155.27 35.48 155.13 35.64 154.78 35.91C150.34 39.51 124.41 60.43 117.95 65.59C110.48 71.58 109 74.57 109 78.82C109 81.45 110.25 84.01 112.12 85.56C114.37 87.48 117.75 88.54 123.22 88.54H173.26V88.06C173.26 84.51 172.25 81.45 170.13 79.52C167.69 77.27 164.52 76.45 158.6 76.45H127.52V76.43ZM344.94 71.34C344.78 71.34 344.65 71.25 344.52 71.07C334.6 58.16 316.4 34.36 312.44 29.17C308.27 23.73 304.99 21.94 300.68 21.94C297.48 21.94 294.91 23.11 293.14 25C291.15 27.12 290.16 30.4 290.16 34.13V76.71C290.16 80.96 291.26 83.87 293.4 86C295.64 88.26 298.85 89.52 302.74 89.52C303.05 89.52 303.25 89.52 303.53 89.49V40.68C303.53 40.32 303.68 40.13 303.92 40.13C304.09 40.13 304.2 40.21 304.34 40.41C310.15 47.97 332.22 76.84 336.45 82.27C340.62 87.7 343.88 89.52 348.17 89.52C351.38 89.52 353.97 88.36 355.73 86.49C357.7 84.36 358.71 81.12 358.71 77.36V34.77C358.71 30.52 357.58 27.6 355.46 25.44C353.21 23.19 350.03 21.94 346.1 21.94C345.82 21.94 345.62 21.94 345.33 21.96V70.81C345.33 71.16 345.16 71.34 344.94 71.34ZM237.03 62.86V76.71C237.03 80.96 238.15 83.87 240.28 86C242.51 88.26 245.88 89.52 249.85 89.52C250.17 89.52 250.54 89.52 250.86 89.49V59.96C250.86 47.25 247.39 38.7 241.23 32.04C234.87 25.21 225.38 21.25 214.37 21.25C193.27 21.25 178.65 36.7 178.65 56.83C178.65 76.96 192.19 89.8 209.75 89.8C223.29 89.8 231.42 81.75 231.42 72.31C231.42 68.79 230.32 65.01 227.91 61.42C225.96 71.57 220.35 77.16 211.3 77.16C201.65 77.16 193.15 69.84 193.15 56.49C193.15 43.14 201.66 34.4 214.41 34.4C220.79 34.4 225.93 36.63 229.8 40.44C234.37 44.96 237.02 51.89 237.02 62.86M278.42 8.37999C278.42 3.88999 274.76 0.23999 270.25 0.23999C265.74 0.23999 262.09 3.88999 262.09 8.37999C262.09 12.87 265.75 16.57 270.25 16.57C274.75 16.57 278.42 12.9 278.42 8.37999ZM277.16 89.49V34.52C277.16 30.24 276.03 27.34 273.92 25.21C271.67 22.93 268.34 21.7 264.34 21.7C264.04 21.7 263.65 21.7 263.36 21.74V76.71C263.36 80.96 264.48 83.87 266.6 86C268.83 88.26 272.19 89.52 276.16 89.52C276.47 89.52 276.84 89.52 277.17 89.49" fill="black"/>
<path d="M77.63 35.85C77.63 27.88 71.5 21.85 62.75 22.53C44.19 23.95 41.79 45.06 53.88 46.41C66.51 47.82 71.03 34.46 71.28 33.71H71.29C71.32 34.61 71.99 53 53.25 53C43.51 53 38.5 45.04 38.5 38.14C38.5 27.91 48.45 17.75 62.48 17.2C70.34 16.9 75.52 18.76 79.57 22.81C87.84 31.07 85.46 46.58 78.76 54.23C68.14 66.38 53.21 69.47 39.3 63.23C25.39 57 20.41 38.93 28.84 23.82C31.94 18.26 43.2 5.88 62.55 5.88C87.12 5.88 99.57 23.3 97.33 43.75C95.61 59.43 86.08 70.78 81.67 75.58C62.28 96.66 33.78 100.86 15.82 89.9C5.94001 83.87 0.190015 73.04 1.47001 60.79C2.57001 69.64 6.98001 77.3 14.32 82.31C29 92.32 53.54 93.69 71.28 74.18C53.45 87.5 32.62 87.3 18.39 78.03C5.34001 69.53 1.75002 52.55 8.14002 35.76C4.93002 50.73 10.09 64.61 21.41 71.84C39.06 83.11 64.76 76.63 80.97 58.48C86.49 52.29 89.66 43.95 89.55 36.34C89.38 23.64 80.53 12.25 62.67 12.25C44.81 12.25 31.74 26.42 31.74 38.22C31.74 51.32 40.73 58.79 52.45 58.79C64.17 58.79 77.64 51.48 77.64 35.86" fill="black"/>
</svg>
