<svg width="128" height="128" viewBox="0 0 128 128" fill="none" xmlns="http://www.w3.org/2000/svg">
<mask id="mask0_3_554" style="mask-type:alpha" maskUnits="userSpaceOnUse" x="0" y="0" width="128" height="128">
<g clip-path="url(#clip0_3_554)">
<path fill-rule="evenodd" clip-rule="evenodd" d="M19.7851 25.088C15.232 31.5611 13.7143 39.2777 13.7143 43.4286V45.7143H48C66.624 45.7143 86.4732 57.0149 101.12 69.2389C108.581 75.4651 115.072 82.2491 119.771 88.5851C122.121 91.7486 124.114 94.9211 125.531 97.9383C126.903 100.864 128 104.155 128 107.429C128 114.706 124.608 120.046 120.32 123.383C116.279 126.528 111.36 128 107.429 128H25.1429C18.4746 128 12.0794 125.351 7.36417 120.636C2.64897 115.921 0 109.525 0 102.857L0 43.4286C0 36.9097 2.13943 26.3314 8.55771 17.1977C15.232 7.70743 26.3954 0 43.4286 0C60.4617 0 71.6251 7.70743 78.2994 17.1977C84.7177 26.3406 86.8571 36.9097 86.8571 43.4286C86.8571 45.2472 86.1347 46.9913 84.8487 48.2773C83.5628 49.5633 81.8186 50.2857 80 50.2857C78.1814 50.2857 76.4372 49.5633 75.1513 48.2773C73.8653 46.9913 73.1429 45.2472 73.1429 43.4286C73.1429 39.2777 71.6251 31.5611 67.072 25.088C62.7749 18.9623 55.6526 13.7143 43.4286 13.7143C31.2046 13.7143 24.0823 18.9623 19.7851 25.088ZM41.0423 64.2103C40.6766 61.6229 42.7794 59.4286 45.4034 59.4286H48C61.7691 59.4286 78.5006 68.224 92.3246 79.7623C95.04 82.0297 97.5909 84.3611 99.9132 86.6743C102.656 89.3989 100.635 93.8149 96.768 93.8149H72.4846C62.8114 93.8149 44.3611 87.6709 41.0423 64.2103Z" fill="black"/>
</g>
</mask>
<g mask="url(#mask0_3_554)">
<path d="M-18 138.96L70.2897 144.921C68.1953 123.055 54.2169 101.486 31.8105 86.6172C26.028 82.7971 19.7195 79.3741 13.425 75.9586C4.96212 71.3667 -3.47539 66.7885 -10.575 61.2773L-18 138.96Z" fill="url(#paint0_linear_3_554)"/>
<path d="M22.2794 -26.3579L-2.04177 -28L-10.6382 61.9384C-3.55144 67.9785 5.14004 72.8499 13.836 77.7238C19.9211 81.1344 26.0084 84.5462 31.5495 88.3606C52.7988 102.739 65.8559 123.553 68.1798 144.779L95.1093 146.597C102.572 118.879 97.7564 89.2042 80.954 63.6352C74.4649 53.942 66.4058 44.8551 58.3544 35.777C48.1072 24.2229 37.8724 12.683 30.9029 -0.0749533C26.2696 -8.44094 23.3018 -17.3282 22.2794 -26.3579Z" fill="url(#paint1_linear_3_554)"/>
<path d="M94.7842 146.575L175.134 152L191.092 -14.9602L22.7897 -26.3235C23.836 -17.329 26.8554 -8.42725 31.1902 -0.0146832C38.0529 12.5685 48.051 23.9183 58.0637 35.2846C66.1713 44.4882 74.2884 53.7026 80.7582 63.5916C97.6496 89.2049 102.322 118.932 94.7842 146.575Z" fill="url(#paint2_linear_3_554)"/>
</g>
<defs>
<linearGradient id="paint0_linear_3_554" x1="22.1326" y1="141.67" x2="27.814" y2="57.5223" gradientUnits="userSpaceOnUse">
<stop stop-color="#001FE9"/>
<stop offset="1" stop-color="#E897FF"/>
</linearGradient>
<linearGradient id="paint1_linear_3_554" x1="0.522513" y1="110.512" x2="62.4147" y2="-7.66664" gradientUnits="userSpaceOnUse">
<stop stop-color="#001FE9"/>
<stop offset="1" stop-color="#E897FF"/>
</linearGradient>
<linearGradient id="paint2_linear_3_554" x1="39.875" y1="99.0907" x2="163.531" y2="-39.6193" gradientUnits="userSpaceOnUse">
<stop stop-color="#003BE9"/>
<stop offset="1" stop-color="#E8BAFF"/>
</linearGradient>
<clipPath id="clip0_3_554">
<rect width="128" height="128" fill="white"/>
</clipPath>
</defs>
</svg>
