<svg width="128" height="128" viewBox="0 0 128 128" fill="none" xmlns="http://www.w3.org/2000/svg">
<mask id="mask0_3_822" style="mask-type:alpha" maskUnits="userSpaceOnUse" x="0" y="0" width="128" height="128">
<g clip-path="url(#clip0_3_822)">
<path fill-rule="evenodd" clip-rule="evenodd" d="M85.8057 13.6229C86.1204 13.8303 86.3779 14.1135 86.5546 14.4463C86.7313 14.7792 86.8215 15.1511 86.8169 15.528C86.8124 15.9048 86.7132 16.2745 86.5285 16.603C86.3439 16.9315 86.0796 17.2083 85.76 17.4081C82.2664 19.6188 78.7211 21.7467 75.1269 23.7898C71.611 25.8297 67.9849 27.6732 64.2652 29.3121C64.0017 29.4227 63.7189 29.4797 63.4332 29.4797C63.1474 29.4797 62.8646 29.4227 62.6012 29.3121C58.8752 27.6739 55.2429 25.8303 51.7212 23.7898C48.1988 21.7863 44.7236 19.7012 41.2983 17.5361C40.9787 17.3363 40.7145 17.0595 40.5298 16.731C40.3451 16.4025 40.246 16.0328 40.2414 15.656C40.2369 15.2791 40.3271 14.9072 40.5038 14.5743C40.6804 14.2415 40.9379 13.9583 41.2526 13.7509C48.0914 9.23435 55.424 4.85492 63.0034 2.68806C63.4128 2.57143 63.8466 2.57143 64.256 2.68806C71.7623 4.84578 79.0217 9.14292 85.8057 13.6229ZM93.6503 27.0995C93.6129 26.7158 93.4776 26.3481 93.2572 26.0318C93.0368 25.7155 92.7388 25.4611 92.3918 25.2931C92.0448 25.1251 91.6605 25.0491 91.2756 25.0725C90.8908 25.0958 90.5185 25.2177 90.1943 25.4263C86.5463 27.7121 82.9715 29.8606 79.6343 31.7532C75.9406 33.8378 72.4389 35.6755 69.3943 37.0561C68.9865 37.2394 68.6397 37.5358 68.3951 37.9101C68.1504 38.2844 68.0181 38.7209 68.0137 39.1681V62.8481C68.0137 64.4389 69.6137 65.5361 71.0674 64.8869C78.1349 61.7235 84.9097 57.1155 91.1817 52.8458L91.712 52.4801C91.9727 52.3037 92.1941 52.0755 92.3624 51.8096C92.5308 51.5437 92.6424 51.2459 92.6903 50.9349C94.0343 41.9566 94.3634 35.0721 93.6503 27.0995ZM58.88 39.1772C58.88 38.2629 58.3314 37.4401 57.4903 37.0561C54.4457 35.6846 50.9349 33.8378 47.232 31.7532C44.0046 29.9246 40.5577 27.8583 37.0469 25.6549C36.7219 25.4438 36.3479 25.3202 35.9611 25.2962C35.5744 25.2722 35.1879 25.3485 34.8393 25.5177C34.4907 25.687 34.1918 25.9434 33.9714 26.2622C33.7511 26.581 33.6169 26.9513 33.5817 27.3372C32.9052 35.2092 33.2343 42.0481 34.5783 50.9349C34.6239 51.2468 34.7336 51.5459 34.9004 51.8134C35.0672 52.0809 35.2875 52.311 35.5475 52.4892L36.0869 52.8549C42.24 57.0423 48.8777 61.5589 55.7989 64.7132C56.1354 64.8619 56.5039 64.9237 56.8705 64.8927C57.2371 64.8618 57.59 64.7392 57.8969 64.5361C58.2037 64.3331 58.4545 64.0562 58.6263 63.7309C58.7981 63.4055 58.8854 63.0422 58.88 62.6743V39.1772ZM59.4652 111.25C60.8092 102.272 61.1292 95.3875 60.4252 87.4149C60.3878 87.0312 60.2524 86.6635 60.032 86.3472C59.8117 86.0309 59.5137 85.7765 59.1667 85.6085C58.8197 85.4406 58.4353 85.3646 58.0505 85.3879C57.6657 85.4112 57.2933 85.5331 56.9692 85.7418C53.3212 88.0275 49.7463 90.1761 46.4092 92.0595C42.7154 94.1532 39.2046 95.9909 36.1692 97.3623C35.7592 97.5454 35.4109 97.843 35.166 98.2193C34.9211 98.5956 34.7901 99.0345 34.7886 99.4835V123.154C34.7886 124.754 36.3794 125.851 37.8423 125.202C44.9097 122.039 51.6846 117.431 57.9566 113.161L58.4869 112.795C58.7475 112.619 58.9689 112.391 59.1373 112.125C59.3056 111.859 59.4172 111.561 59.4652 111.25ZM31.0309 63.0126C38.5372 65.1521 45.7966 69.4583 52.5806 73.9383C52.8952 74.1457 53.1527 74.4289 53.3294 74.7618C53.5061 75.0946 53.5963 75.4666 53.5918 75.8434C53.5872 76.2202 53.4881 76.5899 53.3034 76.9184C53.1187 77.2469 52.8544 77.5237 52.5349 77.7235C49.0413 79.9343 45.4959 82.0621 41.9017 84.1052C38.3829 86.1454 34.7537 87.989 31.0309 89.6275C30.7675 89.7381 30.4846 89.7951 30.1989 89.7951C29.9132 89.7951 29.6303 89.7381 29.3669 89.6275C25.6442 87.992 22.015 86.1514 18.496 84.1143C14.9706 82.111 11.4923 80.0259 8.06402 77.8606C7.74445 77.6609 7.48019 77.384 7.29552 77.0555C7.11084 76.727 7.01168 76.3574 7.00713 75.9805C7.00258 75.6037 7.09279 75.2318 7.26947 74.8989C7.44616 74.566 7.70365 74.2829 8.01831 74.0755C14.8572 69.5498 22.1897 65.1795 29.7692 63.0126C30.1757 62.8977 30.6061 62.8977 31.0126 63.0126H31.0309ZM13.9886 92.0595C10.5487 90.1057 7.15281 88.0755 3.80345 85.9703C3.47848 85.7592 3.10448 85.6357 2.71771 85.6116C2.33094 85.5876 1.94452 85.6639 1.59591 85.8331C1.2473 86.0024 0.948336 86.2588 0.727999 86.5776C0.507661 86.8964 0.373427 87.2667 0.338309 87.6526C-0.338262 95.5246 -0.00911931 102.363 1.32574 111.25C1.37246 111.563 1.48352 111.863 1.65191 112.13C1.8203 112.398 2.04235 112.627 2.30402 112.805L2.84345 113.17C8.99659 117.349 15.6343 121.865 22.5555 125.019C22.892 125.168 23.2605 125.23 23.6271 125.199C23.9937 125.168 24.3466 125.045 24.6534 124.842C24.9603 124.639 25.2111 124.362 25.3829 124.037C25.5547 123.712 25.6419 123.348 25.6366 122.981V99.4926C25.6366 98.5783 25.088 97.7555 24.2469 97.3715C21.2023 96.0001 17.6915 94.1441 13.9886 92.0595ZM119.79 73.9383C120.104 74.1457 120.362 74.4289 120.539 74.7618C120.715 75.0946 120.805 75.4666 120.801 75.8434C120.796 76.2202 120.697 76.5899 120.513 76.9184C120.328 77.2469 120.064 77.5237 119.744 77.7235C116.059 80.0458 112.448 82.2218 109.111 84.1052C104.768 86.5646 101.038 88.4572 98.24 89.6275C97.9766 89.7381 97.6937 89.7951 97.408 89.7951C97.1223 89.7951 96.8394 89.7381 96.576 89.6275C92.8533 87.9921 89.2241 86.1515 85.7052 84.1143C82.1828 82.1109 78.7076 80.0258 75.2823 77.8606C74.9627 77.6609 74.6985 77.384 74.5138 77.0555C74.3291 76.727 74.23 76.3574 74.2254 75.9805C74.2209 75.6037 74.3111 75.2318 74.4878 74.8989C74.6644 74.566 74.9219 74.2829 75.2366 74.0755C82.0755 69.5498 89.408 65.1795 96.9874 63.0126C97.394 62.8977 97.8244 62.8977 98.2309 63.0126C105.746 65.1612 113.006 69.4675 119.79 73.9475V73.9383ZM127.634 87.4149C127.597 87.0312 127.462 86.6635 127.241 86.3472C127.021 86.0309 126.723 85.7765 126.376 85.6085C126.029 85.4406 125.644 85.3646 125.26 85.3879C124.875 85.4112 124.502 85.5331 124.178 85.7418C120.53 88.0275 116.955 90.1761 113.618 92.0595C109.925 94.1532 106.414 95.9909 103.378 97.3623C102.967 97.5441 102.616 97.8411 102.37 98.2174C102.123 98.5938 101.991 99.0335 101.989 99.4835V123.154C101.983 123.521 102.069 123.882 102.24 124.207C102.41 124.531 102.658 124.808 102.963 125.011C103.267 125.215 103.618 125.339 103.983 125.373C104.348 125.406 104.715 125.347 105.051 125.202C112.119 122.039 118.894 117.431 125.166 113.161L125.696 112.795C125.957 112.619 126.178 112.391 126.346 112.125C126.515 111.859 126.626 111.561 126.674 111.25C128.018 102.272 128.338 95.3875 127.634 87.4149ZM92.8457 99.4926C92.8457 98.5783 92.2972 97.7555 91.4652 97.3715C88.4206 96.0001 84.9006 94.1532 81.2069 92.0686C77.9794 90.2401 74.5326 88.1738 71.0217 85.9703C70.6968 85.7592 70.3228 85.6357 69.936 85.6116C69.5492 85.5876 69.1628 85.6639 68.8142 85.8331C68.4656 86.0024 68.1666 86.2588 67.9463 86.5776C67.7259 86.8964 67.5917 87.2667 67.5566 87.6526C66.88 95.5246 67.2092 102.363 68.544 111.25C68.5907 111.563 68.7018 111.863 68.8702 112.13C69.0386 112.398 69.2606 112.627 69.5223 112.805L70.0526 113.17C76.2149 117.349 82.8526 121.865 89.7737 125.019C90.1098 125.166 90.4773 125.226 90.8427 125.194C91.208 125.162 91.5595 125.04 91.865 124.837C92.1706 124.634 92.4204 124.358 92.5917 124.034C92.7631 123.709 92.8504 123.347 92.8457 122.981V99.4926Z" fill="black"/>
</g>
</mask>
<g mask="url(#mask0_3_822)">
<path d="M0.0168299 68.5289L0.31982 129.318L128.318 128.68L127.965 57.8456C113.055 68.8769 92.8535 72.8108 74.6872 69.0743C68.6427 67.8371 63.1502 65.5408 57.591 63.2165C53.6046 61.5499 49.584 59.869 45.301 58.5539C35.1725 55.2764 23.4673 54.5664 13.3726 58.0727C8.00651 59.8912 3.11486 63.7199 0.0168299 68.5289Z" fill="url(#paint0_linear_3_822)"/>
<path d="M-0.197074 25.6143L-0.318165 1.31977L127.68 0.681794L127.918 48.3873C123.906 51.6448 119.525 54.3586 114.626 56.7476C108.2 59.9647 100.58 62.2334 93.3197 62.1872C87.2086 62.2735 80.3064 59.7915 74.6267 56.9469C68.4827 53.7569 62.3809 48.3451 56.5056 43.1343C53.5569 40.5191 50.6653 37.9545 47.8541 35.7468C35.8601 26.6777 23.2482 21.9792 8.22924 23.7852C5.44661 24.1716 2.59148 24.8341 -0.197074 25.6143Z" fill="url(#paint1_linear_3_822)"/>
<path d="M127.903 45.4346L127.971 59.0789C113.091 70.1476 93.3005 74.6338 75.1356 70.8976C68.5325 69.5461 62.1833 67.1571 55.7964 64.7539C52.1444 63.3798 48.4801 62.001 44.749 60.809C34.6205 57.5314 23.4757 55.7949 13.3811 59.3013C8.01359 61.1202 3.12082 64.9504 0.0229283 69.7612L-0.197373 25.5619C2.59808 24.7256 5.46822 24.0943 8.33976 23.742C23.3067 21.8753 38.9442 26.1495 51.0219 35.3054C54.2512 37.7751 57.2223 40.5802 60.188 43.3802C65.0105 47.9333 69.8186 52.4728 75.6991 55.5346C87.5055 61.6199 102.22 60.5225 114.223 54.5746C119.251 52.1821 123.775 49.0632 127.903 45.4346Z" fill="url(#paint2_linear_3_822)"/>
</g>
<defs>
<linearGradient id="paint0_linear_3_822" x1="67.4185" y1="11.6484" x2="68.0564" y2="139.647" gradientUnits="userSpaceOnUse">
<stop stop-color="#0575E6"/>
<stop offset="1" stop-color="#FC00FF"/>
</linearGradient>
<linearGradient id="paint1_linear_3_822" x1="88.2534" y1="70.0098" x2="-28.411" y2="-129.753" gradientUnits="userSpaceOnUse">
<stop stop-color="#FC00FF"/>
<stop offset="1" stop-color="#0575E6"/>
</linearGradient>
<linearGradient id="paint2_linear_3_822" x1="63.0466" y1="85.1661" x2="62.4086" y2="-42.8323" gradientUnits="userSpaceOnUse">
<stop stop-color="#FC00FF"/>
<stop offset="1" stop-color="#0575E6"/>
</linearGradient>
<clipPath id="clip0_3_822">
<rect width="128" height="128" fill="white"/>
</clipPath>
</defs>
</svg>
