<svg width="128" height="128" viewBox="0 0 128 128" fill="none" xmlns="http://www.w3.org/2000/svg">
<mask id="mask0_3_551" style="mask-type:alpha" maskUnits="userSpaceOnUse" x="0" y="0" width="128" height="128">
<g clip-path="url(#clip0_3_551)">
<path fill-rule="evenodd" clip-rule="evenodd" d="M15.5977 34.8434C15.6557 34.2981 15.735 33.7552 15.8354 33.216H112.165C112.265 33.7463 112.347 34.2949 112.402 34.8434C113.435 44.5074 114.286 54.1989 114.286 64C114.286 73.8011 113.435 83.4926 112.402 93.1566C111.842 98.0346 109.649 102.58 106.181 106.055C102.712 109.531 98.1707 111.732 93.2937 112.302C83.5749 113.39 73.8469 114.286 64 114.286C54.1531 114.286 44.4251 113.39 34.7063 112.302C29.8293 111.732 25.288 109.531 21.8194 106.055C18.3507 102.58 16.1582 98.0346 15.5977 93.1566C14.5646 83.4926 13.7143 73.8011 13.7143 64C13.7143 54.1989 14.5646 44.5074 15.5977 34.8434ZM33.1886 2.06629C43.0263 0.969143 53.3669 0 64 0C74.6331 0 84.9737 0.969143 94.8114 2.06629C102.794 2.98121 110.23 6.57774 115.904 12.2677C121.577 17.9576 125.152 25.4043 126.043 33.3897C127.086 43.1726 128 53.4491 128 64C128 74.5509 127.086 84.8274 126.043 94.6103C125.152 102.596 121.577 110.042 115.904 115.732C110.23 121.422 102.794 125.019 94.8114 125.934C84.9737 127.031 74.6331 128 64 128C53.3669 128 43.0263 127.031 33.1886 125.934C25.2058 125.019 17.7696 121.422 12.0963 115.732C6.42293 110.042 2.84815 102.596 1.95657 94.6103C0.914286 84.8274 0 74.5509 0 64C0 53.4491 0.914286 43.1726 1.95657 33.3897C2.84815 25.4043 6.42293 17.9576 12.0963 12.2677C17.7696 6.57774 25.2058 2.98121 33.1886 2.06629ZM75.2731 93.8331C71.3326 95.8354 66.7703 96.7406 61.9246 96.7406C54.5554 96.7406 47.8263 94.6377 42.944 89.7646C38.0709 84.8823 35.968 78.1531 35.968 70.784C35.968 63.4057 38.0709 56.6766 42.944 51.8034C47.8263 46.9211 54.5554 44.8274 61.9246 44.8274C69.3029 44.8274 76.032 46.9211 80.9051 51.8034C85.7874 56.6766 87.8812 63.4149 87.8812 70.784C87.8812 75.6297 86.976 80.192 84.9737 84.1326L90.0206 89.1794C91.2318 90.4793 91.8912 92.1986 91.8599 93.9751C91.8285 95.7515 91.1089 97.4465 89.8525 98.7028C88.5962 99.9592 86.9012 100.679 85.1248 100.71C83.3483 100.742 81.629 100.082 80.3291 98.8709L75.2731 93.8331ZM49.6823 70.784C49.6823 65.9383 51.0263 63.104 52.6446 61.4949C54.2537 59.8857 57.0789 58.5417 61.9246 58.5417C66.7703 58.5417 69.6046 59.8857 71.2137 61.4949C72.8229 63.1131 74.1669 65.9291 74.1669 70.784C74.1669 75.6297 72.8229 78.4549 71.2137 80.064C69.5954 81.6823 66.7794 83.0263 61.9246 83.0263C57.0789 83.0263 54.2537 81.6823 52.6446 80.064C51.0263 78.4549 49.6823 75.6297 49.6823 70.784Z" fill="black"/>
</g>
</mask>
<g mask="url(#mask0_3_551)">
<path d="M33.4696 0H0V128H102.47C99.8138 124.567 97.0809 120.945 94 118C87.1361 111.299 79.23 105.746 71.5 100C59.9659 91.4257 48.5011 83.0807 40.127 71.5461C29.1707 56.4869 24.5074 37.1461 27.4031 18.8943C28.4819 12.4091 30.6477 6.02774 33.4696 0Z" fill="url(#paint0_linear_3_551)"/>
<path d="M40.0753 71.5282C29.1421 56.5607 24.5548 37.2745 27.3921 18.94C28.4878 12.3217 30.5743 5.9689 33.4466 0H76.1897C72.5165 8.98078 61.8353 38.6788 72 58.6667C84.0978 82.4559 93.9483 93.3333 104 104C109.699 110.047 120.079 118.666 128 124.997V128H102.396C99.7583 124.576 96.9387 121.35 93.9483 118.342C87.1022 111.696 79.3784 105.976 71.6707 100.267C60.0925 91.6924 48.5507 83.1444 40.0753 71.5282Z" fill="url(#paint1_linear_3_551)"/>
<path d="M124.678 128H128V0H73.8456C73.7662 0.223759 73.6822 0.459584 73.594 0.70713C70.5835 9.15431 62.7085 31.2506 69.3334 53.3333C84.3498 88.9974 103.564 105.578 114.681 115.171C119.357 119.206 122.601 122.005 123.497 124.468C123.956 125.633 124.349 126.811 124.678 128Z" fill="url(#paint2_linear_3_551)"/>
</g>
<defs>
<linearGradient id="paint0_linear_3_551" x1="-1.3327" y1="23.7578" x2="203.362" y2="141.938" gradientUnits="userSpaceOnUse">
<stop stop-color="#00BFFF"/>
<stop offset="0.65" stop-color="#92FE9D"/>
<stop offset="1" stop-color="#92FE9D"/>
</linearGradient>
<linearGradient id="paint1_linear_3_551" x1="8.41445" y1="-35.2523" x2="150.175" y2="210.284" gradientUnits="userSpaceOnUse">
<stop stop-color="#008CBB"/>
<stop offset="0.48" stop-color="#92FE9D"/>
<stop offset="1" stop-color="#92FE9D"/>
</linearGradient>
<linearGradient id="paint2_linear_3_551" x1="138.852" y1="270.421" x2="138.852" y2="81.3632" gradientUnits="userSpaceOnUse">
<stop stop-color="#92FE9D"/>
<stop offset="0.66" stop-color="#92FE9D"/>
<stop offset="1" stop-color="#00B7F4"/>
</linearGradient>
<clipPath id="clip0_3_551">
<rect width="128" height="128" fill="white"/>
</clipPath>
</defs>
</svg>
