<svg width="128" height="128" viewBox="0 0 128 128" fill="none" xmlns="http://www.w3.org/2000/svg">
<mask id="mask0_3_564" style="mask-type:alpha" maskUnits="userSpaceOnUse" x="0" y="0" width="128" height="128">
<path fill-rule="evenodd" clip-rule="evenodd" d="M66.2217 9.78285C61.6016 9.75915 56.9813 9.7561 52.3611 9.77371H50.8069H50.3954L50.2857 9.78285H50.2583C50.0657 9.7829 49.8733 9.79511 49.6823 9.81943C39.8994 9.87428 30.1257 11.2366 20.1417 13.8789C10.2949 16.4754 1.24343 24.3749 0.118857 35.5291C0.0443049 36.2246 0.00463612 36.9234 0 37.6229C0 46.6103 6.58286 52.7634 13.7143 55.744C13.504 59.2823 13.376 62.8937 13.376 66.5509C13.376 74.8709 14.0617 92.4983 14.784 100.443C15.6251 109.659 22.8754 117.33 32.384 117.998C43.0597 118.747 53.7722 118.82 64.4571 118.217C72.7406 116.59 78.016 110.4 78.6103 103.927C79.3143 96.1737 79.296 86.2811 79.2686 77.2297L79.2594 72.4754C79.2594 66.8983 78.9851 61.3486 78.6011 55.8354C78.5055 54.5082 78.876 53.1892 79.6488 52.106C80.4216 51.0228 81.5482 50.2432 82.8343 49.9017C86.9212 48.8137 90.5417 46.656 92.736 43.7669C94.7657 41.0789 95.9177 37.3303 94.4731 31.9269C92.8824 25.9758 89.4167 20.6956 84.5897 16.8686C80.5029 13.6503 74.6423 10.8343 66.2217 9.78285ZM85.0286 117.998H95.296H95.6069C105.125 117.33 112.366 109.659 113.216 100.443C113.92 92.6903 114.587 75.7577 114.624 67.1909C106.648 67.915 98.6326 68.0892 90.6331 67.712C90.6697 69.2937 90.688 70.8846 90.688 72.4754V77.0651C90.7246 86.0709 90.752 96.6217 89.9932 104.969C89.5547 109.683 87.8382 114.188 85.0286 117.998ZM114.286 55.7531C107.703 56.3017 101.623 56.576 95.6983 56.4663C97.984 54.8937 100.096 52.9737 101.842 50.6606C106.112 45.0377 107.822 37.6229 105.518 28.9737C103.609 21.8621 99.7861 15.4107 94.464 10.3223L94.6469 10.3314C100.142 10.5783 105.17 10.9349 107.694 11.5657C112.805 12.8549 117.541 16.3383 121.07 20.4983C124.599 24.6674 127.323 30.0069 127.881 35.5291C128.905 45.6137 121.774 52.5349 114.286 55.7257V55.7531Z" fill="black"/>
</mask>
<g mask="url(#mask0_3_564)">
<path fill-rule="evenodd" clip-rule="evenodd" d="M0 128V0H28.1581C27.0379 3.87261 26.4269 7.84713 26.2232 11.8216C25.6122 24.9681 29.9911 38.4204 38.2396 48.7134C42.6617 54.2327 48.102 58.8059 53.5432 63.3798C59.254 68.1804 64.9658 72.9818 69.5027 78.879C79.788 92.0255 83.1485 110.369 78.3623 126.369C78.2605 126.624 78.1586 126.904 78.0568 127.185C77.955 127.465 77.8531 127.745 77.7513 128H0Z" fill="url(#paint0_linear_3_564)"/>
<path fill-rule="evenodd" clip-rule="evenodd" d="M128 128V0.000305176H28.1013C27.0829 3.8729 26.4719 7.84739 26.2683 11.8219C25.6573 24.9683 29.9343 38.4205 38.1828 48.7134C42.6521 54.2296 48.0899 58.8007 53.5281 63.3721C59.2419 68.1752 64.9561 72.9786 69.5476 78.8789C79.7309 92.0253 83.1933 110.369 78.3052 126.369C78.2034 126.879 77.9997 127.49 77.6942 128H128Z" fill="url(#paint1_linear_3_564)"/>
</g>
<defs>
<linearGradient id="paint0_linear_3_564" x1="-21.3333" y1="64" x2="80.5008" y2="64" gradientUnits="userSpaceOnUse">
<stop stop-color="#FD1D6C"/>
<stop offset="1" stop-color="#FCB045"/>
</linearGradient>
<linearGradient id="paint1_linear_3_564" x1="26.1664" y1="64" x2="128" y2="64" gradientUnits="userSpaceOnUse">
<stop stop-color="#FD1D6C"/>
<stop offset="1" stop-color="#FCB045"/>
</linearGradient>
</defs>
</svg>
