<svg width="128" height="128" viewBox="0 0 128 128" fill="none" xmlns="http://www.w3.org/2000/svg">
<mask id="mask0_3_553" style="mask-type:alpha" maskUnits="userSpaceOnUse" x="0" y="0" width="128" height="128">
<g clip-path="url(#clip0_3_553)">
<path fill-rule="evenodd" clip-rule="evenodd" d="M41.4926 36.7961C41.8815 36.7871 42.2631 36.6878 42.6073 36.5058C42.9515 36.3239 43.2489 36.0643 43.4763 35.7476C46.5093 31.8027 50.4282 28.6325 54.9138 26.4951C60.6713 23.6408 67.619 21.9223 75.3311 21.0777C76.4149 20.9612 77.3245 20.1456 77.3728 19.0485L77.3922 18.3981C77.3922 16.932 77.1793 15.534 76.7632 14.2233C73.8796 5.06796 61.039 0 40.2347 0C18.7723 0 5.78651 5.39806 3.46417 15.1068C3.21258 16.1553 3.07711 17.2524 3.07711 18.4078C3.07711 30.1748 16.4596 36.8058 40.2347 36.8058L41.4926 36.7961ZM35.4932 79.7476C35.4788 79.1185 35.2252 78.5188 34.7845 78.0712C34.3438 77.6236 33.7492 77.3619 33.1225 77.3398C29.039 77.1942 25.0233 76.9515 21.085 76.6408C15.7318 76.2362 10.496 74.8612 5.63169 72.5825C3.8222 71.7282 1.61597 73.1456 1.79014 75.1359C2.56426 84.4272 9.72483 92.1068 18.9174 93.4854C23.6976 94.1942 28.5745 94.8447 33.5289 95.1748C33.8675 95.1935 34.2062 95.1398 34.5225 95.017C34.8389 94.8943 35.1255 94.7055 35.3635 94.463C35.6015 94.2206 35.7853 93.9301 35.9027 93.6109C36.0202 93.2917 36.0686 92.9511 36.0448 92.6117C35.7728 88.3278 35.5953 84.0389 35.4932 79.7476ZM33.1612 65.2039C33.4784 65.2142 33.7946 65.1616 34.0915 65.049C34.3884 64.9364 34.6602 64.766 34.8913 64.5477C35.1224 64.3294 35.3082 64.0674 35.438 63.7768C35.5679 63.4862 35.6393 63.1727 35.648 62.8544C35.7835 58.9709 35.977 55.0388 36.1996 51.3981C36.2178 51.0713 36.1713 50.7441 36.0627 50.4355C35.9541 50.1268 35.7856 49.8429 35.567 49.6C35.3483 49.3571 35.0838 49.1602 34.7888 49.0205C34.4938 48.8809 34.1741 48.8013 33.8482 48.7864C23.7073 48.2816 14.6114 46.4854 7.38313 42.9029C5.84604 42.1425 4.365 41.273 2.95132 40.301C1.75144 39.4757 0 40.2816 0 41.7476C0 44.5243 0.0483824 47.2816 0.145147 50.0291C0.145147 50.1942 0.1645 50.3495 0.212882 50.5146C1.89658 56.8738 9.85062 63.6117 22.0042 64.5437C25.7103 64.835 29.4261 65.0583 33.1612 65.2039ZM120.607 75.4951C111.898 79.8155 100.461 81.534 87.7653 81.534C75.0602 81.534 63.6323 79.8155 54.9138 75.4951C53.3767 74.7348 51.8957 73.8652 50.482 72.8932C49.2725 72.068 47.521 72.8738 47.521 74.3495C47.521 77.1165 47.5791 79.8835 47.6662 82.6214C47.6662 82.7864 47.6952 82.9418 47.7339 83.1068C49.4176 89.4757 57.3716 96.2039 69.5349 97.1359C75.573 97.6019 81.6402 97.932 87.7557 97.932C93.8809 97.932 99.948 97.6019 105.986 97.1359C118.14 96.2039 126.103 89.466 127.787 83.1068C127.828 82.9481 127.851 82.7852 127.855 82.6214C127.952 79.8738 128 77.1165 128 74.3398C128 72.8738 126.249 72.068 125.039 72.9029C123.624 73.8701 122.143 74.7363 120.607 75.4951ZM124.913 50.9903C124.913 49.5243 124.71 48.1262 124.294 46.8155C121.41 37.6602 108.57 32.5922 87.7653 32.5922C66.303 32.5922 53.3172 37.9903 50.9852 47.699C50.7296 48.7805 50.6029 49.8886 50.6078 51C50.6078 62.7767 63.9806 69.3981 87.7653 69.3981C111.54 69.3981 124.923 62.7767 124.923 50.9903H124.913ZM53.1624 105.165C51.3626 104.32 49.1563 105.738 49.3208 107.728C50.0949 117.019 57.2555 124.699 66.4481 126.078C73.3861 127.107 80.508 128 87.7653 128C95.0227 128 102.154 127.107 109.092 126.078C113.582 125.384 117.71 123.199 120.816 119.872C123.921 116.545 125.824 112.269 126.22 107.728C126.384 105.738 124.178 104.32 122.378 105.175C117.637 107.408 112.334 108.816 106.915 109.233C100.712 109.718 94.3066 110.068 87.7653 110.068C81.3738 110.035 74.9859 109.757 68.6157 109.233C63.2624 108.829 58.0266 107.454 53.1624 105.175V105.165Z" fill="black"/>
</g>
</mask>
<g mask="url(#mask0_3_553)">
<path d="M106.807 0H50.2072C45.0005 11.5815 42.2099 24.2943 43.84 36.8182C45.0717 46.3269 48.7686 55.1576 52.4556 63.9648C54.3867 68.5773 56.315 73.1834 57.885 77.8771C63.2357 93.3881 61.5805 107.753 54.0098 122.361C53.0038 124.254 51.9158 126.136 50.7613 128H83.9197C84.1945 127.35 84.4679 126.697 84.7363 126.057C85.911 123.254 86.9907 120.677 87.6842 119.501C94.5114 108.35 96.5669 96.9258 93.2888 84.2555C92.2809 80.5118 91.0151 76.8209 89.7492 73.13C87.2176 65.7481 84.6859 58.3663 84.2174 50.5623C83.3732 38.3612 87.9037 26.2292 94.5023 15.931C98.0963 10.3026 102.273 5.05863 106.807 0Z" fill="url(#paint0_linear_3_553)"/>
<path d="M50.2207 0H0V128H50.7531C51.9063 126.125 52.9948 124.213 53.9928 122.262C61.588 107.739 63.2591 93.3716 57.9297 77.8909C56.3612 73.2544 54.4528 68.7151 52.5426 64.1719C48.8267 55.3335 45.1045 46.4801 43.8669 36.8669C42.1815 24.3691 45.0199 11.5998 50.2207 0Z" fill="url(#paint1_linear_3_553)"/>
<path d="M84.1332 50.6126C83.3552 38.3107 87.8161 26.2484 94.4759 15.8748C95.7536 13.9165 96.9553 11.8552 98.1661 9.77806C100.113 6.43868 102.083 3.05852 104.432 0H128V128H80.1776C82.3519 124.708 84.4756 121.406 85.3333 120C92.1431 108.826 96.5679 96.8861 93.2352 84.223C92.2201 80.4378 90.9383 76.7137 89.6568 72.9905C87.1403 65.6793 84.6251 58.3718 84.1332 50.6126Z" fill="url(#paint2_linear_3_553)"/>
</g>
<defs>
<linearGradient id="paint0_linear_3_553" x1="13.7727" y1="84.8853" x2="121.913" y2="22.4502" gradientUnits="userSpaceOnUse">
<stop stop-color="#F07F42"/>
<stop offset="1" stop-color="#F4D75B"/>
</linearGradient>
<linearGradient id="paint1_linear_3_553" x1="-34.6199" y1="90.5055" x2="94.2522" y2="16.1012" gradientUnits="userSpaceOnUse">
<stop stop-color="#F0A142"/>
<stop offset="1" stop-color="#F4D75B"/>
</linearGradient>
<linearGradient id="paint2_linear_3_553" x1="57.2473" y1="84.9667" x2="133.754" y2="40.7956" gradientUnits="userSpaceOnUse">
<stop stop-color="#F07F42"/>
<stop offset="1" stop-color="#F4D75B"/>
</linearGradient>
<clipPath id="clip0_3_553">
<rect width="128" height="128" fill="white"/>
</clipPath>
</defs>
</svg>
