<svg width="128" height="128" viewBox="0 0 128 128" fill="none" xmlns="http://www.w3.org/2000/svg">
<mask id="mask0_3_682" style="mask-type:alpha" maskUnits="userSpaceOnUse" x="0" y="0" width="128" height="128">
<path fill-rule="evenodd" clip-rule="evenodd" d="M52.4602 2.34438e-06C49.7201 -0.00129749 47.0066 0.537934 44.4752 1.58682C41.9439 2.6357 39.6442 4.17363 37.7081 6.11254C35.7719 8.05145 34.2372 10.3532 33.1919 12.8861C32.1466 15.419 31.6112 18.1332 31.6164 20.8733C31.5731 22.5992 31.8987 24.3145 32.5715 25.9045L13.5394 27.5882C10.469 27.6167 7.53414 28.8565 5.37315 31.0378C3.21215 33.219 1.99987 36.1654 2 39.2359L2.29538 49.7906C2.37414 52.9413 3.96918 55.5013 6.03681 57.372C8.10445 59.2033 10.7333 60.4636 13.3129 61.0839C16.1485 61.7731 18.7774 63.2007 20.8352 65.2684C23.818 68.2521 25.4936 72.2983 25.4936 76.5173C25.4936 80.7363 23.818 84.7825 20.8352 87.7662C18.7586 89.8241 16.1564 91.2716 13.3129 91.9507C10.7333 92.571 8.0946 93.8215 6.03681 95.6725C3.96918 97.5235 2.3643 100.093 2.27568 103.254L2 112.657V112.735C2 115.817 3.23074 118.781 5.41652 120.967C5.53357 121.084 5.66222 121.19 5.80051 121.282C7.78938 122.601 10.5068 123.645 13.5985 124.472C17.1376 125.386 20.7323 126.07 24.36 126.52C32.3352 127.573 41.7577 128.046 51.0817 127.997C59.9054 127.984 68.7192 127.406 77.4687 126.264C80.9469 125.807 84.3931 125.132 87.7872 124.245C90.6917 123.458 93.2418 122.483 95.0338 121.262C95.1572 121.174 95.2725 121.075 95.3784 120.967C97.5445 118.8 98.7654 115.886 98.7851 112.844L100.144 96.3223C100.341 96.4011 100.538 96.4897 100.744 96.5586C102.182 97.0903 103.659 97.3364 105.51 97.3364C111.034 97.3364 116.333 95.1431 120.242 91.2384C124.15 87.3337 126.348 82.0371 126.354 76.5124C126.352 73.7769 125.812 71.0685 124.764 68.5418C123.715 66.0152 122.18 63.7199 120.244 61.787C118.308 59.854 116.011 58.3214 113.483 57.2767C110.954 56.232 108.245 55.6956 105.51 55.6982C103.677 55.6633 101.856 56.0086 100.163 56.7123L98.7851 39.1374C98.7595 36.0907 97.5413 33.1754 95.3915 31.0164C93.2417 28.8574 90.3316 27.6267 87.2851 27.5882L72.2701 25.9735L72.4572 25.5402C73.0466 24.0534 73.3279 22.4623 73.2842 20.8634C73.2881 18.1258 72.7524 15.4143 71.7078 12.8839C70.6631 10.3534 69.13 8.05364 67.196 6.11603C65.2621 4.17842 62.9652 2.64096 60.4368 1.59154C57.9083 0.54211 55.1978 0.00129336 52.4602 2.34438e-06Z" fill="black"/>
</mask>
<g mask="url(#mask0_3_682)">
<path fill-rule="evenodd" clip-rule="evenodd" d="M127.35 13.3981L101.233 -45L-43 19.5044L3.09501 122.574C5.77244 121.967 8.38834 121.196 10.9034 120.232C26.589 114.046 39.3034 102.542 50.0995 89.6495C56.2819 82.2791 61.9139 74.4285 67.5622 66.5554C71.6716 60.8272 75.7896 55.087 80.1344 49.5111C90.4952 36.5468 102.526 24.3044 117.76 17.0607C120.791 15.6221 124.014 14.3843 127.35 13.3981Z" fill="url(#paint0_linear_3_682)"/>
<path fill-rule="evenodd" clip-rule="evenodd" d="M2.43006 121.087L21.5044 163.737L165.737 99.233L126.678 11.8943C123.306 12.8772 120.047 14.1444 116.977 15.6616C101.983 22.7711 89.9018 35.0395 79.4325 48.2026C74.8543 54.0194 70.5279 60.0427 66.2015 66.066C60.7936 73.5951 55.3856 81.1241 49.4857 88.25C38.6976 101.152 25.9038 112.729 10.3831 118.661C7.82808 119.703 5.16079 120.494 2.43006 121.087Z" fill="url(#paint1_linear_3_682)"/>
</g>
<defs>
<linearGradient id="paint0_linear_3_682" x1="106.215" y1="-40.0471" x2="-9.51588" y2="119.801" gradientUnits="userSpaceOnUse">
<stop stop-color="#003BE9"/>
<stop offset="1" stop-color="#E8BAFF"/>
</linearGradient>
<linearGradient id="paint1_linear_3_682" x1="-9.46837" y1="114.458" x2="158.804" y2="39.2024" gradientUnits="userSpaceOnUse">
<stop stop-color="#003BE9"/>
<stop offset="1" stop-color="#E8BAFF"/>
</linearGradient>
</defs>
</svg>
