<svg width="128" height="128" viewBox="0 0 128 128" fill="none" xmlns="http://www.w3.org/2000/svg">
<mask id="mask0_3_805" style="mask-type:alpha" maskUnits="userSpaceOnUse" x="0" y="0" width="128" height="128">
<g clip-path="url(#clip0_3_805)">
<path fill-rule="evenodd" clip-rule="evenodd" d="M51.5474 1.00574C63.168 1.00574 83.2366 1.66402 92.2332 3.53831C97.408 4.61717 101.285 8.32917 103.415 12.9372C104.795 15.9177 101.696 18.5052 98.4686 17.8743C91.2457 16.4389 83.4377 16.2012 75.2823 16.2012C63.7989 16.2012 52.5989 17.0972 44.4617 17.7555L38.784 18.1943C37.18 18.3071 35.6864 19.0524 34.6319 20.2663C33.5775 21.4803 33.0484 23.0634 33.1612 24.6675C33.2739 26.2715 34.0192 27.765 35.2332 28.8195C36.4471 29.874 38.0303 30.4031 39.6343 30.2903L45.6686 29.8332C49.1977 29.5406 53.1657 29.2297 57.4354 28.9555V29.2023V45.9977C57.4354 49.152 59.9954 51.712 63.1406 51.712H72.2834C73.799 51.712 75.2524 51.11 76.324 50.0383C77.3957 48.9667 77.9977 47.5133 77.9977 45.9977C77.9977 44.4822 77.3957 43.0288 76.324 41.9571C75.2524 40.8855 73.799 40.2835 72.2834 40.2835H68.8549V29.2023C68.8541 28.9423 68.8358 28.6827 68.8 28.4252C70.9394 28.3703 73.0972 28.3337 75.2823 28.3337C88.896 28.3337 98.5234 29.1566 105.984 33.088C110.721 35.905 114.533 40.0418 116.955 44.992C118.263 47.6892 116.005 50.496 113.006 50.5052L109.486 50.5326L104.933 50.5509C98.0642 50.5509 91.4772 53.2793 86.6205 58.136C81.7639 62.9926 79.0354 69.5797 79.0354 76.448C79.0354 83.3164 81.7639 89.9034 86.6205 94.7601C91.4772 99.6167 98.0642 102.345 104.933 102.345C106.469 102.345 107.995 102.363 109.522 102.382L113.463 102.418C116.407 102.418 118.702 105.115 117.559 107.822C115.593 112.403 112.479 116.4 108.519 119.429C104.559 122.457 99.885 124.414 94.9486 125.111L93.3577 125.339C84.5989 126.583 76.1509 127.781 64.2834 127.973V110.574H67.712C69.2275 110.574 70.681 109.972 71.7526 108.9C72.8243 107.828 73.4263 106.375 73.4263 104.859C73.4263 103.344 72.8243 101.89 71.7526 100.819C70.681 99.7472 69.2275 99.1452 67.712 99.1452H58.5692C57.0536 99.1452 55.6002 99.7472 54.5285 100.819C53.4569 101.89 52.8549 103.344 52.8549 104.859V127.835C43.3829 127.451 36.0594 126.409 28.5166 125.339L26.9349 125.111C14.7932 123.392 4.91886 114.322 2.72458 102.674L2.62401 102.135C2.19108 99.9071 1.7918 97.673 1.42629 95.4332H17.4263C18.9418 95.4332 20.3953 94.8311 21.4669 93.7595C22.5385 92.6879 23.1406 91.2344 23.1406 89.7189C23.1406 88.2034 22.5385 86.7499 21.4669 85.6783C20.3953 84.6066 18.9418 84.0046 17.4263 84.0046H0.210292C0.00339838 80.1988 -0.0575987 76.3865 0.0274352 72.576H49.4263C50.9418 72.576 52.3953 71.974 53.4669 70.9024C54.5385 69.8307 55.1406 68.3773 55.1406 66.8617C55.1406 65.3462 54.5385 63.8928 53.4669 62.8211C52.3953 61.7495 50.9418 61.1475 49.4263 61.1475H27.712V54.2903H31.1406C32.6561 54.2903 34.1096 53.6883 35.1812 52.6166C36.2528 51.545 36.8549 50.0915 36.8549 48.576C36.8549 47.0605 36.2528 45.6071 35.1812 44.5354C34.1096 43.4638 32.6561 42.8617 31.1406 42.8617H21.9977C20.4822 42.8617 19.0287 43.4638 17.9571 44.5354C16.8855 45.6071 16.2834 47.0605 16.2834 48.576V61.1475H0.00914946C0.146292 51.1817 0.969149 41.3166 2.24001 31.424C3.86744 18.7246 11.4834 6.94859 22.8114 4.58974C32.3291 2.60574 41.7829 1.01488 51.5474 1.01488V1.00574ZM118.29 90.2217H104.942C101.291 90.2217 97.7901 88.7716 95.2087 86.1902C92.6274 83.6088 91.1772 80.1078 91.1772 76.4572C91.1772 72.8066 92.6274 69.3055 95.2087 66.7241C97.7901 64.1428 101.291 62.6926 104.942 62.6926H118.29C123.657 62.6926 128 67.0355 128 72.3932V80.512C128 85.8789 123.657 90.2217 118.29 90.2217ZM28.0137 89.7097C28.0137 86.5555 30.5737 84.0046 33.728 84.0046H40.0183C40.7687 84.0046 41.5118 84.1524 42.2051 84.4396C42.8983 84.7267 43.5283 85.1477 44.0589 85.6783C44.5895 86.2089 45.0104 86.8388 45.2976 87.5321C45.5848 88.2254 45.7326 88.9685 45.7326 89.7189C45.7326 90.4693 45.5848 91.2124 45.2976 91.9057C45.0104 92.5989 44.5895 93.2289 44.0589 93.7595C43.5283 94.2901 42.8983 94.711 42.2051 94.9982C41.5118 95.2854 40.7687 95.4332 40.0183 95.4332H33.728C32.9768 95.4332 32.233 95.2851 31.5391 94.9973C30.8452 94.7096 30.2149 94.2879 29.6842 93.7563C29.1534 93.2247 28.7327 92.5937 28.4461 91.8993C28.1594 91.205 28.0125 90.4609 28.0137 89.7097Z" fill="black"/>
</g>
</mask>
<g mask="url(#mask0_3_805)">
<path d="M107.363 128.024L173 91.8667L93.2064 -40.0001L16.7226 2.13224C37.882 11.0319 54.6264 29.584 61.8071 50.556C64.2029 57.5304 65.1108 64.5591 66.0296 71.6732C66.6885 76.7744 67.353 81.9195 68.5759 87.12C71.2863 99.517 77.7512 112.029 87.7865 120.391C93.0719 124.863 100.241 127.659 107.363 128.024Z" fill="url(#paint0_linear_3_805)"/>
<path d="M61.0257 153.55L34.7936 168L-45 36.1331L6.51013 7.75793C12.5169 9.98231 18.1628 12.9082 23.7772 16.5609C31.232 21.303 38.398 27.8382 42.8347 35.3665C46.7049 41.6294 48.2828 50.2239 48.7127 57.7693C49.0554 65.998 46.9663 75.4933 44.9547 84.6359C43.9452 89.2245 42.9552 93.7242 42.3019 97.9304C39.8938 115.67 42.6003 131.47 53.8376 145.922C55.9757 148.569 58.4575 151.129 61.0257 153.55Z" fill="url(#paint1_linear_3_805)"/>
<path d="M3.32195 9.51423L18.0544 1.39861C39.2359 10.2457 56.3242 28.0472 63.5044 49.0175C66.1216 56.6365 67.4585 64.6049 68.8034 72.6207C69.5724 77.204 70.3439 81.8028 71.3589 86.3606C74.0693 98.7575 79.0764 111.296 89.1117 119.658C94.3984 124.131 101.57 126.927 108.693 127.291L60.969 153.581C58.3359 151.186 55.8785 148.593 53.7224 145.834C42.4517 131.471 37.4159 112.795 39.8662 94.9178C40.5448 90.1251 41.7461 85.4015 42.9453 80.6864C44.8952 73.0193 46.8393 65.375 46.5206 57.4941C45.8135 41.708 35.5316 27.1524 21.6735 18.259C15.9754 14.4746 9.80249 11.6401 3.32195 9.51423Z" fill="url(#paint2_linear_3_805)"/>
</g>
<defs>
<linearGradient id="paint0_linear_3_805" x1="4.11659" y1="91.9269" x2="139.003" y2="10.306" gradientUnits="userSpaceOnUse">
<stop stop-color="#0575E6"/>
<stop offset="1" stop-color="#FC00FF"/>
</linearGradient>
<linearGradient id="paint1_linear_3_805" x1="54.4364" y1="35.9882" x2="-79.8571" y2="279.774" gradientUnits="userSpaceOnUse">
<stop stop-color="#FC00FF"/>
<stop offset="1" stop-color="#0575E6"/>
</linearGradient>
<linearGradient id="paint2_linear_3_805" x1="86.4257" y1="53.094" x2="-48.4605" y2="134.715" gradientUnits="userSpaceOnUse">
<stop stop-color="#FC00FF"/>
<stop offset="1" stop-color="#0575E6"/>
</linearGradient>
<clipPath id="clip0_3_805">
<rect width="128" height="128" fill="white"/>
</clipPath>
</defs>
</svg>
