<svg width="626" height="261" viewBox="0 0 626 261" fill="none" xmlns="http://www.w3.org/2000/svg">
<path fill-rule="evenodd" clip-rule="evenodd" d="M289.916 21.3469H281.453L261.692 80.0058H272.169L275.686 68.2375H295.695L299.237 80.0058H309.701L289.916 21.3469ZM278.482 58.8166L285.64 34.8431L292.849 58.8166H278.482Z" fill="black"/>
<path fill-rule="evenodd" clip-rule="evenodd" d="M314.261 65.5157V40.9583H323.395V63.2544C323.395 69.4677 325.408 73.1953 331.35 73.1953C338.309 73.1953 340.82 68.5852 340.82 62.9677V40.9583H349.954V80.0059H340.82V74.5637C338.471 78.7519 334.369 81.0132 328.751 81.0132C320.214 81.0132 314.261 76.042 314.261 65.5157Z" fill="black"/>
<path fill-rule="evenodd" clip-rule="evenodd" d="M357.735 68.0261H366.87C366.87 71.3689 370.138 73.7179 374.836 73.7179C378.266 73.7179 380.442 71.8785 380.442 69.1077C380.442 66.9326 379.522 65.5895 375.334 64.5094L367.541 62.4086C362.097 60.9051 359.003 56.9649 359.003 51.4351C359.003 44.8103 365.278 39.952 373.991 39.952C383.548 39.952 389.414 44.5622 389.414 52.1067H380.442C380.442 48.8381 377.956 46.9111 373.655 46.9111C370.4 46.9111 368.051 48.5885 368.051 50.9374C368.051 53.0263 369.293 54.4556 372.909 55.4614L380.702 57.7241C386.233 59.3139 389.75 63.3283 389.75 68.9086C389.75 76.5392 383.796 81.0632 374.326 81.0632C364.856 81.0632 357.735 75.5319 357.735 68.0751" fill="black"/>
<path fill-rule="evenodd" clip-rule="evenodd" d="M419.65 71.9662V80.0069C417.404 80.3457 415.135 80.5121 412.865 80.5049C408.429 80.5049 400.213 79.9207 400.213 66.8331V48.59H393.601V40.9594H400.176V29.1524H409.31V40.9594H418.27V48.59H409.31V64.6714C409.31 71.4566 411.411 72.302 415.015 72.302C416.553 72.2886 418.089 72.1772 419.613 71.9662" fill="black"/>
<path fill-rule="evenodd" clip-rule="evenodd" d="M426.522 40.9583H435.656V48.5013C436.218 46.1806 437.552 44.12 439.44 42.6595C441.329 41.1976 443.658 40.422 446.046 40.4606C447.257 40.4294 448.466 40.5423 449.65 40.7964V49.2353C448.454 49.1016 447.249 49.0466 446.046 49.0733C439.596 49.0733 435.656 53.9331 435.656 62.7449V80.0059H426.522V40.9583Z" fill="black"/>
<path fill-rule="evenodd" clip-rule="evenodd" d="M452.075 60.4828C452.075 48.9998 459.358 39.9518 471.513 39.9518C473.93 39.8686 476.33 40.4004 478.485 41.5014C480.64 42.6023 482.479 44.2321 483.828 46.2408V40.9591H492.876V80.0066H483.828V74.7249C481.405 78.665 476.036 81.0139 471.263 81.0139C458.699 81.0139 452.075 71.9659 452.075 60.4828ZM484.164 60.4828C484.164 53.7838 480.436 48.0548 472.607 48.0548C465.472 48.0548 461.21 53.3366 461.21 60.4828C461.21 67.6291 465.472 72.9108 472.607 72.9108C480.399 72.9108 484.164 67.2057 484.164 60.4828Z" fill="black"/>
<mask id="mask0_801_4" style="mask-type:luminance" maskUnits="userSpaceOnUse" x="0" y="0" width="626" height="261">
<path d="M0 260.238H625.665V0H0V260.238Z" fill="white"/>
</mask>
<g mask="url(#mask0_801_4)">
<path fill-rule="evenodd" clip-rule="evenodd" d="M502.941 80.0072H512.075V21.3601H502.941V80.0072Z" fill="black"/>
</g>
<mask id="mask1_801_4" style="mask-type:luminance" maskUnits="userSpaceOnUse" x="0" y="0" width="626" height="261">
<path d="M0 260.238H625.665V0H0V260.238Z" fill="white"/>
</mask>
<g mask="url(#mask1_801_4)">
<path fill-rule="evenodd" clip-rule="evenodd" d="M520.438 28.5682C520.438 26.769 521.153 25.0426 522.426 23.7694C523.698 22.4976 525.425 21.783 527.224 21.783C529.024 21.783 530.749 22.4976 532.023 23.7694C533.294 25.0426 534.009 26.769 534.009 28.5682C534.009 30.3674 533.294 32.0938 532.023 33.3671C530.749 34.6388 529.024 35.3535 527.224 35.3535C525.425 35.3535 523.698 34.6388 522.426 33.3671C521.153 32.0938 520.438 30.3674 520.438 28.5682ZM522.7 80.0066H531.748V40.9962H522.7V80.0066Z" fill="black"/>
</g>
<mask id="mask2_801_4" style="mask-type:luminance" maskUnits="userSpaceOnUse" x="0" y="0" width="626" height="261">
<path d="M0 260.238H625.665V0H0V260.238Z" fill="white"/>
</mask>
<g mask="url(#mask2_801_4)">
<path fill-rule="evenodd" clip-rule="evenodd" d="M539.629 60.4828C539.629 48.9998 546.924 39.9518 559.066 39.9518C561.484 39.8686 563.883 40.4004 566.039 41.5014C568.193 42.6023 570.032 44.2321 571.381 46.2408V40.9591H580.379V80.0066H571.332V74.7249C568.909 78.665 563.54 81.0139 558.768 81.0139C546.203 81.0139 539.58 71.9659 539.58 60.4828M571.668 60.4828C571.668 53.7838 567.939 48.0548 560.109 48.0548C552.988 48.0548 548.714 53.3366 548.714 60.4828C548.714 67.6291 552.988 72.9108 560.109 72.9108C567.902 72.9108 571.668 67.2057 571.668 60.4828Z" fill="black"/>
</g>
<mask id="mask3_801_4" style="mask-type:luminance" maskUnits="userSpaceOnUse" x="0" y="0" width="626" height="261">
<path d="M0 260.238H625.665V0H0V260.238Z" fill="white"/>
</mask>
<g mask="url(#mask3_801_4)">
<path fill-rule="evenodd" clip-rule="evenodd" d="M589.55 40.9585H598.684V46.414C601.108 42.2139 605.645 39.9512 611.423 39.9512C620.807 39.9512 625.665 45.2344 625.665 55.462V80.006H616.531V59.6503C616.531 51.3481 614.356 47.7437 607.981 47.7437C602.041 47.7437 598.684 51.6839 598.684 58.5568V80.006H589.55V40.9585Z" fill="black"/>
</g>
<mask id="mask4_801_4" style="mask-type:luminance" maskUnits="userSpaceOnUse" x="0" y="0" width="626" height="261">
<path d="M0 260.238H625.665V0H0V260.238Z" fill="white"/>
</mask>
<g mask="url(#mask4_801_4)">
<path fill-rule="evenodd" clip-rule="evenodd" d="M303.412 121.851C303.412 133.832 295.036 142.382 283.305 142.382H271.324V159.967H261.692V101.32H283.354C295.086 101.32 303.461 109.87 303.461 121.851M293.831 121.851C293.831 114.978 289.133 109.958 282.77 109.958H271.373V133.744H282.77C289.133 133.744 293.831 128.773 293.831 121.851Z" fill="black"/>
</g>
<mask id="mask5_801_4" style="mask-type:luminance" maskUnits="userSpaceOnUse" x="0" y="0" width="626" height="261">
<path d="M0 260.238H625.665V0H0V260.238Z" fill="white"/>
</mask>
<g mask="url(#mask5_801_4)">
<path fill-rule="evenodd" clip-rule="evenodd" d="M306.681 140.455C306.681 128.972 313.964 119.924 326.106 119.924C328.524 119.838 330.925 120.368 333.083 121.466C335.24 122.564 337.081 124.194 338.434 126.2V120.931H347.482V159.967H338.434V154.697C335.948 158.624 330.641 160.912 325.857 160.912C313.293 160.912 306.681 151.864 306.681 140.393M338.77 140.393C338.77 133.682 335.042 127.965 327.199 127.965C320.078 127.965 315.804 133.235 315.804 140.393C315.804 147.551 320.078 152.821 327.199 152.821C334.992 152.821 338.77 147.129 338.77 140.393Z" fill="black"/>
</g>
<mask id="mask6_801_4" style="mask-type:luminance" maskUnits="userSpaceOnUse" x="0" y="0" width="626" height="261">
<path d="M0 260.238H625.665V0H0V260.238Z" fill="white"/>
</mask>
<g mask="url(#mask6_801_4)">
<path fill-rule="evenodd" clip-rule="evenodd" d="M393.34 120.932V160.141C393.34 166.256 391.5 170.866 388.232 174.047C385.051 176.982 380.527 178.571 374.996 178.571C369.218 178.571 364.694 177.142 361.587 174.545C360.177 173.267 359.06 171.701 358.31 169.954C357.559 168.207 357.194 166.317 357.237 164.417H366.459C366.869 168.68 368.944 171.028 374.822 171.028C380.279 171.028 384.217 167.76 384.217 159.47V154.498C381.732 158.687 377.432 160.949 371.641 160.949C362.009 160.949 357.237 154.076 357.237 144.694V120.932H366.371V142.792C366.371 148.584 368.298 152.934 374.822 152.934C381.347 152.934 384.217 147.826 384.217 141.115V120.932H393.34Z" fill="black"/>
</g>
<mask id="mask7_801_4" style="mask-type:luminance" maskUnits="userSpaceOnUse" x="0" y="0" width="626" height="261">
<path d="M0 260.238H625.665V0H0V260.238Z" fill="white"/>
</mask>
<g mask="url(#mask7_801_4)">
<path fill-rule="evenodd" clip-rule="evenodd" d="M403.108 120.931H412.23V126.375C413.255 124.382 414.821 122.72 416.75 121.577C418.678 120.436 420.889 119.864 423.129 119.924C430.25 119.924 433.767 123.018 435.444 126.871C436.594 124.715 438.321 122.923 440.434 121.696C442.546 120.469 444.959 119.855 447.4 119.924C459.133 119.924 461.482 127.966 461.482 135.261V159.967H452.371V137.012C452.371 130.563 449.886 127.716 445.076 127.716C440.478 127.716 436.862 129.979 436.862 139.275V159.967H427.74V136.926C427.74 130.475 425.391 127.716 420.619 127.716C415.846 127.716 412.23 129.979 412.23 139.275V159.967H403.108V120.931Z" fill="black"/>
</g>
<mask id="mask8_801_4" style="mask-type:luminance" maskUnits="userSpaceOnUse" x="0" y="0" width="626" height="261">
<path d="M0 260.238H625.665V0H0V260.238Z" fill="white"/>
</mask>
<g mask="url(#mask8_801_4)">
<path fill-rule="evenodd" clip-rule="evenodd" d="M506.358 143.463H477.376C477.624 149.677 481.639 153.021 488.263 153.021C492.787 153.021 495.471 151.592 496.962 148.571H506.184C505.003 155.866 497.634 160.999 488.25 160.999C475.935 160.999 468.367 153.132 468.367 140.468C468.367 127.804 476.072 119.951 487.965 119.951C499.149 119.951 506.606 127.493 506.606 138.467C506.606 140.058 506.52 141.314 506.346 143.438L506.358 143.463ZM497.646 136.491C497.571 130.452 494.041 127.109 487.766 127.109C481.49 127.109 477.464 130.961 477.376 136.491H497.646Z" fill="black"/>
</g>
<mask id="mask9_801_4" style="mask-type:luminance" maskUnits="userSpaceOnUse" x="0" y="0" width="626" height="261">
<path d="M0 260.238H625.665V0H0V260.238Z" fill="white"/>
</mask>
<g mask="url(#mask9_801_4)">
<path fill-rule="evenodd" clip-rule="evenodd" d="M513.442 120.931H522.565V126.375C525.05 122.186 529.524 119.924 535.303 119.924C544.685 119.924 549.545 125.193 549.545 135.421V159.967H540.423V139.609C540.423 131.32 538.236 127.716 531.873 127.716C525.919 127.716 522.565 131.656 522.565 138.516V159.967H513.442V120.931Z" fill="black"/>
</g>
<mask id="mask10_801_4" style="mask-type:luminance" maskUnits="userSpaceOnUse" x="0" y="0" width="626" height="261">
<path d="M0 260.238H625.665V0H0V260.238Z" fill="white"/>
</mask>
<g mask="url(#mask10_801_4)">
<path fill-rule="evenodd" clip-rule="evenodd" d="M581.297 151.927V159.967C579.052 160.317 576.784 160.487 574.512 160.477C570.076 160.477 561.86 159.893 561.86 146.731V128.551H555.248V120.932H561.86V109.113H570.995V120.932H579.956V128.551H570.995V144.706C570.995 151.491 573.083 152.325 576.687 152.325C578.229 152.319 579.77 152.206 581.297 151.989" fill="black"/>
</g>
<mask id="mask11_801_4" style="mask-type:luminance" maskUnits="userSpaceOnUse" x="0" y="0" width="626" height="261">
<path d="M0 260.238H625.665V0H0V260.238Z" fill="white"/>
</mask>
<g mask="url(#mask11_801_4)">
<path fill-rule="evenodd" clip-rule="evenodd" d="M585.734 147.987H594.869C594.869 151.343 598.137 153.691 602.835 153.691C606.265 153.691 608.441 151.84 608.441 149.081C608.441 146.905 607.521 145.564 603.333 144.47L595.54 142.444C590.096 140.928 586.99 136.988 586.99 131.458C586.99 124.847 593.277 119.987 601.99 119.987C611.547 119.987 617.413 124.597 617.413 132.129H608.441C608.441 128.86 605.955 126.935 601.654 126.935C598.385 126.935 596.05 128.612 596.05 130.961C596.05 133.062 597.292 134.477 600.896 135.485L608.701 137.746C614.219 139.337 617.749 143.364 617.749 148.932C617.749 156.549 611.795 161.073 602.325 161.073C592.855 161.073 585.734 155.543 585.734 148.087" fill="black"/>
</g>
<mask id="mask12_801_4" style="mask-type:luminance" maskUnits="userSpaceOnUse" x="0" y="0" width="626" height="261">
<path d="M0 260.238H625.665V0H0V260.238Z" fill="white"/>
</mask>
<g mask="url(#mask12_801_4)">
<path fill-rule="evenodd" clip-rule="evenodd" d="M302.966 201.252C302.966 213.233 294.578 221.783 282.859 221.783H270.927V239.38H261.234V180.735H282.859C294.578 180.735 302.966 189.272 302.966 201.252ZM293.323 201.252C293.323 194.379 288.625 189.359 282.261 189.359H270.927V213.159H282.324C288.687 213.159 293.385 208.125 293.385 201.252" fill="black"/>
</g>
<mask id="mask13_801_4" style="mask-type:luminance" maskUnits="userSpaceOnUse" x="0" y="0" width="626" height="261">
<path d="M0 260.238H625.665V0H0V260.238Z" fill="white"/>
</mask>
<g mask="url(#mask13_801_4)">
<path fill-rule="evenodd" clip-rule="evenodd" d="M310.623 239.381H319.757V180.734H310.623V239.381Z" fill="black"/>
</g>
<mask id="mask14_801_4" style="mask-type:luminance" maskUnits="userSpaceOnUse" x="0" y="0" width="626" height="261">
<path d="M0 260.238H625.665V0H0V260.238Z" fill="white"/>
</mask>
<g mask="url(#mask14_801_4)">
<path fill-rule="evenodd" clip-rule="evenodd" d="M328.593 224.891V200.333H337.727V222.629C337.727 228.843 339.74 232.57 345.681 232.57C352.641 232.57 355.151 227.96 355.151 222.343V200.333H364.286V239.381H355.151V233.938C352.802 238.127 348.7 240.388 343.083 240.388C334.546 240.388 328.593 235.354 328.593 224.891Z" fill="black"/>
</g>
<mask id="mask15_801_4" style="mask-type:luminance" maskUnits="userSpaceOnUse" x="0" y="0" width="626" height="261">
<path d="M0 260.238H625.665V0H0V260.238Z" fill="white"/>
</mask>
<g mask="url(#mask15_801_4)">
<path fill-rule="evenodd" clip-rule="evenodd" d="M371.592 227.4H380.726C380.726 230.743 383.994 233.092 388.68 233.092C392.123 233.092 394.298 231.253 394.298 228.482C394.298 226.307 393.378 224.964 389.19 223.883L381.397 221.783C375.954 220.279 372.847 216.339 372.847 210.809C372.847 204.184 379.135 199.326 387.847 199.326C397.404 199.326 403.258 203.936 403.258 211.481H394.298C394.298 208.212 391.812 206.285 387.511 206.285C384.242 206.285 381.893 207.963 381.893 210.311C381.893 212.4 383.137 213.83 386.753 214.835L394.546 217.098C400.076 218.688 403.594 222.702 403.594 228.283C403.594 235.913 397.652 240.437 388.183 240.437C378.713 240.437 371.592 234.857 371.592 227.4Z" fill="black"/>
</g>
<mask id="mask16_801_4" style="mask-type:luminance" maskUnits="userSpaceOnUse" x="0" y="0" width="626" height="261">
<path d="M0 260.238H625.665V0H0V260.238Z" fill="white"/>
</mask>
<g mask="url(#mask16_801_4)">
<path fill-rule="evenodd" clip-rule="evenodd" d="M212.603 130.861C212.589 143.874 207.415 156.351 198.215 165.554C189.014 174.757 176.539 179.934 163.525 179.951H131.835V157.58H163.525C170.612 157.58 177.408 154.766 182.419 149.755C187.43 144.744 190.246 137.948 190.246 130.861C190.246 123.774 187.43 116.979 182.419 111.967C177.408 106.956 170.612 104.142 163.525 104.142H0V81.7716H163.525C176.537 81.7805 189.011 86.9538 198.214 96.1518C207.415 105.351 212.589 117.825 212.603 130.836" fill="black"/>
</g>
<mask id="mask17_801_4" style="mask-type:luminance" maskUnits="userSpaceOnUse" x="0" y="0" width="626" height="261">
<path d="M0 260.238H625.665V0H0V260.238Z" fill="white"/>
</mask>
<g mask="url(#mask17_801_4)">
<path fill-rule="evenodd" clip-rule="evenodd" d="M109.464 157.581H131.835V98.549H109.464V157.581Z" fill="black"/>
</g>
<mask id="mask18_801_4" style="mask-type:luminance" maskUnits="userSpaceOnUse" x="0" y="0" width="626" height="261">
<path d="M0 260.238H625.665V0H0V260.238Z" fill="white"/>
</mask>
<g mask="url(#mask18_801_4)">
<path fill-rule="evenodd" clip-rule="evenodd" d="M131.736 49.7573V87.5509H109.365V49.7573C109.443 46.2154 108.811 42.6942 107.508 39.4004C106.205 36.1051 104.259 33.104 101.781 30.5723C99.3026 28.0406 96.3445 26.029 93.0789 24.6547C89.8133 23.2819 86.307 22.5747 82.7636 22.5747C79.2217 22.5747 75.7139 23.2819 72.4483 24.6547C69.1827 26.029 66.2246 28.0406 63.7465 30.5723C61.2698 33.104 59.322 36.1051 58.019 39.4004C56.7176 42.6942 56.0861 46.2154 56.1619 49.7573V87.5509H33.7915V49.7573C33.689 43.2603 34.879 36.8078 37.2933 30.7758C39.7076 24.7438 43.2986 19.2526 47.8568 14.6217C52.4149 9.9907 57.8482 6.31355 63.8416 3.8027C69.8334 1.29184 76.2666 -0.000732422 82.7636 -0.000732422C89.2621 -0.000732422 95.6938 1.29184 101.687 3.8027C107.681 6.31355 113.114 9.9907 117.672 14.6217C122.229 19.2526 125.82 24.7438 128.234 30.7758C130.65 36.8078 131.84 43.2603 131.736 49.7573Z" fill="black"/>
</g>
<mask id="mask19_801_4" style="mask-type:luminance" maskUnits="userSpaceOnUse" x="0" y="0" width="626" height="261">
<path d="M0 260.238H625.665V0H0V260.238Z" fill="white"/>
</mask>
<g mask="url(#mask19_801_4)">
<path fill-rule="evenodd" clip-rule="evenodd" d="M0 179.951H39.6448V157.581H0V179.951Z" fill="black"/>
</g>
<mask id="mask20_801_4" style="mask-type:luminance" maskUnits="userSpaceOnUse" x="0" y="0" width="626" height="261">
<path d="M0 260.238H625.665V0H0V260.238Z" fill="white"/>
</mask>
<g mask="url(#mask20_801_4)">
<path fill-rule="evenodd" clip-rule="evenodd" d="M109.376 157.581H50.5552V179.952H109.476V157.581H109.376Z" fill="black"/>
</g>
<mask id="mask21_801_4" style="mask-type:luminance" maskUnits="userSpaceOnUse" x="0" y="0" width="626" height="261">
<path d="M0 260.238H625.665V0H0V260.238Z" fill="white"/>
</mask>
<g mask="url(#mask21_801_4)">
<path fill-rule="evenodd" clip-rule="evenodd" d="M131.834 179.951V212.04C131.629 224.893 126.38 237.15 117.217 246.167C108.057 255.183 95.7162 260.238 82.8618 260.238C70.0074 260.238 57.6685 255.183 48.5061 246.167C39.3452 237.15 34.0947 224.893 33.8896 212.04V98.537H56.26V212.04C56.4101 218.996 59.279 225.616 64.2517 230.482C69.2244 235.348 75.9042 238.072 82.8618 238.072C89.8194 238.072 96.5006 235.348 101.472 230.482C106.445 225.616 109.313 218.996 109.463 212.04V179.951H131.834Z" fill="black"/>
</g>
</svg>
