<?xml version="1.0" encoding="UTF-8"?>
<svg width="104px" height="35px" viewBox="0 0 104 35" version="1.1" xmlns="http://www.w3.org/2000/svg" xmlns:xlink="http://www.w3.org/1999/xlink">
    <title>HGF - Logo - Avery</title>
    <g id="Page-1" stroke="none" stroke-width="1" fill="none" fill-rule="evenodd">
        <g id="HGF---Home---Desktop" transform="translate(-321.000000, -2796.000000)" fill="#010202">
            <g id="Logo---Avery" transform="translate(321.461941, 2796.454185)">
                <path d="M35.3304395,25.4653439 C37.2167544,29.2904294 34.1528099,33.410157 30.8807386,33.410157 L5.44446709,33.410157 L5.32591378,33.410157 C0.994766152,33.3812189 -1.03908176,28.556455 0.523187427,25.6705411 L13.5218993,2.39118649 C15.671666,-0.905121716 20.6245599,-0.697293825 22.6267936,2.42275528 L34.9484344,24.6998007 L35.3304395,25.4653439 Z M15.3766,4.39317415 L5.5340407,22.1111596 C6.21111183,21.7586414 7.478315,21.8743936 7.478315,21.8743936 L16.7333768,5.30603844 C17.7344936,3.77495194 20.3294939,4.92195145 19.1202501,6.92393911 L10.7503864,21.8165175 L12.6367013,21.8165175 L20.8010726,7.27645731 C22.5108748,3.80389 17.6765343,0.949544911 15.3766,4.39317415 L15.3766,4.39317415 Z M32.6485002,26.0546281 L22.9218596,8.51290173 C22.8928799,9.30738303 22.1552149,10.4280752 22.1552149,10.4280752 L31.2047843,26.7017883 C31.971429,28.3775651 29.6425151,29.9375897 28.5808043,27.8777259 L20.5955802,13.3692345 L19.6208086,15.0765801 L27.3741951,29.1141703 C29.3764288,32.4104785 34.3583024,29.7902687 32.6485002,26.0546281 L32.6485002,26.0546281 Z M6.03459912,30.6452568 L25.2217939,30.6452568 C24.7502151,30.3216767 24.1311034,29.0273561 24.1311034,29.0273561 L6.18213213,29.0273561 C4.32479693,28.9089732 4.09032483,26.1125042 6.44821845,26.173011 L22.5688342,26.173011 L21.6546565,24.4946035 L5.91604581,24.4946035 C2.05647691,24.6998007 1.9089439,30.3216767 6.03459912,30.6452568 L6.03459912,30.6452568 Z M20.0923873,21.8165175 L17.9716003,17.9019871 L15.7902194,21.8165175 L20.0923873,21.8165175 Z" id="Fill-601"></path>
                <path d="M56.4329288,23.5820023 L63.3880564,23.5820023 L63.3880564,21.8457187 L58.5247361,21.8457187 L58.5247361,20.375139 L62.8585183,20.375139 L62.8585183,18.8151145 L58.5247361,18.8151145 L58.5247361,17.4602871 L63.2405234,17.4602871 L63.2405234,15.8423864 L56.4039491,15.8423864 L56.4329288,23.5820023 Z M80.2753169,15.8423864 L77.5643979,15.8423864 L75.7386769,18.9624355 L73.9103214,15.8423864 L71.1994023,15.8423864 L74.5294331,20.6697811 L74.5294331,23.5241262 L76.9163064,23.5241262 L76.9163064,20.6697811 L80.2753169,15.8423864 Z M56.1668425,15.8423864 L53.8379286,15.8423864 L51.775101,21.1985584 L49.5357607,15.8423864 L47.2094813,15.8423864 L50.539512,23.5241262 L52.8974057,23.5241262 L56.1668425,15.8423864 Z M39.7801404,23.5241262 L41.903562,23.5241262 L42.6991864,21.8457187 L46.2057299,21.8457187 L47.0013543,23.5241262 L49.2723089,23.5241262 L45.7631309,15.8423864 L43.2893184,15.8423864 L39.7801404,23.5241262 Z M44.4089886,17.9916951 L44.4379683,17.9022502 L45.4680648,20.1962492 L43.4342169,20.1962492 L44.4089886,17.9916951 Z M95.6609022,33.4104201 L97.6947501,33.4104201 L97.6947501,28.8197913 L97.7237298,28.8197913 L100.995801,33.4104201 L103.382674,33.4104201 L103.382674,26.0233224 L101.406786,26.0233224 L101.406786,30.5876438 L101.172314,30.5876438 L98.0767552,26.0548911 L95.6609022,26.0548911 L95.6609022,33.4104201 Z M78.892195,33.1762848 C79.6272255,33.381482 80.5703829,33.499865 81.3660074,33.499865 C83.1943629,33.499865 84.9911042,32.9710877 84.9911042,31.0269761 C84.9911042,28.3199521 81.0709414,29.1433715 81.0709414,27.9095578 C81.0709414,27.2597668 81.9851191,27.2018906 82.5462714,27.2018906 C83.1627487,27.2018906 83.8134746,27.3202736 84.3719924,27.5544088 L84.5195254,25.9943843 C83.9610076,25.8181252 83.1943629,25.731311 82.3987384,25.731311 C80.7468956,25.731311 78.8026213,26.2311502 78.8026213,28.02531 C78.8026213,30.7639029 82.7227842,29.8799766 82.7227842,31.2637421 C82.7227842,31.8530262 82.0746927,31.9977166 81.3660074,31.9977166 C80.4518296,31.9977166 79.6588397,31.7925194 79.0976874,31.4978773 L78.892195,33.1762848 Z M75.53055,33.4709269 L77.7409106,33.4709269 L77.7409106,26.0548911 L75.53055,26.0548911 L75.53055,33.4709269 Z M66.3071024,33.4104201 L68.3409503,33.4104201 L68.3409503,28.8197913 L68.36993,28.8197913 L71.6393668,33.4104201 L74.0288747,33.4104201 L74.0288747,26.0233224 L72.0529862,26.0233224 L72.0529862,30.5876438 L71.8185141,30.5876438 L68.7229554,26.0548911 L66.3360821,26.0548911 L66.3071024,33.4104201 Z M85.5522565,29.6432107 C85.5522565,31.8530262 87.1724851,33.5866792 90.0599168,33.5866792 C92.9499831,33.5866792 94.5702117,31.8214575 94.5702117,29.6432107 C94.5702117,27.4386566 92.9499831,25.6997422 90.0599168,25.6997422 C87.2014648,25.6997422 85.5522565,27.4675947 85.5522565,29.6432107 L85.5522565,29.6432107 Z M90.0915311,31.9109024 C88.5582416,31.9109024 87.9681095,30.7928409 87.9681095,29.6432107 C87.9681095,28.52778 88.5582416,27.3781497 90.0915311,27.3781497 C91.622186,27.3781497 92.2123181,28.4962112 92.2123181,29.6432107 C92.2123181,30.7928409 91.622186,31.9109024 90.0915311,31.9109024 L90.0915311,31.9109024 Z M57.0520406,33.4419889 L59.0858885,33.4419889 L59.0858885,28.8487294 L59.1148682,28.8487294 L62.3869396,33.4419889 L64.7738129,33.4419889 L64.7738129,26.0548911 L62.7979244,26.0548911 L62.7979244,30.5876438 L62.5634523,30.5876438 L59.4678936,26.0548911 L57.0520406,26.0548911 L57.0520406,33.4419889 Z M49.1827352,33.4104201 L56.1668425,33.4104201 L56.1668425,31.7635813 L51.3035223,31.7635813 L51.3035223,30.3508778 L55.6373044,30.3508778 L55.6373044,28.8802982 L51.3035223,28.8802982 L51.3035223,27.5833469 L56.0509237,27.5833469 L56.0509237,26.0548911 L49.1827352,26.0548911 L49.1827352,33.4104201 Z M40.0752065,33.381482 L43.9374099,33.381482 C46.6773086,33.381482 48.3291514,32.0871615 48.3291514,29.7037175 C48.3291514,27.4386566 46.6773086,26.0838292 43.9374099,26.0838292 L40.0752065,26.0838292 L40.0752065,33.381482 Z M42.2276077,27.7017299 L43.5237905,27.7017299 C45.1150394,27.7017299 46.1477705,28.3488902 46.1477705,29.6747795 C46.1477705,31.1453591 45.2915521,31.7057052 43.5237905,31.7346433 L42.2276077,31.7346433 L42.2276077,27.7017299 Z M64.1836809,15.8713245 L69.3420671,15.8713245 C71.2863414,15.9002625 71.6103872,17.4024109 71.6103872,18.2837064 C71.5814075,19.8147929 70.6092703,20.1673111 69.6950926,20.4040771 C70.3721637,21.3748175 71.4338744,22.6980761 72.1399253,23.6109404 L69.3710468,23.6109404 L66.6601278,19.2860156 L68.6044021,19.2860156 C69.6661129,19.2570776 69.6371332,17.4892251 68.5754224,17.4892251 L66.4836151,17.4892251 L66.4836151,23.6109404 L64.2126606,23.6109404 C64.1836809,22.0219778 64.1836809,15.8713245 64.1836809,15.8713245 L64.1836809,15.8713245 Z" id="Fill-602"></path>
            </g>
        </g>
    </g>
</svg>