<?xml version="1.0" encoding="UTF-8"?>
<svg width="131px" height="30px" viewBox="0 0 131 30" version="1.1" xmlns="http://www.w3.org/2000/svg" xmlns:xlink="http://www.w3.org/1999/xlink">
    <title>HGF - Logo - Chainlink</title>
    <g id="Page-1" stroke="none" stroke-width="1" fill="none" fill-rule="evenodd">
        <g id="HGF---Home---Desktop" transform="translate(-700.000000, -2798.000000)" fill="#010202">
            <g id="Logo---Chainlink" transform="translate(700.043733, 2798.511005)">
                <path d="M33.1306448,14.4766596 C33.1306448,11.0488147 35.7019344,8.98368946 38.4391986,8.98368946 C41.1132344,8.98368946 42.7044833,10.5568677 43.176062,12.3983806 L41.497874,12.9613575 C41.1843664,11.685452 40.2043257,10.662097 38.4339296,10.662097 C36.6951477,10.662097 34.9563658,11.922218 34.9563658,14.4766596 C34.9563658,16.9416562 36.6556299,18.2464997 38.4497367,18.2464997 C40.2174983,18.2464997 41.2291532,17.120546 41.5874477,15.9314548 L43.2208488,16.4654936 C42.7466356,18.2464997 41.1395796,19.9538453 38.4497367,19.9538453 C35.6123608,19.9538453 33.1306448,17.9045044 33.1306448,14.4766596" id="Fill-683"></path>
                <path d="M46.3770014,19.7312853 L44.6513921,19.7312853 L44.6513921,8.98474175 L46.3770014,8.98474175 L46.3770014,13.1991757 C46.8670218,12.5625384 47.6837223,12.2942036 48.4424635,12.2942036 C50.2313013,12.2942036 51.0901541,13.570109 51.0901541,15.1590716 L51.0901541,19.7312853 L49.3645448,19.7312853 L49.3645448,15.4563445 C49.3645448,14.5618953 48.9640981,13.8489667 47.8786767,13.8489667 C46.9276157,13.8489667 46.4086156,14.5618953 46.3770014,15.4826518 L46.3770014,19.7312853 Z" id="Fill-684"></path>
                <path d="M57.2298984,16.732776 L57.2298984,16.4065651 L55.3435835,16.6906843 C54.8061418,16.7801292 54.3767154,17.077402 54.3767154,17.6719476 C54.3767154,18.1612639 54.7481824,18.6058578 55.4331571,18.6058578 C56.3973907,18.603227 57.2298984,18.1428488 57.2298984,16.732776 M54.837756,15.591038 L56.6950912,15.3069188 C57.1113451,15.2490427 57.2298984,15.0412148 57.2298984,14.7886645 C57.2298984,14.1783345 56.8136445,13.6890182 55.8625835,13.6890182 C54.9563093,13.6890182 54.4504819,14.2677794 54.3767154,14.9964924 L52.8012736,14.6387127 C52.9329995,13.3891146 54.0632077,12.2789454 55.8467764,12.2789454 C58.0782132,12.2789454 58.9238935,13.5390664 58.9238935,14.980708 L58.9238935,18.574289 C58.921259,18.9636374 58.9502387,19.3503551 59.0134671,19.7344421 L57.4037766,19.7344421 C57.390604,19.6897197 57.3300101,19.3924469 57.3300101,18.8136857 C56.9901573,19.3635088 56.2762029,19.9554237 55.1012078,19.9554237 C53.5810909,19.9554237 52.6484716,18.9162842 52.6484716,17.7745462 C52.6511061,16.4802257 53.6021671,15.7672971 54.837756,15.591038" id="Fill-685"></path>
                <path d="M60.916116,19.730233 L62.6259182,19.730233 L62.6259182,12.4983485 L60.916116,12.4983485 L60.916116,19.730233 Z M61.7617963,8.83373769 C62.3861771,8.83373769 62.8920045,9.33620765 62.8920045,9.95969133 L62.8920045,9.96232206 C62.88937,10.5805443 62.3835425,11.0803835 61.7617963,11.075122 C61.1426846,11.0724913 60.6421261,10.5673906 60.6473952,9.94653766 C60.6500297,9.33357692 61.1479536,8.83636842 61.7617963,8.83373769 L61.7617963,8.83373769 Z" id="Fill-686"></path>
                <path d="M66.491283,19.7312853 L64.7656737,19.7312853 L64.7656737,12.4994008 L66.4464962,12.4994008 L66.4464962,13.4675104 C66.923344,12.6361989 67.7874659,12.2942036 68.5883594,12.2942036 C70.356121,12.2942036 71.2044358,13.570109 71.2044358,15.1590716 L71.2044358,19.7312853 L69.4788265,19.7312853 L69.4788265,15.4563445 C69.4788265,14.5618953 69.0783797,13.8489667 67.9929583,13.8489667 C67.0102831,13.8489667 66.491283,14.6066178 66.491283,15.5563123 L66.491283,19.7312853 Z" id="Fill-687"></path>
                <polygon id="Fill-688" points="73.2087771 19.730233 74.9343864 19.730233 74.9343864 8.98368946 73.2087771 8.98368946"></polygon>
                <path d="M77.073615,19.730233 L78.7834172,19.730233 L78.7834172,12.4983485 L77.073615,12.4983485 L77.073615,19.730233 Z M77.9219298,8.83373769 C78.5463106,8.83373769 79.0521381,9.33883839 79.0521381,9.96232206 C79.0495035,10.5805443 78.5410416,11.0803835 77.9219298,11.075122 C77.3028181,11.0724913 76.8022597,10.5673906 76.8075287,9.94653766 C76.8101632,9.33357692 77.3080871,8.83636842 77.9219298,8.83373769 L77.9219298,8.83373769 Z" id="Fill-689"></path>
                <path d="M82.6511531,19.7312853 L80.9255438,19.7312853 L80.9255438,12.4994008 L82.6116353,12.4994008 L82.6116353,13.4675104 C83.0858486,12.6361989 83.952605,12.2942036 84.750864,12.2942036 C86.5212601,12.2942036 87.3669404,13.570109 87.3669404,15.1590716 L87.3669404,19.7312853 L85.6386966,19.7312853 L85.6386966,15.4563445 C85.6386966,14.5618953 85.2382498,13.8489667 84.1528284,13.8489667 C83.1675187,13.8489667 82.6511531,14.6066178 82.6511531,15.5563123 L82.6511531,19.7312853 Z" id="Fill-690"></path>
                <polygon id="Fill-691" points="93.1760526 15.5605215 96.2083828 19.730233 94.0981339 19.730233 91.9720779 16.7785508 91.0789763 17.7150916 91.0789763 19.7328637 89.3718086 19.7328637 89.3718086 8.98368946 91.0816108 8.98368946 91.0816108 15.4263541 93.8610273 12.5009792 96.1504235 12.5009792"></polygon>
                <polygon id="Fill-692" points="101.117807 19.7312853 101.117807 9.20572331 102.906645 9.20572331 102.906645 18.0397241 107.733082 18.0397241 107.733082 19.733916"></polygon>
                <path d="M113.304561,16.732776 L113.304561,16.4065651 L111.418246,16.6906843 C110.880804,16.7801292 110.451378,17.077402 110.451378,17.6719476 C110.451378,18.1612639 110.822845,18.6058578 111.507819,18.6058578 C112.472053,18.603227 113.304561,18.1428488 113.304561,16.732776 M110.912418,15.591038 L112.769753,15.3069188 C113.186007,15.2490427 113.307195,15.0412148 113.307195,14.7886645 C113.307195,14.1783345 112.890941,13.6890182 111.93988,13.6890182 C111.030972,13.6890182 110.527779,14.2677794 110.451378,14.9964924 L108.875936,14.6387127 C109.010296,13.3891146 110.140504,12.2789454 111.924073,12.2789454 C114.152875,12.2789454 115.00119,13.5390664 115.00119,14.980708 L115.00119,18.574289 C114.995921,18.9636374 115.027535,19.3503551 115.090764,19.7344421 L113.481073,19.7344421 C113.465266,19.6897197 113.407307,19.3924469 113.407307,18.8136857 C113.064819,19.3635088 112.350865,19.9554237 111.178505,19.9554237 C109.658388,19.9554237 108.723134,18.9162842 108.723134,17.7745462 C108.725768,16.4802257 109.676829,15.7672971 110.912418,15.591038" id="Fill-693"></path>
                <path d="M120.618773,13.839233 C119.520179,13.839233 118.671864,14.6547602 118.671864,16.0964017 C118.671864,17.5248897 119.520179,18.3825085 120.618773,18.3825085 C121.748981,18.3825085 122.565682,17.5222589 122.565682,16.0964017 C122.565682,14.6547602 121.764788,13.839233 120.618773,13.839233 L120.618773,13.839233 Z M116.991042,19.7320745 L116.991042,8.98553097 L118.690306,8.98553097 L118.690306,13.3920084 C119.016986,12.8290316 119.852128,12.3081465 120.963895,12.3081465 C123.134738,12.3081465 124.309733,13.957616 124.309733,16.0779866 C124.309733,18.2614948 123.016184,19.9083336 120.905935,19.9083336 C119.878473,19.9083336 119.090753,19.4637397 118.671864,18.7665955 L118.671864,19.7320745 L116.991042,19.7320745 Z" id="Fill-694"></path>
                <path d="M126.744818,17.3567858 C126.802777,18.0092076 127.295432,18.5879688 128.217513,18.5879688 C128.931468,18.5879688 129.3003,18.2012511 129.3003,17.7566572 C129.3003,17.3699395 129.031579,17.0752974 128.45462,16.9542837 L127.382371,16.714887 C126.101995,16.4333986 125.435462,15.602087 125.435462,14.60767 C125.435462,13.3449183 126.597285,12.2768408 128.093691,12.2768408 C130.117001,12.2768408 130.770361,13.584315 130.891549,14.2946128 L129.432026,14.7102686 C129.374067,14.2946128 129.060559,13.6264067 128.091056,13.6264067 C127.482483,13.6264067 127.053056,14.0131244 127.053056,14.4577183 C127.053056,14.844436 127.33495,15.1259244 127.780183,15.2153693 L128.881412,15.4389816 C130.248727,15.7362544 130.960047,16.567566 130.960047,17.6356435 C130.960047,18.7352898 130.066945,19.9506884 128.225417,19.9506884 C126.130975,19.9506884 125.327447,18.585338 125.237873,17.7698109 L126.744818,17.3567858 Z" id="Fill-695"></path>
                <path d="M0.453137099,8.71298705 C0.382005113,8.31837713 0.321411198,7.90272135 0.268720838,7.47128117 L11.4496153,1.02335506 L0.453137099,8.71298705 Z M25.1859923,20.7591126 C25.2571243,21.1563532 25.3177182,21.5693783 25.3704085,22.0008185 L14.1868795,28.4513753 L25.1859923,20.7591126 Z M0.229203068,9.04972085 L1.39102551,22.4401508 C1.01165492,22.2980913 0.619111735,22.1349858 0.218664996,21.9508345 L0.229203068,9.04972085 Z M0.750837636,10.0941218 C0.658629505,9.73108065 0.574324928,9.34699366 0.497923906,8.949753 L10.2930619,2.09932478 L0.750837636,10.0941218 Z M22.8992306,6.63470813 C23.2601596,6.73730671 23.6342612,6.85568969 24.0215353,6.98985706 L25.0542664,18.8965537 L22.8992306,6.63470813 Z M24.8882917,19.3727164 C24.9778653,19.7383882 25.067439,20.1198445 25.1412055,20.5197159 L15.3460675,27.3727748 L24.8882917,19.3727164 Z M14.8086258,27.4964193 C14.5372704,27.7621233 14.2474735,28.0251966 13.9392348,28.2882699 L3.11136578,23.2583087 L14.8086258,27.4964193 Z M2.74516778,22.8873754 C2.37896977,22.7821461 2.00223369,22.6585017 1.61759406,22.5190728 L0.582228482,10.5834381 L2.74516778,22.8873754 Z M10.8252345,1.97568034 C11.0965899,1.71523779 11.3863869,1.44953378 11.6946255,1.18382976 L22.5172255,6.21379089 L10.8252345,1.97568034 Z M4.0492542,23.2083248 C3.70149782,23.137295 3.34320337,23.0531116 2.97700536,22.9531437 L1.05117269,11.9987723 L4.0492542,23.2083248 Z M1.13020823,11.3726579 C1.01692396,11.0411856 0.911543235,10.6939289 0.81143155,10.328257 L9.30511765,3.21212476 L1.13020823,11.3726579 Z M9.90051872,2.94115928 C10.1323563,2.678086 10.3826355,2.41238198 10.6539909,2.14404724 L21.0629716,5.91914881 L9.90051872,2.94115928 Z M21.5977787,6.311128 C21.9429006,6.38215779 22.2985605,6.46634124 22.6700276,6.56630908 L24.5879567,17.4785888 L21.5977787,6.311128 Z M24.5089211,18.096811 C24.6222054,18.4282833 24.7302207,18.7781708 24.8276978,19.1438426 L16.3340117,26.2626056 L24.5089211,18.096811 Z M15.7307071,26.5309403 C15.496235,26.7992751 15.2485903,27.0623484 14.9798695,27.3280524 L4.57088876,23.5555815 L15.7307071,26.5309403 Z M5.29801574,23.3924761 C4.9713355,23.3609073 4.6341172,23.3109234 4.28899534,23.2504165 L1.62022858,13.2746777 L5.29801574,23.3924761 Z M1.58861437,12.543334 C1.45688846,12.2460612 1.3304316,11.933004 1.21187829,11.6015317 L8.48051351,4.34333986 L1.58861437,12.543334 Z M9.10752879,3.92242261 C9.29984861,3.65934933 9.51061005,3.39364532 9.73981312,3.12531057 L19.6745806,5.77445851 L9.10752879,3.92242261 Z M20.3490172,6.11382304 C20.6730629,6.1506533 21.0102812,6.20326795 21.3606721,6.26903627 L24.0162663,16.2000526 L20.3490172,6.11382304 Z M24.050515,16.9235041 C24.1822409,17.2234077 24.3086978,17.5364649 24.4272511,17.8679372 L17.1533468,25.1313905 L24.050515,16.9235041 Z M16.518428,25.549677 C16.3261082,25.8127503 16.1153467,26.0784543 15.8861437,26.346789 L5.96191428,23.7002718 L16.518428,25.549677 Z M2.11551797,13.6008886 C1.96798496,13.3378153 1.82572099,13.0589576 1.68872605,12.7616848 L7.81398045,5.47455497 L2.11551797,13.6008886 Z M8.45153381,4.90631668 C8.60697037,4.6432434 8.77821404,4.38017012 8.96526482,4.11709684 L18.3520525,5.76130484 L8.45153381,4.90631668 Z M19.1608496,6.02963959 C19.4638191,6.03490106 19.7799613,6.05331618 20.1066415,6.08751571 L23.3655403,15.0504224 L19.1608496,6.02963959 Z M23.5262459,15.8685803 C23.6737789,16.1316536 23.8160429,16.4105112 23.9530378,16.7051533 L17.8251489,23.9975446 L23.5262459,15.8685803 Z M17.1770575,24.5657829 C17.0216209,24.8262255 16.8503773,25.0892988 16.660692,25.3550028 L7.28180781,23.7107948 L17.1770575,24.5657829 Z M2.70038097,14.5426909 C2.54230989,14.3111865 2.38687333,14.0665283 2.2367058,13.8087165 L7.28971136,6.60050861 L2.70038097,14.5426909 Z M22.9334794,14.9320394 C23.0915504,15.1609132 23.246987,15.4029406 23.3997891,15.6607524 L18.3415145,22.8742217 L22.9334794,14.9320394 Z M17.7039611,23.5924118 C17.5827733,23.8449621 17.4484128,24.1001432 17.2956108,24.3605858 L8.52266579,23.600304 L17.7039611,23.5924118 Z M3.32739626,15.368741 L2.83737591,14.7373652 L6.90507173,7.70541639 L3.32739626,15.368741 Z M7.55316316,6.82938236 C7.63746774,6.58735494 7.73231039,6.34006606 7.84032563,6.09540791 L15.9651792,6.09014644 L7.55316316,6.82938236 Z M22.3038296,14.10862 L22.7964844,14.7347344 L18.7314231,21.769314 L22.3038296,14.10862 Z M18.1913469,22.4112128 L10.7119503,23.0715267 L18.415281,21.7088071 L18.2124231,22.369121 L18.1913469,22.4112128 Z M9.56066589,23.0636345 C9.33409734,23.1267721 9.09699072,23.1846482 8.84671151,23.2346321 L4.5471781,17.0866096 L9.56066589,23.0636345 Z M3.48283282,15.5502616 L6.64688896,8.77086317 L3.98075673,16.0843004 L3.48283282,15.5502616 Z M7.27390425,7.75540031 L7.47412762,7.06088685 L14.9034684,6.40583438 L7.27390425,7.75540031 Z M22.148393,13.9297302 L18.9896059,20.6986057 L21.6478346,13.4062144 L22.148393,13.9349917 L22.148393,13.9297302 Z M4.15463492,16.2500365 L6.50462499,9.7994797 L4.6499243,16.6998918 L4.15463492,16.2500365 Z M7.09212251,8.63406507 L7.21857937,7.98427406 L13.9418694,6.79781357 L7.09212251,8.63406507 Z M15.2169761,6.68995352 L15.8413569,6.4716027 L20.2673471,11.7435912 L15.2169761,6.68995352 Z M21.4713219,13.2483704 L19.1292353,19.6778814 L20.9707634,12.8142995 L21.4739564,13.2457397 L21.4713219,13.2483704 Z M18.6102353,20.8222502 L18.4706058,21.4825641 L11.6524732,22.6874397 L18.6102353,20.8222502 Z M10.4247878,22.7874076 L9.78723444,22.9978662 L5.36387869,17.7232469 L10.4247878,22.7874076 Z M5.32962995,17.2260384 L4.8396096,16.8524744 L6.46774174,10.7754816 L5.32962995,17.2260384 Z M6.97883823,9.47589956 L7.05260474,8.87083102 L13.0751129,7.25556108 L6.97883823,9.47589956 Z M20.7889817,12.661717 L19.1661186,18.6992488 L20.2963268,12.2986759 L20.7863472,12.661717 L20.7889817,12.661717 Z M18.7340576,19.9725235 L18.6550221,20.5828535 L12.5034225,22.2349537 L18.7340576,19.9725235 Z M11.2230468,22.4638274 L10.6513564,22.7032241 L6.19638638,18.2467627 L11.2230468,22.4638274 Z M14.4424278,7.03194879 L14.9956766,6.7846599 L19.4401085,11.2279676 L14.4424278,7.03194879 Z M6.91824432,10.2809038 L6.95776209,9.71529625 L12.3058337,7.76855397 L6.91824432,10.2809038 Z M20.098738,12.1618778 L19.1055247,17.7784923 L19.6245247,11.8593435 L20.098738,12.1618778 Z M18.7762099,19.1648885 L18.7472302,19.7331268 L13.3280267,21.7061764 L18.7762099,19.1648885 Z M5.52721881,17.368098 L6.52833565,11.6909766 L6.00143205,17.6758937 L5.52721881,17.3654672 L5.52721881,17.368098 Z M13.7337424,7.40551285 L14.2290318,7.14243957 L18.6128698,10.8228348 L13.7337424,7.40551285 Z M11.9554428,22.1086785 L11.4417118,22.3638596 L7.02099052,18.6545263 L11.9554428,22.1086785 Z M19.4190323,11.7304376 L19.0080475,16.413142 L19.0080475,11.4910409 L19.4190323,11.7304376 Z M6.64952348,18.0678729 L6.20955897,17.8100611 L6.64952348,12.8011458 L6.64952348,18.0678729 Z M6.89189914,11.0596007 L6.90770625,10.525562 L11.6313971,8.32100786 L6.89189914,11.0596007 Z M13.0724784,7.78433837 L13.5203465,7.51600362 L17.7935347,10.5124083 L13.0724784,7.78433837 Z M12.1714733,21.9929263 L8.36722923,19.3306247 L12.5877271,21.7640525 L12.1714733,21.995557 L12.1714733,21.9929263 Z M18.7709409,17.7153547 L18.7709409,18.2099325 L13.299047,21.3641811 L13.2542602,21.3799655 L12.9512906,21.5588553 L12.8195647,21.6351466 L7.3107875,18.4545906 L7.28707684,18.4388062 L6.89189914,18.2073017 L6.88136107,18.2020403 L6.88136107,11.8382976 L6.88926462,11.7962059 L6.88926462,11.3437199 L12.4322905,8.15001023 L12.4718083,8.13685657 L12.8406408,7.92376721 L18.3283419,11.0885388 L18.3625906,11.1174768 L18.781479,11.3595043 L18.781479,17.6837859 L18.7709409,17.7153547 Z M18.781479,18.9228611 L14.6795344,20.8354038 L18.7762099,18.4756365 L18.781479,18.9228611 Z M16.7871488,6.24009821 L21.0893167,12.3881208 L16.0731944,6.40583438 L16.7265549,6.24535968 L16.7871488,6.24009821 Z M17.8040728,23.374061 L9.67395017,23.3845839 L18.1149459,22.6427173 L17.8277834,23.3346 L17.8040728,23.374061 Z M17.8172454,6.09277718 L21.8902102,13.1457718 L17.0163519,6.18222209 L17.6670778,6.08488498 L17.8172454,6.09277718 Z M7.81924948,23.3845839 L3.74891914,16.3315893 L8.61487392,23.2846161 L7.9246302,23.3872146 L7.81924948,23.3845839 Z M18.9211084,6.03227032 L22.6515859,14.0349595 L18.049083,6.05594692 C18.3046312,6.03753179 18.573352,6.02700886 18.8526109,6.02437812 L18.9211084,6.03227032 Z M8.3329805,5.11414457 L17.10856,5.87442635 L7.93516828,5.88231855 C8.04845255,5.63502967 8.17754393,5.38511005 8.31453887,5.13519044 L8.3329805,5.11414457 Z M6.71275191,23.44246 L2.9822744,15.4397708 L7.5874119,23.4161527 C7.35557431,23.4371986 7.11846769,23.4503522 6.87345751,23.4582444 L6.71275191,23.44246 Z M5.53512236,23.4056298 L2.26832001,14.424308 L6.48091433,23.4608752 C6.21219349,23.4608752 5.93293458,23.4450908 5.64840663,23.4240449 L5.53512236,23.4056298 Z M25.4125608,20.4276402 L24.2481039,7.06088685 C24.6274744,7.19768496 25.0173831,7.34500599 25.4204644,7.50811143 L25.4125608,20.4276402 Z M24.0399769,6.67943059 L11.8816763,1.02861653 C12.1899149,0.770804712 12.5165951,0.510362164 12.8643515,0.247288884 L24.0399769,6.67943059 Z M1.59915244,22.7952998 L13.7600876,28.4434831 C13.4492145,28.7039256 13.1198997,28.9617375 12.7747779,29.22218 L1.59915244,22.7952998 Z M25.58117,7.31606793 L12.8827931,0.00789219842 L12.8011231,0 L12.7431637,0.0210458624 L12.7089149,0.0473531905 L0.0684974685,7.33448306 L0.0131725901,7.42918944 L0,22.063956 L0.0553248784,22.1586624 L12.7510672,29.4642074 L12.861717,29.4642074 L25.5574593,22.142878 L25.5706319,22.1349858 L25.58117,22.1270936 L25.6259568,22.0429102 L25.6364948,7.40814358 L25.58117,7.31606793 Z" id="Fill-696"></path>
            </g>
        </g>
    </g>
</svg>