<?xml version="1.0" encoding="UTF-8"?>
<svg width="78px" height="43px" viewBox="0 0 78 43" version="1.1" xmlns="http://www.w3.org/2000/svg" xmlns:xlink="http://www.w3.org/1999/xlink">
    <title>HGF - Logo - Cofra</title>
    <g id="Page-1" stroke="none" stroke-width="1" fill="none" fill-rule="evenodd">
        <g id="HGF---Home---Desktop" transform="translate(-910.000000, -2791.000000)" fill="#010202">
            <g id="Logo---Cofra" transform="translate(910.039320, 2791.000526)">
                <path d="M25.8778167,36.1299582 C25.8593751,35.9221303 25.8409334,35.5748736 25.7935121,35.2302476 C25.7118421,34.6488556 25.5432329,34.0964017 25.2349943,33.591301 C24.8556237,32.9757096 24.3208166,32.567946 23.6147657,32.3943176 C23.1774357,32.2864576 22.7374712,32.2706732 22.2948722,32.341703 C21.5466691,32.4627167 20.9486335,32.8283885 20.5165725,33.4518722 C20.2979075,33.7649294 20.142471,34.1095554 20.0344557,34.4725965 C19.781542,35.3118003 19.7393897,36.1720499 19.8315978,37.037561 C19.8921918,37.6321066 20.0476283,38.2056064 20.3216182,38.7422759 C21.1910091,40.4364678 23.0246337,40.4785595 24.0810754,39.9892432 C24.7713191,39.6656631 25.2007456,39.105317 25.487908,38.4213265 C25.772436,37.7320745 25.8620096,37.008623 25.8778167,36.1299582 L25.8778167,36.1299582 Z M22.1710498,42.7120517 L21.4834406,42.619976 C20.6482984,42.512116 19.8447704,42.2937652 19.0965673,41.8991552 C17.7529631,41.1914881 16.8677651,40.0971033 16.4383386,38.652831 C15.9535873,37.0244074 15.9588564,35.3801994 16.4752219,33.7622987 C17.0258362,32.0312765 18.2008312,30.8895385 19.9132679,30.2923621 C20.880136,29.9556283 21.8786183,29.8451375 22.8955423,29.850399 C23.8097201,29.8556605 24.7107252,29.958259 25.5827507,30.2397474 C27.5296595,30.8658619 28.7810556,32.1628131 29.2947866,34.1411242 C29.6715226,35.5880272 29.6741572,37.0480839 29.2684414,38.4897255 C28.7125581,40.4811903 27.4005681,41.7544649 25.4273141,42.3569028 C24.8635273,42.5279004 24.2839333,42.6278682 23.6938013,42.66996 L23.4804053,42.7120517 L22.1710498,42.7120517 Z" id="Fill-758"></path>
                <path d="M68.2780132,37.3316769 L71.6370236,37.3316769 C71.4552419,36.7055625 71.2813637,36.100494 71.104851,35.4980562 C70.9283383,34.8850954 70.7544601,34.269504 70.5726784,33.6565432 C70.3961656,33.0619976 70.2380946,32.4595598 70.0194296,31.8702756 C69.421394,33.6854813 68.8470691,35.5006869 68.2780132,37.3316769 L68.2780132,37.3316769 Z M77.385542,42.4931747 L77.1220902,42.4826518 C75.997151,42.480021 74.8695772,42.480021 73.7420035,42.480021 L73.4890898,42.480021 C73.1571405,41.525065 72.8251913,40.5832627 72.4906075,39.6283067 L67.4428709,39.6283067 C67.0924801,40.5753705 66.7420892,41.5198036 66.3890637,42.4668674 L62.7586979,42.4668674 C64.457962,38.16825 66.1493226,33.8933092 67.8459522,29.6052147 L72.2350592,29.6052147 L72.3536125,29.8814416 C73.9922827,33.964339 75.630953,38.0472363 77.2669886,42.1275028 L77.385542,42.4037298 L77.385542,42.4931747 Z" id="Fill-759"></path>
                <path d="M-1.13686838e-13,35.9992108 L0.0790355406,35.5967087 C0.284527946,33.5447371 1.29354835,32.0136506 3.08765512,30.9981877 C3.97021866,30.5009792 4.9265487,30.2089679 5.91976199,30.0353395 C6.88399559,29.8669726 7.85613273,29.8169887 8.83353892,29.8669726 C9.80040703,29.9169565 10.751468,30.0905849 11.6946255,30.3141972 C11.9185595,30.3668118 12.1451281,30.424688 12.3980418,30.4878256 C12.3111027,31.3770132 12.2004529,32.2583087 12.0977067,33.1685423 L11.8421585,33.0580515 C10.7198538,32.5476893 9.54222427,32.2872468 8.30926983,32.3030312 C7.64273677,32.3109234 6.99464534,32.4266756 6.37289909,32.6818567 C4.82380249,33.3237555 3.90172119,34.7496127 3.95441155,36.4227588 C4.00446739,37.985414 4.7658431,39.0797989 6.16740668,39.7453743 C6.79178745,40.0400164 7.45832051,40.1820759 8.14592972,40.2320599 C9.47109228,40.3241355 10.751468,40.0847388 12.0107677,39.6901289 L12.2399707,39.6217299 C12.3031992,40.4898717 12.3611585,41.3395984 12.424387,42.2103709 C12.0265748,42.2919237 11.6445696,42.3734764 11.25993,42.4445062 C10.6013005,42.5628891 9.93740197,42.6444418 9.26823439,42.6760106 L9.0785491,42.7102102 L7.50574184,42.7102102 L7.31605654,42.6707492 C6.83393974,42.6102423 6.34655391,42.5707813 5.86970615,42.4839671 C4.7658431,42.2814007 3.71730493,41.9183596 2.7636094,41.3185525 C1.18289859,40.318874 0.26608632,38.9035398 0.0790355406,37.0330888 L-1.13686838e-13,36.6516325 L-1.13686838e-13,35.9992108 Z" id="Fill-760"></path>
                <path d="M51.5904491,35.1405396 L51.6773882,35.1615855 C52.3044035,35.1484318 52.9287843,35.1510625 53.553165,35.1194937 C53.9378047,35.1010786 54.3171753,35.0142644 54.6649316,34.8353746 C55.1760281,34.5696706 55.4052312,34.1434919 55.3946931,33.5726228 C55.3867896,33.0385841 55.0996271,32.6965888 54.641221,32.4703458 C54.351424,32.3256555 54.0405509,32.2546257 53.7244087,32.2046418 C53.0447031,32.0967817 52.3623629,32.1204583 51.6773882,32.1230891 L51.5904491,32.1467657 L51.5904491,35.1405396 L51.5904491,35.1405396 Z M48.0180427,42.4671305 L48.0180427,29.8659203 L48.1919209,29.8501359 C50.3469566,29.8527667 52.4993578,29.8475052 54.6517591,29.8580281 C55.52115,29.8606589 56.3747338,29.9921955 57.1967035,30.292099 C57.7209726,30.4841425 58.2030893,30.7472158 58.5956325,31.1549794 C59.0224245,31.5969425 59.254262,32.1230891 59.2753382,32.7386805 C59.2937798,33.2306276 59.2674346,33.7225746 59.1436123,34.2066294 C58.9618305,34.9090351 58.5482112,35.4141358 57.8816782,35.6956242 C57.5629015,35.8297916 57.2230486,35.924498 56.8937339,36.032358 L56.6434547,36.1007571 L56.8305055,36.1823098 C57.2652009,36.3270001 57.5892467,36.603227 57.8000081,37.0083599 L58.0977086,37.6607816 C58.6219777,39.0761159 59.1409778,40.4940809 59.6626123,41.9094151 L59.8496631,42.4381924 C59.6784194,42.4881763 56.2509115,42.5065914 55.882079,42.461869 L55.7872363,42.185642 C55.4631906,41.191225 55.154952,40.1941773 54.8150992,39.2050218 C54.6886423,38.828827 54.5121296,38.4657859 54.3250788,38.1158984 C53.9878605,37.4792611 53.4346117,37.1793575 52.7206573,37.1767268 C52.3518248,37.1740961 51.9803578,37.1767268 51.5851801,37.1767268 L51.5851801,42.4671305 L48.0180427,42.4671305 Z" id="Fill-761"></path>
                <path d="M43.4951021,29.8651311 L43.4951021,32.1196691 L37.3329645,32.1196691 L37.3329645,35.0660899 C38.3235433,35.0687206 39.3114875,35.0687206 40.2994318,35.0687206 L43.2342849,35.0687206 C43.2869752,35.2502412 43.2948788,36.8418345 43.2448229,37.0786005 L37.3250609,37.0786005 L37.3250609,42.4663412 L33.7631926,42.4663412 L33.7631926,29.8651311 L43.4951021,29.8651311 Z" id="Fill-762"></path>
                <path d="M38.8457047,22.7219023 C39.8441871,21.7248546 40.8479384,20.7225454 41.8253446,19.7465435 C40.8294968,18.7547572 39.8231109,17.7498173 38.8483393,16.7764462 C37.8630295,17.752448 36.8513746,18.7494958 35.8528923,19.7333898 C36.8487401,20.7278068 37.8498569,21.7274853 38.8457047,22.7219023 M38.8615119,14.0404841 C40.7478268,15.9240887 42.6552178,17.8287393 44.5678779,19.7386513 C44.4967459,19.8649265 39.2645931,25.1106077 38.887857,25.4289264 C36.975197,23.5190144 35.0651714,21.6117331 33.1735875,19.7228669 C35.0519988,17.8445237 36.9620244,15.9372424 38.8615119,14.0404841" id="Fill-763"></path>
                <path d="M41.8337751,5.69027506 C40.8405618,4.69848879 39.8368104,3.69617959 38.8515007,2.70965479 C37.8582874,3.70144106 36.854536,4.70638099 35.8665918,5.69027506 C36.854536,6.67943059 37.8609219,7.68173979 38.8646733,8.68404899 C39.849983,7.69226272 40.8510999,6.68206133 41.8337751,5.69027506 M33.1530382,5.67449066 C35.0419876,3.78825524 36.9493787,1.88360469 38.8356936,0 C40.7378156,1.89675835 42.6452066,3.80403964 44.5420596,5.69816726 C42.6610137,7.57651048 40.7509882,9.48379176 38.8594042,11.3726579 C36.9678203,9.4864225 35.0577947,7.57914121 33.1530382,5.67449066" id="Fill-764"></path>
                <path d="M31.7072147,9.55955687 C30.7034634,10.5513431 29.694443,11.5510216 28.7091332,12.5296542 L31.7072147,15.5234281 C32.6925245,14.5342726 33.6962758,13.5267019 34.6868546,12.5349157 C33.6936413,11.5431294 32.6872554,10.5381895 31.7072147,9.55955687 M31.6597934,18.2725439 C29.7524024,16.3705241 27.8397423,14.4632428 25.9376203,12.5664845 C27.873991,10.6328959 29.7787475,8.7282453 31.6650624,6.84727135 C33.5645499,8.74666043 35.4798445,10.6565724 37.3819665,12.5559615 C35.5088242,14.431674 33.6014332,16.3336938 31.6597934,18.2725439" id="Fill-765"></path>
                <path d="M50.3769901,11.6152115 L48.3642184,11.6152115 L48.2746447,11.4363217 C47.7951625,10.4208588 46.7202791,9.81315951 45.6243196,9.94206542 C44.4993804,10.0736021 43.5957407,10.8943907 43.3559996,11.9992985 C43.0082432,13.5882611 44.2438322,15.1272398 45.8719643,15.135132 C46.846736,15.1377627 47.5923046,14.7168455 48.1192082,13.9065798 L48.4142742,13.7434743 C48.967523,13.7513665 49.5207718,13.7461051 50.0740205,13.7461051 L50.2637058,13.756628 C50.2663404,14.2064833 49.7209951,15.1877466 49.1361321,15.7586156 C48.2219544,16.6530648 47.1207258,17.0976586 45.8324465,17.0897664 C43.3586341,17.0739821 41.3221517,14.9957031 41.3432278,12.496507 C41.3669385,9.97100348 43.4482077,7.93481629 45.9747105,7.97953874 C47.2366446,8.00058461 48.311528,8.46885505 49.191457,9.36593493 C49.8026652,9.99204934 50.1952084,10.7391775 50.3769901,11.6152115" id="Fill-766"></path>
            </g>
        </g>
    </g>
</svg>