<?xml version="1.0" encoding="UTF-8"?>
<svg width="131px" height="18px" viewBox="0 0 131 18" version="1.1" xmlns="http://www.w3.org/2000/svg" xmlns:xlink="http://www.w3.org/1999/xlink">
    <title>HGF - Logo - Dell</title>
    <g id="Page-1" stroke="none" stroke-width="1" fill="none" fill-rule="evenodd">
        <g id="HGF---Home---Desktop" transform="translate(-1225.000000, -2804.000000)" fill="#010202">
            <g id="Logo---Dell" transform="translate(1225.863760, 2804.612727)">
                <path d="M129.76582,10.7344421 C129.76582,9.16389465 128.867449,8.49305779 127.147109,8.11949373 C125.426768,7.74592967 124.37823,7.59860863 124.37823,6.40162521 C124.37823,5.50454532 125.050032,4.98102949 126.325139,4.98102949 C127.895312,4.98102949 128.419581,5.65449709 128.419581,6.55157698 L128.569748,6.69889802 L129.244185,6.69889802 L129.391718,6.55157698 C129.391718,4.83107772 127.969078,4.15761013 126.248738,4.15761013 C124.301829,4.15761013 123.329692,5.20464178 123.329692,6.40162521 C123.329692,7.81959019 124.37823,8.49305779 126.09857,8.79296133 C127.821545,9.16389465 128.719916,9.31384642 128.719916,10.7370729 C128.719916,11.631522 128.195647,12.3049896 126.472672,12.3049896 C124.902499,12.3049896 124.228063,11.4079097 124.228063,10.3608781 L124.077895,10.213557 L123.406093,10.213557 L123.255926,10.3608781 C123.255926,11.9314256 124.451997,13.1257783 126.549073,13.1257783 C128.719916,13.2020695 129.76582,12.1550379 129.76582,10.7344421 L129.76582,10.7344421 Z M118.613905,5.05732074 C119.662443,5.05732074 120.355321,5.48613019 120.787382,6.06489141 C121.216809,6.64365263 121.385418,7.37236561 121.385418,7.97217269 L121.232616,8.12212446 L115.995194,8.12212446 L115.847661,7.96954196 C115.847661,7.37236561 116.01627,6.64365263 116.445696,6.06489141 C116.877757,5.48613019 117.568001,5.05732074 118.613905,5.05732074 L118.613905,5.05732074 Z M118.613905,4.16024086 C116.219128,4.16024086 114.799123,5.87810938 114.799123,8.34310602 L114.799123,8.71930081 C114.799123,11.1106369 115.995194,13.2020695 118.764072,13.2020695 C121.161484,13.2020695 122.059854,11.631522 122.207387,10.5844904 L122.05722,10.4371693 L121.385418,10.4371693 L121.232616,10.5844904 C120.858514,11.631522 120.189347,12.3049896 118.840473,12.3049896 C116.595864,12.3049896 115.921427,10.2109263 115.921427,9.16389465 L116.074229,9.01657362 L122.283788,9.01657362 L122.433956,8.86662185 L122.433956,8.34573675 C122.433956,5.9517699 121.008682,4.16024086 118.613905,4.16024086 L118.613905,4.16024086 Z M113.600417,12.8285055 L113.600417,4.53380492 L113.450249,4.38385315 L112.778447,4.38385315 L112.554513,4.53380492 L112.554513,12.8285055 L112.702046,12.9758265 L113.376483,12.9758265 L113.600417,12.8285055 Z M113.600417,2.81330566 L113.600417,1.76890474 L113.450249,1.61895297 L112.778447,1.61895297 L112.554513,1.76890474 L112.554513,2.81330566 L112.702046,2.96325743 L113.376483,2.96325743 L113.600417,2.81330566 Z M107.016756,4.98102949 C107.875609,4.98102949 108.568488,5.2783023 109.04797,5.88600158 C109.524818,6.49107012 109.785635,7.40919587 109.785635,8.64037883 C109.785635,9.87419251 109.524818,10.7896875 109.04797,11.3973868 C108.568488,12.0050861 107.875609,12.3049896 107.016756,12.3049896 C106.155269,12.3049896 105.462391,12.0050861 104.982909,11.3973868 C104.506061,10.7896875 104.247878,9.87419251 104.247878,8.64037883 C104.247878,7.44602613 104.506061,6.53053112 104.982909,5.91230891 C105.462391,5.29671743 106.155269,4.98102949 107.016756,4.98102949 L107.016756,4.98102949 Z M107.016756,4.16024086 C104.619345,4.16024086 103.346873,6.09909094 103.346873,8.64037883 C103.346873,11.2553272 104.545579,13.1257783 107.016756,13.1257783 C108.586929,13.1257783 109.411533,12.4523107 109.785635,11.7051825 L109.785635,11.7788431 C109.785635,14.0228581 109.264,15.7407267 107.166924,15.7407267 C105.594117,15.7407267 105.069848,15.0725205 104.922315,14.1754406 L104.769513,14.0228581 L104.097711,14.0228581 L103.944908,14.1728099 C104.095076,15.5960364 105.146249,16.564146 107.240691,16.564146 C109.4853,16.564146 110.90794,15.1435503 110.90794,11.7051825 L110.90794,4.53380492 L110.757772,4.38648388 L110.233503,4.38648388 L110.08597,4.53380492 L109.933168,5.58083657 L109.785635,5.58083657 C109.411533,4.90736897 108.586929,4.15761013 107.016756,4.15761013 L107.016756,4.16024086 Z M98.4861871,5.05732074 C99.3476745,5.05732074 100.072167,5.41246967 100.588533,6.04647628 C101.102264,6.68311362 101.405233,7.59860863 101.405233,8.71930081 C101.405233,9.83999298 101.102264,10.7528573 100.588533,11.3894946 C100.080071,12.0287627 99.3028877,12.3944345 98.4861871,12.3786501 C97.6694865,12.3944345 96.8896692,12.0287627 96.3812072,11.3894946 C95.8648417,10.7528573 95.5618721,9.83999298 95.5618721,8.71930081 C95.5618721,7.55914764 95.8622072,6.64628336 96.3785727,6.02016895 C96.8923037,5.39405454 97.6220652,5.05732074 98.4835526,5.05732074 L98.4861871,5.05732074 Z M98.4861871,4.23390138 C96.2415778,4.23390138 94.5212375,5.80444886 94.5212375,8.71930081 C94.5212375,11.6341528 96.2415778,13.1994388 98.4861871,13.1994388 C100.728162,13.1994388 102.451137,11.6341528 102.451137,8.71930081 C102.451137,5.80444886 100.730796,4.23390138 98.4861871,4.23390138 L98.4861871,4.23390138 Z M93.3225318,12.8285055 L93.3225318,1.02177662 L93.0959633,0.871824852 L92.4241612,0.871824852 L92.2713591,1.01914589 L92.2713591,12.8285055 L92.4241612,12.9758265 L93.0959633,12.9758265 L93.3225318,12.8285055 Z M87.0339373,5.05732074 C87.8954247,5.05732074 88.6251862,5.41246967 89.1389172,6.04647628 C89.6552827,6.68311362 89.9529833,7.59860863 89.9529833,8.71930081 C89.9529833,9.83999298 89.6552827,10.7528573 89.1415517,11.3894946 C88.6251862,12.0261319 87.8954247,12.3786501 87.0339373,12.3786501 C86.2172367,12.3944345 85.4400539,12.0287627 84.9289574,11.3894946 C84.4152264,10.755488 84.1175258,9.83999298 84.1175258,8.71930081 C84.1175258,7.55914764 84.4152264,6.64628336 84.9289574,6.02016895 C85.4453229,5.39405454 86.1724499,5.05732074 87.0339373,5.05732074 L87.0339373,5.05732074 Z M87.0339373,4.23390138 C84.7919625,4.23390138 83.0689877,5.80444886 83.0689877,8.71930081 C83.0689877,11.6341528 84.7919625,13.1994388 87.0339373,13.1994388 C89.2785466,13.1994388 91.004156,11.6341528 91.004156,8.71930081 C91.004156,5.80444886 89.2811812,4.23390138 87.0339373,4.23390138 L87.0339373,4.23390138 Z M82.0204495,12.8285055 L82.0204495,7.5959779 C82.0204495,5.35459355 80.8243783,4.15761013 78.8774695,4.15761013 C77.6813983,4.15761013 76.6328602,4.68112595 76.1085911,5.58083657 L75.9610581,5.58083657 L75.8108905,4.53380492 L75.660723,4.38385315 L75.1364539,4.38385315 L74.9862864,4.53380492 L74.9862864,12.8285055 L75.1364539,12.9758265 L75.8108905,12.9758265 L75.9610581,12.8285055 L75.9610581,8.116863 C75.9610581,6.17275145 76.8567942,4.97839876 78.727302,4.97839876 C80.1499417,4.97839876 80.9745459,5.87547865 80.9745459,7.59334717 L80.9745459,12.8258747 L81.1247134,12.9758265 L81.870282,12.9758265 L82.0204495,12.8258747 L82.0204495,12.8285055 Z M73.1895451,12.8285055 L73.1895451,7.5959779 C73.1895451,5.35459355 71.9934739,4.15761013 70.0465651,4.15761013 C68.8504939,4.15761013 67.8019558,4.68112595 67.2776867,5.58083657 L67.1275191,5.58083657 L67.1275191,1.09280641 L66.9035851,0.869194119 L66.231783,0.869194119 L66.0816155,1.01914589 L66.0816155,12.823244 L66.231783,12.9758265 L66.9035851,12.9758265 L67.0537526,12.8258747 L67.0537526,8.116863 C67.0537526,6.17275145 67.9521233,4.97839876 69.8226311,4.97839876 C71.2452708,4.97839876 72.0672404,5.87547865 72.0672404,7.59334717 L72.0672404,12.8258747 L72.217408,12.9758265 L72.88921,12.9758265 L73.1895451,12.8258747 L73.1895451,12.8285055 Z M58.2228482,8.64300956 C58.2228482,6.24904271 59.4189194,4.98102949 61.1418942,4.98102949 C62.8622345,4.98102949 63.5366711,6.02543042 63.7606051,7.07246207 L63.9081381,7.22241384 L64.6589758,7.22241384 L64.8091433,7.07246207 C64.6589758,5.35459355 63.236336,4.15761013 61.1418942,4.15761013 C58.8946503,4.15761013 57.1769446,5.58083657 57.1769446,8.64300956 C57.1769446,11.7814738 58.8946503,13.1257783 61.1418942,13.1257783 C63.236336,13.1257783 64.5825747,11.9314256 64.8091433,10.2109263 L64.6589758,10.0636053 L63.9845391,10.0636053 L63.8343716,10.213557 C63.6868386,11.2553272 62.9386355,12.3049896 61.2156607,12.3049896 C59.4953204,12.3049896 58.2228482,11.1080062 58.2228482,8.64300956 L58.2228482,8.64300956 Z M52.6877259,5.05732074 C53.7336295,5.05732074 54.4238732,5.48613019 54.8559342,6.06489141 C55.2853606,6.64365263 55.4539698,7.37236561 55.4539698,7.96954196 L55.3064368,8.12212446 L50.069015,8.12212446 L49.9162129,7.96954196 C49.9162129,7.37236561 50.0848221,6.64365263 50.5142485,6.06489141 C50.9436749,5.48613019 51.6365532,5.05732074 52.6877259,5.05732074 L52.6877259,5.05732074 Z M52.6877259,4.16024086 C50.2903145,4.16024086 48.8650402,5.87810938 48.8650402,8.34310602 L48.8650402,8.71930081 C48.8650402,11.1106369 50.0637459,13.1994388 52.8352589,13.1994388 C55.2300358,13.1994388 56.1257719,11.631522 56.2759394,10.5844904 L56.1284064,10.4371693 L55.4539698,10.4371693 L55.3064368,10.5844904 C54.9297007,11.631522 54.2552641,12.3049896 52.9090254,12.3049896 C50.6617815,12.3049896 49.9899794,10.2109263 49.9899794,9.16389465 L50.1427815,9.01657362 L56.3497059,9.01657362 L56.502508,8.86662185 L56.502508,8.34310602 C56.502508,5.87810938 55.1562693,4.16024086 52.6877259,4.16024086 L52.6877259,4.16024086 Z M50.664416,1.54266172 L50.664416,1.02177662 L50.4378475,0.871824852 L41.4594101,0.871824852 L41.3118771,1.01914589 L41.3118771,1.54266172 L41.4594101,1.69261349 L45.2741922,1.69261349 L45.4243597,1.84256526 L45.4243597,12.7522142 L45.5745272,12.902166 L46.2489638,12.902166 L46.3991314,12.7522142 L46.3991314,1.91885651 L46.5466644,1.76627401 L50.440482,1.76627401 L50.664416,1.54266172 Z" id="Fill-630"></path>
                <path d="M2.65295965,3.18318669 L4.77638117,3.18318669 C5.21634568,3.18318669 5.65104115,3.28315454 6.04885337,3.4646751 C6.44930011,3.64619567 6.81549812,3.91453041 7.12373673,4.24337201 C7.43460985,4.57747508 7.68752358,4.96945427 7.86403629,5.41930958 C8.040549,5.86390342 8.13802616,6.36637339 8.13802616,6.89515068 C8.13802616,7.37920552 8.05108707,7.85273742 7.88774695,8.2920698 C7.72440683,8.73140218 7.48730021,9.1339043 7.18696516,9.4785303 C6.88926462,9.82052556 6.53097017,10.102014 6.12261988,10.2966882 C5.71953862,10.4939932 5.263767,10.6044839 4.77638117,10.6044839 L2.65295965,10.6044839 L2.65295965,3.18318669 Z M17.6960575,0 L10.7962548,5.30618807 C10.0875695,2.6544094 7.78500075,0.707667125 4.95552839,0.707667125 L0,0.707667125 L0,12.9011137 L4.95552839,12.9011137 C7.78500075,12.9011137 10.2640822,10.9570021 10.7962548,8.3078542 L17.6960575,13.6087808 L24.5984947,8.3078542 L24.5984947,12.9011137 L32.3834955,12.9011137 L32.3834955,10.4282248 L27.2567234,10.4282248 L27.2567234,0.707667125 L24.421982,0.707667125 L24.421982,5.3009266 L17.8725702,10.6071147 L16.4578341,9.36803952 L19.6456009,6.89515068 L23.0072459,4.24337201 L21.0629716,2.65704013 L14.5135598,7.77644617 L13.0988236,6.54000175 L19.6456009,1.59159335 L17.6986921,0 L17.6960575,0 Z M41.235476,10.4282248 L41.235476,12.9011137 L33.4504753,12.9011137 L33.4504753,0.707667125 L36.2773131,0.707667125 L36.2773131,10.4282248 L41.235476,10.4282248 Z" id="Fill-631"></path>
            </g>
        </g>
    </g>
</svg>