<?xml version="1.0" encoding="UTF-8"?>
<svg width="87px" height="18px" viewBox="0 0 87 18" version="1.1" xmlns="http://www.w3.org/2000/svg" xmlns:xlink="http://www.w3.org/1999/xlink">
    <title>HGF - Logo - Dentons</title>
    <g id="Page-1" stroke="none" stroke-width="1" fill="none" fill-rule="evenodd">
        <g id="HGF---Home---Desktop" transform="translate(-1434.000000, -2804.000000)" fill="#010202">
            <g id="Logo---Dentons" transform="translate(1434.665120, 2804.652977)">
                <path d="M27.0093422,6.26903627 L25.9766111,6.26903627 L25.9766111,10.2151355 L27.0093422,10.2151355 C28.3687535,10.2151355 28.7744693,9.40486978 28.7744693,8.24208588 C28.7744693,7.07930198 28.3687535,6.26903627 27.0093422,6.26903627" id="Fill-575"></path>
                <path d="M56.7580562,6.08541113 C55.3828378,6.08541113 54.9639494,6.90883049 54.9639494,8.24261203 C54.9639494,9.57376282 55.3828378,10.3971822 56.7580562,10.3971822 C58.1306401,10.3971822 58.5495285,9.57376282 58.5495285,8.24261203 C58.5495285,6.90883049 58.1306401,6.08541113 56.7580562,6.08541113" id="Fill-576"></path>
                <path d="M72.0988546,11.6646693 C71.4428597,11.6646693 70.2942098,11.4963024 69.8358037,11.2858437 L69.8358037,9.96521587 C70.3574382,10.1756745 71.2347327,10.3571951 72.1120272,10.3571951 C73.1842761,10.3571951 73.5636467,10.0835988 73.5636467,9.54692935 C73.5636467,9.02604425 73.2237938,8.85504662 72.2806364,8.77612464 C70.3179205,8.60775774 69.7304229,8.17631756 69.7304229,6.90830435 C69.7304229,5.61661454 70.5418545,4.8195025 72.4782252,4.8195025 C73.1315857,4.8195025 74.1511442,4.93788548 74.714931,5.18517436 L74.714931,6.50317149 C74.124799,6.28218994 73.32654,6.12434597 72.4650526,6.12434597 C71.49555,6.12434597 71.1583317,6.36111192 71.1583317,6.90830435 C71.1583317,7.39235918 71.5218952,7.49758849 72.4650526,7.57387975 C74.4277686,7.74487738 75.0152661,8.16316389 75.0152661,9.54692935 C75.0152661,10.7228669 74.2565249,11.6646693 72.0988546,11.6646693 L72.0988546,11.6646693 Z M67.8124938,11.5068253 L66.5953465,11.5068253 L63.2732193,7.35289819 L63.3390822,11.5068253 L61.8716557,11.5068253 L61.8716557,4.97734647 L63.088803,4.97734647 L66.4241028,9.12864283 L66.3477018,4.97734647 L67.8124938,4.97734647 L67.8124938,11.5068253 Z M56.7580562,11.6646693 C54.4686601,11.6646693 53.4886194,10.396656 53.4886194,8.24208588 C53.4886194,6.08488498 54.4686601,4.8195025 56.7580562,4.8195025 C59.0474524,4.8195025 60.0274931,6.08488498 60.0274931,8.24208588 C60.0274931,10.396656 59.0474524,11.6646693 56.7580562,11.6646693 L56.7580562,11.6646693 Z M52.2951827,6.26903627 L50.216548,6.26903627 L50.216548,11.509456 L48.7491214,11.509456 L48.7491214,6.26903627 L46.6704867,6.26903627 L46.6704867,4.97734647 L52.2951827,4.97734647 L52.2951827,6.26903627 Z M44.9738571,11.5068253 L43.7593443,11.5068253 L40.4345826,7.35289819 L40.5004455,11.5068253 L39.0356535,11.5068253 L39.0356535,4.97734647 L40.2528008,4.97734647 L43.5881006,9.12864283 L43.5090651,4.97734647 L44.9738571,4.97734647 L44.9738571,11.5068253 Z M37.0913792,6.26903627 L33.5716631,6.26903627 L33.5716631,7.56072608 L36.6724908,7.56072608 L36.6724908,8.82873929 L33.5716631,8.82873929 L33.5716631,10.2151355 L37.0913792,10.2151355 L37.0913792,11.5068253 L32.1068711,11.5068253 L32.1068711,4.97734647 L37.0913792,4.97734647 L37.0913792,6.26903627 Z M27.0485965,11.5068253 L24.5115557,11.5068253 L24.5115557,4.97734647 L27.0485965,4.97734647 C29.3116475,4.97734647 30.2416323,6.24272895 30.2416323,8.24208588 C30.2416323,10.2414428 29.3116475,11.5068253 27.0485965,11.5068253 L27.0485965,11.5068253 Z M22.3301747,10.5597615 L22.230063,10.8728187 L21.8796722,11.3042589 C21.7005249,11.4515799 21.492398,11.5725936 21.2552914,11.6594078 C21.0181848,11.7488527 20.8284995,11.7883137 20.68887,11.7830522 C20.4623015,11.7830522 20.1883116,11.6594078 19.8616314,11.4094882 C19.5349511,11.1621993 19.305748,10.9648943 19.1792912,10.820204 L18.9474536,10.6018532 C18.929012,10.6097454 18.7709409,10.7254976 18.4732404,10.9517407 C18.1755398,11.1806144 17.7961692,11.2963667 17.3351286,11.3042589 L17.0874839,11.2647979 L16.961027,11.1490456 L16.9109712,11.017509 L17.1322707,10.8570343 C17.5564281,10.6807752 17.7829966,10.5808073 17.8198799,10.5597615 L18.1597327,10.2730116 L18.4100119,10.0599222 L18.5206617,9.91523194 L18.4495297,9.74160358 C18.3968393,9.67057379 18.3309764,9.51009909 18.2519408,9.26281021 C18.1702708,9.01552132 18.1202149,8.84978516 18.0965043,8.76823244 C18.0754281,8.68931046 18.0411794,8.52357429 17.9937581,8.27365467 C17.9437022,8.02899652 17.912088,7.82906083 17.8962809,7.68173979 L17.8514941,7.38183625 L17.6697124,7.30817573 C16.8635498,7.31606793 16.3445498,7.33185233 16.1100777,7.35552892 L15.7333416,7.49232703 L15.720169,7.68173979 L15.7623213,7.98164333 L15.9309305,8.02110432 L16.3445498,8.02110432 C16.6317123,8.01321212 16.8609153,7.98164333 17.02689,7.92376721 L17.2086717,7.86062962 L17.5643316,7.95270527 L17.7961692,8.23156295 L17.8567631,8.52357429 L17.8620322,8.89187688 C17.8567631,9.21808775 17.835687,9.46800737 17.8014383,9.6468972 C17.764555,9.82315629 17.6565398,10.0493993 17.474758,10.3256263 C17.2903418,10.6018532 17.0031793,10.741282 16.6132706,10.741282 C16.2681488,10.7465435 16.0257731,10.6518371 15.8914127,10.4519014 L15.7675903,10.209874 L15.7333416,10.1177984 L15.8150117,10.0599222 L15.9414685,10.102014 L16.228631,10.1467364 C16.518428,10.1519979 16.7265549,10.0467686 16.8582808,9.82578703 C16.9900067,9.6074362 17.0558697,9.34436292 17.0558697,9.04182865 L16.9294128,8.67878752 C16.8530118,8.61564994 16.6817681,8.59197334 16.4104127,8.60512701 L16.1337884,8.62617287 L15.786032,8.71035632 L15.7149,8.86556955 C15.6990929,8.93396861 15.6727477,9.1260121 15.6332299,9.44959224 C15.5963467,9.77317237 15.5173111,10.091491 15.4040269,10.4045482 C15.2881081,10.7202362 15.0773466,10.9570021 14.7770116,11.1174768 C14.4766765,11.2753208 14.2290318,11.3489813 14.0393465,11.3358277 L13.5045394,11.085908 L13.3069505,10.7728508 L13.52825,10.5597615 L13.8654683,10.4519014 L14.408179,10.0283535 L14.7822806,9.40223905 C14.8744887,9.19704189 14.9324481,8.9734296 14.9561588,8.73140218 C14.9772349,8.4920055 14.9904075,8.33942299 14.9904075,8.27365467 L14.9508898,7.95270527 L14.8850268,7.57387975 L14.7770116,7.17137763 L14.7401283,6.7925521 L14.9377172,6.48475636 L15.27757,6.37426559 L15.5752705,6.49001783 L15.7307071,6.61892374 L15.9493721,6.70310719 L16.3155701,6.69784572 L16.8925295,6.66627693 L17.4247022,6.655754 L17.6618088,6.65049253 L17.769824,6.6241852 L17.7909002,6.53210956 L17.7961692,6.45844904 L17.7856312,6.29008214 L17.7671895,5.8218117 L17.7566515,5.70342872 L17.7671895,5.54558475 C17.8119763,5.26146561 17.9726819,5.11677531 18.2466718,5.10888311 L18.6313114,5.27461927 L18.7182505,5.661337 L18.7024434,6.09803864 L18.6945399,6.43740317 L18.7314231,6.60313934 L18.8894942,6.65049253 L19.0396617,6.65049253 L19.4769917,6.6399696 L19.9775501,6.6399696 L20.4385908,6.65049253 L20.7073116,6.65049253 L21.0155502,6.94776534 L20.907535,7.18190056 C20.8443066,7.24503815 20.4359563,7.28449914 19.6798496,7.2976528 L19.1977328,7.30817573 L18.8710526,7.30817573 L18.7182505,7.34500599 L18.6892708,7.55283388 L18.7024434,8.04215019 L18.8183622,8.53672795 L19.000144,8.97606033 L19.1318699,9.12075064 L19.2662303,8.91292274 L19.3900526,8.60512701 L19.5296821,8.09476484 L19.6324283,7.74487738 L19.8326517,7.56335682 L20.1066415,7.63964807 L20.2410019,8.01058139 L20.2172913,8.49989769 C20.1725045,8.7892783 20.1013725,9.03656719 20.0065298,9.24176434 L19.7984029,9.6468972 L19.73254,9.7994797 L19.9090527,9.9757388 C20.2936923,10.2309199 20.8917279,10.367718 21.705794,10.3913946 L22.1773727,10.367718 L22.3591544,10.4229634 L22.3301747,10.5597615 L22.3301747,10.5597615 Z M12.6983769,10.4519014 C12.6404175,10.6886674 12.4533667,10.9175411 12.139859,11.1437842 C11.8263514,11.3726579 11.5312854,11.480518 11.254661,11.4726258 L10.8041584,11.2989974 C10.669798,11.1806144 10.3984426,10.9070182 9.99272685,10.4782088 C9.58437656,10.05203 9.27613795,9.70740405 9.06537651,9.44959224 C8.85198055,9.19178042 8.71235109,9.02604425 8.6412191,8.95501447 L8.50685869,8.7971705 L8.41201604,8.65774166 L8.35405664,8.61564994 L8.31453887,8.65774166 C8.25131044,8.83663149 8.09060484,9.17599602 7.83505659,9.67846599 C7.57950834,10.180936 7.1342748,10.5781766 6.50199047,10.8675572 C5.87234067,11.1595686 5.30328477,11.3042589 4.79745731,11.3042589 C4.22049787,11.3095203 3.87801052,11.1937681 3.76999529,10.9517407 C3.65934553,10.712344 3.60665517,10.5413464 3.60665517,10.4440092 L3.60665517,10.3992868 L3.60665517,10.3466721 L3.68305619,10.2835345 L3.78843691,10.2940575 L4.0492542,10.2940575 L4.67363497,10.2624887 C5.56410206,10.2203969 6.2280006,9.99941539 6.66796511,9.59691327 C7.1052951,9.19704189 7.36611238,8.74455584 7.45041696,8.23156295 L7.49783828,7.93692087 L7.50837636,7.74487738 L7.43987889,7.68173979 L7.32659461,7.69226272 L6.83393974,7.70278565 L6.44139656,7.73435445 L6.0093356,7.77644617 C5.77222898,7.80538423 5.57727465,7.83958376 5.42183808,7.88167548 L5.11623399,7.93692087 L4.90283803,7.82379936 L4.84224412,7.60018707 L4.89493448,7.38183625 L5.18209694,7.06351758 L5.65367567,6.86358189 L5.78803609,6.89251995 L5.98825946,6.92145801 L6.23063512,6.91619654 L6.53623921,6.89251995 L6.96039661,6.89251995 L7.29761491,6.87147409 L7.52154895,6.84779749 L7.53999057,6.7925521 L7.54525961,6.74519891 L7.53735605,6.65049253 L7.52681798,6.1506533 L7.49783828,5.81128877 L7.49256925,5.661337 L7.56633575,5.43246324 L7.75865557,5.30618807 L7.92989924,5.26935781 C8.23813785,5.30355734 8.43045766,5.40352518 8.50685869,5.57189208 L8.62277748,6.02437812 L8.61223941,6.65049253 L8.61223941,6.76624478 L8.62277748,6.85042822 L8.6701988,6.85042822 L8.88096024,6.83990529 L9.19973692,6.85042822 L9.88207709,6.87147409 L10.899001,6.95828827 L11.2994478,7.03194879 L11.4364427,7.2976528 L11.2757371,7.6264944 C11.1729909,7.71857005 10.6381838,7.74750811 9.66868113,7.71330858 L9.06537651,7.69226272 L8.71762013,7.68173979 L8.58852874,7.72909298 L8.59379778,7.77644617 L8.84934603,8.09476484 C9.01795518,8.24997808 9.38151867,8.54462015 9.93476745,8.97606033 C10.4880162,9.40750051 11.0149198,9.73108065 11.5154783,9.93890854 C12.0160367,10.1467364 12.3348134,10.2624887 12.4718083,10.2835345 L12.6878388,10.3361492 L12.7010114,10.3835024 L12.6983769,10.4519014 L12.6983769,10.4519014 Z M19.4084943,6.05594692 L19.6166212,5.8139195 L19.7457126,5.661337 L19.9485704,5.37458712 L20.1487938,5.27988074 L20.4280527,5.36932566 L20.6151035,5.6455526 L20.5729512,5.91651808 C20.4965502,6.04542399 20.2857888,6.15328403 19.9485704,6.24535968 L19.6324283,6.33217386 L19.371611,6.34269679 L19.2899409,6.23483675 L19.4084943,6.05594692 L19.4084943,6.05594692 Z M85.4400539,7.43445091 L79.0803274,1.08386192 C78.2741649,0.276226945 77.4442917,0 76.1481088,0 L1.14338082,0 C0.513731014,0 0,0.512992897 0,1.14173804 L0,15.3424337 C0,15.9711789 0.513731014,16.4868025 1.14338082,16.4868025 L76.1481088,16.4868025 C77.4442917,16.4868025 78.2741649,16.2053141 79.0803274,15.4003098 L85.4400539,9.04972085 C85.8826529,8.60512701 85.8826529,7.87904475 85.4400539,7.43445091 L85.4400539,7.43445091 Z" id="Fill-577"></path>
            </g>
        </g>
    </g>
</svg>