<?xml version="1.0" encoding="UTF-8"?>
<svg width="76px" height="45px" viewBox="0 0 76 45" version="1.1" xmlns="http://www.w3.org/2000/svg" xmlns:xlink="http://www.w3.org/1999/xlink">
    <title>HGF - Logo - DLA</title>
    <g id="Page-1" stroke="none" stroke-width="1" fill="none" fill-rule="evenodd">
        <g id="HGF---Home---Desktop" transform="translate(-335.000000, -2894.000000)" fill="#010202">
            <g id="Logo---DLA" transform="translate(335.896964, 2894.991026)">
                <path d="M41.5713771,27.6442665 C41.5713771,26.8524159 41.9560167,26.5077899 42.7200269,26.5077899 L45.5152506,26.5077899 C46.4399664,26.5077899 47.2066111,26.7129871 47.7440528,27.2128263 C48.2472458,27.6810967 48.5502153,28.3861331 48.5502153,29.3305662 C48.5502153,30.8826985 47.6070579,32.1559732 45.7233775,32.1559732 L43.4945752,32.1559732 L43.4945752,34.2237292 C43.4945752,34.8024904 43.1257427,35.1918389 42.5329762,35.1918389 C41.9402096,35.1918389 41.5713771,34.8024904 41.5713771,34.2237292 L41.5713771,27.6442665 Z M43.4945752,30.6091023 L45.3176617,30.6091023 C45.7892404,30.6091023 46.0632303,30.4854579 46.2660882,30.27763 C46.4900222,30.0487562 46.605941,29.7172839 46.605941,29.3331969 C46.605941,28.9122797 46.4952913,28.5913303 46.2634537,28.3782409 C45.9894638,28.1230598 45.6259003,28.0572915 45.0989967,28.0572915 L43.4945752,28.0572915 L43.4945752,30.6091023 Z" id="Fill-674"></path>
                <path d="M52.558371,27.6442665 C52.558371,26.8524159 52.9430107,26.5077899 53.7070209,26.5077899 L56.5022445,26.5077899 C57.4269603,26.5077899 58.1936051,26.7129871 58.7310468,27.2128263 C59.2368742,27.6810967 59.5372093,28.3861331 59.5372093,29.3305662 C59.5372093,30.8826985 58.5940518,32.1559732 56.7103714,32.1559732 L54.4815692,32.1559732 L54.4815692,34.2237292 C54.4815692,34.8024904 54.1127367,35.1918389 53.5199701,35.1918389 C52.9298381,35.1918389 52.558371,34.8024904 52.558371,34.2237292 L52.558371,27.6442665 Z M54.4815692,30.6091023 L56.3046557,30.6091023 C56.7762344,30.6091023 57.0502243,30.4854579 57.2530822,30.27763 C57.4770162,30.0487562 57.5955695,29.7172839 57.5955695,29.3331969 C57.5955695,28.9122797 57.4822852,28.5913303 57.2504476,28.3782409 C56.9764578,28.1230598 56.6128943,28.0572915 56.0859907,28.0572915 L54.4815692,28.0572915 L54.4815692,30.6091023 Z" id="Fill-675"></path>
                <path d="M69.4356204,28.0562392 L71.061118,28.0562392 C71.6433465,28.0562392 71.9937374,28.1640993 72.225575,28.3798194 C72.4574125,28.5929087 72.5680623,28.8822893 72.5680623,29.3058373 C72.5680623,29.7004472 72.4521435,30.008243 72.2387476,30.2239631 C72.0016409,30.4633597 71.6538845,30.5633276 71.21392,30.5633276 L69.4356204,30.5633276 L69.4356204,28.0562392 Z M73.0765243,31.8181871 C74.0328543,31.3604396 74.5123366,30.4054836 74.5123366,29.3032066 C74.5123366,28.3587735 74.209367,27.6800444 73.7035396,27.211774 C73.1687324,26.7145655 72.4020877,26.5093683 71.4773718,26.5093683 L68.6610721,26.5093683 C67.8970619,26.5093683 67.5124222,26.8513636 67.5124222,27.6432142 L67.5124222,34.2226769 C67.5124222,34.8040689 67.8838893,35.1934173 68.4766558,35.1934173 C69.0667879,35.1934173 69.4356204,34.8040689 69.4356204,34.2226769 L69.4356204,32.1101985 L71.2270926,32.1101985 L72.6550014,34.6199176 C72.8552248,34.9987431 73.0976004,35.1881559 73.5586411,35.1881559 C73.9380117,35.1881559 74.4385701,34.9619128 74.4385701,34.3015989 L74.2725955,33.7912367 C74.1619457,33.6097162 73.5243923,32.5600538 73.0765243,31.8181871 L73.0765243,31.8181871 Z" id="Fill-676"></path>
                <path d="M19.4651364,32.9770249 C19.1463597,33.3190202 18.6879536,33.4926486 18.0451312,33.4926486 L16.5750701,33.4926486 L16.5750701,28.1259536 L17.8080246,28.1259536 C18.5088063,28.1259536 18.9988267,28.2232908 19.3887354,28.6231621 C19.8286999,29.0703867 20.0789791,29.8201456 20.0789791,30.8908538 C20.0789791,31.7984566 19.8761212,32.5376926 19.4651364,32.9770249 M20.8298167,27.3998714 C20.1738217,26.7842799 19.3755628,26.508053 18.1452429,26.508053 L15.7478315,26.508053 C15.0628568,26.508053 14.651872,26.7790184 14.651872,27.6418988 L14.651872,33.9767034 C14.651872,34.836953 15.0628568,35.1079185 15.7478315,35.1079185 L18.313852,35.1079185 C20.5742685,35.1079185 22.0285224,33.7031072 22.0285224,30.8803309 C22.0285224,29.3124141 21.6149031,28.1338458 20.8298167,27.3998714" id="Fill-677"></path>
                <path d="M32.0462772,31.6569232 C32.4256478,30.5546462 32.828729,29.3734471 33.113257,28.5395048 C33.3793433,29.3208325 33.7560794,30.428371 34.1723332,31.6569232 L32.0462772,31.6569232 Z M36.7383538,33.6036655 C36.6461457,33.3327 34.9890338,28.6131654 34.725582,27.858145 C34.5622419,27.3846131 34.4120744,27.1057555 34.206582,26.8952968 C33.9141505,26.598024 33.5426834,26.5085791 33.1764854,26.5085791 C32.7365209,26.5085791 32.4019371,26.6506387 32.1490234,26.8874046 C31.9171858,27.1031247 31.7617492,27.4109205 31.6352924,27.7660694 C31.3929167,28.4474292 29.5698303,33.3932069 29.4907947,33.6036655 C29.3985866,33.8535851 29.3063785,34.1377042 29.3063785,34.3402707 C29.3063785,34.8506328 29.6725765,35.174213 30.1968455,35.174213 C30.6183684,35.174213 30.9028964,34.9874309 31.0398913,34.5796674 C31.1136578,34.3718395 31.2980741,33.8404314 31.5325462,33.1564409 L34.6834297,33.1564409 C34.8388663,33.6194499 34.9995719,34.0903511 35.157643,34.5559908 C35.2893689,34.9137704 35.5264755,35.174213 36.0270339,35.174213 C36.5144198,35.174213 36.9254046,34.8032796 36.9254046,34.3402707 C36.9254046,34.1271813 36.8331964,33.8772617 36.7383538,33.6036655 L36.7383538,33.6036655 Z" id="Fill-678"></path>
                <path d="M51.2998618,34.2234661 C51.2998618,34.8022274 50.9310293,35.1942065 50.3408972,35.1942065 C49.7481307,35.1942065 49.3766636,34.8022274 49.3766636,34.2234661 L49.3766636,27.4782672 C49.3766636,26.899506 49.7481307,26.5101576 50.3408972,26.5101576 C50.9310293,26.5101576 51.2998618,26.899506 51.2998618,27.4782672 L51.2998618,34.2234661 Z" id="Fill-679"></path>
                <path d="M24.0194277,35.1089708 C23.3318185,35.1089708 22.9102956,34.8380053 22.9102956,33.975125 L22.9102956,27.4798457 C22.9102956,26.9010844 23.2791281,26.5091053 23.8718947,26.5091053 C24.4620267,26.5091053 24.8334938,26.9010844 24.8334938,27.4798457 L24.8334938,33.4963316 L27.8025956,33.4963316 C28.1582555,33.4963316 28.4138037,33.5620999 28.5824129,33.7357283 L28.7773672,34.2960744 L28.5876819,34.8590512 C28.4322454,35.0247873 28.1766971,35.1089708 27.8025956,35.1089708 L24.0194277,35.1089708 Z" id="Fill-680"></path>
                <path d="M61.4606709,35.1089708 C60.7756962,35.1089708 60.3515388,34.8380053 60.3515388,33.975125 L60.3515388,27.6429511 C60.3515388,26.7800707 60.8020414,26.5091053 61.4870161,26.5091053 L65.5362703,26.5091053 C65.8945647,26.5091053 66.150113,26.5748736 66.3187221,26.7485019 L66.5136764,27.3114788 L66.3213566,27.8718249 C66.1685546,28.037561 65.9130063,28.1217445 65.5362703,28.1217445 L62.2747369,28.1217445 L62.2747369,30.0237643 L65.0963057,30.0237643 C65.4493312,30.0237643 65.7154175,30.0921633 65.8761231,30.2447458 C66.0157525,30.3789132 66.0763465,30.568326 66.0763465,30.8077227 C66.0763465,31.0471193 66.0157525,31.2365321 65.8813921,31.3680687 C65.7338591,31.5127591 65.4835799,31.5969425 65.0910367,31.5969425 L62.2747369,31.5969425 L62.2747369,33.4963316 L65.6284784,33.4963316 C65.9841383,33.4963316 66.2396866,33.5647306 66.4082957,33.7357283 L66.6032501,34.2987051 L66.4135648,34.8616819 C66.2581282,35.0247873 66.0025799,35.1089708 65.6284784,35.1089708 L61.4606709,35.1089708 Z" id="Fill-681"></path>
                <path d="M6.93141691,43.3913069 C5.32699544,43.3913069 4.2547466,43.0835112 3.3036856,42.5415802 C2.22089869,41.9259887 1.3304316,41.007863 0.748203118,39.9055859 C0.163340117,38.8033089 0,37.6168484 0,36.0962848 L0,7.29502207 C0,5.77445851 0.163340117,4.59062875 0.748203118,3.48572097 C1.3304316,2.38344392 2.22089869,1.46531817 3.3036856,0.849726696 C4.2547466,0.310426471 5.32699544,0 6.93141691,0 L36.5618411,0 C38.1662626,0 39.2385114,0.310426471 40.1895724,0.849726696 C41.2723593,1.46531817 42.1654609,2.38344392 42.7450549,3.48572097 C43.3299179,4.59062875 43.493258,5.77445851 43.493258,7.29502207 L43.493258,21.8324516 C43.493258,22.4717196 43.1375981,22.803192 42.547466,22.803192 C41.9599685,22.803192 41.6385573,22.4769811 41.5542527,21.8324516 C40.9667552,17.397036 39.4018515,13.853439 36.6356076,11.0490778 C33.5005311,7.87641402 29.0692718,5.92967174 23.8055048,5.92967174 C13.2015698,5.92967174 5.95927976,13.8350238 5.95927976,23.7528865 C5.95927976,28.7512788 7.79817334,33.2366783 10.9806711,36.4593259 C13.6968592,39.205811 17.3035144,40.9815556 21.7505808,41.4656105 C22.6226062,41.5603169 22.9097687,41.8996814 22.9097687,42.4679197 C22.9097687,42.7362544 22.8254641,42.9651282 22.6594895,43.1256029 C22.4829768,43.2966005 22.1931798,43.3913069 21.7927331,43.3913069 L6.93141691,43.3913069 Z" id="Fill-682"></path>
            </g>
        </g>
    </g>
</svg>