<?xml version="1.0" encoding="UTF-8"?>
<svg width="104px" height="35px" viewBox="0 0 104 35" version="1.1" xmlns="http://www.w3.org/2000/svg" xmlns:xlink="http://www.w3.org/1999/xlink">
    <title>HGF - Logo - Google</title>
    <g id="Page-1" stroke="none" stroke-width="1" fill="none" fill-rule="evenodd">
        <g id="HGF---Home---Desktop" transform="translate(-1055.000000, -2899.000000)" fill="#010202">
            <g id="Logo---Google" transform="translate(1055.082973, 2899.820789)">
                <path d="M25.362505,11.9119581 L13.3227576,11.9119581 L13.3227576,15.4739704 L21.8506925,15.4739704 C21.4318041,20.4828856 17.2534585,22.5979948 13.3227576,22.5979948 C8.27765562,22.5979948 3.90172119,18.6466341 3.90172119,13.1089416 C3.90172119,7.71067785 8.08270128,3.56201222 13.3227576,3.56201222 C17.3641083,3.56201222 19.7615197,6.1506533 19.7615197,6.1506533 L22.2695808,3.56201222 C22.2695808,3.56201222 19.0633724,-4.54747351e-13 13.2094734,-4.54747351e-13 C5.76959446,-4.54747351e-13 2.27373675e-13,6.29008214 2.27373675e-13,13.0536962 C2.27373675e-13,19.7041887 5.43501067,26.1889451 13.4070622,26.1889451 C20.4280527,26.1889451 25.5574593,21.374704 25.5574593,14.2769869 C25.5574593,12.7748385 25.362505,11.9119581 25.362505,11.9119581" id="Fill-578"></path>
                <path d="M35.2569643,12.6356727 C37.6807209,12.6356727 39.9964622,14.582415 39.9964622,17.7577095 C39.9964622,20.8461898 37.7097006,22.8771155 35.2569643,22.8771155 C32.5539488,22.8771155 30.4357963,20.7330683 30.4357963,17.7577095 C30.4357963,14.8060273 32.5249691,12.6356727 35.2569643,12.6356727 M35.2016394,9.32358014 C30.2671872,9.32358014 26.7290295,13.1933881 26.7290295,17.6735261 C26.7290295,22.2378475 30.1565374,26.1602701 35.2569643,26.1602701 C39.8831779,26.1602701 43.6454119,22.6271959 43.6454119,17.7840168 C43.6742494,12.1910789 39.2693352,9.32358014 35.2016394,9.32358014" id="Fill-579"></path>
                <path d="M53.7067574,12.6356727 C56.130514,12.6356727 58.4462554,14.582415 58.4462554,17.7577095 C58.4462554,20.8461898 56.1594937,22.8771155 53.7067574,22.8771155 C51.003742,22.8771155 48.8855895,20.7330683 48.8855895,17.7577095 C48.8566098,14.8060273 50.9747623,12.6356727 53.7067574,12.6356727 M53.6514326,9.32358014 C48.7169803,9.32358014 45.1788226,13.1933881 45.1788226,17.6735261 C45.1788226,22.2378475 48.6063306,26.1602701 53.7067574,26.1602701 C58.3329711,26.1602701 62.0950628,22.6271959 62.0950628,17.7840168 C62.0950628,12.1910789 57.6927832,9.32358014 53.6514326,9.32358014" id="Fill-580"></path>
                <path d="M72.0459008,12.6356727 C74.2747031,12.6356727 76.5614647,14.5271696 76.5614647,17.7577095 C76.5614647,21.040864 74.2747031,22.8481775 72.0169211,22.8481775 C69.5931646,22.8481775 67.3643623,20.9014352 67.3643623,17.7840168 C67.3353826,14.5561077 69.6774691,12.6356727 72.0459008,12.6356727 M71.711317,9.32358014 C67.169408,9.32358014 63.6286158,13.2749408 63.6286158,17.7287714 C63.6286158,22.7929321 67.754271,26.1602701 71.6559922,26.1602701 C74.0534036,26.1602701 75.3337793,25.215837 76.2822058,24.103037 L76.2822058,25.7709216 C76.2822058,28.6647277 74.5249823,30.4194265 71.8509465,30.4194265 C69.2875605,30.4194265 67.9755705,28.4989916 67.5303369,27.4124989 L64.2977833,28.7778492 C65.4411642,31.1981234 67.754271,33.7315191 71.8772917,33.7315191 C76.3928556,33.7315191 79.8203635,30.8929584 79.8203635,24.9659174 L79.8203635,9.8260501 L76.2822058,9.8260501 L76.2822058,11.2440151 C75.1941499,10.102277 73.6898401,9.32358014 71.711317,9.32358014" id="Fill-581"></path>
                <path d="M95.6798985,12.5522785 C97.213188,12.5522785 98.3275891,13.3599135 98.8018024,14.3622227 L91.2486392,17.5059484 C90.9140554,15.0567361 93.2271623,12.5522785 95.6798985,12.5522785 M95.5139239,9.32436935 C91.2486392,9.32436935 87.6525221,12.7180147 87.6525221,17.7295607 C87.6525221,23.0436409 91.6648931,26.1899974 95.9301777,26.1899974 C99.4973151,26.1899974 101.699772,24.2406244 102.982782,22.4885563 L100.055833,20.5391833 C99.3023608,21.7072287 98.0219851,22.8489667 95.9301777,22.8489667 C93.561746,22.8489667 92.4736901,21.5414925 91.8045225,20.2892637 L103.122412,15.6144515 L102.534914,14.2491012 C101.449493,11.5499693 98.8834724,9.32436935 95.5139239,9.32436935" id="Fill-582"></path>
                <polygon id="Fill-583" points="82.2730998 25.6885797 85.9798666 25.6885797 85.9798666 0.864984946 82.2730998 0.864984946"></polygon>
            </g>
        </g>
    </g>
</svg>