<?xml version="1.0" encoding="utf-8"?>
<!-- Generator: Adobe Illustrator 28.0.0, SVG Export Plug-In . SVG Version: 6.00 Build 0)  -->
<svg version="1.1"
	 id="svg11067" xmlns:svg="http://www.w3.org/2000/svg" xmlns:cc="http://creativecommons.org/ns#" xmlns:dc="http://purl.org/dc/elements/1.1/" xmlns:rdf="http://www.w3.org/1999/02/22-rdf-syntax-ns#"
	 xmlns="http://www.w3.org/2000/svg" xmlns:xlink="http://www.w3.org/1999/xlink" x="0px" y="0px" viewBox="0 0 300 50.1"
	 style="enable-background:new 0 0 300 50.1;" xml:space="preserve">
<g id="layer1" transform="translate(-296.12686,-471.83073)">
	<path id="path10805" d="M583,519.8h12.2V474H583V519.8z"/>
	<g id="g10793" transform="translate(542.745,757.7267)">
		<path id="path10795" d="M-6.1-283.8v18.3h24.5c0,0.1,0-18.3,0-18.3c0,0,12,0,12.2,0c0,0,0,45.8,0,45.9H18.4v-20.2
			c0,0.1-24.5,0-24.5,0c0,0.1,0,20.2,0,20.2h-12.1c0,0,0.1-45.9,0-45.9H-6.1z"/>
	</g>
	<g id="g10829" transform="matrix(2.1024427,0,0,-2.1024427,468.16034,507.13208)">
		<path id="path10831" d="M0,0c-0.5,1.5-0.8,3-0.8,4.7c0,2.3,0.4,4.5,1.5,6.4c1.1,1.9,2.9,3.4,5,4.1c2,0.8,4.1,1.2,6.4,1.2
			c2.6,0,5-0.6,7.3-1.5c2.1-0.9,3.6-2.8,4.1-5c0.1-0.4,0.2-0.9,0.2-1.4h-6.1c0,0.6-0.1,1.2-0.3,1.7c-0.5,1.2-1.5,2.1-2.7,2.5
			c-0.8,0.3-1.7,0.4-2.5,0.4c-1,0-2-0.2-2.9-0.5c-1.5-0.5-2.6-1.7-3.2-3.2c-0.5-1.4-0.8-3-0.8-4.6c0-1.3,0.2-2.6,0.6-3.8
			C6.3-0.8,7.5-2,9-2.6c1-0.4,2-0.6,3.1-0.6c0.9,0,1.8,0.1,2.7,0.4c1.1,0.4,2,1.2,2.5,2.3c0.3,0.7,0.5,1.5,0.5,2.3h6.1
			c0-0.7-0.1-1.4-0.3-2.1c-0.5-2.2-2-4-4-4.8c-2.3-1-4.8-1.5-7.4-1.5c-2,0-4,0.3-5.9,0.9C3.4-4.8,1-2.8,0,0"/>
	</g>
	<g id="g10801" transform="translate(496.635,754.0187)">
		<path id="path10803" d="M-56.9-272.3l-8.5,20.9h16.9L-56.9-272.3z M-28.1-234.2h-13.5c0,0-4-9.9-4-9.9h-22.8c0,0-3.9,9.9-4,9.9
			c0,0-13.5,0-13.5,0l21.4-45.9c0,0,14.9,0,14.9,0L-28.1-234.2z"/>
	</g>
	<g id="g10797" transform="translate(487.915,757.7267)">
		<path id="path10799" d="M-66.5-283.8v7.8h-18.6v38.1h-12.1V-276h-18.6c0,0,0-7.8,0-7.8C-115.8-283.7-66.5-283.8-66.5-283.8"/>
	</g>
	<path id="path10819" d="M355.6,519.8h12.1V474h-12.1V519.8z"/>
	<g id="g10809">
		<g id="g10815" transform="translate(434.5951,757.7267)">
			<path id="path10817" d="M-125.3-283.8c0,0,0,18.5,0,18.3h24.5c0,0.1,0-18.3,0-18.3c0,0,12,0,12.2,0c0,0,0,45.8,0,45.9h-12.2
				v-20.2c0,0.1-24.5,0-24.5,0c0,0.1,0,20.2,0,20.2h-12.2c0,0,0.1-45.9,0-45.9H-125.3z"/>
		</g>
	</g>
</g>
</svg>
