<?xml version="1.0" encoding="UTF-8"?>
<svg width="94px" height="45px" viewBox="0 0 94 45" version="1.1" xmlns="http://www.w3.org/2000/svg" xmlns:xlink="http://www.w3.org/1999/xlink">
    <title>HGF - Logo - LG</title>
    <g id="Page-1" stroke="none" stroke-width="1" fill="none" fill-rule="evenodd">
        <g id="HGF---Home---Desktop" transform="translate(-143.000000, -2998.000000)" fill="#010202">
            <g id="Logo---LG" transform="translate(143.816890, 2998.067610)">
                <path d="M17.7909002,15.0714682 C17.7909002,16.5052176 16.6264432,17.6653708 15.1932654,17.6653708 C13.7574531,17.6653708 12.5956307,16.5052176 12.5956307,15.0714682 C12.5956307,13.6377189 13.7574531,12.4775657 15.1932654,12.4775657 C16.6264432,12.4775657 17.7909002,13.6377189 17.7909002,15.0714682 L17.7909002,15.0714682 Z M22.0904336,40.5211774 C11.8790418,40.5211774 3.59875161,32.2554149 3.59875161,22.0560638 C3.59875161,11.8593435 11.8790418,3.59095028 22.0904336,3.59095028 C22.3591544,3.59095028 22.6278753,3.59884248 22.8939616,3.60936541 L22.8939616,5.29040367 C22.6278753,5.27725001 22.3591544,5.27198854 22.0904336,5.27198854 C12.8063921,5.27198854 5.28220863,12.7879922 5.28220863,22.0560638 C5.28220863,31.3267662 12.8063921,38.8427699 22.0904336,38.8427699 C31.1215614,38.8427699 38.4876737,31.7318991 38.8828515,22.8110842 L38.8881205,22.7611002 L27.4964646,22.7611002 L27.4964646,21.069539 L40.5557704,21.069539 C40.574212,21.3957499 40.5821156,21.7245915 40.5821156,22.0560638 C40.5821156,32.2554149 32.30446,40.5211774 22.0904336,40.5211774 L22.0904336,40.5211774 Z M27.4701194,29.8167256 L27.4701194,31.5109175 L22.8939616,31.5109175 L22.8939616,31.5240712 L21.1999665,31.5240712 L21.1999665,12.5538569 L22.8939616,12.5538569 L22.8939616,29.8167256 L27.4701194,29.8167256 Z M22.0904336,0 C9.88998065,0 2.84217094e-14,9.87577095 2.84217094e-14,22.0560638 C2.84217094e-14,34.2389875 9.88998065,44.1147584 22.0904336,44.1147584 C34.2908865,44.1147584 44.1808672,34.2389875 44.1808672,22.0560638 C44.1808672,9.87577095 34.2908865,0 22.0904336,0 L22.0904336,0 Z" id="Fill-603"></path>
                <polygon id="Fill-604" points="55.1488926 32.8833708 70.9322901 32.8833708 70.9322901 28.1243752 61.4058729 28.1243752 60.9448323 28.1243752 60.9448323 27.6613662 60.9448323 11.0772266 55.1488926 11.0772266"></polygon>
                <path d="M90.0040929,12.6135746 C88.194179,11.2140247 85.8652651,10.5037269 83.0832141,10.5037269 C79.782163,10.5037269 77.0238226,11.516559 75.1058935,13.4291018 C73.1036598,15.4310894 72.0445836,18.3775102 72.0445836,21.9500453 C72.0445836,25.7698693 73.1642537,28.9898863 75.1981016,31.020812 C76.7946196,32.6150361 78.9233101,33.4568706 81.3576048,33.4568706 C86.7030418,33.4568706 87.9333617,30.2578995 87.9333617,30.2578995 L87.9333617,31.7284791 L87.9333617,32.8833708 L92.7597988,32.8833708 L92.7597988,20.5689106 L83.1517115,20.5689106 L83.1517115,24.4203034 L87.019184,24.4203034 L87.5750673,24.4203034 C87.5750673,24.4203034 87.6172196,29.2713747 83.0542344,29.2713747 C81.8924119,29.2713747 80.8596809,28.8530882 80.0640564,28.0586069 C78.825833,26.8221625 78.1724725,24.7412528 78.1724725,22.042121 C78.1724725,17.5698752 79.9507721,14.9023121 82.9330465,14.9023121 C84.7930163,14.9023121 86.1919453,16.0414194 86.5502398,17.7724416 L92.6992048,17.7724416 C92.3804282,15.2600918 91.6901844,13.9473561 90.0040929,12.6135746" id="Fill-605"></path>
            </g>
        </g>
    </g>
</svg>