<svg width="743" height="179" viewBox="0 0 743 179" fill="none" xmlns="http://www.w3.org/2000/svg">
<path d="M79.8809 118.533C76.4449 121.65 71.4836 122.689 68.3769 123.086C62.0462 123.877 55.4996 121.775 51.3223 116.741C47.8916 112.627 46.1316 107.301 42.7823 103.042C37.4916 96.3009 29.0343 91.8862 20.3223 93.4462C3.10097 96.5702 -4.71239 116.65 5.02363 130.58C18.9396 150.486 50.2343 147.039 66.2956 133.249C71.297 128.961 75.9663 124.189 79.8809 118.533Z" fill="black"/>
<path d="M663.388 118.529C666.83 121.653 671.776 122.692 674.894 123.084C681.221 123.88 687.772 121.781 691.946 116.742C695.376 112.624 697.145 107.302 700.488 103.044C705.786 96.2995 714.242 91.8849 722.952 93.4475C740.165 96.5675 747.98 116.65 738.237 130.581C724.326 150.483 693.036 147.041 676.982 133.252C671.978 128.962 667.298 124.188 663.388 118.529Z" fill="black"/>
<path d="M606.043 12.3608C605.611 12.3457 564.509 12.3457 564.129 12.3595C559.625 12.4956 555.899 16.6675 555.686 20.9581C555.458 25.5168 559.421 30.0382 564.129 30.2648C564.563 30.28 605.665 30.28 606.043 30.2648C610.55 30.1276 614.275 25.9581 614.486 21.6661C614.717 17.1035 610.754 12.5902 606.043 12.3608Z" fill="black"/>
<path d="M344.275 101.679C343.701 99.3008 343.396 96.9608 343.232 94.5995C343.204 91.1915 343.204 86.4076 343.204 82.0049C343.633 66.7982 346.472 40.0475 325.846 40.0475C311.917 40.0475 303.664 51.7688 301.325 55.6009C300.992 44.9155 292.562 37.1635 279.685 37.1635C271.469 37.1635 266.589 43.7022 266.589 43.7022C266.589 43.7022 274.604 46.4809 274.604 57.2489C274.69 64.9609 274.591 102.502 274.604 102.661C274.92 109.314 279.568 115.552 287.882 115.552C296.197 115.552 301.357 109.161 301.357 102.649V69.3529C302.516 63.9102 305.578 58.3555 310.196 58.3555C316.185 58.3555 316.521 65.0156 316.549 65.0156L316.521 97.2462C316.549 98.2955 316.682 99.3008 316.865 100.287C317.161 101.967 317.669 103.53 318.398 104.965C321.593 111.457 328.661 115.689 338.158 115.689C346.369 115.689 351.25 109.156 351.25 109.156C351.25 109.156 346.431 107.457 344.275 101.679Z" fill="black"/>
<path d="M542.537 101.679C541.957 99.3008 541.646 96.9609 541.493 94.5996L541.517 14.8275C541.517 7.06886 535.228 0.779541 527.469 0.779541C519.709 0.779541 513.421 7.06886 513.421 14.8275L513.439 85.4755C513.509 91.8395 512.883 98.3422 515.886 104.189C519.069 110.684 526.919 115.689 536.406 115.689C544.641 115.689 549.511 109.156 549.511 109.156C549.511 109.156 544.703 107.457 542.537 101.679Z" fill="black"/>
<path d="M228.621 39.3515C207.538 39.3515 190.452 56.4369 190.452 77.5222C190.452 98.6035 207.538 115.689 228.621 115.689C249.7 115.689 266.793 98.6035 266.793 77.5222C266.793 56.4369 249.7 39.3515 228.621 39.3515ZM228.901 99.4769V99.4957C228.871 99.4957 228.845 99.4844 228.817 99.4844C228.787 99.4844 228.762 99.4957 228.739 99.4957V99.4769C221.532 99.3461 217.919 91.0649 217.919 77.5222C217.919 63.9995 222.496 55.7075 228.739 55.5595C228.761 55.5595 228.788 55.5568 228.817 55.5595C228.844 55.5568 228.869 55.5568 228.901 55.5568C235.136 55.705 239.718 63.9995 239.718 77.5222C239.718 91.0649 236.112 99.3462 228.901 99.4769Z" fill="black"/>
<path d="M430.129 101.679C429.546 99.3008 429.237 96.9609 429.084 94.5996L429.102 14.8275C429.102 7.06886 422.814 0.779541 415.054 0.779541C407.295 0.779541 401.006 7.06886 401.006 14.8275L400.95 52.6116C397.571 47.9076 390.129 39.9568 378.402 39.9568C346.139 39.9568 344.101 97.4075 366.225 111.62C372.462 115.621 381.869 116.65 388.986 114.801C393.901 113.52 401.649 108.692 402.894 102.926C403.071 103.349 403.261 103.77 403.477 104.189C406.661 110.684 414.51 115.689 423.998 115.689C432.23 115.689 437.103 109.156 437.103 109.156C437.103 109.156 432.296 107.457 430.129 101.679ZM388.262 97.0356V97.0469C388.233 97.0469 388.21 97.0442 388.185 97.0442C388.151 97.0442 388.135 97.0469 388.098 97.0469V97.0356C380.89 96.929 377.283 89.7021 377.283 77.9101C377.283 66.1275 381.855 58.9103 388.098 58.7782V58.7668C388.136 58.7668 388.151 58.7782 388.185 58.7782C388.21 58.7782 388.233 58.7668 388.262 58.7668V58.7782C394.511 58.9101 399.085 66.1275 399.085 77.9101C399.085 89.7021 395.47 96.9289 388.262 97.0356Z" fill="black"/>
<path d="M503.22 92.0716C503.22 92.0716 499.1 97.7169 483.117 97.7169C467.133 97.7169 463.704 85.2916 463.704 85.2916C486.996 85.2916 506.534 83.7315 506.534 64.8715C506.534 46.0155 485.22 39.7956 472.582 39.7956C451.714 39.7956 436.468 56.4382 436.468 78.4048C436.468 103.145 456.321 115.689 472.802 115.689C501.828 115.689 503.22 92.0716 503.22 92.0716ZM462.193 73.1915C463.01 67.1715 464.453 59.5848 469.868 56.0715C474.365 53.1502 480.662 56.4755 480.758 62.0995C480.861 68.0395 477.02 72.0849 471.673 73.2102C471.105 73.3315 462.114 73.7811 462.193 73.1915Z" fill="black"/>
<path d="M615.606 92.0716C615.606 92.0716 611.486 97.7169 595.504 97.7169C579.52 97.7169 576.09 85.2916 576.09 85.2916C599.382 85.2916 618.921 83.7315 618.921 64.8715C618.921 46.0155 597.606 39.7956 584.969 39.7956C564.101 39.7956 548.854 56.4382 548.854 78.4048C548.854 103.145 568.708 115.689 585.189 115.689C614.214 115.689 615.606 92.0716 615.606 92.0716ZM574.58 73.1915C575.397 67.1715 576.84 59.5848 582.254 56.0715C586.752 53.1502 593.049 56.4755 593.145 62.0995C593.248 68.0395 589.406 72.0849 584.06 73.2102C583.492 73.3315 574.501 73.7811 574.58 73.1915Z" fill="black"/>
<path d="M668.316 94.1129H652.309C653.486 94.1129 665.328 84.1288 669.254 80.8009C679.537 72.0742 698.028 59.4835 692.638 43.1742L692.651 43.2887C691.663 39.4047 688.672 37.1634 688.672 37.1634C688.672 37.1634 687.553 40.3341 683.752 41.7527C682.199 42.1288 680.645 42.4128 679.096 42.5048C677.817 42.5274 634.356 42.5048 634.356 42.5048C628.478 42.4972 623.552 47.2248 623.471 52.8008C623.402 58.4248 628.052 62.9354 634.009 63.0153L659.364 63.1768C647.611 69.7315 633.576 77.4941 626.449 89.3461C622.38 96.1487 618.024 106.637 619.678 114.682C625.312 109.689 640.095 104.855 651.348 107.205C655.561 108.085 660.04 110.235 663.683 112.513C684.788 125.714 697.472 99.8941 687.381 88.5127C687.381 88.5127 681.628 94.1129 668.316 94.1129Z" fill="black"/>
<path d="M192.516 110.172C179.57 95.9768 175.521 72.3716 174.724 56.6823C174.037 43.1276 174.77 19.6528 185.452 12.8208C181.876 8.3262 174.822 6.5155 169.462 6.5155C157.42 6.5155 151.614 14.5369 147.496 20.3049C146.136 22.2102 125.885 50.1462 125.885 50.1462C125.885 50.1462 108.852 23.7955 106.758 20.6302C103.865 16.2622 98.4477 8.23554 88.9264 6.84619C84.8264 6.24755 74.1904 5.70351 68.4011 13.6488C78.3797 21.6329 78.1303 41.9649 75.9637 55.8463C69.4637 97.5129 51.7344 101.35 51.7344 101.35C60.8157 125.877 84.2037 116.186 90.8131 96.6315C95.093 83.9209 97.857 67.8316 98.4944 54.4889L124.161 93.8609C124.161 93.8609 153.224 54.6115 153.224 54.6462C148.437 124.06 172.276 143.737 193.122 143.737C213.986 143.737 221.086 124.657 221.086 124.657C209.805 123.976 199.932 118.302 192.516 110.172Z" fill="black"/>
<path d="M257.62 132.748C257.87 133.768 258.001 134.77 258.068 135.778C258.07 136.085 258.049 172.093 258.066 172.524C258.157 175.549 260.956 178.045 263.833 178.188C266.893 178.342 269.922 175.682 270.076 172.524C270.089 172.112 270.076 139.684 270.076 139.684C270.048 136.961 270.313 134.177 269.029 131.677C267.665 128.895 264.305 126.752 260.246 126.752C256.721 126.752 254.634 129.55 254.634 129.55C254.634 129.55 256.693 130.276 257.62 132.748Z" fill="black"/>
<path d="M638.29 172.197C638.041 171.177 637.909 170.177 637.842 169.165C637.839 168.859 637.859 132.853 637.846 132.425C637.754 129.398 634.955 126.902 632.077 126.757C629.018 126.605 625.989 129.265 625.834 132.425C625.821 132.837 625.834 165.262 625.834 165.262C625.863 167.983 625.598 170.766 626.881 173.271C628.246 176.052 631.603 178.193 635.665 178.193C639.19 178.193 641.274 175.397 641.274 175.397C641.274 175.397 639.217 174.667 638.29 172.197Z" fill="black"/>
<path d="M421.019 145.394C414.775 145.394 411.079 150.645 410.033 152.362L409.997 152.389C409.995 150.651 409.99 149.278 409.99 149.209C409.898 146.185 407.101 143.925 404.225 143.785C401.169 143.63 398.137 146.054 397.985 149.209C397.975 149.619 397.975 172.197 397.985 172.502C398.078 175.522 400.874 178.018 403.753 178.161C406.809 178.313 409.837 175.655 409.99 172.502C409.997 172.269 410.001 164.901 409.998 158.555L410.047 158.521C410.563 156.084 411.935 153.593 414.007 153.593C416.69 153.593 416.838 156.579 416.851 156.579L416.824 172.501C416.918 175.521 419.714 178.017 422.592 178.16C425.648 178.312 428.676 175.655 428.83 172.501L428.814 164.18C428.814 155.624 429.706 145.354 421.019 145.394Z" fill="black"/>
<path d="M574.493 145.394C568.25 145.394 564.553 150.645 563.506 152.362L563.471 152.389C563.47 150.651 563.464 149.278 563.464 149.209C563.371 146.185 560.575 143.925 557.699 143.785C554.643 143.63 551.61 146.054 551.459 149.209C551.449 149.619 551.449 172.197 551.459 172.502C551.551 175.522 554.348 178.018 557.226 178.161C560.282 178.313 563.311 175.655 563.464 172.502C563.471 172.269 563.475 164.901 563.472 158.555L563.522 158.521C564.036 156.084 565.41 153.593 567.482 153.593C570.163 153.593 570.312 156.579 570.324 156.579L570.299 172.501C570.391 175.521 573.188 178.017 576.066 178.16C579.122 178.312 582.15 175.655 582.304 172.501L582.287 164.18C582.287 155.624 583.181 145.354 574.493 145.394Z" fill="black"/>
<path d="M299.117 145.394C292.874 145.394 289.177 150.645 288.13 152.362L288.095 152.389C288.093 150.651 288.088 149.278 288.088 149.209C287.996 146.185 285.2 143.925 282.322 143.785C279.267 143.63 276.234 146.054 276.083 149.209C276.073 149.619 276.073 172.197 276.083 172.502C276.176 175.522 278.974 178.018 281.851 178.161C284.906 178.313 287.934 175.655 288.088 172.502C288.095 172.269 288.098 164.901 288.095 158.555L288.146 158.521C288.661 156.084 290.034 153.593 292.106 153.593C294.789 153.593 294.937 156.579 294.95 156.579L294.925 172.501C295.015 175.521 297.813 178.017 300.69 178.16C303.747 178.312 306.775 175.655 306.929 172.501L306.911 164.18C306.911 155.624 307.805 145.354 299.117 145.394Z" fill="black"/>
<path d="M530.97 143.886C521.525 143.886 513.868 151.539 513.868 160.986C513.868 170.434 521.525 178.085 530.97 178.085C540.413 178.085 548.072 170.434 548.072 160.986C548.072 151.539 540.413 143.886 530.97 143.886ZM531.094 170.822V170.83C531.078 170.83 531.068 170.827 531.054 170.827C531.04 170.827 531.029 170.83 531.024 170.83V170.822C527.79 170.759 526.174 167.054 526.174 160.986C526.174 154.927 528.222 151.214 531.024 151.147C531.029 151.147 531.04 151.146 531.054 151.147C531.068 151.146 531.079 151.146 531.094 151.146C533.888 151.213 535.937 154.927 535.937 160.986C535.937 167.054 534.322 170.76 531.094 170.822Z" fill="black"/>
<path d="M467.109 148.796C467.01 145.63 464.032 143.014 461.021 142.864C457.816 142.705 454.644 145.489 454.482 148.796C454.48 149.025 454.452 149.517 454.452 149.606C452.932 147.497 449.602 143.936 444.346 143.936C429.892 143.936 428.976 169.677 438.889 176.044C441.686 177.837 445.901 178.296 449.092 177.469C450.893 176.998 453.548 175.461 454.756 173.498C455.496 176.026 458 177.952 460.573 178.08C463.774 178.238 466.948 175.458 467.109 172.15C467.122 171.72 467.119 149.085 467.109 148.796ZM448.764 169.512V169.515C448.754 169.515 448.741 169.514 448.731 169.514C448.715 169.514 448.707 169.515 448.692 169.515V169.512C445.461 169.461 443.847 166.221 443.847 160.938C443.847 155.661 445.893 152.428 448.692 152.366V152.362C448.707 152.362 448.715 152.366 448.731 152.366C448.741 152.366 448.755 152.362 448.764 152.362V152.366C451.562 152.427 453.616 155.661 453.616 160.938C453.616 166.221 451.993 169.461 448.764 169.512Z" fill="black"/>
<path d="M620.457 148.796C620.364 145.63 617.385 143.014 614.369 142.864C611.166 142.705 607.996 145.489 607.834 148.796C607.829 149.025 607.798 149.517 607.798 149.606C606.286 147.497 602.95 143.936 597.697 143.936C583.242 143.936 582.325 169.677 592.24 176.044C595.037 177.837 599.253 178.296 602.438 177.469C604.242 176.998 606.901 175.461 608.108 173.498C608.845 176.026 611.352 177.952 613.922 178.08C617.125 178.238 620.297 175.458 620.457 172.15C620.472 171.72 620.464 149.085 620.457 148.796ZM602.117 169.512V169.515C602.102 169.515 602.093 169.514 602.082 169.514C602.066 169.514 602.06 169.515 602.041 169.515V169.512C598.813 169.461 597.196 166.221 597.196 160.938C597.196 155.661 599.245 152.428 602.041 152.366V152.362C602.06 152.362 602.066 152.366 602.082 152.366C602.093 152.366 602.102 152.362 602.117 152.362V152.366C604.916 152.427 606.965 155.661 606.965 160.938C606.965 166.221 605.345 169.461 602.117 169.512Z" fill="black"/>
<path d="M510.1 152.017C509.957 149.034 507.614 146.696 504.66 146.446C504.482 146.427 504.32 146.391 504.149 146.391C501.477 146.391 498.112 148.703 498.112 151.626L498.126 162.698H498.112C498.149 166.151 498.107 172.39 498.112 172.461C498.256 175.443 500.6 177.783 503.549 178.031C503.729 178.054 503.889 178.086 504.062 178.086C506.734 178.086 510.1 175.774 510.1 172.853L510.088 163.602H510.1C510.06 160.145 510.105 152.085 510.1 152.017Z" fill="black"/>
<path d="M510.056 137.044C510.056 140.328 507.39 142.989 504.105 142.989C500.816 142.989 498.154 140.328 498.154 137.044C498.154 133.753 500.816 131.088 504.105 131.088C507.39 131.088 510.056 133.753 510.056 137.044Z" fill="black"/>
<path d="M388.426 144.981C384.861 145.128 383.098 147.784 380.672 151.12C380.654 151.146 380.674 149.578 380.673 149.518C380.58 146.497 377.785 144.001 374.912 143.856C371.85 143.704 368.822 146.361 368.67 149.518V172.573H368.66C368.752 175.597 371.546 178.094 374.425 178.236C377.454 178.385 380.45 175.776 380.654 172.661H380.681L380.679 158.057C380.86 155.916 381.793 153.241 383.516 153.254C385.952 153.277 383.435 159.169 389.024 159.169C397.04 159.169 397.896 144.59 388.426 144.981Z" fill="black"/>
<path d="M363.942 167.489C363.942 167.489 362.094 170.019 354.926 170.019C347.756 170.019 346.213 164.448 346.213 164.448C356.665 164.448 365.429 163.746 365.429 155.286C365.429 146.827 355.869 144.038 350.2 144.038C340.838 144.038 333.997 151.502 333.997 161.356C333.997 172.456 342.904 178.082 350.298 178.082C363.318 178.082 363.942 167.489 363.942 167.489ZM345.536 159.017C345.901 156.317 346.55 152.913 348.982 151.338C350.998 150.028 353.824 151.52 353.868 154.041C353.913 156.706 352.19 158.521 349.792 159.026C349.537 159.08 345.5 159.282 345.536 159.017Z" fill="black"/>
<path d="M333.27 171.765C333.27 171.765 330.149 178.086 324.378 178.086C319.629 178.086 313.784 173.892 313.54 167.82C313.536 167.764 313.507 159.026 313.484 151.723H311.872C311.029 151.723 309.537 151.221 309.537 149.026C309.537 146.833 311.216 146.367 312.045 146.367H313.47C313.464 143.814 313.461 142.059 313.465 141.95C313.616 138.801 316.64 136.15 319.689 136.303C322.56 136.447 325.422 138.934 325.513 141.95V146.365H330.596C331.3 146.365 332.929 146.825 332.929 149.061C332.929 151.296 331.3 151.723 330.42 151.723H325.513V165.134C325.513 169.486 329.26 171.745 333.286 171.758" fill="black"/>
<path d="M493.901 171.765C493.901 171.765 490.778 178.086 485.01 178.086C480.26 178.086 474.414 173.892 474.172 167.82C474.166 167.764 474.138 159.026 474.114 151.723H472.502C471.658 151.723 470.169 151.221 470.169 149.026C470.169 146.833 471.846 146.367 472.677 146.367H474.101C474.093 143.814 474.091 142.059 474.096 141.95C474.248 138.801 477.27 136.15 480.32 136.303C483.19 136.447 486.052 138.934 486.144 141.95V146.365H491.226C491.929 146.365 493.56 146.825 493.56 149.061C493.56 151.296 491.929 151.723 491.049 151.723H486.144V165.134C486.144 169.486 489.89 171.745 493.917 171.758" fill="black"/>
</svg>
