<?xml version="1.0" encoding="UTF-8"?>
<svg width="107px" height="20px" viewBox="0 0 107 20" version="1.1" xmlns="http://www.w3.org/2000/svg" xmlns:xlink="http://www.w3.org/1999/xlink">
    <title>HGF - Logo - Nomura</title>
    <g id="Page-1" stroke="none" stroke-width="1" fill="none" fill-rule="evenodd">
        <g id="HGF---Home---Desktop" transform="translate(-712.000000, -3010.000000)" fill="#010202">
            <g id="Logo---Nomura" transform="translate(712.286602, 3010.859548)">
                <path d="M94.3499938,10.6860367 L96.5182022,5.27461927 L98.6864105,10.6860367 L94.3499938,10.6860367 Z M95.4327807,0.676098331 L88.5250745,17.8547835 L91.5047144,17.8547835 L93.4015674,13.1220952 L99.7006999,13.1220952 L101.597553,17.8547835 L106.474046,17.8547835 L99.4293446,0.676098331 L95.4327807,0.676098331 Z M67.5964633,11.972465 C67.5964633,14.5400602 66.7165343,15.8264886 64.2769706,15.8264886 C61.771544,15.8264886 60.9574779,14.5400602 60.9574779,11.972465 L60.9574779,0.676098331 L56.4867009,0.676098331 L56.4867009,11.972465 C56.4867009,16.5709859 59.2661174,18.5308819 63.668397,18.5308819 C68.0706766,18.5308819 70.7789611,16.5709859 70.7789611,11.972465 L70.7789611,0.676098331 L67.5964633,0.676098331 L67.5964633,11.972465 Z M78.0950177,3.11215691 L79.9918706,3.11215691 C82.0915815,3.11215691 83.040008,4.39595452 83.040008,6.22168308 C83.040008,8.38677618 81.8202261,9.19704189 78.8379517,9.39960831 L83.3772263,17.8547835 L88.0508613,17.8547835 L83.919937,10.2809038 C86.1540083,9.53640642 87.4422876,8.24997808 87.4422876,5.61398381 C87.4422876,2.84119143 85.2055818,0.676098331 82.0915815,0.676098331 L73.692738,0.676098331 L73.692738,17.8547835 L78.0950177,17.8547835 L78.0950177,3.11215691 Z M25.0595354,16.1632224 C22.8939616,16.1632224 20.8601137,14.069159 20.8601137,9.26544094 C20.8601137,4.46435357 22.8939616,2.36765952 25.0595354,2.36765952 C27.1592463,2.36765952 29.2589571,4.46435357 29.2589571,9.26544094 C29.2589571,14.069159 27.1592463,16.1632224 25.0595354,16.1632224 L25.0595354,16.1632224 Z M25.0595354,0 C19.371611,0 16.5263315,4.32755546 16.5263315,9.26544094 C16.5263315,14.2717255 19.371611,18.5308819 25.0595354,18.5308819 C30.7500943,18.5308819 33.5268763,14.2717255 33.5268763,9.26544094 C33.5268763,4.32755546 30.7500943,0 25.0595354,0 L25.0595354,0 Z M49.3076393,17.8547835 L42.7371513,0.676098331 L39.2832982,0.676098331 L32.8498052,17.8547835 L35.9638055,17.8547835 L40.3002221,6.29008214 L44.6340043,17.8547835 L49.3076393,17.8547835 Z M49.5104971,0.676098331 L45.9222836,0.676098331 L44.7709992,3.65145713 L46.3964968,7.77644617 L46.9392076,6.29008214 L51.2044922,17.8547835 L56.0809851,17.8547835 L49.5104971,0.676098331 Z M41.4515065,11.9040659 L39.2832982,17.8547835 L42.0600802,17.8547835 L42.9426437,15.6239221 L41.4515065,11.9040659 Z M0,0.676098331 L0,17.8547835 L2.97963988,17.8547835 L2.97963988,6.35848119 L12.1240519,17.8547835 L14.5609811,17.8547835 L14.5609811,0.676098331 L11.7841991,0.676098331 L11.7841991,10.1441057 L4.19942172,0.676098331 L0,0.676098331 Z" id="Fill-673"></path>
            </g>
        </g>
    </g>
</svg>