<?xml version="1.0" encoding="UTF-8"?>
<svg width="107px" height="40px" viewBox="0 0 107 40" version="1.1" xmlns="http://www.w3.org/2000/svg" xmlns:xlink="http://www.w3.org/1999/xlink">
    <title>HGF - Logo - Shinhan</title>
    <g id="Page-1" stroke="none" stroke-width="1" fill="none" fill-rule="evenodd">
        <g id="HGF---Home---Desktop" transform="translate(-1053.000000, -3000.000000)" fill="#010202">
            <g id="Logo---Shinhan" transform="translate(1053.663771, 3000.879074)">
                <path d="M12.7966314,0.013153664 C5.40417384,0.344625997 -0.320633818,6.60577007 0.0139499702,13.9876063 C0.348533759,21.3720733 6.61605213,27.0886557 14.0111442,26.7545526 C21.4036018,26.4230803 27.1310439,20.164567 26.7964602,12.7801 C26.4724144,5.59819941 20.5368453,4.54747351e-13 13.4104741,4.54747351e-13 L12.7966314,0.013153664 L12.7966314,0.013153664 Z M14.3957838,25.1576978 C14.3826112,24.8551635 14.8252103,24.781503 14.8252103,24.781503 C18.7927944,23.9975446 17.630972,21.4036421 16.2294084,20.0777528 C15.6392763,19.5226681 10.1199611,14.7636725 10.1199611,14.7636725 C4.85882861,10.2414428 5.27771697,6.71099939 5.27771697,6.71099939 C5.53589974,2.36239806 9.34277828,1.28379761 12.2275755,1.53634796 C12.5647938,1.56528602 12.7544791,1.76785245 12.6912507,2.04934086 C12.6306568,2.35713659 12.1827887,2.37818246 12.1827887,2.37818246 C11.2659764,2.43342784 10.4440068,2.52550349 9.81962604,2.94642074 C7.50125018,4.5064453 8.18095583,7.1608547 11.279149,10.1177984 C11.6690577,10.4887317 12.0853115,10.8807109 12.5121035,11.2805823 C12.5121035,11.2805823 13.1312152,11.8277747 14.3720732,13.0037123 C16.7536775,15.1951127 18.0577639,16.373681 18.0577639,16.373681 C22.2598201,19.8672941 20.8187388,23.0610038 19.2195863,24.171173 C17.9945355,25.018269 16.6403932,25.4155096 14.8620935,25.510216 L14.8146722,25.5128467 C14.6513321,25.5128467 14.4063219,25.4155096 14.3957838,25.1576978 L14.3957838,25.1576978 Z M15.3758245,12.2644763 C14.0190478,11.9803572 13.7397889,10.7491742 13.7397889,10.7491742 C13.6291391,10.3151033 13.6001594,9.76528017 13.6923675,9.06813598 C13.8741493,7.60544854 14.2719615,6.92145801 14.7250986,5.78761217 C15.3284032,4.26441788 13.8583422,3.37523019 14.0980833,2.8148841 C14.4273981,2.05986379 15.4785707,3.02008126 16.6535658,3.09374178 C17.6625862,3.14635644 18.2685253,3.09900324 19.0536117,3.20423256 C20.0995154,3.34103066 21.3456424,3.69354886 21.9015257,4.34597059 C22.4099877,4.94314694 21.6328048,5.66659846 20.6975509,5.21411242 C20.0125763,4.88000935 19.1510889,5.08257578 19.6595508,5.7981351 C20.26549,6.47423343 20.555287,6.49264856 21.1796677,6.65312326 C22.8842009,7.10297857 22.9210842,8.73929438 21.7645307,9.58112888 C20.4525408,10.5439771 19.1168401,10.1441057 18.5846675,8.26050101 C18.3185812,7.31869866 17.6546826,6.83990529 16.9697079,7.10824004 C16.2926368,7.37394405 16.6957181,8.6130192 17.2120836,9.76001871 C18.1025507,12.0356026 16.2952713,12.2749993 15.6050276,12.2749993 L15.3758245,12.2644763 L15.3758245,12.2644763 Z M10.3834129,24.7315191 C8.90281377,24.5841981 7.13505218,24.1211891 5.59385914,22.7874076 C4.17912296,21.5667475 3.30182846,19.88834 2.87503654,18.4072374 C2.44034107,16.8971968 2.2559248,15.1319751 2.97778274,15.2687732 C3.19644774,15.3108649 3.58108737,16.2842361 3.99734122,16.9919032 C4.42940217,17.7206162 4.77715855,18.125749 5.10383878,18.3730379 C5.25137179,18.4835287 5.75456474,17.3628365 6.4948643,16.7235684 C6.92165622,16.3684195 7.38533139,16.2500365 7.46436693,17.3023297 C7.55394054,18.588758 7.32210296,20.125106 7.70147355,20.125106 C8.04922993,20.125106 8.84485437,19.8594019 10.5915398,19.7094502 C11.2475348,19.6568355 11.6216364,19.78048 10.9946211,20.656514 C10.6811134,21.0984771 10.2674941,21.71933 9.27691533,22.4296279 C10.760149,23.8160241 12.5384486,23.6476572 12.5726974,24.2395721 C12.591139,24.5789366 11.9272405,24.7657186 11.0578495,24.7657186 L10.3834129,24.7315191 Z" id="Fill-618"></path>
                <path d="M34.1127802,17.3683611 C35.185029,18.2233492 36.8790241,18.7600187 38.0592881,18.7600187 C39.503004,18.7600187 40.377664,18.1339043 40.377664,16.9395516 C40.377664,16.0135337 40.0035624,15.4242495 38.8259329,14.8375961 C37.4665216,14.1430826 36.3626585,13.7142732 35.3246584,12.8408699 C34.3973081,12.0200813 33.7386786,11.0230335 33.7386786,9.54193096 C33.7386786,7.47680571 35.4511153,6.0325334 38.3095674,6.0325334 C39.8771056,6.0325334 41.1996336,6.28245301 42.4299535,6.81649177 L42.4299535,9.0078922 C42.4299535,9.3288416 42.126984,9.43670165 41.8767048,9.22361229 C40.8782224,8.38440852 39.8428568,7.99242934 38.6625928,7.99242934 C37.3980241,7.99242934 36.6840697,8.58171348 36.6840697,9.54193096 C36.6840697,10.2390752 36.9317144,10.7204993 37.3980241,11.0940633 C38.2884912,11.825407 39.3976233,12.3594458 40.377664,12.8250855 C42.2349992,13.6958581 43.3230551,14.729736 43.3230551,16.9053521 C43.3230551,19.6150069 41.0204864,20.735699 38.0935369,20.735699 C35.9332321,20.735699 33.2012369,19.7044518 33.5595314,18.8126334 L34.1127802,17.3683611 Z" id="Fill-619"></path>
                <path d="M44.9132502,6.22089386 L47.9640221,6.22089386 L47.9640221,11.1929789 C48.7122252,10.5537108 49.6606517,10.1617316 50.7855909,10.1617316 C53.0354693,10.1617316 54.5160684,11.4613136 54.5160684,13.3501798 L54.5160684,20.5162959 L51.7129412,20.5162959 L51.7129412,13.7237438 C51.7129412,12.708281 51.1939412,12.245272 50.0874436,12.245272 C49.3576821,12.245272 48.6779765,12.5662214 47.9640221,13.081845 L47.9640221,20.5162959 L45.1635294,20.5162959 L45.1635294,8.00453071 C45.1635294,7.39683143 45.0713213,7.09429716 44.7130269,6.7207331 C44.5022654,6.45239835 44.6445294,6.22089386 44.9132502,6.22089386" id="Fill-620"></path>
                <path d="M59.8891679,7.3252755 C59.8891679,8.2881237 59.1752135,9.01946742 58.1925383,9.01946742 C57.2124976,9.01946742 56.4985432,8.2881237 56.4985432,7.3252755 C56.4985432,6.36242729 57.2124976,5.6337143 58.1925383,5.6337143 C59.1752135,5.6337143 59.8891679,6.36242729 59.8891679,7.3252755 L59.8891679,7.3252755 Z M59.7811527,10.4979393 L59.7811527,20.5157698 L56.9780255,20.5157698 L56.9780255,12.263161 C56.9780255,11.692292 56.8542031,11.3897577 56.5327919,11.0161936 C56.3167615,10.7478589 56.46166,10.4979393 56.7119392,10.4979393 L59.7811527,10.4979393 Z" id="Fill-621"></path>
                <path d="M62.0663336,10.4987285 L65.048608,10.4987285 L65.048608,11.4799918 C65.7783695,10.7670632 66.6714711,10.1593639 67.9202326,10.1593639 C70.0436542,10.1593639 71.6717863,11.3537166 71.6717863,13.5477478 L71.6717863,20.516559 L68.8660246,20.516559 L68.8660246,13.7950367 C68.8660246,12.6717138 68.3681007,12.1745053 67.2431615,12.1745053 C66.4580751,12.1745053 65.7783695,12.4954547 65.1355471,13.0663237 L65.1355471,20.516559 L62.3350544,20.516559 L62.3350544,12.2981497 C62.3350544,11.6930812 62.2270392,11.3905469 61.8898209,11.0169828 C61.6553488,10.7486481 61.7976128,10.4987285 62.0663336,10.4987285" id="Fill-622"></path>
                <path d="M73.794154,6.22089386 L76.8475604,6.22089386 L76.8475604,11.1929789 C77.5957635,10.5537108 78.5415555,10.1617316 79.6664947,10.1617316 C81.9163731,10.1617316 83.3969722,11.4613136 83.3969722,13.3501798 L83.3969722,20.5162959 L80.5964795,20.5162959 L80.5964795,13.7237438 C80.5964795,12.708281 80.0774795,12.245272 78.9683474,12.245272 C78.2385859,12.245272 77.5588803,12.5662214 76.8475604,13.081845 L76.8475604,20.5162959 L74.0444332,20.5162959 L74.0444332,8.00453071 C74.0444332,7.39683143 73.9548596,7.09429716 73.5965652,6.7207331 C73.3831692,6.45239835 73.5280677,6.22089386 73.794154,6.22089386" id="Fill-623"></path>
                <path d="M91.4844156,16.0414194 L89.6639637,16.0414194 C88.2887453,16.0414194 87.7539381,16.6649031 87.7539381,17.6119669 C87.7539381,18.3932946 88.2176133,18.929964 89.0395829,18.929964 C90.001182,18.929964 90.8600348,18.4827395 91.4844156,17.7698109 L91.4844156,16.0414194 Z M89.7535373,12.0505978 C88.6628468,12.0505978 87.519466,12.5478063 86.7185725,13.0660606 C86.3260293,13.3317646 86.0915572,13.1897051 86.0915572,12.7793107 L86.0915572,10.9088597 C87.1453644,10.4458507 88.7339788,10.1591009 89.93005,10.1591009 C92.6962939,10.1591009 94.2875428,11.2298091 94.2875428,13.4396247 L94.2875428,20.5162959 L91.537106,20.5162959 L91.537106,19.4271725 C90.7520196,20.3900208 89.6270804,20.8372453 88.4310092,20.8372453 C86.4340446,20.8372453 85.0561916,19.5534477 85.0561916,17.6645816 C85.0561916,15.5257958 86.5394253,14.1893835 89.6824053,14.1893835 L91.4844156,14.1893835 L91.4844156,13.4396247 C91.4844156,12.4583613 90.8600348,12.0505978 89.7535373,12.0505978 L89.7535373,12.0505978 Z" id="Fill-624"></path>
                <path d="M96.3580105,10.4987285 L99.3376504,10.4987285 L99.3376504,11.4799918 C100.070046,10.7670632 100.963148,10.1593639 102.21191,10.1593639 C104.335331,10.1593639 105.960829,11.3537166 105.960829,13.5477478 L105.960829,20.516559 L103.157702,20.516559 L103.157702,13.7950367 C103.157702,12.6717138 102.657143,12.1745053 101.532204,12.1745053 C100.747118,12.1745053 100.070046,12.4954547 99.427224,13.0663237 L99.427224,20.516559 L96.6240968,20.516559 L96.6240968,12.2981497 C96.6240968,11.6930812 96.5187161,11.3905469 96.1788633,11.0169828 C95.9470257,10.7486481 96.0892897,10.4987285 96.3580105,10.4987285" id="Fill-625"></path>
                <path d="M41.7647377,34.0351057 C41.7647377,32.5540031 40.9427681,31.914735 39.2645801,31.914735 L37.4994531,31.914735 L37.4994531,36.1923066 L39.2830218,36.1923066 C40.9612097,36.1923066 41.7647377,35.5319926 41.7647377,34.0351057 L41.7647377,34.0351057 Z M37.4994531,29.936424 L39.0327426,29.936424 C40.3710777,29.936424 41.1034737,29.4365847 41.1034737,28.1001725 C41.1034737,26.7453451 40.3710777,26.2455058 38.9800522,26.2455058 L37.4994531,26.2455058 L37.4994531,29.936424 Z M34.3222243,24.2671948 L39.2303314,24.2671948 C42.1572809,24.2671948 44.0146161,25.603607 44.0146161,27.7608079 C44.0146161,29.1156353 43.479809,30.1126831 42.4418089,30.7361667 C43.8881593,31.2912514 44.7628192,32.3409137 44.7628192,34.1955804 C44.7628192,36.8157902 42.6393977,38.1706176 39.4437274,38.1706176 L34.5883107,38.1706176 L34.5883107,26.0692467 C34.5883107,25.4615475 34.4829299,25.1590132 34.1404426,24.7854491 C33.9270466,24.5171144 34.0719451,24.2671948 34.3222243,24.2671948 L34.3222243,24.2671948 Z" id="Fill-626"></path>
                <path d="M52.3502311,33.6957411 L50.5297792,33.6957411 C49.1545608,33.6957411 48.6197536,34.3192248 48.6197536,35.2662886 C48.6197536,36.0476163 49.0834288,36.5842858 49.9053984,36.5842858 C50.8669975,36.5842858 51.7258504,36.1370612 52.3502311,35.4241326 L52.3502311,33.6957411 Z M50.6193528,29.7049195 C49.5286623,29.7049195 48.387916,30.202128 47.584388,30.7203823 C47.1918449,30.9860863 46.9600073,30.8440268 46.9600073,30.4336325 L46.9600073,28.5631814 C48.01118,28.1001725 49.5997943,27.8134226 50.7958655,27.8134226 C53.5621094,27.8134226 55.1533583,28.8841308 55.1533583,31.0939464 L55.1533583,38.1706176 L52.4029215,38.1706176 L52.4029215,37.0814943 C51.6178351,38.0443425 50.4928959,38.491567 49.2968248,38.491567 C47.2998601,38.491567 45.9246417,37.2077694 45.9246417,35.3189033 C45.9246417,33.1801175 47.4052408,31.8437052 50.5455863,31.8437052 L52.3502311,31.8437052 L52.3502311,31.0939464 C52.3502311,30.1126831 51.7258504,29.7049195 50.6193528,29.7049195 L50.6193528,29.7049195 Z" id="Fill-627"></path>
                <path d="M57.223826,28.152524 L60.2034659,28.152524 L60.2034659,29.1337874 C60.9358619,28.4208588 61.8289635,27.8131595 63.0777251,27.8131595 C65.2011466,27.8131595 66.8266442,29.0075122 66.8266442,31.2015434 L66.8266442,38.1703546 L64.023517,38.1703546 L64.023517,31.4488322 C64.023517,30.3255093 63.5255931,29.8283008 62.3980194,29.8283008 C61.6155676,29.8283008 60.9358619,30.1492502 60.2930395,30.7201193 L60.2930395,38.1703546 L57.4899123,38.1703546 L57.4899123,29.9519453 C57.4899123,29.3468767 57.3845316,29.0443425 57.0446788,28.6707784 C56.8128412,28.4024437 56.9551052,28.152524 57.223826,28.152524" id="Fill-628"></path>
                <path d="M69.2016622,38.1698284 L69.2016622,25.6580632 C69.2016622,25.0503639 69.1120886,24.7478296 68.7537941,24.3742656 C68.5403982,24.1059308 68.6826622,23.8744264 68.951383,23.8744264 L72.0047894,23.8744264 L72.0047894,32.0744205 L75.5561197,28.1519979 L78.7675971,28.1519979 L74.9317389,32.4295694 L79.2339068,38.1698284 L76.1436172,38.1698284 L73.0559621,33.9817018 C72.7371854,33.5344772 72.5922869,33.4634474 72.2524341,33.4634474 L72.0047894,33.4634474 L72.0047894,38.1698284 L69.2016622,38.1698284 Z" id="Fill-629"></path>
            </g>
        </g>
    </g>
</svg>