<?xml version="1.0" encoding="UTF-8"?>
<svg width="103px" height="30px" viewBox="0 0 103 30" version="1.1" xmlns="http://www.w3.org/2000/svg" xmlns:xlink="http://www.w3.org/1999/xlink">
    <title>HGF - Logo - Standard</title>
    <g id="Page-1" stroke="none" stroke-width="1" fill="none" fill-rule="evenodd">
        <g id="HGF---Home---Desktop" transform="translate(-1239.000000, -3005.000000)" fill="#010202">
            <g id="Logo---Standard" transform="translate(1239.782972, 3005.380521)">
                <path d="M36.8761391,17.4809564 L39.2340327,17.4809564 C40.1324033,17.4809564 40.9675456,17.7045687 40.9675456,18.7936921 C40.9675456,19.7565403 40.3115506,20.1564117 39.4263525,20.1564117 L36.8761391,20.1564117 L36.8761391,17.4809564 Z M34.3575398,26.9673789 L39.9084693,26.9673789 C41.9792005,26.9673789 43.9524545,25.9729619 43.9524545,23.6500248 C43.9524545,22.2241677 43.2464036,21.1508287 41.8527436,20.7483266 C42.8459569,20.2695332 43.4071092,19.4829441 43.4071092,18.3622519 C43.4071092,16.2287276 41.9291446,15.5263219 39.7477637,15.5263219 L34.3575398,15.5263219 L34.3575398,26.9673789 Z M36.8761391,21.8716495 L39.6186723,21.8716495 C40.6961902,21.8716495 41.4338553,22.3372892 41.4338553,23.5053345 C41.4338553,24.691795 40.5670988,25.0127444 39.571251,25.0127444 L36.8761391,25.0127444 L36.8761391,21.8716495 Z" id="Fill-562"></path>
                <path d="M47.5883528,21.2302768 C47.6673883,20.3331969 48.2311752,19.9806787 49.0952971,19.9806787 C49.8988251,19.9806787 50.5732617,20.125369 50.5732617,21.1013709 C50.5732617,22.0326503 49.2744443,21.9826664 47.8781498,22.1904943 C46.4660481,22.3851685 45.0539465,22.8323931 45.0539465,24.7081056 C45.0539465,26.4049282 46.302708,27.1915173 47.8781498,27.1915173 C48.8871702,27.1915173 49.9462464,26.9179211 50.6681044,26.1655316 C50.6839115,26.4391278 50.7497744,26.7100932 50.82881,26.9679051 L53.1392823,26.9679051 C52.9311553,26.6311713 52.8494853,25.8761509 52.8494853,25.1237614 L52.8494853,20.814621 C52.8494853,18.8284178 50.8604242,18.4601152 49.2085814,18.4601152 C47.3459771,18.4601152 45.4385861,19.0993832 45.3094947,21.2302768 L47.5883528,21.2302768 Z M50.5732617,23.7636725 C50.5732617,24.2582503 50.5100333,25.6683231 48.7290991,25.6683231 C47.9887995,25.6683231 47.3328045,25.4604952 47.3328045,24.6107685 C47.3328045,23.7768262 47.9729924,23.5374295 48.6790433,23.3927392 C49.3850941,23.2638333 50.1886221,23.2506796 50.5732617,22.9139458 L50.5732617,23.7636725 Z" id="Fill-563"></path>
                <path d="M54.6146124,26.9665897 L56.8934704,26.9665897 L56.8934704,22.6232498 C56.8934704,20.9422116 57.4230086,20.2529596 58.6585975,20.2529596 C59.7176738,20.2529596 60.1181205,20.9264272 60.1181205,22.286516 L60.1181205,26.9665897 L62.3969786,26.9665897 L62.3969786,21.8708602 C62.3969786,19.8188887 61.7884049,18.4587998 59.3646483,18.4587998 C58.4004147,18.4587998 57.4045669,18.9060244 56.8276075,19.8373038 L56.7801862,19.8373038 L56.7801862,18.6824121 L54.6146124,18.6824121 L54.6146124,26.9665897 Z" id="Fill-564"></path>
                <polygon id="Fill-565" points="64.3317686 26.9665897 66.6106267 26.9665897 66.6106267 24.1148753 67.4931902 23.2651486 69.7720483 26.9665897 72.5303887 26.9665897 69.0501904 21.7261699 72.1773633 18.6824121 69.4822513 18.6824121 66.6106267 21.6630324 66.6106267 15.5255327 64.3317686 15.5255327"></polygon>
                <path d="M33.6348916,7.91587501 C33.6032773,10.7360206 35.9769781,11.9856187 38.5140189,11.9856187 C41.6253847,11.9856187 43.2772275,10.4150712 43.2772275,8.3157464 C43.2772275,5.71921312 40.711207,5.19043582 39.8760647,4.98260793 C37.0044401,4.24600275 36.4590949,4.13551197 36.4590949,3.25421648 C36.4590949,2.29136827 37.3890797,1.95463447 38.1926077,1.95463447 C39.3965825,1.95463447 40.3739887,2.30715267 40.4530242,3.68565666 L42.8925879,3.68565666 C42.8925879,1.04177019 40.6953998,0 38.305892,0 C36.2351608,0 34.0195312,1.12069218 34.0195312,3.45941364 C34.0195312,5.60872234 35.7372369,6.26640554 37.4365011,6.71363012 C39.1225926,7.16348543 40.8376638,7.37131332 40.8376638,8.60512701 C40.8376638,9.77317237 39.4914251,10.0309842 38.6088616,10.0309842 C37.2599884,10.0309842 36.0744552,9.43643857 36.0744552,7.91587501 L33.6348916,7.91587501 Z" id="Fill-566"></path>
                <path d="M47.4165822,0.946011517 L45.1377241,0.946011517 L45.1377241,3.42942328 L43.7572367,3.42942328 L43.7572367,4.94998685 L45.1377241,4.94998685 L45.1377241,9.8378884 C45.1377241,11.4873579 46.357506,11.8083073 47.7538005,11.8083073 C48.2043031,11.8083073 48.6995925,11.7925229 49.0842321,11.7293853 L49.0842321,9.95100991 C48.844491,9.9983631 48.620557,10.0141475 48.3781813,10.0141475 C47.608902,10.0141475 47.4165822,9.822104 47.4165822,9.05393002 L47.4165822,4.94998685 L49.0842321,4.94998685 L49.0842321,3.42942328 L47.4165822,3.42942328 L47.4165822,0.946011517 Z" id="Fill-567"></path>
                <path d="M52.3531421,5.97649879 C52.4321776,5.0794189 52.99333,4.7269007 53.8600864,4.7269007 C54.6636144,4.7269007 55.338051,4.87159101 55.338051,5.84759288 C55.338051,6.77887229 54.0365991,6.72888837 52.6403046,6.93934699 C51.2282029,7.13139049 49.8161012,7.57861507 49.8161012,9.45432756 C49.8161012,11.1511502 51.0674973,11.9377393 52.6403046,11.9377393 C53.6519595,11.9377393 54.7110357,11.6641431 55.4328937,10.9117535 C55.4487008,11.1853497 55.5145637,11.4563152 55.5935993,11.7114963 L57.9040716,11.7114963 C57.6959446,11.3773932 57.6142746,10.6223729 57.6142746,9.86998334 L57.6142746,5.560843 C57.6142746,3.57463974 55.6252135,3.20370641 53.9707362,3.20370641 C52.1107664,3.20370641 50.2007409,3.84560521 50.074284,5.97649879 L52.3531421,5.97649879 Z M55.338051,8.50726375 C55.338051,9.00447225 55.2721881,10.414545 53.4912539,10.414545 C52.7535888,10.414545 52.0975938,10.2067171 52.0975938,9.35699044 C52.0975938,8.52567888 52.7377817,8.28365146 53.441198,8.13896115 C54.1472489,8.01005525 54.9507769,7.99690158 55.338051,7.66016778 L55.338051,8.50726375 Z" id="Fill-568"></path>
                <path d="M59.3783478,11.7125486 L61.6572059,11.7125486 L61.6572059,7.36920873 C61.6572059,5.68817047 62.186744,4.99891848 63.422333,4.99891848 C64.4814092,4.99891848 64.881856,5.67238607 64.881856,7.03510567 L64.881856,11.7125486 L67.1580795,11.7125486 L67.1580795,6.61681915 C67.1580795,4.5674783 66.5495059,3.2047587 64.1283838,3.2047587 C63.1641502,3.2047587 62.1683024,3.65198328 61.591343,4.58326269 L61.5439216,4.58326269 L61.5439216,3.42837099 L59.3783478,3.42837099 L59.3783478,11.7125486 Z" id="Fill-569"></path>
                <path d="M74.774998,7.54652013 C74.774998,8.90923972 74.32713,10.2219754 72.8175512,10.2219754 C71.4054495,10.2219754 70.8126829,8.86188653 70.8126829,7.56230452 C70.8126829,6.20221566 71.326414,4.91841805 72.8175512,4.91841805 C74.2928813,4.91841805 74.774998,6.20221566 74.774998,7.54652013 L74.774998,7.54652013 Z M74.8092468,11.7136009 L76.9748206,11.7136009 L76.9748206,0.272543919 L74.6959625,0.272543919 L74.6959625,4.43699395 L74.6643483,4.43699395 L74.6801554,4.43699395 C74.1506173,3.62146678 73.1863837,3.20318026 72.2089775,3.20318026 C69.7694138,3.20318026 68.5338249,5.27093625 68.5338249,7.49916693 C68.5338249,9.79053521 69.7536067,11.9372132 72.2563988,11.9372132 C73.3154751,11.9372132 74.2454599,11.5531262 74.774998,10.6560463 L74.8092468,10.6560463 L74.8092468,11.7136009 Z" id="Fill-570"></path>
                <path d="M80.8665306,5.97649879 C80.9482007,5.0794189 81.509353,4.7269007 82.3734749,4.7269007 C83.1770029,4.7269007 83.8514395,4.87159101 83.8514395,5.84759288 C83.8514395,6.77887229 82.5526221,6.72888837 81.1563276,6.93934699 C79.7442259,7.13139049 78.3321243,7.57861507 78.3321243,9.45432756 C78.3321243,11.1511502 79.5835203,11.9377393 81.1563276,11.9377393 C82.1679825,11.9377393 83.2244242,11.6641431 83.9462822,10.9117535 C83.9647238,11.1853497 84.0279522,11.4563152 84.1069878,11.7114963 L86.4174601,11.7114963 C86.2093332,11.3773932 86.1302976,10.6223729 86.1302976,9.86998334 L86.1302976,5.560843 C86.1302976,3.57463974 84.1412365,3.20370641 82.4867592,3.20370641 C80.6267895,3.20370641 78.7167639,3.84560521 78.5876725,5.97649879 L80.8665306,5.97649879 Z M83.8514395,8.50726375 C83.8514395,9.00447225 83.7855766,10.414545 82.0046424,10.414545 C81.2696119,10.414545 80.6109824,10.2067171 80.6109824,9.35699044 C80.6109824,8.52567888 81.2511702,8.28365146 81.9572211,8.13896115 C82.6632719,8.01005525 83.4667999,7.99690158 83.8514395,7.66016778 L83.8514395,8.50726375 Z" id="Fill-571"></path>
                <path d="M87.8917364,11.7125486 L90.1705945,11.7125486 L90.1705945,7.97953874 C90.1705945,6.52211277 90.7501884,5.31986788 92.4178383,5.31986788 C92.6918282,5.31986788 93.026412,5.35143667 93.2345389,5.39878986 L93.2345389,3.28368069 L92.7392495,3.2047587 C91.632752,3.2047587 90.5078128,3.92557949 90.0915589,4.96734968 L90.0599447,4.96734968 L90.0599447,3.42837099 L87.8917364,3.42837099 L87.8917364,11.7125486 Z" id="Fill-572"></path>
                <path d="M99.73047,7.54652013 C99.73047,8.90923972 99.2799674,10.2219754 97.7730231,10.2219754 C96.3609214,10.2219754 95.7681549,8.86188653 95.7681549,7.56230452 C95.7681549,6.20221566 96.2818859,4.91841805 97.7730231,4.91841805 C99.2483532,4.91841805 99.73047,6.20221566 99.73047,7.54652013 L99.73047,7.54652013 Z M99.7620842,11.7136009 L101.927658,11.7136009 L101.927658,0.272543919 L99.6514344,0.272543919 L99.6514344,4.43699395 L99.6171857,4.43699395 L99.6329928,4.43699395 C99.1034547,3.62146678 98.1418556,3.20318026 97.1618149,3.20318026 C94.7248858,3.20318026 93.4892968,5.27093625 93.4892968,7.49916693 C93.4892968,9.79053521 94.7064441,11.9372132 97.2118708,11.9372132 C98.2683125,11.9372132 99.2009319,11.5531262 99.73047,10.6560463 L99.7620842,10.6560463 L99.7620842,11.7136009 Z" id="Fill-573"></path>
                <path d="M20.3779969,4.28362223 C19.4453775,5.32802315 18.0859662,5.98833708 16.5711183,5.98833708 C16.0494838,5.98833708 15.5436563,5.90415363 15.0668086,5.7568326 L12.9723667,5.12019526 C12.0950722,4.85449125 11.1756254,4.70980094 10.2113918,4.70980094 C9.48953391,4.70980094 8.7861176,4.79135366 8.11168098,4.94130543 C7.89828502,4.46777352 7.5584322,4.03633334 7.11319865,3.70223028 L5.90395488,2.79199673 L19.1002556,2.79199673 C19.803672,2.79199673 20.3753624,3.36549648 20.3753624,4.06790214 L20.3753624,4.29677589 L20.3779969,4.28362223 Z M16.7687072,23.2932975 L18.8605145,22.0305457 C19.7694232,21.4701996 20.3727278,20.4705212 20.3727278,19.3235217 L20.3727278,17.3083803 C19.4216668,17.7898044 18.3467835,18.0607699 17.2060372,18.0607699 C15.8808746,18.0607699 14.6426512,17.6924673 13.5835749,17.0531993 L16.7687072,23.2932975 Z M2.56075152,11.6075824 L9.60808722,25.4215603 L4.0650613,22.027915 C3.16142162,21.4649382 2.558117,20.4652597 2.558117,19.3235217 L2.56075152,11.6075824 Z M2.74780229,24.203531 C1.10386305,23.1985911 0,21.3886469 0,19.3261524 L0,4.06264067 C0,1.95542369 1.7256093,0.253339569 3.83585824,0.253339569 L19.1028902,0.253339569 C21.2131391,0.253339569 22.9229413,1.96068516 22.9229413,4.06790214 L22.9176723,19.3287831 C22.9176723,21.3886469 21.8243473,23.1933296 20.1883116,24.1956388 L15.7386106,26.8974014 L9.67658469,15.0064891 C10.3773665,14.5461109 11.1914325,14.2751454 12.0977067,14.2751454 C12.5982652,14.2751454 13.080382,14.3619596 13.52825,14.5145421 L15.7886665,15.2774546 C16.2312655,15.4274064 16.7081133,15.5063284 17.2034027,15.5063284 C18.4468952,15.5063284 19.5718344,14.9985969 20.3806314,14.1778083 L20.3806314,7.51942358 C19.2609612,8.16395311 17.9595093,8.53225571 16.5711183,8.53225571 C15.791301,8.53225571 15.0378289,8.41650346 14.326509,8.19815264 L12.2347017,7.55099237 C11.5945138,7.35894888 10.9148082,7.25371956 10.2113918,7.25371956 C8.77031049,7.25371956 7.44251341,7.69831341 6.3307468,8.44018006 L5.85126452,7.50100845 L5.84599549,6.23299524 L5.59835079,5.72263307 L3.06130994,3.81272105 L2.87162464,3.75484493 L2.55284796,4.0731636 L2.55284796,7.2484581 L2.81629976,7.7535588 L3.84639631,8.51647131 L13.8154125,28.0549239 L11.4680569,29.4886732 L2.74780229,24.203531 Z" id="Fill-574"></path>
            </g>
        </g>
    </g>
</svg>