<?xml version="1.0" encoding="UTF-8"?>
<svg width="58px" height="53px" viewBox="0 0 58 53" version="1.1" xmlns="http://www.w3.org/2000/svg" xmlns:xlink="http://www.w3.org/1999/xlink">
    <title>HGF - Logo - Ubisoft</title>
    <g id="Page-1" stroke="none" stroke-width="1" fill="none" fill-rule="evenodd">
        <g id="HGF---Home---Desktop" transform="translate(-344.000000, -3097.000000)" fill="#010202">
            <g id="Logo---Ubisoft" transform="translate(344.758429, 3097.578216)">
                <path d="M47.3212127,47.5247335 L47.3212127,45.9515552 L47.3212127,47.5247335 Z M34.7782724,49.8187325 C34.3989018,49.8555627 34.0327038,49.8318861 33.6744093,49.7608563 C32.6364092,49.5240904 31.8407848,48.7585471 31.5931401,47.7167769 C31.5351807,47.4694881 31.4982974,47.1958919 31.4982974,46.93808 C31.4982974,46.0462616 31.8460538,45.2465188 32.4124752,44.644081 L32.4124752,44.3731156 L32.3650539,44.3205009 L32.38613,44.0363818 C32.9499169,43.5496962 33.5874702,43.2524234 34.4120744,43.2524234 C35.4500745,43.2524234 36.3747903,43.6075723 36.9912675,44.3520697 C37.5445163,45.0123836 37.8422168,45.9015713 37.7342016,46.8460044 C37.5919376,48.3902445 36.3405416,49.6503656 34.7782724,49.8187325 L34.7782724,49.8187325 Z M34.6465465,41.0136698 C33.1712164,41.0136698 31.8355157,41.581908 30.855475,42.5105567 L30.850206,42.7999373 L30.8686476,42.8183525 L30.8686476,43.1024716 C29.8859724,44.073212 29.3590688,45.5069614 29.3590688,46.9933254 C29.3590688,47.4879032 29.4302008,47.971958 29.5592922,48.434967 L29.7489775,48.9084989 C30.6605207,50.6684592 32.5178559,51.8733348 34.6465465,51.8733348 C37.5919376,51.8733348 39.841816,49.5924894 39.9946181,46.7223599 L40.0077906,46.4513945 C39.9946181,43.4497283 37.6867803,41.0136698 34.6465465,41.0136698 L34.6465465,41.0136698 Z M51.5100963,51.7444289 L51.5100963,43.7890929 L51.309873,43.5891572 L48.8018118,43.5891572 L48.5989539,43.3892215 L48.5989539,41.4635251 L48.8018118,41.2609586 L56.5894471,41.2609586 L56.7896704,41.4635251 L56.7896704,43.3892215 L56.5894471,43.5891572 L54.1604214,43.5891572 L53.9601981,43.7890929 L53.9601981,51.7444289 L53.7573402,51.9443646 L51.7103197,51.9443646 L51.5100963,51.7444289 L51.5100963,51.7444289 Z M47.3212127,47.6457472 L43.0849077,47.6457472 L42.8846843,47.8456829 L42.8846843,51.7444289 L42.6818264,51.9469953 L40.8719126,51.9469953 L40.6716892,51.7444289 L40.6716892,41.4661558 L40.8719126,41.2635894 L47.58203,41.2635894 L47.7822533,41.4661558 L47.7822533,43.344499 L47.58203,43.5444347 L43.1086184,43.5444347 L42.908395,43.7443704 L42.908395,45.6121907 L43.1086184,45.8121264 L47.3212127,45.8121264 L47.3212127,47.6457472 Z M20.9918396,49.7687485 L22.6410479,48.474428 L22.9387484,48.5270427 C23.1916621,48.9479599 23.8713678,49.8871315 24.9462511,49.8871315 C26.3293731,49.8871315 26.2239924,48.5165197 26.2239924,48.5165197 C26.2239924,48.5165197 26.2608756,47.8193755 24.4483272,47.2616602 C22.6384133,46.7092063 21.4792254,45.559576 21.5608955,44.2257945 C21.6452,42.9025359 22.5672814,41.474048 23.9293272,41.2267591 C25.2492207,40.9847317 26.9274087,41.011039 28.2262261,42.7999373 L28.1814393,43.078795 L26.7350889,44.1363496 L26.4426574,44.073212 C26.237165,43.7180631 25.6970888,43.0182882 24.6617232,43.118256 C23.2759667,43.2471619 23.536784,44.3941614 23.9056165,44.7598333 C24.2349313,45.0913056 25.952637,45.7042664 26.3425457,45.8463259 L26.6428807,45.9620782 L26.6560533,45.9699704 C27.0565001,46.1620139 28.4264494,46.9538644 28.4949469,48.0587722 C28.5897895,49.3820308 28.6266728,50.5974294 26.6613224,51.5813234 C24.6933374,52.5468024 22.1378549,51.6260459 20.9918396,49.7687485 L20.9918396,49.7687485 Z M18.1518292,41.2293898 L20.1382557,41.2293898 L20.3411136,41.4293255 L20.3411136,51.7444289 L20.1382557,51.9469953 L18.1518292,51.9469953 L17.9489713,51.7444289 L17.9489713,41.4293255 L18.1518292,41.2293898 L18.1518292,41.2293898 Z M13.6072856,49.9476384 L12.2926611,49.9476384 L12.0924377,49.7477027 L12.0924377,47.627332 L12.287392,47.4247656 C12.5850926,47.4168734 13.1910317,47.3958275 13.7732602,47.3958275 C14.2922603,47.3958275 14.9456207,47.9167126 14.9456207,48.6980403 C14.9456207,49.1820951 14.6742654,49.5004138 14.4134481,49.7003495 C14.1737069,49.8660856 13.8918135,49.9476384 13.6072856,49.9476384 L13.6072856,49.9476384 Z M12.0950722,43.4313132 L12.2900266,43.2313775 C12.5534784,43.2234853 13.0408642,43.2129624 13.5150774,43.2129624 C13.9524074,43.2129624 14.4951181,43.649664 14.4951181,44.2968243 C14.4951181,44.7098494 14.260646,44.9834456 14.0472501,45.1491817 L13.3728135,45.3596404 L12.2979301,45.3596404 L12.0977067,45.1597047 L12.0977067,43.4313132 L12.0950722,43.4313132 Z M15.419834,46.2961812 C15.419834,46.2961812 16.6975752,45.7410966 16.6975752,43.8154002 C16.6975752,41.8897038 14.474042,41.2162362 13.4413109,41.2162362 L10.0322446,41.2162362 L9.83202125,41.4161719 C9.81621414,42.8814901 9.72664053,51.9575182 9.83465577,51.9575182 L13.9761181,51.9575182 L14.5214633,51.8864884 C15.2643974,51.6865528 17.0980219,50.9894086 17.0980219,48.9453292 C17.0980219,46.3908876 15.419834,46.2961812 15.419834,46.2961812 L15.419834,46.2961812 Z M0,41.2293898 L2.19982255,41.2293898 L2.40268043,41.4293255 L2.40268043,48.1061254 L2.40794947,48.1534786 C2.45537079,48.3586758 2.86108657,49.7687485 4.3416857,49.7687485 C5.92766554,49.7687485 6.42295493,48.3876138 6.42295493,48.1508479 L6.42295493,41.4161719 L6.6231783,41.2162362 L8.56481808,41.2162362 L8.76504145,41.4161719 L8.76504145,48.0087883 L8.75450338,48.2929074 C8.65966073,49.0479277 8.04581803,51.9338416 4.3864725,51.9338416 C0.980040703,51.9338416 0.221299514,49.5109367 0.0553248784,48.5875495 L0.00790355406,48.0429878 L0.00790355406,41.2267591 L0,41.2293898 Z M42.8715117,24.5663283 C42.8715117,24.5663283 39.1673794,35.8863715 27.1355356,34.66045 C27.1355356,34.66045 19.2003673,33.5029276 17.8804738,25.1214129 L17.8778393,25.1029978 C17.830418,24.9056928 16.8424737,20.709674 21.7690224,16.9529875 L21.7848295,16.9398339 C21.8375199,16.9082651 22.0693575,16.7898821 21.9639767,17.2292145 C21.8454234,17.726423 20.4017075,18.1499709 19.8221136,22.4038659 C19.2425196,26.6577608 22.8280986,29.1885258 23.7528145,29.8251631 C24.6722613,30.4618005 30.4971806,32.7663224 34.862577,28.5229504 C39.1252271,24.382177 38.5140189,19.0470508 38.4850392,18.7971312 L38.4824047,18.7760854 C38.4745012,18.5393194 38.2769123,13.6882481 33.3951504,9.71058011 C28.4738708,5.70397405 22.4065758,6.89306528 22.2063524,6.93252627 L22.1958143,6.935157 C22.0693575,6.95357213 19.5929105,7.34292059 15.8229152,9.80528649 L15.7149,9.89999287 C15.6464025,10.0078529 15.419834,10.2419881 15.0193872,10.0788827 C14.616306,9.91314654 14.7006105,9.84211675 15.2196106,9.31070872 C15.6990929,8.81876169 15.9783518,8.51096595 16.0178696,8.46624349 L16.0284076,8.45308983 C16.2207274,8.20580095 22.9308448,-0.346711404 34.801983,5.06733671 C35.0996836,5.19887335 35.3710389,5.35145585 35.6423943,5.52771495 C37.8659275,6.91411114 46.5861821,13.2252391 42.8715117,24.5663283 L42.8715117,24.5663283 Z M31.9145513,25.7396351 C28.5212921,29.3858308 25.220241,26.7235292 25.0885151,26.6156691 L25.0806115,26.6104077 C21.7505808,24.1980257 23.5499566,20.4834309 23.6922206,20.2019425 L23.7106622,20.1730045 C25.9447335,17.2555218 28.2446677,17.6106707 29.4407389,18.0947256 C29.9360283,18.2946613 30.3733582,18.6129799 30.7421908,19.0049591 C32.9314752,21.4015567 31.3981858,23.8533997 30.926607,24.4926677 L30.9687593,24.7741562 L31.8855716,25.4397316 L31.9145513,25.7396351 L31.9145513,25.7396351 Z M15.8308188,18.5998263 C14.3291435,21.5646621 14.6716309,24.2611633 14.5530775,24.9556767 C14.4424278,25.6107292 14.0288085,25.0372294 13.9787526,24.9635689 L13.9682145,24.9504153 C13.1146307,23.49562 13.3069505,20.1440664 13.3227576,19.9230849 L13.3227576,19.8967775 C13.6336308,18.1604939 14.6031334,15.5113459 15.4409101,14.6747729 C16.2918594,13.8250462 16.8714534,12.5596637 20.0644892,11.0101621 C23.2706977,9.47381416 26.5032513,9.69742645 29.5566577,11.0101621 C32.6074295,12.3228978 34.9152673,15.6665592 35.1523739,17.0608476 C35.3657699,18.297292 34.5806835,17.4423038 34.4173434,17.2502603 L34.3804602,17.1871227 C34.3435769,17.0792627 34.0485109,16.5794235 31.8065361,14.8247247 C29.1799216,12.7806453 25.6760126,12.2018841 22.9782662,12.8990283 C20.2568091,13.590911 17.3351286,15.6349904 15.8308188,18.5998263 L15.8308188,18.5998263 Z M46.4544562,16.6267767 C45.2715576,6.7588979 37.6393589,2.55498688 34.1486226,1.13439117 C33.2265413,0.758196374 32.2675767,0.474077231 31.2849015,0.308341064 C17.6064839,-1.95671988 11.25993,8.95029833 10.4537675,10.4550775 L10.5301685,10.7207815 L11.9027524,11.5363087 L11.9844225,11.7914898 C6.71802095,23.3193609 13.8575648,31.2773276 16.6975752,33.8422921 C17.2771692,34.3605465 17.9041845,34.8340784 18.5786211,35.2365805 C30.779074,42.5631714 40.4477552,33.5713267 40.4477552,33.5713267 C48.7754666,26.105307 46.4544562,16.6267767 46.4544562,16.6267767 L46.4544562,16.6267767 Z" id="Fill-410"></path>
            </g>
        </g>
    </g>
</svg>