<svg width="128" height="128" viewBox="0 0 128 128" fill="none" xmlns="http://www.w3.org/2000/svg">
<mask id="mask0_3_735" style="mask-type:alpha" maskUnits="userSpaceOnUse" x="0" y="0" width="128" height="128">
<path fill-rule="evenodd" clip-rule="evenodd" d="M52.4602 2.34438e-06C49.7201 -0.00129749 47.0066 0.537934 44.4752 1.58682C41.9439 2.6357 39.6442 4.17363 37.7081 6.11254C35.7719 8.05145 34.2372 10.3532 33.1919 12.8861C32.1466 15.419 31.6112 18.1332 31.6164 20.8733C31.5731 22.5992 31.8987 24.3145 32.5715 25.9045L13.5394 27.5882C10.469 27.6167 7.53414 28.8565 5.37315 31.0378C3.21215 33.219 1.99987 36.1654 2 39.2359L2.29538 49.7906C2.37414 52.9413 3.96918 55.5013 6.03681 57.372C8.10445 59.2033 10.7333 60.4636 13.3129 61.0839C16.1485 61.7731 18.7774 63.2007 20.8352 65.2684C23.818 68.2521 25.4936 72.2983 25.4936 76.5173C25.4936 80.7363 23.818 84.7825 20.8352 87.7662C18.7586 89.8241 16.1564 91.2716 13.3129 91.9507C10.7333 92.571 8.0946 93.8215 6.03681 95.6725C3.96918 97.5235 2.3643 100.093 2.27568 103.254L2 112.657V112.735C2 115.817 3.23074 118.781 5.41652 120.967C5.53357 121.084 5.66222 121.19 5.80051 121.282C7.78938 122.601 10.5068 123.645 13.5985 124.472C17.1376 125.386 20.7323 126.07 24.36 126.52C32.3352 127.573 41.7577 128.046 51.0817 127.997C59.9054 127.984 68.7192 127.406 77.4687 126.264C80.9469 125.807 84.3931 125.132 87.7872 124.245C90.6917 123.458 93.2418 122.483 95.0338 121.262C95.1572 121.174 95.2725 121.075 95.3784 120.967C97.5445 118.8 98.7654 115.886 98.7851 112.844L100.144 96.3223C100.341 96.4011 100.538 96.4897 100.744 96.5586C102.182 97.0903 103.659 97.3364 105.51 97.3364C111.034 97.3364 116.333 95.1431 120.242 91.2384C124.15 87.3337 126.348 82.0371 126.354 76.5124C126.352 73.7769 125.812 71.0685 124.764 68.5418C123.715 66.0152 122.18 63.7199 120.244 61.787C118.308 59.854 116.011 58.3214 113.483 57.2767C110.954 56.232 108.245 55.6956 105.51 55.6982C103.677 55.6633 101.856 56.0086 100.163 56.7123L98.7851 39.1374C98.7595 36.0907 97.5413 33.1754 95.3915 31.0164C93.2417 28.8574 90.3316 27.6267 87.2851 27.5882L72.2701 25.9735L72.4572 25.5402C73.0466 24.0534 73.3279 22.4623 73.2842 20.8634C73.2881 18.1258 72.7524 15.4143 71.7078 12.8839C70.6631 10.3534 69.13 8.05364 67.196 6.11603C65.2621 4.17842 62.9652 2.64096 60.4368 1.59154C57.9083 0.54211 55.1978 0.00129336 52.4602 2.34438e-06Z" fill="black"/>
</mask>
<g mask="url(#mask0_3_735)">
<path d="M33.3811 0H20.0166L20.3175 2.70806C22.255 11.7996 27.9186 19.5498 34.0294 26.4058C35.4593 28.0449 36.9219 29.6515 38.3808 31.254C43.1565 36.4999 47.8933 41.7029 51.3182 47.8678C61.7512 66.4981 58.4723 90.4939 46.996 108.379C44.2124 112.721 35.5815 120.353 29.2808 125.924C28.4536 126.656 27.6665 127.352 26.9382 128H109.333C109.333 120.25 108.252 91.09 106.166 83.4889C101.694 66.6471 92.0067 51.4448 78.891 39.9686C74.0472 35.7954 68.7934 32.1811 63.5397 28.5669C58.286 24.9526 53.0322 21.3383 48.1884 17.1651C44.09 13.6695 37.262 7.05419 33.3811 0Z" fill="url(#paint0_linear_3_735)"/>
<path d="M19.9893 0H0V128H29.5038C30.9863 126.714 32.3754 125.44 33.6309 124.238C38.6306 119.454 43.2431 114.233 46.9429 108.378C58.4328 90.5069 61.7788 66.4422 51.401 47.8786C47.7364 41.3567 42.6525 35.8368 37.5757 30.3246C36.3918 29.0392 35.2083 27.7542 34.0433 26.457C27.9284 19.5173 22.2749 11.7784 20.335 2.77426C20.1891 1.88242 20.0652 0.952633 19.9893 0Z" fill="url(#paint1_linear_3_735)"/>
<path d="M106.667 128H128V0H33.3504C37.2775 7.06011 44.0716 13.7304 48.2558 17.303C52.9977 21.2968 58.111 24.824 63.2261 28.3524C68.5939 32.0552 73.9637 35.7593 78.9081 40.0052C92.0371 51.4464 101.662 66.7277 106.15 83.4761C107.773 89.2727 107.218 107.907 106.865 119.773C106.761 123.271 106.675 126.181 106.667 128Z" fill="url(#paint2_linear_3_735)"/>
</g>
<defs>
<linearGradient id="paint0_linear_3_735" x1="64.5634" y1="144" x2="64.5634" y2="-5.04214" gradientUnits="userSpaceOnUse">
<stop stop-color="#00BFFF"/>
<stop offset="1" stop-color="#92FE9D"/>
</linearGradient>
<linearGradient id="paint1_linear_3_735" x1="62.2973" y1="81.968" x2="-17.6099" y2="35.8337" gradientUnits="userSpaceOnUse">
<stop stop-color="#00BFFF"/>
<stop offset="1" stop-color="#92FE9D"/>
</linearGradient>
<linearGradient id="paint2_linear_3_735" x1="26.537" y1="2.90598" x2="133.79" y2="64.8286" gradientUnits="userSpaceOnUse">
<stop stop-color="#00BFFF"/>
<stop offset="1" stop-color="#92FE9D"/>
</linearGradient>
</defs>
</svg>
