<svg width="128" height="128" viewBox="0 0 128 128" fill="none" xmlns="http://www.w3.org/2000/svg">
<mask id="mask0_3_668" style="mask-type:alpha" maskUnits="userSpaceOnUse" x="0" y="12" width="128" height="105">
<path fill-rule="evenodd" clip-rule="evenodd" d="M25.2871 14.3514C37.6225 13.2136 50.6406 12 64 12C77.3689 12 90.3775 13.2041 102.713 14.3514L103.5 14.4273C108.996 14.9491 114.156 17.3055 118.15 21.1169C122.143 24.9282 124.738 29.9728 125.516 35.4382C126.786 44.5404 128 54.2116 128 64.1481C128 74.0942 126.786 83.7559 125.516 92.8581C124.738 98.3235 122.143 103.368 118.15 107.179C114.156 110.991 108.996 113.347 103.5 113.869L102.713 113.945C90.3775 115.083 77.3594 116.296 64 116.296C50.6311 116.296 37.6225 115.092 25.2871 113.945L24.5001 113.869C19.0044 113.347 13.8441 110.991 9.85046 107.179C5.85678 103.368 3.26206 98.3235 2.48415 92.8581C1.21363 83.7559 0 74.0847 0 64.1481C0 54.2021 1.21363 44.5404 2.48415 35.4382C3.26206 29.9728 5.85678 24.9282 9.85046 21.1169C13.8441 17.3055 19.0044 14.9491 24.5001 14.4273L25.2871 14.3514ZM54.4806 64.1481C54.4806 68.9712 52.5646 73.5968 49.1542 77.0072C45.7437 80.4177 41.1182 82.3336 36.2951 82.3336C31.472 82.3336 26.8465 80.4177 23.436 77.0072C20.0256 73.5968 18.1096 68.9712 18.1096 64.1481C18.1096 59.3251 20.0256 54.6995 23.436 51.2891C26.8465 47.8786 31.472 45.9627 36.2951 45.9627C41.1182 45.9627 45.7437 47.8786 49.1542 51.2891C52.5646 54.6995 54.4806 59.3251 54.4806 64.1481ZM75.8519 49.9259C75.8519 46.6548 78.5067 44 81.7778 44H100.741C102.312 44 103.82 44.6243 104.931 45.7357C106.042 46.847 106.667 48.3543 106.667 49.9259C106.667 51.4976 106.042 53.0049 104.931 54.1162C103.82 55.2275 102.312 55.8519 100.741 55.8519H81.7778C80.2061 55.8519 78.6988 55.2275 77.5875 54.1162C76.4762 53.0049 75.8519 51.4976 75.8519 49.9259ZM81.7778 72.4444C80.2061 72.4444 78.6988 73.0688 77.5875 74.1801C76.4762 75.2914 75.8519 76.7987 75.8519 78.3704C75.8519 79.942 76.4762 81.4493 77.5875 82.5606C78.6988 83.672 80.2061 84.2963 81.7778 84.2963H100.741C102.312 84.2963 103.82 83.672 104.931 82.5606C106.042 81.4493 106.667 79.942 106.667 78.3704C106.667 76.7987 106.042 75.2914 104.931 74.1801C103.82 73.0688 102.312 72.4444 100.741 72.4444H81.7778Z" fill="black"/>
</mask>
<g mask="url(#mask0_3_668)">
<path fill-rule="evenodd" clip-rule="evenodd" d="M129.001 120.16L123.012 143.317L-25.6028 96.7743L-18.8975 70.8502C-16.7101 73.3257 -14.3979 75.7094 -11.9707 77.9864C1.7797 90.8085 19.3802 100.165 37.6092 104.437C49.3506 107.156 61.3593 107.819 73.3016 108.478C91.2337 109.468 109.016 110.45 125.52 118.372C126.702 118.937 127.862 119.533 129.001 120.16Z" fill="url(#paint0_linear_3_668)"/>
<path fill-rule="evenodd" clip-rule="evenodd" d="M45.8618 -9.25669L5.12222 -22.0153L-17.874 66.8931C-15.0019 70.6221 -11.8699 74.1711 -8.4966 77.4855C5.06578 90.9117 22.4622 100.793 40.499 105.146C52.0809 108.008 63.943 108.715 75.7493 109.418C93.3837 110.469 110.893 111.512 127.158 119.719C127.735 120.015 128.308 120.32 128.878 120.636L144.406 60.6024L45.8618 -9.25669Z" fill="url(#paint1_linear_3_668)"/>
<path fill-rule="evenodd" clip-rule="evenodd" d="M136.291 91.9778L153.737 24.527L6.67523 -21.5289C6.66675 -21.348 6.65812 -21.1661 6.64944 -20.9835C6.14918 -10.4532 5.51309 2.93615 28.9323 24.3621C37.0674 31.8048 47.9649 35.6852 60.5933 40.1819C76.6262 45.8908 95.449 52.5933 114.951 68.8404C121.014 73.8913 128.904 82.6395 136.291 91.9778Z" fill="url(#paint2_linear_3_668)"/>
</g>
<defs>
<linearGradient id="paint0_linear_3_668" x1="11.2404" y1="130.705" x2="73.9665" y2="63.9967" gradientUnits="userSpaceOnUse">
<stop stop-color="#0072FF"/>
<stop offset="1" stop-color="#00C6FF"/>
</linearGradient>
<linearGradient id="paint1_linear_3_668" x1="156.225" y1="60.9865" x2="-5.7213" y2="122.512" gradientUnits="userSpaceOnUse">
<stop stop-color="#0072FF"/>
<stop offset="1" stop-color="#00C6FF"/>
</linearGradient>
<linearGradient id="paint2_linear_3_668" x1="124.908" y1="-9.28426" x2="80.5674" y2="39.1278" gradientUnits="userSpaceOnUse">
<stop stop-color="#0072FF"/>
<stop offset="1" stop-color="#00C6FF"/>
</linearGradient>
</defs>
</svg>
