<svg width="124" height="123" viewBox="0 0 124 123" fill="none" xmlns="http://www.w3.org/2000/svg">
<path fill-rule="evenodd" clip-rule="evenodd" d="M3.63886 97.7143C2.048 96.8457 0 97.952 0 99.7806V100C0 106.062 2.40816 111.876 6.6947 116.162C10.9812 120.449 16.7951 122.857 22.8571 122.857H100.571C106.634 122.857 112.447 120.449 116.734 116.162C121.02 111.876 123.429 106.062 123.429 100V95.3006C123.429 94.9985 123.367 94.6996 123.246 94.4229C119.863 86.6789 110.839 76 91.8857 76C77.2571 76 67.52 81.9794 58.176 88.6537C57.2343 89.3211 56.2834 90.0251 55.3143 90.7291C47.1314 96.6994 37.8971 103.429 26.0571 103.429C18.2258 103.438 10.5093 101.473 3.63886 97.7143Z" fill="url(#paint0_linear_3_800)"/>
<path fill-rule="evenodd" clip-rule="evenodd" d="M22.8573 0C16.7952 0 10.9814 2.40816 6.69483 6.6947C2.40829 10.9812 0.000129497 16.7951 0.000129497 22.8571V34.6514C-0.00616675 35.2313 0.217356 35.7901 0.621844 36.2057C7.36316 42.9715 16.5064 46.7971 26.0573 46.848C33.9658 46.848 40.0458 42.4686 48.823 36.1509L51.5384 34.1943C61.3944 27.1543 73.591 19.4194 91.8858 19.4194C103.68 19.4194 112.695 22.7109 119.415 27.3737C121.042 28.5074 123.429 27.4103 123.429 25.4354V22.8571C123.429 16.7951 121.021 10.9812 116.734 6.6947C112.447 2.40816 106.634 0 100.572 0H22.8573Z" fill="url(#paint1_linear_3_800)"/>
<path fill-rule="evenodd" clip-rule="evenodd" d="M0.621844 82.0629C0.217356 81.6473 -0.00616675 81.0885 0.000129497 80.5086V54.7806C0.000129497 52.952 2.04813 51.8457 3.64813 52.7143C9.68241 56.0057 17.2161 58.4286 26.0573 58.4286C37.8973 58.4286 47.1316 51.6994 55.3144 45.72C56.2836 45.016 57.2344 44.3211 58.1761 43.6537C67.5201 36.9794 77.2664 31 91.8858 31C110.839 31 119.863 41.6789 123.246 49.4229C123.374 49.6971 123.429 49.9989 123.429 50.3006V71.3017C123.429 73.2766 121.042 74.3737 119.415 73.2491C112.695 68.5863 103.68 65.2857 91.8858 65.2857C73.6001 65.2857 61.3944 73.0206 51.5384 80.0606L48.823 82.008C40.0458 88.3349 33.9658 92.7143 26.0573 92.7143C16.5024 92.6655 7.3562 88.8321 0.621844 82.0537V82.0629Z" fill="url(#paint2_linear_3_800)"/>
<defs>
<linearGradient id="paint0_linear_3_800" x1="38.3515" y1="70.045" x2="115.542" y2="238.805" gradientUnits="userSpaceOnUse">
<stop stop-color="#FC00FF"/>
<stop offset="1" stop-color="#0575E6"/>
</linearGradient>
<linearGradient id="paint1_linear_3_800" x1="58.1616" y1="74.8579" x2="58.1616" y2="-6.80524" gradientUnits="userSpaceOnUse">
<stop stop-color="#0575E6"/>
<stop offset="1" stop-color="#FC00FF"/>
</linearGradient>
<linearGradient id="paint2_linear_3_800" x1="62.7306" y1="14.8954" x2="62.7306" y2="175.315" gradientUnits="userSpaceOnUse">
<stop stop-color="#FC00FF"/>
<stop offset="1" stop-color="#0575E6"/>
</linearGradient>
</defs>
</svg>
