<svg width="128" height="128" viewBox="0 0 128 128" fill="none" xmlns="http://www.w3.org/2000/svg">
<mask id="mask0_3_565" style="mask-type:alpha" maskUnits="userSpaceOnUse" x="0" y="0" width="128" height="128">
<g clip-path="url(#clip0_3_565)">
<path fill-rule="evenodd" clip-rule="evenodd" d="M16.9336 8.94847e-05C17.7029 -0.00458112 18.4626 0.173644 19.1517 0.520469C19.8408 0.867294 20.4402 1.37307 20.9018 1.99722C23.4717 5.47223 28.1095 8.07849 35.0218 10.1455C41.3039 12.0328 48.6986 13.281 56.8024 14.6391L59.0572 15.0185C67.8797 16.5164 77.3521 18.2139 86.155 21.0998C94.9676 23.9956 103.436 28.2096 110.082 34.9499C122.646 47.6916 128.446 61.7714 127.973 75.7813C127.707 82.727 126.003 89.5383 122.971 95.7726C121.15 99.5671 115.783 98.7183 113.972 94.9138C110.338 87.2848 105.09 80.834 98.9063 75.2221C87.3169 64.7471 72.1728 57.0082 58.0923 49.8186L57.4719 49.499C56.0134 48.7548 54.3231 48.6287 52.7729 49.1484C51.2227 49.668 49.9396 50.7909 49.2057 52.27C48.4719 53.7491 48.3475 55.4633 48.86 57.0354C49.3724 58.6075 50.4797 59.9088 51.9382 60.653C66.5702 68.1223 80.3947 75.2121 90.7041 84.5387C99.4281 92.4274 105.375 101.734 106.774 114.136C106.86 114.91 106.746 115.692 106.442 116.407C106.138 117.122 105.655 117.743 105.041 118.21C84.2546 134.048 52.913 130.383 27.9618 109.293C11.4589 95.3632 2.71518 75.5416 0.53909 55.8998C-1.62715 36.3279 2.70533 16.3965 12.995 2.05714C13.4474 1.42601 14.0393 0.911181 14.7233 0.553949C15.4073 0.196717 16.1643 0.00702553 16.9336 8.94847e-05Z" fill="black"/>
</g>
</mask>
<g mask="url(#mask0_3_565)">
<path d="M120.374 127.404L170.518 24.5847L17.5847 -50L13.6359 -41.9032C24.1349 -26.7301 46.9682 11.5007 51.2733 24.5785C53.8193 32.3485 55.674 40.3301 57.5276 48.3064C59.9872 58.891 62.4447 69.4666 66.5127 79.5269C73.7625 97.3409 86.6845 113.336 103.951 122.01C109.112 124.574 114.672 126.397 120.374 127.404Z" fill="url(#paint0_linear_3_565)"/>
<path d="M-10.2219 7.01671L13.8103 -42.2606C30.5834 -22.7802 48.3271 -2.74945 52.8072 24.8576C54.0996 32.8216 55.9559 40.0821 57.7922 47.9944C60.2567 58.6138 62.39 69.4227 66.468 79.412C73.7802 97.4129 86.6974 112.879 104 121.554C109.216 124.098 114.673 126.407 120.363 127.426L114.58 139.285C111.877 138.984 108.927 138.718 106.246 138.178C85.1805 133.821 66.2796 119.87 55.3492 101.525C49.9763 92.5942 47.1844 82.5375 43.7108 72.7074C40.932 64.8432 38.1532 56.9791 34.4019 49.5755C24.9241 30.8741 8.76031 15.9341 -10.2219 7.01671Z" fill="url(#paint1_linear_3_565)"/>
<path d="M114.859 138.713L95.9335 177.518L-57 102.934L-10.1963 6.96408C-9.74268 7.17614 -9.28984 7.39206 -8.83775 7.61187C9.46029 16.6885 25.1965 31.3262 34.4711 49.4207C38.2438 56.9562 41.0238 64.891 43.7958 72.8026C47.2238 82.5869 50.6395 92.3358 55.905 101.25C66.8915 119.543 85.5688 133.237 106.537 137.581C109.217 138.102 112.138 138.43 114.859 138.713Z" fill="url(#paint2_linear_3_565)"/>
</g>
<defs>
<linearGradient id="paint0_linear_3_565" x1="60.3387" y1="73.9074" x2="146.549" y2="15.7534" gradientUnits="userSpaceOnUse">
<stop stop-color="#00A1FF"/>
<stop offset="1" stop-color="#92FE9D"/>
</linearGradient>
<linearGradient id="paint1_linear_3_565" x1="-37.1537" y1="10.9469" x2="154.013" y2="104.178" gradientUnits="userSpaceOnUse">
<stop stop-color="#00A1FF"/>
<stop offset="1" stop-color="#92FE9D"/>
</linearGradient>
<linearGradient id="paint2_linear_3_565" x1="-69.5999" y1="167.553" x2="85.3595" y2="63.0244" gradientUnits="userSpaceOnUse">
<stop stop-color="#00C9FF"/>
<stop offset="1" stop-color="#92FE9D"/>
</linearGradient>
<clipPath id="clip0_3_565">
<rect width="128" height="128" fill="white"/>
</clipPath>
</defs>
</svg>
