<svg width="128" height="128" viewBox="0 0 128 128" fill="none" xmlns="http://www.w3.org/2000/svg">
<mask id="mask0_3_562" style="mask-type:alpha" maskUnits="userSpaceOnUse" x="0" y="0" width="128" height="128">
<path fill-rule="evenodd" clip-rule="evenodd" d="M1.56446 18.7339C1.10481 18.9001 0.707774 19.2043 0.427714 19.6049C0.147655 20.0054 -0.00173086 20.4828 1.51322e-05 20.9715V42.8927C1.51322e-05 44.2012 1.06194 45.2631 2.37039 45.2631C11.5295 45.2631 18.963 52.6966 18.963 61.8557V77.6423C21.2202 76.0961 23.7853 75.0567 26.4821 74.5954C29.179 74.1341 31.9437 74.2618 34.5865 74.9698C37.2293 75.6778 39.6876 76.9493 41.7927 78.697C43.8977 80.4447 45.5997 82.6272 46.7816 85.0948C47.1866 84.656 47.4102 84.08 47.4074 83.4829V61.8557C47.4074 57.455 49.1556 53.2347 52.2673 50.1229C55.379 47.0112 59.5994 45.2631 64 45.2631C68.4006 45.2631 72.621 47.0112 75.7327 50.1229C78.8445 53.2347 80.5926 57.455 80.5926 61.8557V83.4829C80.5908 84.0798 80.8143 84.6555 81.2184 85.0948C82.3995 82.6265 84.1007 80.443 86.2054 78.6943C88.31 76.9456 90.7682 75.6731 93.4111 74.9642C96.054 74.2553 98.819 74.1267 101.516 74.5874C104.214 75.048 106.779 76.087 109.037 77.6328V61.8557C109.037 52.6966 116.471 45.2631 125.63 45.2631C126.258 45.2631 126.861 45.0134 127.306 44.5688C127.75 44.1243 128 43.5214 128 42.8927V20.9621C128 20.4749 127.85 19.9997 127.57 19.601C127.29 19.2023 126.894 18.8995 126.436 18.7339H126.407L126.35 18.7055L126.123 18.6296C124.751 18.172 123.37 17.7452 121.979 17.3496C117.861 16.183 113.699 15.1804 109.502 14.344C94.5144 11.4018 79.2732 9.94726 64 10.0015C44.8569 10.0015 29.2978 12.1727 18.4889 14.344C13.0939 15.4343 8.88416 16.5247 6.01127 17.3496C4.62392 17.7454 3.2456 18.1722 1.87735 18.6296L1.64979 18.7055L1.5929 18.7244L1.56446 18.7339ZM36.7882 93.2868C36.7882 91.4008 36.039 89.5921 34.7054 88.2585C33.3718 86.9249 31.563 86.1757 29.6771 86.1757C27.7911 86.1757 25.9823 86.9249 24.6487 88.2585C23.3151 89.5921 22.5659 91.4008 22.5659 93.2868C22.5659 95.9523 21.5071 98.5087 19.6223 100.393C17.7374 102.278 15.1811 103.337 12.5156 103.337H8.22994C6.34396 103.337 4.53522 104.086 3.20163 105.42C1.86803 106.754 1.11883 108.562 1.11883 110.448C1.11883 112.334 1.86803 114.143 3.20163 115.477C4.53522 116.81 6.34396 117.559 8.22994 117.559H12.5156C18.9535 117.559 25.1259 114.999 29.6771 110.448C34.2289 114.999 40.4019 117.556 46.8385 117.556C53.2751 117.556 59.4482 114.999 64 110.448C68.5519 114.999 74.7249 117.556 81.1615 117.556C87.5981 117.556 93.7711 114.999 98.323 110.448C102.874 114.999 109.047 117.559 115.484 117.559H119.78C121.666 117.559 123.474 116.81 124.808 115.477C126.141 114.143 126.891 112.334 126.891 110.448C126.891 108.562 126.141 106.754 124.808 105.42C123.474 104.086 121.666 103.337 119.78 103.337H115.484C114.165 103.337 112.858 103.077 111.638 102.572C110.419 102.067 109.311 101.327 108.378 100.393C107.445 99.4602 106.704 98.3523 106.199 97.1329C105.694 95.9135 105.434 94.6066 105.434 93.2868C105.434 91.4008 104.685 89.5921 103.351 88.2585C102.018 86.9249 100.209 86.1757 98.323 86.1757C96.437 86.1757 94.6283 86.9249 93.2947 88.2585C91.9611 89.5921 91.2119 91.4008 91.2119 93.2868C91.2119 94.6066 90.9519 95.9135 90.4468 97.1329C89.9417 98.3523 89.2014 99.4602 88.2682 100.393C87.3349 101.327 86.227 102.067 85.0076 102.572C83.7882 103.077 82.4813 103.337 81.1615 103.337C79.8417 103.337 78.5348 103.077 77.3154 102.572C76.096 102.067 74.9881 101.327 74.0548 100.393C73.1215 99.4602 72.3812 98.3523 71.8762 97.1329C71.3711 95.9135 71.1111 94.6066 71.1111 93.2868C71.1111 91.4008 70.3619 89.5921 69.0283 88.2585C67.6947 86.9249 65.886 86.1757 64 86.1757C62.114 86.1757 60.3053 86.9249 58.9717 88.2585C57.6381 89.5921 56.8889 91.4008 56.8889 93.2868C56.8889 95.9523 55.83 98.5087 53.9452 100.393C52.0604 102.278 49.5041 103.337 46.8385 103.337C44.173 103.337 41.6167 102.278 39.7318 100.393C37.847 98.5087 36.7882 95.9523 36.7882 93.2868Z" fill="black"/>
</mask>
<g mask="url(#mask0_3_562)">
<path fill-rule="evenodd" clip-rule="evenodd" d="M-12.1628 57.8262L-13.3852 34.3798C-11.6109 33.116 -9.76953 31.9316 -7.85853 30.8331C2.22045 25.0104 13.8107 21.7576 25.433 21.1516C32.512 20.7825 39.7518 21.4645 46.6185 23.1195C60.7801 26.513 73.455 33.9039 85.9186 41.3059C98.3877 48.8135 111.068 56.3102 125.035 60.0316C131.907 61.8464 139.206 62.6282 146.27 62.0044L150.012 133.786L73.4552 137.777C71.5423 131.733 69.7738 123.524 67.9525 115.071C65.2662 102.603 62.4652 89.6028 58.9175 82.2309C49.896 63.6313 28.6484 52.3435 7.93405 53.3175C1.3688 53.5966 -5.54414 55.1783 -12.1628 57.8262Z" fill="url(#paint0_linear_3_562)"/>
<path fill-rule="evenodd" clip-rule="evenodd" d="M73.4549 137.777L-7.77367 142.012L-12.1633 57.8157C-5.61779 55.22 1.22408 53.6606 7.71556 53.369L7.94757 53.278C28.6509 52.2775 49.9197 63.6377 58.9405 82.2656C62.5137 89.6365 65.2999 102.628 67.9736 115.095C69.7825 123.53 71.54 131.725 73.4549 137.777Z" fill="url(#paint1_linear_3_562)"/>
<path fill-rule="evenodd" clip-rule="evenodd" d="M146.269 61.9991L141.786 -24L-16 -15.7737L-13.3818 34.4449C-11.5966 33.1811 -9.74649 31.9967 -7.8295 30.8995C8.41851 21.5007 28.3731 18.7061 46.6552 23.0887C60.7216 26.5215 73.4625 33.9705 85.908 41.3617C86.3225 41.6063 86.737 41.8511 87.1517 42.096C99.2625 49.2482 111.495 56.4724 125.107 60.003C131.943 61.8225 139.213 62.6096 146.269 61.9991Z" fill="url(#paint2_linear_3_562)"/>
</g>
<defs>
<linearGradient id="paint0_linear_3_562" x1="77.0081" y1="124.407" x2="71.4995" y2="18.75" gradientUnits="userSpaceOnUse">
<stop stop-color="#0072FF"/>
<stop offset="0.65" stop-color="#00C6FF"/>
<stop offset="1" stop-color="#00C6FF"/>
</linearGradient>
<linearGradient id="paint1_linear_3_562" x1="-23.0215" y1="62.343" x2="59.786" y2="136.944" gradientUnits="userSpaceOnUse">
<stop stop-color="#0072FF"/>
<stop offset="1" stop-color="#00C6FF"/>
</linearGradient>
<linearGradient id="paint2_linear_3_562" x1="73.9532" y1="65.8129" x2="70.1528" y2="-7.08081" gradientUnits="userSpaceOnUse">
<stop stop-color="#0072FF"/>
<stop offset="1" stop-color="#00C6FF"/>
</linearGradient>
</defs>
</svg>
