<svg width="128" height="129" viewBox="0 0 128 129" fill="none" xmlns="http://www.w3.org/2000/svg">
<mask id="mask0_3_583" style="mask-type:alpha" maskUnits="userSpaceOnUse" x="0" y="0" width="128" height="129">
<path fill-rule="evenodd" clip-rule="evenodd" d="M24.9331 33.6894C22.7564 34.4711 20.2532 34.8668 17.4334 34.8668C6.28275 34.8668 0 28.594 0 17.4334C0 6.28275 6.28275 0 17.4334 0C28.594 0 34.8668 6.28275 34.8668 17.4334C34.8668 20.2532 34.471 22.7762 33.6795 24.9529L56.4953 47.7588C58.672 46.9673 61.1752 46.5715 64.0049 46.5715C66.8248 46.5715 69.328 46.9673 71.5047 47.7588L94.3205 24.943C93.4953 22.5269 93.0936 19.9863 93.1332 17.4334C93.1332 6.28275 99.406 0 110.567 0C121.727 0 128 6.28275 128 17.4334C128 28.594 121.727 34.8668 110.567 34.8668C107.747 34.8668 105.244 34.471 103.067 33.6795L80.2511 56.5052C81.0327 58.6819 81.4384 61.195 81.4384 64.0148C81.4384 75.1754 75.1556 81.4482 64.0049 81.4482C61.1752 81.4482 58.6621 81.0525 56.4953 80.261L33.6894 103.077C34.4612 105.253 34.8668 107.757 34.8668 110.586C34.8668 121.737 28.594 128.02 17.4334 128.02C6.28275 128.02 0 121.737 0 110.586C0 99.4258 6.28275 93.153 17.4334 93.153C20.2532 93.153 22.7663 93.5487 24.9331 94.3403L47.7489 71.5245C46.923 69.1051 46.5213 66.5611 46.5616 64.0049C46.5616 61.1851 46.9673 58.672 47.7489 56.4953L24.9331 33.6894ZM34.8668 64.0049C34.8668 75.1655 28.594 81.4384 17.4334 81.4384C6.28275 81.4384 0 75.1655 0 64.0049C0 52.8444 6.28275 46.5715 17.4334 46.5715C28.594 46.5715 34.8668 52.8444 34.8668 64.0049ZM81.4285 110.576C81.4285 121.727 75.1556 128.01 64.0049 128.01C52.8444 128.01 46.5715 121.727 46.5715 110.576C46.5715 99.4159 52.8444 93.1431 64.0049 93.1431C75.1556 93.1431 81.4285 99.4159 81.4285 110.576ZM64.0049 34.8668C75.1556 34.8668 81.4285 28.594 81.4285 17.4334C81.4285 6.28275 75.1556 0 64.0049 0C52.8444 0 46.5715 6.28275 46.5715 17.4334C46.5715 28.594 52.8444 34.8668 64.0049 34.8668ZM128 64.0049C128 75.1655 121.727 81.4384 110.567 81.4384C99.406 81.4384 93.1332 75.1655 93.1332 64.0049C93.1332 52.8444 99.406 46.5715 110.567 46.5715C121.727 46.5715 128 52.8444 128 64.0049ZM110.567 128.01C121.727 128.01 128 121.727 128 110.576C128 99.4159 121.727 93.1431 110.567 93.1431C99.406 93.1431 93.1332 99.4159 93.1332 110.576C93.1332 121.727 99.406 128.01 110.567 128.01Z" fill="black"/>
</mask>
<g mask="url(#mask0_3_583)">
<path fill-rule="evenodd" clip-rule="evenodd" d="M-28.1463 96.1662L0.762909 188.994L186.44 131.168L154.03 27.0988C148.025 42.3072 137.198 55.619 122.368 61.5414C106.934 67.8743 89.2499 65.5386 72.6936 62.1731C70.5203 61.7136 68.3424 61.2349 66.1606 60.7554C51.8236 57.6044 37.3233 54.4176 22.9169 56.3932C8.22166 58.169 -5.67127 65.3397 -15.731 76.3748C-20.4111 81.384 -23.9778 87.244 -26.881 93.5262L-28.1463 96.1662Z" fill="url(#paint0_linear_3_583)"/>
<path fill-rule="evenodd" clip-rule="evenodd" d="M153.99 26.9693L126.391 -61.6507L-59.2866 -3.82527L-28.0485 96.4803C-24.5398 89.5659 -19.2887 80.2765 -15.7849 76.3518C-5.69318 65.33 9.19532 60.3632 23.7582 58.4455C40.5163 56.3268 56.2377 58.6182 72.7554 62.1316C89.273 65.645 106.897 67.9193 122.407 61.5532C137.22 55.6612 148.068 42.2521 153.99 26.9693Z" fill="url(#paint1_linear_3_583)"/>
</g>
<defs>
<linearGradient id="paint0_linear_3_583" x1="30.1512" y1="24.9807" x2="145.952" y2="128.361" gradientUnits="userSpaceOnUse">
<stop stop-color="#FD1D6C"/>
<stop offset="1" stop-color="#FCB045"/>
</linearGradient>
<linearGradient id="paint1_linear_3_583" x1="-46.4923" y1="-23.8842" x2="93.7286" y2="101.298" gradientUnits="userSpaceOnUse">
<stop stop-color="#FD1D6C"/>
<stop offset="1" stop-color="#FCB045"/>
</linearGradient>
</defs>
</svg>
