<svg width="128" height="128" viewBox="0 0 128 128" fill="none" xmlns="http://www.w3.org/2000/svg">
<mask id="mask0_3_761" style="mask-type:alpha" maskUnits="userSpaceOnUse" x="0" y="0" width="128" height="128">
<path fill-rule="evenodd" clip-rule="evenodd" d="M52.4602 2.34438e-06C49.7201 -0.00129749 47.0066 0.537934 44.4752 1.58682C41.9439 2.6357 39.6442 4.17363 37.7081 6.11254C35.7719 8.05145 34.2372 10.3532 33.1919 12.8861C32.1466 15.419 31.6112 18.1332 31.6164 20.8733C31.5731 22.5992 31.8987 24.3145 32.5715 25.9045L13.5394 27.5882C10.469 27.6167 7.53414 28.8565 5.37315 31.0378C3.21215 33.219 1.99987 36.1654 2 39.2359L2.29538 49.7906C2.37414 52.9413 3.96918 55.5013 6.03681 57.372C8.10445 59.2033 10.7333 60.4636 13.3129 61.0839C16.1485 61.7731 18.7774 63.2007 20.8352 65.2684C23.818 68.2521 25.4936 72.2983 25.4936 76.5173C25.4936 80.7363 23.818 84.7825 20.8352 87.7662C18.7586 89.8241 16.1564 91.2716 13.3129 91.9507C10.7333 92.571 8.0946 93.8215 6.03681 95.6725C3.96918 97.5235 2.3643 100.093 2.27568 103.254L2 112.657V112.735C2 115.817 3.23074 118.781 5.41652 120.967C5.53357 121.084 5.66222 121.19 5.80051 121.282C7.78938 122.601 10.5068 123.645 13.5985 124.472C17.1376 125.386 20.7323 126.07 24.36 126.52C32.3352 127.573 41.7577 128.046 51.0817 127.997C59.9054 127.984 68.7192 127.406 77.4687 126.264C80.9469 125.807 84.3931 125.132 87.7872 124.245C90.6917 123.458 93.2418 122.483 95.0338 121.262C95.1572 121.174 95.2725 121.075 95.3784 120.967C97.5445 118.8 98.7654 115.886 98.7851 112.844L100.144 96.3223C100.341 96.4011 100.538 96.4897 100.744 96.5586C102.182 97.0903 103.659 97.3364 105.51 97.3364C111.034 97.3364 116.333 95.1431 120.242 91.2384C124.15 87.3337 126.348 82.0371 126.354 76.5124C126.352 73.7769 125.812 71.0685 124.764 68.5418C123.715 66.0152 122.18 63.7199 120.244 61.787C118.308 59.854 116.011 58.3214 113.483 57.2767C110.954 56.232 108.245 55.6956 105.51 55.6982C103.677 55.6633 101.856 56.0086 100.163 56.7123L98.7851 39.1374C98.7595 36.0907 97.5413 33.1754 95.3915 31.0164C93.2417 28.8574 90.3316 27.6267 87.2851 27.5882L72.2701 25.9735L72.4572 25.5402C73.0466 24.0534 73.3279 22.4623 73.2842 20.8634C73.2881 18.1258 72.7524 15.4143 71.7078 12.8839C70.6631 10.3534 69.13 8.05364 67.196 6.11603C65.2621 4.17842 62.9652 2.64096 60.4368 1.59154C57.9083 0.54211 55.1978 0.00129336 52.4602 2.34438e-06Z" fill="black"/>
</mask>
<g mask="url(#mask0_3_761)">
<path d="M128 60.79V0H0V70.8355C14.9646 59.8786 35.1858 56.0455 53.3333 59.8725C59.3715 61.1398 64.8526 63.4634 70.4001 65.8153C74.3781 67.5018 78.3903 69.2028 82.6667 70.5391C92.7787 73.8672 104.48 74.6355 114.592 71.1795C119.967 69.3878 124.878 65.5835 128 60.79Z" fill="url(#paint0_linear_3_761)"/>
<path d="M128 103.705V128H-1.52588e-05V80.2939C4.02826 77.0565 8.4225 74.3645 13.3333 72C19.7752 68.815 27.4067 66.5842 34.6666 66.6666C40.7782 66.6107 47.6678 69.1271 53.3333 72C59.4613 75.2206 65.5361 80.6627 71.3853 85.9028C74.321 88.5326 77.1998 91.1116 80 93.3333C91.9485 102.462 104.537 107.223 119.565 105.492C122.349 105.12 125.208 104.471 128 103.705Z" fill="url(#paint1_linear_3_761)"/>
<path d="M-1.52588e-05 83.2466V69.6021C14.9353 58.6077 34.7479 54.2202 52.8939 58.0469C59.4902 59.4313 65.8274 61.852 72.2023 64.2869C75.8474 65.6793 79.5047 67.0763 83.2299 68.2869C93.3419 71.6149 104.478 73.4069 114.59 69.9509C119.966 68.1588 124.878 64.353 128 59.5578V103.758C125.2 104.58 122.327 105.197 119.454 105.535C104.478 107.327 88.8619 102.975 76.8299 93.7589C73.613 91.2731 70.6559 88.4532 67.7042 85.6385C62.9045 81.0614 58.119 76.498 52.2539 73.4069C40.4779 67.2629 25.7579 68.2869 13.7259 74.1749C8.68564 76.5423 4.14659 79.6387 -1.52588e-05 83.2466Z" fill="url(#paint2_linear_3_761)"/>
</g>
<defs>
<linearGradient id="paint0_linear_3_761" x1="60.3157" y1="117.334" x2="60.3157" y2="-10.6667" gradientUnits="userSpaceOnUse">
<stop stop-color="#0575E6"/>
<stop offset="1" stop-color="#FC00FF"/>
</linearGradient>
<linearGradient id="paint1_linear_3_761" x1="39.7719" y1="58.8693" x2="155.439" y2="259.211" gradientUnits="userSpaceOnUse">
<stop stop-color="#FC00FF"/>
<stop offset="1" stop-color="#0575E6"/>
</linearGradient>
<linearGradient id="paint2_linear_3_761" x1="65.0539" y1="43.8389" x2="65.0539" y2="171.839" gradientUnits="userSpaceOnUse">
<stop stop-color="#FC00FF"/>
<stop offset="1" stop-color="#0575E6"/>
</linearGradient>
</defs>
</svg>
