<svg width="128" height="128" viewBox="0 0 128 128" fill="none" xmlns="http://www.w3.org/2000/svg">
<mask id="mask0_3_753" style="mask-type:alpha" maskUnits="userSpaceOnUse" x="0" y="0" width="128" height="128">
<path fill-rule="evenodd" clip-rule="evenodd" d="M52.4602 2.34438e-06C49.7201 -0.00129749 47.0066 0.537934 44.4752 1.58682C41.9439 2.6357 39.6442 4.17363 37.7081 6.11254C35.7719 8.05145 34.2372 10.3532 33.1919 12.8861C32.1466 15.419 31.6112 18.1332 31.6164 20.8733C31.5731 22.5992 31.8987 24.3145 32.5715 25.9045L13.5394 27.5882C10.469 27.6167 7.53414 28.8565 5.37315 31.0378C3.21215 33.219 1.99987 36.1654 2 39.2359L2.29538 49.7906C2.37414 52.9413 3.96918 55.5013 6.03681 57.372C8.10445 59.2033 10.7333 60.4636 13.3129 61.0839C16.1485 61.7731 18.7774 63.2007 20.8352 65.2684C23.818 68.2521 25.4936 72.2983 25.4936 76.5173C25.4936 80.7363 23.818 84.7825 20.8352 87.7662C18.7586 89.8241 16.1564 91.2716 13.3129 91.9507C10.7333 92.571 8.0946 93.8215 6.03681 95.6725C3.96918 97.5235 2.3643 100.093 2.27568 103.254L2 112.657V112.735C2 115.817 3.23074 118.781 5.41652 120.967C5.53357 121.084 5.66222 121.19 5.80051 121.282C7.78938 122.601 10.5068 123.645 13.5985 124.472C17.1376 125.386 20.7323 126.07 24.36 126.52C32.3352 127.573 41.7577 128.046 51.0817 127.997C59.9054 127.984 68.7192 127.406 77.4687 126.264C80.9469 125.807 84.3931 125.132 87.7872 124.245C90.6917 123.458 93.2418 122.483 95.0338 121.262C95.1572 121.174 95.2725 121.075 95.3784 120.967C97.5445 118.8 98.7654 115.886 98.7851 112.844L100.144 96.3223C100.341 96.4011 100.538 96.4897 100.744 96.5586C102.182 97.0903 103.659 97.3364 105.51 97.3364C111.034 97.3364 116.333 95.1431 120.242 91.2384C124.15 87.3337 126.348 82.0371 126.354 76.5124C126.352 73.7769 125.812 71.0685 124.764 68.5418C123.715 66.0152 122.18 63.7199 120.244 61.787C118.308 59.854 116.011 58.3214 113.483 57.2767C110.954 56.232 108.245 55.6956 105.51 55.6982C103.677 55.6633 101.856 56.0086 100.163 56.7123L98.7851 39.1374C98.7595 36.0907 97.5413 33.1754 95.3915 31.0164C93.2417 28.8574 90.3316 27.6267 87.2851 27.5882L72.2701 25.9735L72.4572 25.5402C73.0466 24.0534 73.3279 22.4623 73.2842 20.8634C73.2881 18.1258 72.7524 15.4143 71.7078 12.8839C70.6631 10.3534 69.13 8.05364 67.196 6.11603C65.2621 4.17842 62.9652 2.64096 60.4368 1.59154C57.9083 0.54211 55.1978 0.00129336 52.4602 2.34438e-06Z" fill="black"/>
</mask>
<g mask="url(#mask0_3_753)">
<path d="M128 79.5494V0H50.7855C51.3708 7.1329 54.0571 17.4636 57.5059 22.3305C62.4749 29.4187 69.9285 34.4608 77.5647 38.5895C80.1101 39.9657 82.7002 41.2648 85.2903 42.5639C90.4704 45.1621 95.6506 47.7603 100.473 50.9756C105.178 54.1118 120.983 71.4982 128 79.5494Z" fill="url(#paint0_linear_3_753)"/>
<path d="M29.1859 0H0V128H92.6351L89.6512 116.605C86.8917 101.92 79.2044 88.2206 67.8705 78.5622C63.6804 75.0371 59.0862 72.0507 54.4819 69.0576C52.2635 67.6156 50.0429 66.172 47.8638 64.6659C41.2606 60.0338 34.8545 54.6133 31.0109 47.5173C28.4339 42.8077 28.7396 10.6812 29.1859 0Z" fill="url(#paint1_linear_3_753)"/>
<path d="M53.3445 0H28.5994C26.8025 11.7508 22.9871 36.8681 30.9724 47.4979C34.8639 54.6248 41.2489 60.0144 47.8784 64.6678C49.9898 66.1272 52.144 67.5323 54.2969 68.9366C58.9607 71.9786 63.6186 75.0167 67.8226 78.5956C78.5895 87.6558 86.8238 112.913 90.1152 128H128V78.9318L115.019 64.2169C110.817 59.1292 105.986 54.6277 100.456 50.9764C95.6461 47.7315 90.4352 45.1179 85.2437 42.5139C82.6746 41.2253 80.1102 39.9391 77.6015 38.5799C69.9355 34.4506 62.5053 29.4412 57.4869 22.2954C54.04 17.4615 53.429 7.12576 53.3445 0Z" fill="url(#paint2_linear_3_753)"/>
</g>
<defs>
<linearGradient id="paint0_linear_3_753" x1="73.1802" y1="38.8088" x2="109.717" y2="2.27175" gradientUnits="userSpaceOnUse">
<stop stop-color="#F0A142"/>
<stop offset="1" stop-color="#F4D75B"/>
</linearGradient>
<linearGradient id="paint1_linear_3_753" x1="36.825" y1="30.2702" x2="36.825" y2="128.825" gradientUnits="userSpaceOnUse">
<stop stop-color="#F0A142"/>
<stop offset="1" stop-color="#F4D75B"/>
</linearGradient>
<linearGradient id="paint2_linear_3_753" x1="51.9123" y1="83.7669" x2="107.708" y2="51.5536" gradientUnits="userSpaceOnUse">
<stop stop-color="#F0A142"/>
<stop offset="1" stop-color="#F4D75B"/>
</linearGradient>
</defs>
</svg>
