<svg width="128" height="128" viewBox="0 0 128 128" fill="none" xmlns="http://www.w3.org/2000/svg">
<mask id="mask0_3_703" style="mask-type:alpha" maskUnits="userSpaceOnUse" x="0" y="0" width="128" height="128">
<path fill-rule="evenodd" clip-rule="evenodd" d="M69.436 0.00976035C56.0739 0.00976035 45.2788 0.40994 34.1129 1.18102C28.3879 1.56988 22.9996 4.02689 18.9521 8.09422C14.9045 12.1616 12.4737 17.5617 12.1128 23.2885C11.4515 33.8671 11.0545 44.4605 10.922 55.0588L13.5573 52.2771C15.1243 50.6482 17.0008 49.3486 19.0767 48.4547C21.1527 47.5607 23.3863 47.0904 25.6465 47.0713C27.9066 47.0522 30.1479 47.4847 32.2386 48.3435C34.3294 49.2022 36.2276 50.4699 37.8218 52.0721C48.2948 62.6037 54.7855 71.1636 63.1015 84.7307C66.342 90.0306 66.4591 96.7361 63.2967 102.153C57.5966 111.972 52.5699 119.058 45.9718 126.408C53.2532 126.73 60.8078 126.896 69.436 126.896C82.7884 126.896 93.5834 126.496 104.749 125.725C110.474 125.336 115.863 122.879 119.91 118.811C123.958 114.744 126.389 109.344 126.75 103.617C127.929 84.7389 128.275 65.8177 127.784 46.9089C127.676 42.1042 126.099 37.448 123.265 33.5663C114.442 21.5511 107.287 13.9477 95.6136 4.92904C91.6798 1.91479 86.8844 0.238815 81.9294 0.146407C77.7656 0.052019 73.6009 0.0129742 69.436 0.00976035ZM22.3515 60.7394C13.852 69.3467 6.35381 78.888 0 89.1815L6.29551 90.7724L24.5476 95.3598C25.3293 95.5565 26.1475 95.5565 26.9292 95.3598L51.506 89.1815C44.1857 77.4103 38.3782 69.9338 29.1741 60.6809C28.7257 60.2305 28.1919 59.8742 27.604 59.6328C27.0161 59.3915 26.386 59.2699 25.7505 59.2754C25.115 59.2808 24.487 59.4132 23.9033 59.6646C23.3196 59.916 22.792 60.2814 22.3515 60.7394ZM3.90419 100.24L1.23958 99.5764C7.46021 109.047 14.5405 117.924 22.3905 126.096C22.8265 126.558 23.3502 126.928 23.931 127.186C24.5118 127.443 25.138 127.582 25.7732 127.595C26.4083 127.608 27.0396 127.494 27.6302 127.26C28.2209 127.026 28.759 126.676 29.2131 126.232C38.6124 116.999 44.3223 109.991 50.7252 99.4495L29.3107 104.837C26.9657 105.427 24.5111 105.427 22.166 104.837L3.91395 100.25L3.90419 100.24Z" fill="black"/>
</mask>
<g mask="url(#mask0_3_703)">
<path fill-rule="evenodd" clip-rule="evenodd" d="M51.8255 0H0V128H91.4692C91.9063 125.819 92.2011 123.63 92.3196 121.451C92.933 107.805 88.6305 94.5973 82.6666 82.349C79.2607 75.3393 75.3176 68.5777 71.3632 61.7967C68.4861 56.863 65.6031 51.9191 62.9164 46.8617C56.7555 34.9118 51.6809 21.9655 51.3622 8.30392C51.3008 5.58646 51.4516 2.79306 51.8255 0Z" fill="url(#paint0_linear_3_703)"/>
<path fill-rule="evenodd" clip-rule="evenodd" d="M90.1496 128H128V0H50.491C50.1028 2.8185 49.962 5.64785 50.0686 8.42011C50.3673 21.8601 55.4446 34.8521 61.7166 46.9481C64.5042 52.2577 67.5277 57.4494 70.5513 62.641C74.3307 69.1305 78.1101 75.6201 81.4286 82.3401C87.402 94.5854 91.7326 107.876 90.986 121.316C90.9115 123.55 90.6142 125.784 90.1496 128Z" fill="url(#paint1_linear_3_703)"/>
</g>
<defs>
<linearGradient id="paint0_linear_3_703" x1="5.31041" y1="-2.04585" x2="85.2475" y2="136.409" gradientUnits="userSpaceOnUse">
<stop stop-color="#003BE9"/>
<stop offset="1" stop-color="#E8BAFF"/>
</linearGradient>
<linearGradient id="paint1_linear_3_703" x1="81.3117" y1="134.607" x2="81.3117" y2="-14.7266" gradientUnits="userSpaceOnUse">
<stop stop-color="#003BE9"/>
<stop offset="1" stop-color="#E8BAFF"/>
</linearGradient>
</defs>
</svg>
