<svg width="128" height="128" viewBox="0 0 128 128" fill="none" xmlns="http://www.w3.org/2000/svg">
<mask id="mask0_3_643" style="mask-type:alpha" maskUnits="userSpaceOnUse" x="0" y="0" width="128" height="128">
<path fill-rule="evenodd" clip-rule="evenodd" d="M122.749 56.8841C123.459 56.8894 124.163 56.7471 124.817 56.4658C125.471 56.1845 126.062 55.7702 126.553 55.2483C127.044 54.7263 127.425 54.1078 127.673 53.4306C127.92 52.7535 128.029 52.032 127.993 51.3104C127.409 41.8265 126.54 32.363 125.387 22.9333C124.792 17.8724 122.536 13.1639 118.984 9.56962C115.432 5.97536 110.792 3.70564 105.815 3.12776C92.4545 1.58011 78.6474 0 64.5 0C50.3526 0 36.5243 1.58011 23.1959 3.10611H23.1746C18.1977 3.68676 13.5589 5.95905 10.0088 9.55527C6.45882 13.1515 4.20529 17.8613 3.6129 22.9225C2.55982 32.165 1.51738 41.6457 1.0068 51.2996C0.970545 52.0212 1.0796 52.7427 1.32727 53.4198C1.57495 54.097 1.95601 54.7155 2.44708 55.2374C2.93815 55.7594 3.52886 56.1737 4.18297 56.455C4.83709 56.7363 5.54079 56.8786 6.25092 56.8733L122.749 56.8841ZM71.6907 21.6779C69.9275 21.6779 68.2365 22.3905 66.9897 23.659C65.7429 24.9276 65.0425 26.6481 65.0425 28.442C65.0425 30.236 65.7429 31.9565 66.9897 33.225C68.2365 34.4936 69.9275 35.2062 71.6907 35.2062H94.667C96.4302 35.2062 98.1212 34.4936 99.368 33.225C100.615 31.9565 101.315 30.236 101.315 28.442C101.315 26.6481 100.615 24.9276 99.368 23.659C98.1212 22.3905 96.4302 21.6779 94.667 21.6779H71.6907ZM38.4177 38.7885C44.917 38.7885 48.5868 35.0655 48.5868 28.442C48.5868 21.8294 44.917 18.1064 38.4177 18.1064C31.9077 18.1064 28.2486 21.8294 28.2486 28.442C28.2486 35.0655 31.9077 38.7885 38.4177 38.7885ZM3.6129 105.078C4.20434 110.14 6.45923 114.85 10.0119 118.445C13.5645 122.04 18.2066 124.309 23.1853 124.883C36.5349 126.42 50.3526 128 64.5 128C78.6474 128 92.4651 126.42 105.804 124.894C110.783 124.316 115.435 122.044 118.987 118.448C122.539 114.851 124.794 110.14 125.387 105.078C126.43 95.835 127.483 86.3543 127.993 76.7004C128.029 75.9789 127.92 75.2573 127.673 74.5802C127.425 73.903 127.044 73.2845 126.553 72.7626C126.062 72.2406 125.471 71.8263 124.817 71.545C124.163 71.2637 123.459 71.1214 122.749 71.1267H6.25092C5.54079 71.1214 4.83709 71.2637 4.18297 71.545C3.52886 71.8263 2.93815 72.2406 2.44708 72.7626C1.95601 73.2845 1.57495 73.903 1.32727 74.5802C1.0796 75.2573 0.970545 75.9789 1.0068 76.7004C1.51738 86.3651 2.55982 95.835 3.6129 105.078ZM71.6907 92.8046C69.9275 92.8046 68.2365 93.5173 66.9897 94.7858C65.7429 96.0543 65.0425 97.7748 65.0425 99.5688C65.0425 101.363 65.7429 103.083 66.9897 104.352C68.2365 105.62 69.9275 106.333 71.6907 106.333H94.667C96.4302 106.333 98.1212 105.62 99.368 104.352C100.615 103.083 101.315 101.363 101.315 99.5688C101.315 97.7748 100.615 96.0543 99.368 94.7858C98.1212 93.5173 96.4302 92.8046 94.667 92.8046H71.6907ZM38.4177 109.904C44.917 109.904 48.5868 106.181 48.5868 99.5688C48.5868 92.9453 44.917 89.2223 38.4177 89.2223C31.9077 89.2223 28.2486 92.9453 28.2486 99.5688C28.2486 106.181 31.9077 109.904 38.4177 109.904Z" fill="#CC1F1F"/>
</mask>
<g mask="url(#mask0_3_643)">
<path d="M2.16816 161.833L155.916 107.429L103.748 -40L-50 14.4039L2.16816 161.833Z" fill="url(#paint0_linear_3_643)"/>
<path d="M78.0967 134.966L155.916 107.429L103.748 -40L78.1231 -30.9327C90.1107 -15.2592 107.342 32.8982 105.267 52.3192C103.595 67.7502 97.3598 82.419 91.2619 96.7657C91.1213 97.0966 90.9807 97.4274 90.8403 97.7579C85.5403 109.928 80.4636 122.261 78.0967 134.966Z" fill="url(#paint1_linear_3_643)"/>
<path d="M71.7169 -28.6658L-50.0001 14.404L2.16813 161.833L11.6107 158.492C5.07575 141.487 4.00876 116.311 15.5209 102.1C26.6788 88.009 35.3971 83.2617 44.3285 78.3983C52.8899 73.7364 61.6472 68.9679 72.9369 55.7609C85.848 40.61 93.3388 12.0676 71.7169 -28.6658Z" fill="url(#paint2_linear_3_643)"/>
</g>
<defs>
<linearGradient id="paint0_linear_3_643" x1="-41.9286" y1="108.317" x2="143.727" y2="42.6219" gradientUnits="userSpaceOnUse">
<stop stop-color="#244EAD"/>
<stop offset="0.23" stop-color="#244EAD"/>
<stop offset="1" stop-color="#B654E9"/>
</linearGradient>
<linearGradient id="paint1_linear_3_643" x1="94.1355" y1="170.728" x2="124.158" y2="-9.00079" gradientUnits="userSpaceOnUse">
<stop stop-color="#244EAD"/>
<stop offset="0.23" stop-color="#244EAD"/>
<stop offset="1" stop-color="#B654E9"/>
</linearGradient>
<linearGradient id="paint2_linear_3_643" x1="-1.09925" y1="-9.81172" x2="53.4558" y2="144.363" gradientUnits="userSpaceOnUse">
<stop stop-color="#244EAD"/>
<stop offset="0.23" stop-color="#244EAD"/>
<stop offset="1" stop-color="#B654E9"/>
</linearGradient>
</defs>
</svg>
