<svg width="128" height="128" viewBox="0 0 128 128" fill="none" xmlns="http://www.w3.org/2000/svg">
<path d="M93.3633 7H34.6367C19.3734 7 7 19.3734 7 34.6367V93.3633C7 108.627 19.3734 121 34.6367 121H93.3633C108.627 121 121 108.627 121 93.3633V34.6367C121 19.3734 108.627 7 93.3633 7Z" fill="#20815D"/>
<mask id="mask0_3_600" style="mask-type:alpha" maskUnits="userSpaceOnUse" x="0" y="0" width="128" height="128">
<path fill-rule="evenodd" clip-rule="evenodd" d="M19.0276 21.4188L71.0802 2.47322C85.4549 -2.75873 101.349 4.65291 106.581 19.0276L125.527 71.0801C130.759 85.4548 123.347 101.349 108.972 106.581L56.9198 125.527C42.5451 130.759 26.6508 123.347 21.4189 108.972L2.47328 56.9197C-2.75867 42.5451 4.65297 26.6508 19.0276 21.4188ZM68.8309 54.8833C67.0076 56.1752 65.2808 57.5976 63.6643 59.1392C62.0449 60.6771 60.494 62.2851 59.016 63.9587L65.0244 50.5229C65.8456 48.8955 66.6776 47.2734 67.5203 45.657L84.4009 39.1468C85.0911 38.882 85.7221 38.4837 86.2577 37.9749C86.7932 37.4661 87.2227 36.8568 87.5214 36.1819C87.8202 35.5071 87.9824 34.78 87.9986 34.0425C88.0149 33.305 87.8849 32.5715 87.6162 31.8842L87.4414 31.4282L71.691 37.5084L71.9443 36.9913C72.9783 34.8735 73.8899 32.9765 74.682 31.3003C75.4742 29.627 76.0072 28.3779 76.2839 27.5587C76.6974 26.4664 76.5926 25.3363 75.9752 24.1743C75.3548 23.0123 74.5277 22.0042 73.4938 21.1502C72.4598 20.2961 69.3115 18.707 68.6242 19.0469C68.1407 20.8248 67.5203 22.7741 66.7631 24.8918C66.0059 27.0125 65.1263 29.232 64.1303 31.556C62.5813 35.1571 60.9753 38.7337 59.3131 42.2842L39.6017 49.8954C38.9111 50.16 38.2798 50.5581 37.744 51.0667C37.2081 51.5754 36.7784 52.1847 36.4793 52.8596C36.1803 53.5344 36.0178 54.2616 36.0014 54.9992C35.9849 55.7369 36.1148 56.4705 36.3834 57.158L36.5611 57.6112L55.3988 50.3399C54.0357 53.1142 52.6611 55.8914 51.2689 58.6773C49.1538 62.9039 47.1723 67.1958 45.3275 71.5466C43.5043 75.8518 41.987 80.128 40.7841 84.3636C39.5784 88.6049 38.8706 92.8085 38.6668 96.9772C38.7367 97.5263 39.1473 98.1392 39.9046 98.8219C40.6759 99.5157 41.5252 100.118 42.4355 100.617C43.2344 101.074 44.085 101.435 44.9693 101.692C45.7265 101.898 46.1051 101.762 46.1051 101.282C46.4278 96.8912 47.2067 92.5452 48.4293 88.3144C48.6943 87.3993 48.9768 86.4872 49.2681 85.5837C51.2806 79.4076 54.6182 73.7166 59.1616 69.0483L59.2228 68.9844C61.2877 66.8637 63.6293 64.6094 66.2476 62.2156C68.6562 60.1647 70.4473 58.9184 71.6181 58.474C72.789 58.0295 73.5141 58.1486 73.7879 58.8313C74.0617 59.5169 73.9947 60.5917 73.584 62.0617C73.1676 63.5316 72.5851 65.1584 71.8278 66.9305L68.6242 74.5707C67.6572 76.8628 66.8505 78.9835 66.1952 80.9298C65.5399 82.8791 65.0069 84.7238 64.5962 86.4668C64.1827 88.1995 63.9398 89.9684 63.8711 91.7482C63.8041 93.526 64.0079 95.0657 64.4914 96.3613C64.905 97.5511 65.575 98.6359 66.4544 99.5394C67.2872 100.364 68.2927 100.995 69.3989 101.387C70.5347 101.797 71.688 102 72.8559 102C74.9238 102 77.0586 101.268 79.2633 99.798C81.5345 98.2714 83.6305 96.5003 85.5134 94.5166C86.4949 93.4912 86.9085 91.7888 86.7279 90.6442C86.5473 89.4997 85.7726 88.9128 84.3776 90.1039C81.5874 92.5006 79.1934 94.1738 77.1984 95.1296C76.4382 95.4724 75.8179 95.6438 75.3373 95.6438C74.8568 95.6438 74.4956 95.5392 74.2539 95.3359C74.0251 95.153 73.8617 94.9013 73.7879 94.6183C73.718 94.3453 73.686 94.1041 73.686 93.9008C73.8928 91.0277 74.3384 88.4509 75.0286 86.1589C75.716 83.8697 76.613 81.4789 77.7139 78.9806C78.9713 76.1361 80.2451 73.2988 81.535 70.4688C82.9825 67.2936 84.564 63.3806 86.2881 58.7325C86.5619 57.9772 87.1007 52.632 82.4146 51.2956C78.6459 50.2179 76.1645 51.0255 74.3063 51.8098C72.3757 52.6349 70.5399 53.6653 68.8309 54.8833Z" fill="#39BA8B"/>
</mask>
<g mask="url(#mask0_3_600)">
<g filter="url(#filter0_d_3_600)">
<path d="M34.9047 -1.45312H21.2367L21.5444 1.31642C23.526 10.6144 29.3182 18.5406 35.5676 25.5522C37.03 27.2286 38.5258 28.8716 40.0179 30.5105C44.902 35.8755 49.7463 41.1966 53.2491 47.5015C63.9189 66.5548 60.5655 91.0954 48.8287 109.387C45.9818 113.828 37.155 121.633 30.7113 127.33C29.8653 128.078 29.0603 128.79 28.3154 129.453H112.581C112.581 121.527 111.476 91.7051 109.342 83.9314C104.769 66.7072 94.8614 51.1598 81.4479 39.423C76.4941 35.155 71.121 31.4587 65.748 27.7624C60.375 24.066 55.002 20.3697 50.0481 16.1018C45.8567 12.5267 38.8736 5.76123 34.9047 -1.45312Z" fill="url(#paint0_linear_3_600)"/>
<path d="M21.2087 -1.45312H0.765625V129.453H30.9394C32.4555 128.137 33.8762 126.835 35.1601 125.606C40.2733 120.713 44.9906 115.373 48.7744 109.386C60.5252 91.1088 63.9471 66.4977 53.3337 47.5126C49.5859 40.8425 44.3866 35.1974 39.1945 29.56C37.9837 28.2454 36.7734 26.9313 35.5819 25.6046C29.3281 18.5073 23.5462 10.5927 21.5623 1.38412C21.4132 0.472033 21.2864 -0.478862 21.2087 -1.45312Z" fill="url(#paint1_linear_3_600)"/>
<path d="M109.854 129.453H131.672V-1.45312H34.8733C38.8895 5.76729 45.8379 12.5891 50.1171 16.2428C54.9667 20.3272 60.1961 23.9345 65.4273 27.543C70.917 31.3299 76.4086 35.1181 81.4653 39.4604C94.8925 51.1614 104.736 66.7896 109.326 83.9183C110.986 89.8465 110.419 108.904 110.057 121.039C109.951 124.617 109.862 127.593 109.854 129.453Z" fill="url(#paint2_linear_3_600)"/>
</g>
</g>
<defs>
<filter id="filter0_d_3_600" x="-3.23438" y="-1.45312" width="138.906" height="138.906" filterUnits="userSpaceOnUse" color-interpolation-filters="sRGB">
<feFlood flood-opacity="0" result="BackgroundImageFix"/>
<feColorMatrix in="SourceAlpha" type="matrix" values="0 0 0 0 0 0 0 0 0 0 0 0 0 0 0 0 0 0 127 0" result="hardAlpha"/>
<feOffset dy="4"/>
<feGaussianBlur stdDeviation="2"/>
<feComposite in2="hardAlpha" operator="out"/>
<feColorMatrix type="matrix" values="0 0 0 0 0 0 0 0 0 0 0 0 0 0 0 0 0 0 0.25 0"/>
<feBlend mode="normal" in2="BackgroundImageFix" result="effect1_dropShadow_3_600"/>
<feBlend mode="normal" in="SourceGraphic" in2="effect1_dropShadow_3_600" result="shape"/>
</filter>
<linearGradient id="paint0_linear_3_600" x1="66.795" y1="145.816" x2="66.795" y2="-6.60975" gradientUnits="userSpaceOnUse">
<stop stop-color="#39BA8B"/>
<stop offset="1" stop-color="#92FE9D"/>
</linearGradient>
<linearGradient id="paint1_linear_3_600" x1="64.4774" y1="82.376" x2="-17.2441" y2="35.1942" gradientUnits="userSpaceOnUse">
<stop stop-color="#39BA8B"/>
<stop offset="1" stop-color="#92FE9D"/>
</linearGradient>
<linearGradient id="paint2_linear_3_600" x1="27.9052" y1="1.51884" x2="137.594" y2="64.8475" gradientUnits="userSpaceOnUse">
<stop stop-color="#39BA8B"/>
<stop offset="1" stop-color="#92FE9D"/>
</linearGradient>
</defs>
</svg>
