<svg width="128" height="110" viewBox="0 0 128 110" fill="none" xmlns="http://www.w3.org/2000/svg">
<mask id="mask0_3_555" style="mask-type:alpha" maskUnits="userSpaceOnUse" x="0" y="0" width="128" height="110">
<path d="M23.2997 4.79302C23.2997 3.002 22.3012 1.36041 20.7108 0.536829C19.1203 -0.286755 17.2034 -0.15491 15.7407 0.878666L2.02701 10.5692C0.755518 11.4677 -0.000354256 12.9277 1.24555e-07 14.4846C0.00035475 16.0415 0.756892 17.5013 2.02879 18.3991L15.7425 28.0803C17.2054 29.113 19.1218 29.2442 20.7117 28.4204C22.3016 27.5966 23.2997 25.9553 23.2997 24.1647V21.3372H47.5938V105.207C47.5938 107.854 49.7397 110 52.3868 110H56.5369C59.184 110 61.3299 107.854 61.3299 105.207V21.3372H94.5843C97.2314 21.3372 99.3773 19.1913 99.3773 16.5442V12.4089C99.3773 9.7618 97.2314 7.6159 94.5843 7.6159H23.2997V4.79302Z" fill="black"/>
<path d="M112.214 19.8716C110.751 18.8381 108.834 18.7062 107.244 19.5298C105.653 20.3534 104.655 21.995 104.655 23.786V26.6089H71.4005C68.7534 26.6089 66.6075 28.7548 66.6075 31.4019V105.207C66.6075 107.854 68.7534 110 71.4005 110H75.5678C78.2149 110 80.3608 107.854 80.3608 105.207V40.3302H104.655V43.1577C104.655 44.9483 105.653 46.5896 107.243 47.4133C108.833 48.2371 110.749 48.1059 112.212 47.0733L125.926 37.3921C127.198 36.4942 127.954 35.0345 127.955 33.4776C127.955 31.9207 127.199 30.4606 125.928 29.5621L112.214 19.8716Z" fill="black"/>
<path d="M33.3705 26.6088C30.7234 26.6088 28.5775 28.7547 28.5775 31.4018V35.5371C28.5775 38.1842 30.7234 40.3301 33.3705 40.3301H37.5206C40.1677 40.3301 42.3136 38.1842 42.3136 35.5371V31.4018C42.3136 28.7547 40.1677 26.6088 37.5206 26.6088H33.3705Z" fill="black"/>
</mask>
<g mask="url(#mask0_3_555)">
<path d="M108.034 81.4947L151.019 38.5097L60.5097 -52L10.4215 -1.91175C28.7507 0.922163 45.7597 12.5103 55.8858 28.0486C59.2594 33.2144 61.492 38.7331 63.7516 44.3189C65.372 48.3242 67.0062 52.3641 69.0852 56.3329C73.8822 65.8364 81.6131 74.6539 91.2072 79.3605C96.2749 81.8943 102.437 82.6767 108.034 81.4947Z" fill="url(#paint0_linear_3_555)"/>
<path d="M77.6888 111.84L60.5097 129.019L-29.9999 38.5097L3.73337 4.77634C8.871 5.33555 13.8817 6.53926 19.0262 8.33973C25.8334 10.6427 32.8071 14.4616 37.8823 19.6534C42.2433 23.9354 45.3357 30.5865 47.3104 36.624C49.3662 43.2345 49.8136 51.3782 50.2444 59.2195C50.4606 63.1549 50.6726 67.0141 51.0816 70.5651C53.0755 85.4691 58.6101 97.7371 70.4605 107.139C72.6928 108.845 75.1724 110.408 77.6888 111.84Z" fill="url(#paint1_linear_3_555)"/>
<path d="M1.64548 6.86419L11.2936 -2.78391C29.6286 0.00270508 46.7407 10.9099 56.866 26.447C60.5513 32.0902 63.3208 38.2829 66.1067 44.5124C67.6997 48.0744 69.298 51.6484 71.076 55.1385C75.873 64.642 82.4802 73.7835 92.0742 78.49C97.1432 81.0245 103.307 81.8066 108.906 80.6233L77.6517 111.877C75.0906 110.479 72.6226 108.884 70.3519 107.091C58.4951 97.7686 50.5303 83.6491 48.5391 68.6245C48.0221 64.592 47.9251 60.5071 47.8283 56.4296C47.6708 49.7992 47.5138 43.1886 45.5523 36.8556C41.5698 24.1842 30.4371 14.4997 17.7658 10.1552C12.5278 8.26523 7.12875 7.24511 1.64548 6.86419Z" fill="url(#paint2_linear_3_555)"/>
</g>
<defs>
<linearGradient id="paint0_linear_3_555" x1="20.1918" y1="73.6172" x2="110.702" y2="-16.8928" gradientUnits="userSpaceOnUse">
<stop stop-color="#0575E6"/>
<stop offset="1" stop-color="#FC00FF"/>
</linearGradient>
<linearGradient id="paint1_linear_3_555" x1="47.0058" y1="17.7499" x2="-12.8678" y2="241.202" gradientUnits="userSpaceOnUse">
<stop stop-color="#FC00FF"/>
<stop offset="1" stop-color="#0575E6"/>
</linearGradient>
<linearGradient id="paint2_linear_3_555" x1="75.511" y1="24.9988" x2="-14.9987" y2="115.508" gradientUnits="userSpaceOnUse">
<stop stop-color="#FC00FF"/>
<stop offset="1" stop-color="#0575E6"/>
</linearGradient>
</defs>
</svg>
