<?xml version="1.0" encoding="UTF-8" standalone="no"?>
<!DOCTYPE svg PUBLIC "-//W3C//DTD SVG 1.1//EN" "http://www.w3.org/Graphics/SVG/1.1/DTD/svg11.dtd">
<svg width="100%" height="100%" viewBox="0 0 654 86" version="1.1" xmlns="http://www.w3.org/2000/svg" xmlns:xlink="http://www.w3.org/1999/xlink" xml:space="preserve" xmlns:serif="http://www.serif.com/" style="fill-rule:evenodd;clip-rule:evenodd;stroke-linejoin:round;stroke-miterlimit:2;">
    <g>
        <path d="M177.37,43C177.21,57.01 168.62,71.03 149.58,71.03C130.54,71.03 121.71,57.33 121.71,43.08C121.71,28.83 130.85,14.51 149.58,14.51C168.31,14.51 177.53,28.83 177.37,43ZM131.77,43.23C132,52.13 136.8,61.66 149.58,61.66C162.36,61.66 167.15,52.06 167.31,43.16C167.47,34.02 162.36,23.81 149.58,23.81C136.8,23.81 131.54,34.11 131.77,43.24L131.77,43.23Z" style="fill-rule:nonzero;"/>
        <path d="M184.17,85.73L184.17,31.62L193,31.62L193.62,36.89C196.56,32.63 201.67,30.77 206.01,30.77C217.78,30.77 225.6,39.52 225.6,50.74C225.6,61.96 218.55,70.71 206.32,70.71C202.29,70.71 196.33,69.47 193.62,65.29L193.62,85.73L184.17,85.73ZM216.14,50.74C216.14,44.78 212.11,39.9 205.3,39.9C198.49,39.9 194.46,44.78 194.46,50.74C194.46,56.7 198.87,61.58 205.3,61.58C211.73,61.58 216.14,56.7 216.14,50.74Z" style="fill-rule:nonzero;"/>
        <path d="M240.61,54.07C241.23,58.79 245.33,62.2 251.99,62.2C255.47,62.2 260.04,60.88 262.21,58.64L268.25,64.6C264.22,68.78 257.64,70.79 251.84,70.79C238.68,70.79 230.86,62.66 230.86,50.43C230.86,38.2 238.76,30.46 251.14,30.46C263.52,30.46 271.89,38.36 270.42,54.07L240.61,54.07ZM261.36,46.25C260.74,41.3 256.87,38.82 251.45,38.82C246.34,38.82 242.16,41.3 240.77,46.25L261.36,46.25Z" style="fill-rule:nonzero;"/>
        <path d="M305.79,69.79L305.79,49.81C305.79,44 302.62,39.59 296.58,39.59C290.54,39.59 286.83,44.47 286.83,50.27L286.83,69.78L277.46,69.78L277.46,31.54L285.9,31.54L286.52,36.73C290.39,32.94 294.26,31 299.06,31C308.04,31 315.24,37.74 315.24,49.74L315.24,69.79L305.79,69.79Z" style="fill-rule:nonzero;"/>
        <path d="M387.62,50.66C387.62,39.2 396.29,30.92 407.05,30.92C417.81,30.92 427.41,37.5 425.94,52.44L391.49,52.44C392.26,61.42 399.15,66.61 407.05,66.61C412.08,66.61 417.97,64.6 420.83,60.8L423.54,62.97C419.82,67.85 413.17,70.33 407.05,70.33C396.29,70.33 387.62,62.82 387.62,50.66ZM422.54,49.11C422.46,39.67 416.27,34.4 407.06,34.4C399.16,34.4 392.35,39.74 391.5,49.11L422.55,49.11L422.54,49.11Z" style="fill-rule:nonzero;"/>
        <rect x="374.38" y="15.59" width="3.79" height="54.19" style="fill-rule:nonzero;"/>
        <path d="M489.1,69.78L489.1,46.86C489.1,39.51 484.15,34.32 476.87,34.32C469.59,34.32 464.56,39.74 464.56,47.09L464.56,69.77L460.77,69.77L460.77,47.09C460.77,39.73 455.74,34.39 448.46,34.39C441.18,34.39 436.23,39.73 436.23,47.09L436.23,69.77L432.44,69.77L432.44,31.54L436,31.54L436.08,37.89C438.71,32.86 443.59,30.77 448.54,30.77C454.35,30.77 460.46,33.4 462.71,40.21C465.03,33.94 470.99,30.77 476.88,30.77C486.25,30.77 492.91,37.35 492.91,46.87L492.91,69.79L489.12,69.79L489.1,69.78Z" style="fill-rule:nonzero;"/>
        <path d="M501.41,50.66C501.41,39.2 510.08,30.92 520.84,30.92C531.6,30.92 541.2,37.5 539.73,52.44L505.28,52.44C506.05,61.42 512.94,66.61 520.84,66.61C525.87,66.61 531.76,64.6 534.62,60.8L537.33,62.97C533.61,67.85 526.96,70.33 520.84,70.33C510.08,70.33 501.41,62.82 501.41,50.66ZM536.33,49.11C536.25,39.67 530.06,34.4 520.85,34.4C512.95,34.4 506.14,39.74 505.29,49.11L536.34,49.11L536.33,49.11Z" style="fill-rule:nonzero;"/>
        <path d="M553.27,31.54L553.27,38.35C556.21,33.09 561.55,30.92 566.9,30.84C577.12,30.84 584.16,37.11 584.16,47.72L584.16,69.78L580.37,69.78L580.37,47.79C580.37,39.12 575.03,34.47 566.74,34.55C558.84,34.63 553.35,40.59 553.35,48.49L553.35,69.78L549.56,69.78L549.56,31.54L553.28,31.54L553.27,31.54Z" style="fill-rule:nonzero;"/>
        <path d="M601.19,20L601.19,31.54L614.2,31.54L614.2,34.71L601.19,34.71L601.19,58.01C601.19,63.2 602.27,66.84 608.24,66.84C610.1,66.84 612.19,66.22 614.12,65.29L615.44,68.39C613.04,69.55 610.64,70.33 608.24,70.33C600.11,70.33 597.48,65.53 597.48,58.02L597.48,34.72L589.35,34.72L589.35,31.55L597.48,31.55L597.48,20.4L601.2,20.01L601.19,20Z" style="fill-rule:nonzero;"/>
        <path d="M649.19,38.51C645.32,35.1 641.53,34.48 637.27,34.48C631.31,34.4 625.58,36.65 625.73,41.52C625.88,46.63 632.54,47.64 637.34,48.49C644.15,49.65 653.52,50.81 653.13,59.72C652.9,68.16 644.15,70.4 637.41,70.4C630.67,70.4 624.02,67.84 620.69,62.74L623.48,60.26C626.65,64.83 632.38,66.76 637.49,66.76C642.14,66.76 649.18,65.52 649.41,59.48C649.56,53.98 643.22,52.9 636.95,51.89C629.52,50.65 622.16,49.26 622.09,41.59C622.01,34.08 629.52,30.83 637.26,30.91C642.83,30.91 647.71,32.46 651.51,36.02L649.19,38.5L649.19,38.51Z" style="fill-rule:nonzero;"/>
        <g>
            <path d="M327.04,15.41L327.04,19.36L365.36,19.36L365.36,15.41L327.04,15.41Z" style="fill-rule:nonzero;"/>
            <path d="M331.14,65.55L327.04,65.55L327.04,69.6L365.36,69.6L365.36,65.58L331.14,65.58L331.14,65.55Z" style="fill-rule:nonzero;"/>
            <path d="M331.14,40.37L327.04,40.37L327.04,44.19L345.52,44.19L345.52,44.21L365.36,44.21L365.36,40.41L331.14,40.41L331.14,40.37Z" style="fill-rule:nonzero;"/>
        </g>
    </g>
    <g>
        <path d="M39.82,0L39.82,0.05C40.47,0.02 41.11,0 41.76,0L39.82,0Z" style="fill:rgb(253,1,119);fill-rule:nonzero;"/>
        <path d="M71.25,18.26L107.33,18.26L107.33,0L41.76,0C56.08,0 63.73,7.25 71.25,18.26Z" style="fill:rgb(253,1,119);fill-rule:nonzero;"/>
        <path d="M80.5,50.89L107.34,50.89L107.34,32.63L80.5,32.63C81.16,35.57 81.52,38.62 81.52,41.76C81.52,44.9 81.16,47.95 80.5,50.89Z" style="fill:rgb(15,187,251);fill-rule:nonzero;"/>
        <path d="M39.82,83.52L41.75,83.52C41.1,83.52 40.46,83.5 39.82,83.47L39.82,83.52Z" style="fill:rgb(244,227,1);fill-rule:nonzero;"/>
        <path d="M41.76,83.52L107.34,83.52L107.34,65.26L73.26,65.26C65.73,76.28 56.08,83.52 41.76,83.52Z" style="fill:rgb(244,227,1);fill-rule:nonzero;"/>
        <path d="M82.5,32.63C81.33,27.41 79.19,22.55 76.26,18.27C68.73,7.25 56.08,0 41.76,0C41.11,0 40.47,0.02 39.83,0.05C17.69,1.06 0,19.38 0,41.76C0,64.14 17.69,82.45 39.82,83.47C40.46,83.5 41.1,83.52 41.75,83.52C56.07,83.52 68.72,76.27 76.25,65.26C79.18,60.98 81.32,56.12 82.49,50.9C83.15,47.96 83.51,44.91 83.51,41.77C83.51,38.63 83.15,35.58 82.49,32.64L82.5,32.63ZM41.76,65.26C28.8,65.26 18.26,54.72 18.26,41.76C18.26,28.8 28.8,18.26 41.76,18.26C51.48,18.26 59.84,24.19 63.41,32.62C64.6,35.43 65.26,38.51 65.26,41.75C65.26,44.99 64.6,48.07 63.41,50.88C59.84,59.31 51.48,65.24 41.76,65.24L41.76,65.26Z" style="fill:rgb(1,189,156);fill-rule:nonzero;"/>
    </g>
</svg>
