<?xml version="1.0" encoding="UTF-8"?>
<svg id="Ebene_2" data-name="Ebene 2" xmlns="http://www.w3.org/2000/svg" viewBox="0 0 2915.57 1015.69">
  <defs>
    <style>
      .cls-1 {
        fill: #005099;
        stroke-width: 0px;
      }
    </style>
  </defs>
  <g id="Ebene_1-2" data-name="Ebene 1">
    <g id="_173WzX.tif" data-name="173WzX.tif">
      <g>
        <path class="cls-1" d="m388.76,245.03c-.7-.39-1.4-.78-3.03-1.68,7.51-10.73,14.53-21.75,22.54-32,24.82-31.71,55.12-57.04,90.82-75.79,26.95-14.15,55.38-24.15,85.59-28.36,14.12-1.97,28.39-2.92,42.62-3.91,3.17-.22,4.26-1.84,5.55-3.96,14.89-24.49,34.05-45,57.48-61.51,25.39-17.9,53.35-29.44,84.04-34.8,16.35-2.86,32.77-3.58,49.17-2.6,23.25,1.39,45.75,6.78,67.18,16.11,30.53,13.3,56.73,32.58,77.85,58.28,22.77,27.7,37.72,59.18,44.17,94.68,3.18,17.49,4.02,35.08,2.68,52.61-3.24,42.18-18.17,80.02-44.68,113.14-15.43,19.28-33.79,35.23-54.88,48.1-1.57.96-3.07,3.48-3.11,5.3-1.37,62.94-20.92,119.57-59.32,169.45-21.62,28.08-47.95,51.1-78.33,69.47-1.84,1.11-4.35,3.58-4.18,5.17,2.85,27.13-12.19,46-29.39,63.64-24.04,24.65-53.54,41.18-84.71,54.9-12.66,5.58-25.74,10.22-39.45,15.61-1.54-90.24-16.29-177.5-42.7-263.35,8.69-1.63,17.13-3.03,25.48-4.81,35.26-7.5,70.32-15.77,102.01-33.85,7.98-4.55,15.12-10.6,23.18-16.35,3.11,6.21,6.78,13.29,10.22,20.49,2.48,5.22,4.5,10.66,7.04,15.84.68,1.4,2.52,2.23,4.4,2.84.53-62.44-7.78-123.25-22.87-183.89-41.13,5.08-82.45,5.79-124.14,5.51,40.76,28.2,75.44,62.28,104.11,104.17-7.25,4.45-14.09,9.48-21.61,13.1-22.9,11.02-47.43,17.13-72.2,22.14-16.83,3.4-33.83,6.03-51.14,9.07-2.88-7.15-5.65-13.99-8.38-20.85-15.9-39.97-34.67-78.48-59.32-113.86-16.7-23.98-35.36-46.32-60.03-62.73-12.92-8.59-26.62-15.49-42.75-15.42l.1.07Zm520.9,93.37c49.16-35.56,75.95-100.28,62.58-165.56-14.11-68.92-73.97-127.01-154.75-132.68-47.17-3.31-121.63,29.67-139.81,66.07,126.29,28.64,203.4,106.12,231.98,232.17Zm-139.87,142.52c3.52-1.19,6.49-2.14,9.41-3.2,28.64-10.32,55.67-23.38,76.88-46.01,7.29-7.78,14.3-16.19,15.34-27.26,1.75-18.76.95-37.57-2.01-56.16-4.39-27.6-13.11-53.82-26.66-78.36-.6-1.08-1.33-2.08-1.75-2.72-28.79,23.46-64.01,27.41-98.79,34.66,17.74,58.2,27.26,117.6,27.58,179.05Zm-50.79-196.11c-10.99-36.81-23.36-72.45-43.99-104.59-7.57-11.79-16.2-22.76-28.13-30.59-9.01-5.91-18.32-7.75-28.58-2.73-11.61,5.68-19.93,14.88-27.25,24.97-22.74,31.33-35.47,67.27-46.98,103.71-.31.98.07,3.01.73,3.33,5.75,2.82,11.43,6.88,17.51,7.68,12.81,1.7,25.85,2.19,38.8,2.21,27.12.04,54.26-.3,81.37-1.01,12.04-.32,24.05-1.93,36.51-2.99Zm113.2-32.03c-45.54-71.68-126.76-107.91-190.61-108.33,20.13,10.81,28.62,18,40.3,32.79,17.08,21.62,29.82,45.68,40.65,70.84,4.93,11.46,9.28,23.18,13.94,34.9,4.27-.69,8.34-1.4,12.42-2.01,20.77-3.07,41.25-7.33,60.91-14.88,8.2-3.15,16.22-6.74,22.39-13.31Zm-304.23,19.27c.76-1.93,1.37-3.44,1.96-4.96,9.57-24.71,20.33-48.86,34.94-71.06,13.94-21.18,29.21-41.13,53.56-51.74-44.23,1.98-84.82,15.21-121.68,39.6-25.52,16.89-47.14,37.84-64.96,63.75,33.75,4.15,65.39,12.35,96.19,24.41Zm240.51,311.42c26.41-18.3,47.75-40.72,64.98-67.12,16.4-25.13,35.27-73.73,33.46-86.18-9.28,17.07-22.81,29.83-38.58,40.44-16.71,11.24-34.7,19.89-53.76,26.28-4.12,1.38-5.71,3.45-6.09,8.09-1.06,13.01-3.05,25.94-4.65,38.9-.34,2.76-1.19,5.62-.79,8.29,1.52,10.12,3.45,20.17,5.42,31.29Z"/>
        <path class="cls-1" d="m529.24,510.25c5.86,31.71,12.26,63.39,17.42,95.27,3.88,23.99,6.96,48.18,8.98,72.39,2.74,32.92,4.08,65.96,6.14,98.94.24,3.8-.59,5.4-4.82,6.06-23.67,3.65-47.2,8.17-70.9,11.53-41.1,5.82-82.51,6.86-123.94,5.88-18.92-.44-37.88-1.73-56.69-3.82-24.49-2.72-48.86-6.53-73.25-10.06-6.85-.99-13.64-2.5-20.37-4.12-1.21-.29-2.88-2.33-2.85-3.53.36-14.46.9-28.91,1.61-43.36.59-11.95,1.31-23.89,2.28-35.81,1-12.22,2.22-24.43,3.62-36.61,1.61-13.97,3.32-27.94,5.36-41.86,2.56-17.49,5.12-34.99,8.36-52.36,3.45-18.47,7.79-36.77,11.49-55.2.66-3.3,1.63-3.57,4.85-3.27,18.18,1.71,36.37,3.55,54.6,4.29,33.92,1.38,67.86,2.82,101.8,2.75,27.25-.06,54.51-2.16,81.74-3.65,14.41-.79,28.78-2.22,44.56-3.47Z"/>
        <path class="cls-1" d="m1075.03,646.65c7.33,4.61,14.41,9.16,21.59,13.55,24.9,15.23,51.55,26.33,80.42,30.91,31.57,5.01,63.16,5.62,93.58-6.61,28.58-11.49,48.77-31.01,56.14-61.74,4.25-17.69,5.05-35.28-6.96-50.8-8.2-10.6-19.81-16.31-31.87-21.35-18.76-7.85-38.9-10.16-58.42-14.96-25.17-6.19-50.2-13.01-72.67-26.67-22.83-13.88-37.07-33.66-39.25-60.53-4.66-57.39,12.67-106.97,55.45-146.35,22.07-20.32,49.04-31.68,78.13-38.07,27.8-6.11,55.98-7.37,84.25-4.89,31.21,2.74,61.87,8.45,91.25,19.77,5.22,2.01,10.33,4.31,15.59,6.52-4.56,23.92-9.06,47.54-13.56,71.13-13.68-6.47-26.81-13.05-40.25-18.94-18.95-8.31-38.91-12.93-59.6-13.61-14.11-.47-28.32-1.08-42.34.12-28.92,2.47-54.73,12.35-72.42,36.89-12.44,17.27-18.28,36.71-14.56,58.12,3.1,17.82,15.8,27.19,31.35,33.61,14.84,6.13,30.7,7.68,46.37,10.02,27.56,4.11,54.6,9.96,79.36,23.49,29.58,16.16,47.3,41.03,54.84,73.68,13.49,58.41-11.05,119.35-58.81,154.5-24.97,18.38-53.13,29.15-83.36,35.16-24.73,4.92-49.69,6.85-74.81,5.7-26.39-1.21-52.11-6.67-77.41-14.14-17.39-5.14-34.77-10.34-52.2-15.32-2.58-.74-3.65-1.48-3.14-4.33,4.47-24.81,8.84-49.64,13.3-74.86Z"/>
        <path class="cls-1" d="m1527.3,617.3c7.33-16.41,14.69-32.81,21.99-49.23,19.33-43.45,38.7-86.89,57.87-130.41,1.46-3.31,3.14-4.31,6.61-4.28,20.82.15,41.65.08,62.47.08,1.48,0,2.96,0,4.72,0,5.71,61.52,11.38,122.71,17.05,183.9l1.01.15c4.1-9.15,8.21-18.3,12.29-27.47,22.69-51.02,45.35-102.05,68.13-153.02.66-1.47,2.56-3.4,3.9-3.41,22.81-.21,45.61-.15,69.19-.15-5.22,11.29-10.19,22.02-15.15,32.76-42.38,91.83-84.74,183.68-127.24,275.46-.77,1.66-3.14,3.66-4.78,3.67-22.32.24-44.65.15-66.97.13-.47,0-.94-.2-1.69-.37-5.68-61.29-11.37-122.59-17.05-183.89-.34-.03-.68-.06-1.02-.09-6.39,14.3-12.81,28.59-19.17,42.9-20.39,45.89-40.79,91.79-61.09,137.72-1.25,2.82-2.75,3.86-5.91,3.84-21.16-.15-42.31-.15-63.47,0-3.46.02-4.42-1.03-4.72-4.47-1.38-16.02-3.16-32.01-4.71-48.01-1.46-15.02-2.75-30.05-4.23-45.07-1.5-15.18-3.18-30.34-4.7-45.51-1.14-11.38-2.13-22.78-3.26-34.17-1.54-15.51-3.17-31.01-4.72-46.51-1.13-11.38-2.15-22.78-3.28-34.17-1.53-15.51-3.14-31.01-4.68-46.52-.23-2.3-.28-4.61-.44-7.32h74.87c5.66,61.02,11.34,122.23,17.02,183.45h1.12Z"/>
        <path class="cls-1" d="m2586.87,748.59c-24.76,0-48.9,0-73.05,0-29.82-.01-59.66.63-89.45-.27-26.98-.82-52.87-6.89-75.4-22.86-23.31-16.53-35.97-39.75-40.82-67.46-3.96-22.62-2.9-45.2.85-67.79,5.35-32.16,16.76-61.82,36.09-88.17,24.97-34.05,59.03-53.98,99.81-63.22,18.56-4.21,37.41-5.38,56.37-5.41,20.99-.04,41.98-.14,62.97.09,4.49.05,6.15-1.17,6.94-5.78,4.16-24.24,8.76-48.4,13.21-72.58,4.54-24.67,9.09-49.34,13.65-74.01.74-4.03,1.55-8.05,2.36-12.24h72.2c-28.59,160.04-57.12,319.69-85.71,479.72Zm-23.53-250.72c-2.46,0-4.27,0-6.07,0-20.65,0-41.3-.16-61.95.09-7.61.09-15.26.76-22.79,1.84-32.18,4.61-55.64,22.09-71.19,50.09-14.56,26.21-20.02,54.55-16.1,84.29,2.71,20.61,12.72,36.75,32.24,45.85,10.98,5.12,22.73,7.2,34.69,7.36,23.98.32,47.96.13,71.95.13,1.47,0,2.94-.12,4.72-.2,11.49-63.07,22.95-125.98,34.51-189.46Z"/>
        <path class="cls-1" d="m209.67,832.5c117.42,26.83,234.03,26.79,351.13-.12-.41,7.72-.49,15.19-1.26,22.58-1.39,13.33-2.8,26.69-4.88,39.92-4.63,29.43-11.06,58.35-25.87,84.71-3.98,7.09-8.88,12.19-17.25,14.95-24.07,7.92-48.56,13.91-73.57,17.55-24.24,3.53-48.74,4.32-73.15,2.98-37.14-2.04-73.35-9.21-108.55-21.56-7.01-2.46-10.17-7.54-13.41-12.93-11.21-18.61-17.35-39.15-21.96-60.17-5.65-25.75-9.01-51.83-10.18-78.18-.14-3.12-.65-6.21-1.03-9.74Z"/>
        <path class="cls-1" d="m2621.32,738.01c4.53-23.7,9.01-47.14,13.55-70.92,13.31,6.07,25.91,11.86,38.55,17.58,15.98,7.24,32.67,11.49,50.27,11.91,12.14.29,24.3,1.25,36.4.8,15.64-.58,31.07-3.06,44.32-12.39,11.39-8.03,17.26-18.88,15.54-33.17-1.03-8.57-5.86-14.87-13.57-17.59-11.92-4.22-24.21-7.52-36.51-10.49-16.83-4.06-33.98-6.84-50.67-11.33-9.77-2.63-19.38-6.71-28.27-11.58-24.17-13.24-35.66-34.22-35.11-61.72.84-41.97,20.7-72.35,57.03-92.39,18.77-10.35,39.17-15.39,60.36-18.12,22.09-2.84,44.17-2.53,66.2-.63,24.78,2.13,48.93,7.54,72.11,16.88,3.39,1.36,4.73,2.47,3.75,6.79-4.51,19.77-8.41,39.68-12.59,59.86-11.66-4.78-23.14-9.67-34.76-14.21-12.27-4.8-25.11-6.98-38.26-7.56-11.62-.51-23.24-2-34.83-1.75-15.09.32-30.24,2.22-43.54,10-5.97,3.49-11.67,8.39-15.79,13.92-9.25,12.39-5.01,27.04,8.78,34.23,10.75,5.6,22.5,7.4,34.2,9.6,28.51,5.37,57.46,9.35,83.69,22.92,29.95,15.5,39.37,40.36,36.34,70.98-2.09,21.13-9.6,40.06-23.18,56.51-12.5,15.13-28.01,26.27-45.74,34.45-21.24,9.8-43.57,15.74-66.9,16.84-16.89.79-33.96,1.32-50.75-.19-30.47-2.73-60.36-9.09-89.51-18.59-.3-.1-.55-.33-1.08-.65Z"/>
        <path class="cls-1" d="m153.47,766.58c-47.06-16.57-91.24-36.46-126.31-72.22-11.14-11.36-20.19-24.2-25.76-39.24-.79-2.14-1.44-4.51-1.39-6.75.49-18.6.63-37.23,1.88-55.78,2.39-35.52,11.33-69.66,24.21-102.72,5.61-14.4,12.59-28.27,19.4-43.39,9.7,11.74,21.63,18.45,34,24.41,21.67,10.43,44.57,17.35,67.91,22.78,15.1,3.52,30.4,6.16,45.6,9.24.94.19,1.81.72,2.8,1.13-26.13,85.41-40.99,172.47-42.33,262.54Z"/>
        <path class="cls-1" d="m388.66,244.95c22.41,5.56,36.87,21.41,49.97,38.85,18.22,24.24,31.46,51.23,43.24,79.02,13.59,32.06,24.31,65.08,34.18,99.39-87.09,7.69-173.8,7.6-261.26.26,4.02-12.95,7.86-25.8,11.99-38.57,12.61-39.04,27.4-77.18,48-112.81,11.17-19.31,23.46-37.86,40.81-52.37,9.57-8,20.08-14.04,33.16-13.7,0,0-.1-.07-.1-.07Z"/>
        <path class="cls-1" d="m2247.11,745.32h-75.05c1.88-10.6,3.69-20.95,5.54-31.29,3.84-21.44,7.7-42.88,11.54-64.33,4.19-23.39,8.36-46.79,12.54-70.18,4.15-23.23,8.31-46.47,12.45-69.7,4.14-23.23,8.24-46.47,12.38-69.71,4.2-23.56,8.43-47.11,12.63-70.67,4.12-23.07,8.23-46.14,12.36-69.21,1.86-10.4,3.81-20.78,5.58-31.19.39-2.28.49-4.12,3.64-4.11,23.97.09,47.94.05,72.22.05-28.64,160.3-57.23,320.27-85.83,480.34Z"/>
        <path class="cls-1" d="m2020.73,745.34h-71.57c1.5-8.79,2.93-17.36,4.43-25.91,4.2-23.9,8.44-47.8,12.64-71.7,4.12-23.42,8.19-46.84,12.31-70.25,4.21-23.9,8.48-47.79,12.67-71.69,4.05-23.09,8-46.2,12.16-69.27.21-1.17,2.02-2.92,3.1-2.92,22.78-.17,45.56-.13,69.09-.13-2.22,10.17-4.31,19.74-6.68,30.56,4.29-4.18,7.64-7.64,11.2-10.89,17.4-15.92,37.7-24.66,61.52-23.2,18.72,1.15,37.18,4.04,53.69,13.97,1.97,1.19,3.9,2.64,5.38,4.37.87,1.02,1.55,3.14,1.08,4.23-8.51,19.46-17.2,38.84-26.1,58.77-7.09-11.41-16.95-18.58-29.35-21.38-29.29-6.61-49.36.12-68.58,24.28-17.05,21.44-26.15,46.44-30.55,73.32-3.76,22.98-7.85,45.91-11.68,68.88-3.83,22.98-7.51,45.98-11.29,68.96-1.07,6.51-2.25,13.01-3.47,20Z"/>
        <path class="cls-1" d="m65.82,413.38c76.36-105.09,177.77-161.2,306.09-168.3-28.8,7.7-49.99,26.45-69.17,47.94-33.32,37.33-55.99,81.1-75.8,126.53-4.74,10.88-9.09,21.95-13.17,33.1-1.47,4.02-3.71,4.81-7.34,4.13-19.47-3.64-38.99-7.04-58.41-10.97-20.57-4.16-40.72-9.95-59.67-19.11-7.53-3.64-14.46-8.5-22.54-13.32Z"/>
        <path class="cls-1" d="m1904.38,745.36h-71.71c9.22-52.07,18.42-103.84,27.54-155.62,9.13-51.86,18.16-103.74,27.29-155.93h71.7c-18.29,103.94-36.55,207.73-54.81,311.56Z"/>
        <path class="cls-1" d="m8.16,708.68c17.14,31.44,43.36,53.5,73.05,72.04,21.84,13.64,45.2,24.13,69.26,33.13,3.25,1.21,4.28,2.72,4.53,6.3,3.04,42.76,9.8,84.71,29.06,123.65,3.81,7.69,8.67,14.86,12.83,21.9-20.63-3.71-93.44-67.26-122.83-107.82-32.63-45.03-55.01-94.61-65.9-149.2Z"/>
        <path class="cls-1" d="m762.08,710.97c-8.25,40.03-22.83,77.43-43.3,112.49-35.44,60.72-83.95,108.31-145.76,142.5,2.13-3.11,4.38-6.15,6.37-9.35,14.49-23.32,23.16-48.95,28.05-75.69,3.75-20.45,5.66-41.25,8.16-61.92.35-2.91,1.78-3.75,4.09-4.73,13.99-5.91,28.17-11.44,41.79-18.11,30.62-15,59.06-33.26,81.49-59.48,6.83-7.98,12.58-16.87,19.1-25.72Z"/>
        <path class="cls-1" d="m1904.88,308.95c.47-21.44,15.94-41.92,36.17-46.4,23.4-5.18,40.55,12.7,38.48,33.33-1.78,17.75-9.45,31.38-25.31,39.45-21.86,11.13-43.11,1.57-48.31-18.55-.65-2.53-.7-5.22-1.03-7.84Z"/>
      </g>
    </g>
  </g>
</svg>