<?xml version="1.0" encoding="UTF-8" standalone="no"?>
<!DOCTYPE svg PUBLIC "-//W3C//DTD SVG 1.1//EN" "http://www.w3.org/Graphics/SVG/1.1/DTD/svg11.dtd">
<svg width="100%" height="100%" viewBox="0 0 122 22" version="1.1" xmlns="http://www.w3.org/2000/svg" xmlns:xlink="http://www.w3.org/1999/xlink" xml:space="preserve" xmlns:serif="http://www.serif.com/" style="fill-rule:evenodd;clip-rule:evenodd;stroke-linejoin:round;stroke-miterlimit:2;">
    <rect x="3.227" y="6.105" width="3.227" height="14.723" style="fill-rule:nonzero;"/>
    <rect x="0" y="2.878" width="3.227" height="3.227" style="fill-rule:nonzero;"/>
    <path d="M15.324,21.17C19.438,21.17 22.352,18.656 22.352,13.685C22.352,8.715 19.438,6.201 15.324,6.201C11.21,6.201 8.296,8.715 8.296,13.685C8.296,18.656 11.21,21.17 15.324,21.17ZM15.324,18.428C13.21,18.428 11.839,16.857 11.839,13.685C11.839,10.514 13.21,8.943 15.324,8.943C17.438,8.943 18.81,10.514 18.81,13.685C18.81,16.857 17.438,18.428 15.324,18.428Z" style="fill-rule:nonzero;"/>
    <path d="M42.886,15.771C42.886,19.456 44.771,21.17 47.542,21.17C49.599,21.17 51.228,20.228 52.056,18.428L52.056,20.828L55.37,20.828L55.37,6.543L51.942,6.543L51.942,14.857C51.942,17.171 50.771,18.342 48.999,18.342C47.285,18.342 46.314,17.371 46.314,15.285L46.314,6.543L42.886,6.543L42.886,15.771Z" style="fill-rule:nonzero;"/>
    <path d="M61.216,0.83L57.788,0.83L57.788,4.029L61.216,4.029L61.216,0.83ZM61.216,6.543L57.788,6.543L57.788,20.828L61.216,20.828L61.216,6.543Z" style="fill-rule:nonzero;"/>
    <rect x="63.676" y="0.83" width="3.428" height="19.998" style="fill-rule:nonzero;"/>
    <path d="M79.734,20.828L83.048,20.828L83.048,0.83L79.62,0.83L79.62,9.143C78.62,7.2 76.877,6.201 74.763,6.201C71.392,6.201 68.964,8.743 68.964,13.685C68.964,18.628 71.392,21.17 74.763,21.17C76.963,21.17 78.734,20.085 79.734,17.999L79.734,20.828ZM76.077,8.943C78.248,8.943 79.62,10.514 79.62,13.685C79.62,16.857 78.248,18.428 76.077,18.428C73.878,18.428 72.506,16.857 72.506,13.685C72.506,10.514 73.878,8.943 76.077,8.943Z" style="fill-rule:nonzero;"/>
    <path d="M98.379,16.485L94.865,16.485C94.58,17.656 93.665,18.514 91.866,18.514C89.78,18.514 88.352,17.228 88.238,14.628L98.608,14.628C98.636,14.314 98.636,14.028 98.636,13.685C98.636,8.715 95.751,6.201 91.866,6.201C87.781,6.201 84.838,8.686 84.838,13.685C84.838,18.685 87.781,21.17 91.866,21.17C95.408,21.17 97.979,19.371 98.379,16.485ZM91.866,8.857C93.694,8.857 94.98,9.972 95.208,12.228L88.295,12.228C88.552,9.972 89.923,8.857 91.866,8.857Z" style="fill-rule:nonzero;"/>
    <path d="M107.735,9.543C108.249,9.543 108.62,9.6 108.935,9.686L108.935,6.543C108.62,6.458 108.278,6.4 107.82,6.4C105.821,6.4 104.278,7.486 103.592,9.857L103.592,6.543L100.45,6.543L100.45,20.828L103.878,20.828L103.878,13.514C103.878,10.8 105.421,9.543 107.735,9.543Z" style="fill-rule:nonzero;"/>
    <path d="M109.649,10.514C109.649,16.285 118.105,13.857 118.105,16.857C118.105,17.914 117.077,18.571 115.534,18.571C113.706,18.571 112.62,17.742 112.506,16.485L109.22,16.485C109.277,19.313 111.706,21.17 115.534,21.17C118.962,21.17 121.333,19.628 121.333,16.685C121.333,10.943 112.906,13.314 112.906,10.343C112.906,9.4 113.82,8.8 115.163,8.8C116.762,8.8 117.705,9.514 117.791,10.657L121.076,10.657C121.048,8.029 118.934,6.201 115.163,6.201C111.849,6.201 109.649,7.772 109.649,10.514Z" style="fill-rule:nonzero;"/>
    <path d="M24.606,0.861L24.606,20.828L40.942,20.828L40.942,9.533L37.715,9.533L37.715,4.289L34.488,4.289L34.488,0.861L24.606,0.861ZM34.488,4.289L34.488,9.533L27.832,9.533L27.832,4.289L34.488,4.289ZM37.715,12.962L27.832,12.962L27.832,17.601L37.715,17.601L37.715,12.962Z"/>
</svg>
